<svg version="1.1" xmlns="http://www.w3.org/2000/svg" xmlns:xlink="http://www.w3.org/1999/xlink" stroke-linecap="round" stroke-linejoin="round" stroke-width="0" fill-rule="evenodd" clip-rule="evenodd" id="sYpxHsf32DwA_bottom" viewBox="71120 -106680 60960 35560" width="60.96mm" height="35.56mm"><defs><style>.sYpxHsf32DwA_fr4 {color: #666666;}
.sYpxHsf32DwA_cu {color: #cccccc;}
.sYpxHsf32DwA_cf {color: #cc9933;}
.sYpxHsf32DwA_sm {color: #ff0000; opacity: 0.75;}
.sYpxHsf32DwA_ss {color: #ffffff;}
.sYpxHsf32DwA_sp {color: #999999;}
.sYpxHsf32DwA_out {color: #000000;}</style><rect x="-2095.5" y="-889" width="4191" height="1778" id="i4eFMZ-15bBg_pad-11"/><rect x="-2095.5" y="-1333.5" width="4191" height="2667" id="i4eFMZ-15bBg_pad-12"/><circle cx="0" cy="0" r="1500" id="i4eFMZ-15bBg_pad-13"/><rect x="-800" y="-1200" width="1600" height="2400" rx="800" ry="800" id="i4eFMZ-15bBg_pad-14"/><rect x="-800" y="-1200" width="1600" height="2400" id="i4eFMZ-15bBg_pad-15"/><circle cx="0" cy="0" r="720" id="i4eFMZ-15bBg_pad-16"/><rect x="-870" y="-1100" width="1740" height="2200" rx="870" ry="870" id="i4eFMZ-15bBg_pad-17"/><circle cx="0" cy="0" r="400" id="i4eFMZ-15bBg_pad-18"/><rect x="-2095.5" y="-889" width="4191" height="1778" id="hYnnG_ilpYZS_pad-11"/><rect x="-2095.5" y="-1333.5" width="4191" height="2667" id="hYnnG_ilpYZS_pad-12"/><circle cx="0" cy="0" r="1600" id="hYnnG_ilpYZS_pad-13"/><circle cx="0" cy="0" r="1500" id="hYnnG_ilpYZS_pad-14"/><rect x="-800" y="-1200" width="1600" height="2400" rx="800" ry="800" id="hYnnG_ilpYZS_pad-15"/><rect x="-800" y="-1200" width="1600" height="2400" id="hYnnG_ilpYZS_pad-16"/><circle cx="0" cy="0" r="720" id="hYnnG_ilpYZS_pad-17"/><rect x="-870" y="-1100" width="1740" height="2200" rx="870" ry="870" id="hYnnG_ilpYZS_pad-18"/><circle cx="0" cy="0" r="63" id="yO0u-5urkw3t_pad-1"/><circle cx="0" cy="0" r="7.85" id="vRYEP5iQeK4k_pad-1"/><circle cx="0" cy="0" r="15.75" id="vRYEP5iQeK4k_pad-2"/><circle cx="0" cy="0" r="23.6" id="vRYEP5iQeK4k_pad-3"/><circle cx="0" cy="0" r="29.55" id="vRYEP5iQeK4k_pad-4"/><g id="sYpxHsf32DwA_bottom_copper"><path d="M 127000 -71120 76200 -71120 M 132080 -101600 132080 -76200 M 76200 -106680 127000 -106680 M 71120 -76200 71120 -101600 M 132080 -101600 A 5080 5080 0 0 0 127000 -106680 M 76200 -106680 A 5080 5080 0 0 0 71120 -101600 M 71120 -76200 A 5080 5080 0 0 0 76200 -71120 M 127000 -71120 A 5080 5080 0 0 0 132080 -76200" fill="none" stroke-width="50"/><use xlink:href="#i4eFMZ-15bBg_pad-11" x="73215.5" y="-88900"/><use xlink:href="#i4eFMZ-15bBg_pad-12" x="73215.5" y="-92392.5"/><use xlink:href="#i4eFMZ-15bBg_pad-12" x="73215.5" y="-85407.5"/><use xlink:href="#i4eFMZ-15bBg_pad-11" x="129984.5" y="-88900"/><use xlink:href="#i4eFMZ-15bBg_pad-12" x="129984.5" y="-85407.5"/><use xlink:href="#i4eFMZ-15bBg_pad-12" x="129984.5" y="-92392.5"/><use xlink:href="#i4eFMZ-15bBg_pad-13" x="104140" y="-101600"/><use xlink:href="#i4eFMZ-15bBg_pad-13" x="99060" y="-101600"/><use xlink:href="#i4eFMZ-15bBg_pad-13" x="93980" y="-101600"/><use xlink:href="#i4eFMZ-15bBg_pad-13" x="88900" y="-101600"/><use xlink:href="#i4eFMZ-15bBg_pad-13" x="83820" y="-101600"/><use xlink:href="#i4eFMZ-15bBg_pad-14" x="104140" y="-91440"/><use xlink:href="#i4eFMZ-15bBg_pad-14" x="96520" y="-83820"/><use xlink:href="#i4eFMZ-15bBg_pad-14" x="101600" y="-91440"/><use xlink:href="#i4eFMZ-15bBg_pad-14" x="99060" y="-83820"/><use xlink:href="#i4eFMZ-15bBg_pad-14" x="99060" y="-91440"/><use xlink:href="#i4eFMZ-15bBg_pad-14" x="101600" y="-83820"/><use xlink:href="#i4eFMZ-15bBg_pad-14" x="96520" y="-91440"/><use xlink:href="#i4eFMZ-15bBg_pad-15" x="104140" y="-83820"/><use xlink:href="#i4eFMZ-15bBg_pad-16" x="111760" y="-91440"/><use xlink:href="#i4eFMZ-15bBg_pad-16" x="114300" y="-91440"/><use xlink:href="#i4eFMZ-15bBg_pad-16" x="116840" y="-91440"/><use xlink:href="#i4eFMZ-15bBg_pad-17" x="104140" y="-76200"/><use xlink:href="#i4eFMZ-15bBg_pad-17" x="101600" y="-76200"/><path d="M 98190 -77050.001 98190 -75349.999 A 249.999 249.999 0 0 0 98439.999 -75100 L 99680.001 -75100 A 249.999 249.999 0 0 0 99930 -75349.999 L 99930 -77050.001 A 249.999 249.999 0 0 0 99680.001 -77300 L 98439.999 -77300 A 249.999 249.999 0 0 0 98190 -77050.001"/><use xlink:href="#i4eFMZ-15bBg_pad-18" x="92710" y="-83820"/><use xlink:href="#i4eFMZ-15bBg_pad-18" x="92710" y="-97790"/><path d="M 129984.5 -88900 115570 -88900 114300 -90170 114300 -91440 M 99060 -91440 99060 -93980 96520 -96520 91440 -96520 88900 -99060 88900 -101600 M 99060 -86360 96520 -88900 M 99060 -83820 99060 -86360 M 83820 -101600 83820 -88900 73215.5 -88900 M 96520 -88900 83820 -88900 M 104140 -101600 104140 -97790 M 101600 -95250 101600 -91440 M 104140 -97790 101600 -95250 M 96520 -83820 92710 -83820 M 92710 -97790 97790 -97790 99060 -99060 99060 -101600" fill="none" stroke-width="762"/><path d="M 127782.249 -71852.437 128539.774 -72059.672 129248.625 -72397.777 129886.404 -72856.067 130432.946 -73420.055 130870.977 -74071.913 131186.651 -74791.038 131371.206 -75559.768 131420.001 -76224.221 131420.001 -83437.048 130270.25 -83439 130111.5 -83597.75 130111.5 -85280.5 130131.5 -85280.5 130131.5 -85534.5 130111.5 -85534.5 130111.5 -85554.5 129857.5 -85554.5 129857.5 -85534.5 127412.75 -85534.5 127254 -85693.25 127250.928 -86741 127263.188 -86865.482 127299.498 -86985.18 127358.463 -87095.494 127437.815 -87192.185 127534.506 -87271.537 127644.82 -87330.502 127764.518 -87366.812 127857.808 -87376 127764.518 -87385.188 127644.82 -87421.498 127534.506 -87480.463 127437.815 -87559.815 127358.463 -87656.506 127299.498 -87766.82 127263.952 -87884 115619.893 -87884 115569.999 -87879.086 115520.105 -87884 115520.098 -87884 115370.829 -87898.702 115179.313 -87956.798 115002.81 -88051.14 114848.104 -88178.104 114816.293 -88216.866 113616.872 -89416.288 113578.104 -89448.104 113451.14 -89602.81 113356.798 -89779.314 113315.335 -89916 113298.702 -89970.83 113279.085 -90170 113284 -90219.902 113284 -90539.741 113247.503 -90576.238 113099.215 -90798.167 113030 -90965.266 112960.785 -90798.167 112812.497 -90576.238 112623.762 -90387.503 112401.833 -90239.215 112155.239 -90137.072 111893.456 -90085 111626.544 -90085 111364.761 -90137.072 111118.167 -90239.215 110896.238 -90387.503 110707.503 -90576.238 110559.215 -90798.167 110457.072 -91044.761 110405 -91306.544 110405 -91573.456 110457.072 -91835.239 110559.215 -92081.833 110707.503 -92303.762 110896.238 -92492.497 111118.167 -92640.785 111364.761 -92742.928 111626.544 -92795 111893.456 -92795 112155.239 -92742.928 112401.833 -92640.785 112623.762 -92492.497 112812.497 -92303.762 112960.785 -92081.833 113030 -91914.734 113099.215 -92081.833 113247.503 -92303.762 113436.238 -92492.497 113658.167 -92640.785 113904.761 -92742.928 114166.544 -92795 114433.456 -92795 114695.239 -92742.928 114941.833 -92640.785 115163.762 -92492.497 115352.497 -92303.762 115500.785 -92081.833 115570 -91914.734 115639.215 -92081.833 115787.503 -92303.762 115976.238 -92492.497 116198.167 -92640.785 116444.761 -92742.928 116706.544 -92795 116973.456 -92795 117235.239 -92742.928 117481.833 -92640.785 117703.762 -92492.497 117892.497 -92303.762 118040.785 -92081.833 118142.928 -91835.239 118195 -91573.456 118195 -91306.544 118142.928 -91044.761 118040.785 -90798.167 117892.497 -90576.238 117703.762 -90387.503 117481.833 -90239.215 117235.239 -90137.072 116973.456 -90085 116706.544 -90085 116444.761 -90137.072 116198.167 -90239.215 115976.238 -90387.503 115787.503 -90576.238 115639.215 -90798.167 115570 -90965.266 115500.785 -90798.167 115352.497 -90576.238 115341.55 -90565.291 115990.841 -89916 127263.952 -89916 127299.498 -90033.18 127358.463 -90143.494 127437.815 -90240.185 127534.506 -90319.537 127644.82 -90378.502 127764.518 -90414.812 127857.808 -90424 127764.518 -90433.188 127644.82 -90469.498 127534.506 -90528.463 127437.815 -90607.815 127358.463 -90704.506 127299.498 -90814.82 127263.188 -90934.518 127250.928 -91059 127254 -92106.75 127412.75 -92265.5 129857.5 -92265.5 129857.5 -92245.5 130111.5 -92245.5 130111.5 -92265.5 130131.5 -92265.5 130131.5 -92519.5 130111.5 -92519.5 130111.5 -94202.25 130270.25 -94361 131420 -94362.952 131420 -101570.608 131347.563 -102382.249 131140.328 -103139.774 130802.221 -103848.627 130343.928 -104486.41 129779.945 -105032.946 129128.085 -105470.978 128408.963 -105786.651 127640.232 -105971.206 126975.792 -106020 76229.392 -106020 75417.751 -105947.563 74660.226 -105740.328 73951.373 -105402.221 73313.59 -104943.928 72767.054 -104379.945 72329.022 -103728.085 72013.349 -103008.963 71828.794 -102240.232 71780 -101575.792 71780 -101379.872 73965 -101379.872 73965 -101820.128 74050.89 -102251.925 74219.369 -102658.669 74463.962 -103024.729 74775.271 -103336.038 75141.331 -103580.631 75548.075 -103749.11 75979.872 -103835 76420.128 -103835 76851.925 -103749.11 77258.669 -103580.631 77624.729 -103336.038 77936.038 -103024.729 78180.631 -102658.669 78349.11 -102251.925 78435 -101820.128 78435 -101379.872 78349.11 -100948.075 78180.631 -100541.331 77936.038 -100175.271 77624.729 -99863.962 77258.669 -99619.369 76851.925 -99450.89 76420.128 -99365 75979.872 -99365 75548.075 -99450.89 75141.331 -99619.369 74775.271 -99863.962 74463.962 -100175.271 74219.369 -100541.331 74050.89 -100948.075 73965 -101379.872 71780 -101379.872 71780 -94362.952 72929.75 -94361 73088.5 -94202.25 73088.5 -92519.5 73342.5 -92519.5 73342.5 -94202.25 73501.25 -94361 75311 -94364.072 75435.482 -94351.812 75555.18 -94315.502 75665.494 -94256.537 75762.185 -94177.185 75841.537 -94080.494 75900.502 -93970.18 75936.812 -93850.482 75949.072 -93726 75946 -92678.25 75787.25 -92519.5 73342.5 -92519.5 73088.5 -92519.5 73068.5 -92519.5 73068.5 -92265.5 73088.5 -92265.5 73088.5 -92245.5 73342.5 -92245.5 73342.5 -92265.5 75787.25 -92265.5 75946 -92106.75 75949.072 -91059 75936.812 -90934.518 75900.502 -90814.82 75841.537 -90704.506 75762.185 -90607.815 75665.494 -90528.463 75555.18 -90469.498 75435.482 -90433.188 75342.192 -90424 75435.482 -90414.812 75555.18 -90378.502 75665.494 -90319.537 75762.185 -90240.185 75841.537 -90143.494 75900.502 -90033.18 75936.048 -89916 82804.001 -89916 82804 -99711.127 82459.017 -99941.637 82161.637 -100239.017 81927.988 -100588.698 81767.047 -100977.244 81685 -101389.721 81685 -101810.279 81767.047 -102222.756 81927.988 -102611.302 82161.637 -102960.983 82459.017 -103258.363 82808.698 -103492.012 83197.244 -103652.953 83609.721 -103735 84030.279 -103735 84442.756 -103652.953 84831.302 -103492.012 85180.983 -103258.363 85478.363 -102960.983 85712.012 -102611.302 85872.953 -102222.756 85955 -101810.279 85955 -101389.721 85872.953 -100977.244 85712.012 -100588.698 85478.363 -100239.017 85180.983 -99941.637 84836 -99711.127 84836 -89916 95627.595 -89916 95500.393 -90020.392 95321.068 -90238.899 95187.818 -90488.192 95105.764 -90758.691 95085 -90969.508 95085 -91910.491 95105.764 -92121.308 95187.818 -92391.807 95321.068 -92641.1 95500.392 -92859.607 95718.899 -93038.932 95968.192 -93172.182 96238.691 -93254.236 96520 -93281.943 96801.308 -93254.236 97071.807 -93172.182 97321.1 -93038.932 97539.607 -92859.608 97718.932 -92641.101 97790 -92508.142 97861.068 -92641.1 98040.392 -92859.607 98044.001 -92862.568 98044.001 -93559.158 96099.16 -95504 91489.893 -95504 91439.999 -95499.086 91390.105 -95504 91390.098 -95504 91260.177 -95516.796 91240.828 -95518.702 91182.732 -95536.326 91049.313 -95576.798 90872.81 -95671.14 90718.104 -95798.104 90686.293 -95836.866 88216.872 -98306.288 88178.104 -98338.104 88051.14 -98492.81 87956.798 -98669.314 87915.335 -98806 87898.702 -98860.83 87879.085 -99060 87884 -99109.902 87884 -99711.127 87539.017 -99941.637 87241.637 -100239.017 87007.988 -100588.698 86847.047 -100977.244 86765 -101389.721 86765 -101810.279 86847.047 -102222.756 87007.988 -102611.302 87241.637 -102960.983 87539.017 -103258.363 87888.698 -103492.012 88277.244 -103652.953 88689.721 -103735 89110.279 -103735 89522.756 -103652.953 89911.302 -103492.012 90260.983 -103258.363 90427.693 -103091.653 92667.952 -103091.653 92823.962 -103407.214 93198.745 -103598.02 93603.551 -103712.044 94022.824 -103744.902 94440.451 -103695.334 94840.383 -103565.243 95136.038 -103407.214 95292.048 -103091.653 93980 -101779.605 92667.952 -103091.653 90427.693 -103091.653 90558.363 -102960.983 90792.012 -102611.302 90952.953 -102222.756 91035 -101810.279 91035 -101642.824 91835.098 -101642.824 91884.666 -102060.451 92014.757 -102460.383 92172.786 -102756.038 92488.347 -102912.048 93800.395 -101600 94159.605 -101600 95471.653 -102912.048 95787.214 -102756.038 95978.02 -102381.255 96092.044 -101976.449 96124.902 -101557.176 96075.334 -101139.549 95945.243 -100739.617 95787.214 -100443.962 95471.653 -100287.952 94159.605 -101600 93800.395 -101600 92488.347 -100287.952 92172.786 -100443.962 91981.98 -100818.745 91867.956 -101223.551 91835.098 -101642.824 91035 -101642.824 91035 -101389.721 90952.953 -100977.244 90792.012 -100588.698 90558.363 -100239.017 90427.693 -100108.347 92667.952 -100108.347 93980 -101420.395 95292.048 -100108.347 95136.038 -99792.786 94761.255 -99601.98 94356.449 -99487.956 93937.176 -99455.098 93519.549 -99504.666 93119.617 -99634.757 92823.962 -99792.786 92667.952 -100108.347 90427.693 -100108.347 90260.983 -99941.637 89916 -99711.127 89916 -99480.84 91675 -97721.841 91675 -97891.939 91714.774 -98091.898 91792.795 -98280.256 91906.063 -98449.774 92050.226 -98593.937 92219.744 -98707.205 92408.102 -98785.226 92608.061 -98825 92811.939 -98825 92907.459 -98806 97369.16 -98806 98044 -99480.841 98044 -99711.127 97699.017 -99941.637 97401.637 -100239.017 97167.988 -100588.698 97007.047 -100977.244 96925 -101389.721 96925 -101810.279 97007.047 -102222.756 97167.988 -102611.302 97401.637 -102960.983 97699.017 -103258.363 98048.698 -103492.012 98437.244 -103652.953 98849.721 -103735 99270.279 -103735 99682.756 -103652.953 100071.302 -103492.012 100420.983 -103258.363 100718.363 -102960.983 100952.012 -102611.302 101112.953 -102222.756 101195 -101810.279 101195 -101389.721 101112.953 -100977.244 100952.012 -100588.698 100718.363 -100239.017 100420.983 -99941.637 100076 -99711.127 100076 -99109.893 100080.914 -99059.999 100076 -99010.105 100076 -99010.098 100061.298 -98860.829 100003.202 -98669.313 99908.86 -98492.81 99781.896 -98338.104 99743.133 -98306.292 98543.712 -97106.872 98511.896 -97068.104 98357.19 -96941.14 98180.687 -96846.798 97989.171 -96788.702 97839.902 -96774 97790 -96769.085 97740.098 -96774 97702.84 -96774 99743.133 -94733.708 99781.896 -94701.896 99908.86 -94547.19 100003.202 -94370.687 100061.298 -94179.171 100076 -94029.902 100076 -94029.895 100080.914 -93980.001 100076 -93930.107 100076 -92862.568 100079.607 -92859.608 100258.932 -92641.101 100330 -92508.142 100401.068 -92641.1 100580.392 -92859.607 100584.001 -92862.569 100584 -95200.098 100579.085 -95250 100584 -95299.901 100598.702 -95449.17 100656.798 -95640.686 100751.14 -95817.19 100878.104 -95971.896 100916.872 -96003.712 103124.001 -98210.842 103124 -99711.127 102779.017 -99941.637 102481.637 -100239.017 102247.988 -100588.698 102087.047 -100977.244 102005 -101389.721 102005 -101810.279 102087.047 -102222.756 102247.988 -102611.302 102481.637 -102960.983 102779.017 -103258.363 103128.698 -103492.012 103517.244 -103652.953 103929.721 -103735 104350.279 -103735 104762.756 -103652.953 105151.302 -103492.012 105500.983 -103258.363 105798.363 -102960.983 106032.012 -102611.302 106192.953 -102222.756 106275 -101810.279 106275 -101389.721 106273.041 -101379.872 124765 -101379.872 124765 -101820.128 124850.89 -102251.925 125019.369 -102658.669 125263.962 -103024.729 125575.271 -103336.038 125941.331 -103580.631 126348.075 -103749.11 126779.872 -103835 127220.128 -103835 127651.925 -103749.11 128058.669 -103580.631 128424.729 -103336.038 128736.038 -103024.729 128980.631 -102658.669 129149.11 -102251.925 129235 -101820.128 129235 -101379.872 129149.11 -100948.075 128980.631 -100541.331 128736.038 -100175.271 128424.729 -99863.962 128058.669 -99619.369 127651.925 -99450.89 127220.128 -99365 126779.872 -99365 126348.075 -99450.89 125941.331 -99619.369 125575.271 -99863.962 125263.962 -100175.271 125019.369 -100541.331 124850.89 -100948.075 124765 -101379.872 106273.041 -101379.872 106192.953 -100977.244 106032.012 -100588.698 105798.363 -100239.017 105500.983 -99941.637 105156 -99711.127 105156 -97839.893 105160.914 -97789.999 105156 -97740.105 105156 -97740.098 105141.298 -97590.829 105083.202 -97399.313 104988.86 -97222.81 104861.896 -97068.104 104823.133 -97036.292 102616 -94829.16 102616 -93726 127250.928 -93726 127263.188 -93850.482 127299.498 -93970.18 127358.463 -94080.494 127437.815 -94177.185 127534.506 -94256.537 127644.82 -94315.502 127764.518 -94351.812 127889 -94364.072 129698.75 -94361 129857.5 -94202.25 129857.5 -92519.5 127412.75 -92519.5 127254 -92678.25 127250.928 -93726 102616 -93726 102616 -92862.568 102619.607 -92859.608 102798.932 -92641.101 102870 -92508.142 102941.068 -92641.1 103120.392 -92859.607 103338.899 -93038.932 103588.192 -93172.182 103858.691 -93254.236 104140 -93281.943 104421.308 -93254.236 104691.807 -93172.182 104941.1 -93038.932 105159.607 -92859.608 105338.932 -92641.101 105472.182 -92391.808 105554.236 -92121.309 105575 -91910.492 105575 -90969.509 105554.236 -90758.691 105472.182 -90488.192 105338.932 -90238.899 105159.608 -90020.392 104941.101 -89841.068 104691.808 -89707.818 104421.309 -89625.764 104140 -89598.057 103858.692 -89625.764 103588.193 -89707.818 103338.9 -89841.068 103120.393 -90020.392 102941.068 -90238.899 102870 -90371.858 102798.932 -90238.899 102619.608 -90020.392 102401.101 -89841.068 102151.808 -89707.818 101881.309 -89625.764 101600 -89598.057 101318.692 -89625.764 101048.193 -89707.818 100798.9 -89841.068 100580.393 -90020.392 100401.068 -90238.899 100330 -90371.858 100258.932 -90238.899 100079.608 -90020.392 99861.101 -89841.068 99611.808 -89707.818 99341.309 -89625.764 99060 -89598.057 98778.692 -89625.764 98508.193 -89707.818 98258.9 -89841.068 98040.393 -90020.392 97861.068 -90238.899 97790 -90371.858 97718.932 -90238.899 97539.608 -90020.392 97321.101 -89841.068 97111.408 -89728.985 97241.896 -89621.896 97273.712 -89583.128 99743.133 -87113.708 99781.896 -87081.896 99908.86 -86927.19 100003.202 -86750.687 100061.298 -86559.171 100076 -86409.902 100076 -86409.895 100080.914 -86360.001 100076 -86310.107 100076 -85242.568 100079.607 -85239.608 100258.932 -85021.101 100330 -84888.142 100401.068 -85021.1 100580.392 -85239.607 100798.899 -85418.932 101048.192 -85552.182 101318.691 -85634.236 101600 -85661.943 101881.308 -85634.236 102151.807 -85552.182 102401.1 -85418.932 102619.607 -85239.608 102712.419 -85126.517 102714.188 -85144.482 102750.498 -85264.18 102809.463 -85374.494 102888.815 -85471.185 102985.506 -85550.537 103095.82 -85609.502 103215.518 -85645.812 103340 -85658.072 104940 -85658.072 105064.482 -85645.812 105184.18 -85609.502 105294.494 -85550.537 105391.185 -85471.185 105470.537 -85374.494 105529.502 -85264.18 105565.812 -85144.482 105578.072 -85020 105578.072 -84074 127250.928 -84074 127254 -85121.75 127412.75 -85280.5 129857.5 -85280.5 129857.5 -83597.75 129698.75 -83439 127889 -83435.928 127764.518 -83448.188 127644.82 -83484.498 127534.506 -83543.463 127437.815 -83622.815 127358.463 -83719.506 127299.498 -83829.82 127263.188 -83949.518 127250.928 -84074 105578.072 -84074 105578.072 -82620 105565.812 -82495.518 105529.502 -82375.82 105470.537 -82265.506 105391.185 -82168.815 105294.494 -82089.463 105184.18 -82030.498 105064.482 -81994.188 104940 -81981.928 103340 -81981.928 103215.518 -81994.188 103095.82 -82030.498 102985.506 -82089.463 102888.815 -82168.815 102809.463 -82265.506 102750.498 -82375.82 102714.188 -82495.518 102712.419 -82513.482 102619.608 -82400.392 102401.101 -82221.068 102151.808 -82087.818 101881.309 -82005.764 101600 -81978.057 101318.692 -82005.764 101048.193 -82087.818 100798.9 -82221.068 100580.393 -82400.392 100401.068 -82618.899 100330 -82751.858 100258.932 -82618.899 100079.608 -82400.392 99861.101 -82221.068 99611.808 -82087.818 99341.309 -82005.764 99060 -81978.057 98778.692 -82005.764 98508.193 -82087.818 98258.9 -82221.068 98040.393 -82400.392 97861.068 -82618.899 97790 -82751.858 97718.932 -82618.899 97539.608 -82400.392 97321.101 -82221.068 97071.808 -82087.818 96801.309 -82005.764 96520 -81978.057 96238.692 -82005.764 95968.193 -82087.818 95718.9 -82221.068 95500.393 -82400.392 95321.068 -82618.899 95222.129 -82804 92907.459 -82804 92811.939 -82785 92608.061 -82785 92408.102 -82824.774 92219.744 -82902.795 92050.226 -83016.063 91906.063 -83160.226 91792.795 -83329.744 91714.774 -83518.102 91675 -83718.061 91675 -83921.939 91714.774 -84121.898 91792.795 -84310.256 91906.063 -84479.774 92050.226 -84623.937 92219.744 -84737.205 92408.102 -84815.226 92608.061 -84855 92811.939 -84855 92907.459 -84836 95222.13 -84836 95321.068 -85021.1 95500.392 -85239.607 95718.899 -85418.932 95968.192 -85552.182 96238.691 -85634.236 96520 -85661.943 96801.308 -85634.236 97071.807 -85552.182 97321.1 -85418.932 97539.607 -85239.608 97718.932 -85021.101 97790 -84888.142 97861.068 -85021.1 98040.392 -85239.607 98044.001 -85242.568 98044.001 -85939.158 96099.16 -87884 83869.902 -87884 83820 -87879.085 83770.098 -87884 75936.048 -87884 75900.502 -87766.82 75841.537 -87656.506 75762.185 -87559.815 75665.494 -87480.463 75555.18 -87421.498 75435.482 -87385.188 75342.192 -87376 75435.482 -87366.812 75555.18 -87330.502 75665.494 -87271.537 75762.185 -87192.185 75841.537 -87095.494 75900.502 -86985.18 75936.812 -86865.482 75949.072 -86741 75946 -85693.25 75787.25 -85534.5 73342.5 -85534.5 73342.5 -85554.5 73088.5 -85554.5 73088.5 -85534.5 73068.5 -85534.5 73068.5 -85280.5 73088.5 -85280.5 73088.5 -83597.75 73342.5 -83597.75 73342.5 -85280.5 75787.25 -85280.5 75946 -85121.75 75949.072 -84074 75936.812 -83949.518 75900.502 -83829.82 75841.537 -83719.506 75762.185 -83622.815 75665.494 -83543.463 75555.18 -83484.498 75435.482 -83448.188 75311 -83435.928 73501.25 -83439 73342.5 -83597.75 73088.5 -83597.75 72929.75 -83439 71780 -83437.048 71780 -76229.392 71802.269 -75979.872 73965 -75979.872 73965 -76420.128 74050.89 -76851.925 74219.369 -77258.669 74463.962 -77624.729 74775.271 -77936.038 75141.331 -78180.631 75548.075 -78349.11 75979.872 -78435 76420.128 -78435 76851.925 -78349.11 77258.669 -78180.631 77624.729 -77936.038 77936.038 -77624.729 78180.631 -77258.669 78349.11 -76851.925 78435 -76420.128 78435 -75979.872 78349.11 -75548.075 78267.065 -75349.999 97551.928 -75349.999 97551.928 -77050.001 97568.992 -77223.255 97619.528 -77389.851 97701.595 -77543.387 97812.038 -77677.962 97946.613 -77788.405 98100.149 -77870.472 98266.745 -77921.008 98439.999 -77938.072 99680.001 -77938.072 99853.255 -77921.008 100019.851 -77870.472 100173.387 -77788.405 100307.962 -77677.962 100418.405 -77543.387 100476.507 -77434.686 100629.506 -77590.536 100874.563 -77757.571 101147.498 -77873.588 101239.969 -77891.302 101473 -77770.246 101473 -76327 101453 -76327 101453 -76073 101473 -76073 101473 -74629.754 101727 -74629.754 101727 -76073 101747 -76073 101747 -76327 101727 -76327 101727 -77770.246 101960.031 -77891.302 102052.502 -77873.588 102325.437 -77757.571 102570.494 -77590.536 102778.256 -77378.903 102867.698 -77242.331 102882.583 -77270.179 103070.655 -77499.345 103299.822 -77687.417 103561.276 -77827.166 103844.969 -77913.224 104140 -77942.282 104435.032 -77913.224 104718.725 -77827.166 104980.179 -77687.417 105209.345 -77499.345 105397.417 -77270.179 105537.166 -77008.724 105623.224 -76725.031 105645 -76503.935 105645 -75979.872 124765 -75979.872 124765 -76420.128 124850.89 -76851.925 125019.369 -77258.669 125263.962 -77624.729 125575.271 -77936.038 125941.331 -78180.631 126348.075 -78349.11 126779.872 -78435 127220.128 -78435 127651.925 -78349.11 128058.669 -78180.631 128424.729 -77936.038 128736.038 -77624.729 128980.631 -77258.669 129149.11 -76851.925 129235 -76420.128 129235 -75979.872 129149.11 -75548.075 128980.631 -75141.331 128736.038 -74775.271 128424.729 -74463.962 128058.669 -74219.369 127651.925 -74050.89 127220.128 -73965 126779.872 -73965 126348.075 -74050.89 125941.331 -74219.369 125575.271 -74463.962 125263.962 -74775.271 125019.369 -75141.331 124850.89 -75548.075 124765 -75979.872 105645 -75979.872 105645 -75896.064 105623.224 -75674.968 105537.166 -75391.275 105397.417 -75129.821 105209.345 -74900.655 104980.178 -74712.583 104718.724 -74572.834 104435.031 -74486.776 104140 -74457.718 103844.968 -74486.776 103561.275 -74572.834 103299.821 -74712.583 103070.655 -74900.655 102882.583 -75129.822 102867.698 -75157.669 102778.256 -75021.097 102570.494 -74809.464 102325.437 -74642.429 102052.502 -74526.412 101960.031 -74508.698 101727 -74629.754 101473 -74629.754 101239.969 -74508.698 101147.498 -74526.412 100874.563 -74642.429 100629.506 -74809.464 100476.507 -74965.314 100418.405 -74856.613 100307.962 -74722.038 100173.387 -74611.595 100019.851 -74529.528 99853.255 -74478.992 99680.001 -74461.928 98439.999 -74461.928 98266.745 -74478.992 98100.149 -74529.528 97946.613 -74611.595 97812.038 -74722.038 97701.595 -74856.613 97619.528 -75010.149 97568.992 -75176.745 97551.928 -75349.999 78267.065 -75349.999 78180.631 -75141.331 77936.038 -74775.271 77624.729 -74463.962 77258.669 -74219.369 76851.925 -74050.89 76420.128 -73965 75979.872 -73965 75548.075 -74050.89 75141.331 -74219.369 74775.271 -74463.962 74463.962 -74775.271 74219.369 -75141.331 74050.89 -75548.075 73965 -75979.872 71802.269 -75979.872 71852.437 -75417.751 72059.672 -74660.226 72397.777 -73951.375 72856.067 -73313.596 73420.055 -72767.054 74071.913 -72329.023 74791.038 -72013.349 75559.768 -71828.794 76224.207 -71780 126970.608 -71780 127782.249 -71852.437" fill="none" stroke-width="254"/><path d="M 127782.249 -71852.437 128539.774 -72059.672 129248.625 -72397.777 129886.404 -72856.067 130432.946 -73420.055 130870.977 -74071.913 131186.651 -74791.038 131371.206 -75559.768 131420.001 -76224.221 131420.001 -83437.048 130270.25 -83439 130111.5 -83597.75 130111.5 -85280.5 130131.5 -85280.5 130131.5 -85534.5 130111.5 -85534.5 130111.5 -85554.5 129857.5 -85554.5 129857.5 -85534.5 127412.75 -85534.5 127254 -85693.25 127250.928 -86741 127263.188 -86865.482 127299.498 -86985.18 127358.463 -87095.494 127437.815 -87192.185 127534.506 -87271.537 127644.82 -87330.502 127764.518 -87366.812 127857.808 -87376 127764.518 -87385.188 127644.82 -87421.498 127534.506 -87480.463 127437.815 -87559.815 127358.463 -87656.506 127299.498 -87766.82 127263.952 -87884 115619.893 -87884 115569.999 -87879.086 115520.105 -87884 115520.098 -87884 115370.829 -87898.702 115179.313 -87956.798 115002.81 -88051.14 114848.104 -88178.104 114816.293 -88216.866 113616.872 -89416.288 113578.104 -89448.104 113451.14 -89602.81 113356.798 -89779.314 113315.335 -89916 113298.702 -89970.83 113279.085 -90170 113284 -90219.902 113284 -90539.741 113247.503 -90576.238 113099.215 -90798.167 113030 -90965.266 112960.785 -90798.167 112812.497 -90576.238 112623.762 -90387.503 112401.833 -90239.215 112155.239 -90137.072 111893.456 -90085 111626.544 -90085 111364.761 -90137.072 111118.167 -90239.215 110896.238 -90387.503 110707.503 -90576.238 110559.215 -90798.167 110457.072 -91044.761 110405 -91306.544 110405 -91573.456 110457.072 -91835.239 110559.215 -92081.833 110707.503 -92303.762 110896.238 -92492.497 111118.167 -92640.785 111364.761 -92742.928 111626.544 -92795 111893.456 -92795 112155.239 -92742.928 112401.833 -92640.785 112623.762 -92492.497 112812.497 -92303.762 112960.785 -92081.833 113030 -91914.734 113099.215 -92081.833 113247.503 -92303.762 113436.238 -92492.497 113658.167 -92640.785 113904.761 -92742.928 114166.544 -92795 114433.456 -92795 114695.239 -92742.928 114941.833 -92640.785 115163.762 -92492.497 115352.497 -92303.762 115500.785 -92081.833 115570 -91914.734 115639.215 -92081.833 115787.503 -92303.762 115976.238 -92492.497 116198.167 -92640.785 116444.761 -92742.928 116706.544 -92795 116973.456 -92795 117235.239 -92742.928 117481.833 -92640.785 117703.762 -92492.497 117892.497 -92303.762 118040.785 -92081.833 118142.928 -91835.239 118195 -91573.456 118195 -91306.544 118142.928 -91044.761 118040.785 -90798.167 117892.497 -90576.238 117703.762 -90387.503 117481.833 -90239.215 117235.239 -90137.072 116973.456 -90085 116706.544 -90085 116444.761 -90137.072 116198.167 -90239.215 115976.238 -90387.503 115787.503 -90576.238 115639.215 -90798.167 115570 -90965.266 115500.785 -90798.167 115352.497 -90576.238 115341.55 -90565.291 115990.841 -89916 127263.952 -89916 127299.498 -90033.18 127358.463 -90143.494 127437.815 -90240.185 127534.506 -90319.537 127644.82 -90378.502 127764.518 -90414.812 127857.808 -90424 127764.518 -90433.188 127644.82 -90469.498 127534.506 -90528.463 127437.815 -90607.815 127358.463 -90704.506 127299.498 -90814.82 127263.188 -90934.518 127250.928 -91059 127254 -92106.75 127412.75 -92265.5 129857.5 -92265.5 129857.5 -92245.5 130111.5 -92245.5 130111.5 -92265.5 130131.5 -92265.5 130131.5 -92519.5 130111.5 -92519.5 130111.5 -94202.25 130270.25 -94361 131420 -94362.952 131420 -101570.608 131347.563 -102382.249 131140.328 -103139.774 130802.221 -103848.627 130343.928 -104486.41 129779.945 -105032.946 129128.085 -105470.978 128408.963 -105786.651 127640.232 -105971.206 126975.792 -106020 76229.392 -106020 75417.751 -105947.563 74660.226 -105740.328 73951.373 -105402.221 73313.59 -104943.928 72767.054 -104379.945 72329.022 -103728.085 72013.349 -103008.963 71828.794 -102240.232 71780 -101575.792 71780 -101379.872 73965 -101379.872 73965 -101820.128 74050.89 -102251.925 74219.369 -102658.669 74463.962 -103024.729 74775.271 -103336.038 75141.331 -103580.631 75548.075 -103749.11 75979.872 -103835 76420.128 -103835 76851.925 -103749.11 77258.669 -103580.631 77624.729 -103336.038 77936.038 -103024.729 78180.631 -102658.669 78349.11 -102251.925 78435 -101820.128 78435 -101379.872 78349.11 -100948.075 78180.631 -100541.331 77936.038 -100175.271 77624.729 -99863.962 77258.669 -99619.369 76851.925 -99450.89 76420.128 -99365 75979.872 -99365 75548.075 -99450.89 75141.331 -99619.369 74775.271 -99863.962 74463.962 -100175.271 74219.369 -100541.331 74050.89 -100948.075 73965 -101379.872 71780 -101379.872 71780 -94362.952 72929.75 -94361 73088.5 -94202.25 73088.5 -92519.5 73342.5 -92519.5 73342.5 -94202.25 73501.25 -94361 75311 -94364.072 75435.482 -94351.812 75555.18 -94315.502 75665.494 -94256.537 75762.185 -94177.185 75841.537 -94080.494 75900.502 -93970.18 75936.812 -93850.482 75949.072 -93726 75946 -92678.25 75787.25 -92519.5 73342.5 -92519.5 73088.5 -92519.5 73068.5 -92519.5 73068.5 -92265.5 73088.5 -92265.5 73088.5 -92245.5 73342.5 -92245.5 73342.5 -92265.5 75787.25 -92265.5 75946 -92106.75 75949.072 -91059 75936.812 -90934.518 75900.502 -90814.82 75841.537 -90704.506 75762.185 -90607.815 75665.494 -90528.463 75555.18 -90469.498 75435.482 -90433.188 75342.192 -90424 75435.482 -90414.812 75555.18 -90378.502 75665.494 -90319.537 75762.185 -90240.185 75841.537 -90143.494 75900.502 -90033.18 75936.048 -89916 82804.001 -89916 82804 -99711.127 82459.017 -99941.637 82161.637 -100239.017 81927.988 -100588.698 81767.047 -100977.244 81685 -101389.721 81685 -101810.279 81767.047 -102222.756 81927.988 -102611.302 82161.637 -102960.983 82459.017 -103258.363 82808.698 -103492.012 83197.244 -103652.953 83609.721 -103735 84030.279 -103735 84442.756 -103652.953 84831.302 -103492.012 85180.983 -103258.363 85478.363 -102960.983 85712.012 -102611.302 85872.953 -102222.756 85955 -101810.279 85955 -101389.721 85872.953 -100977.244 85712.012 -100588.698 85478.363 -100239.017 85180.983 -99941.637 84836 -99711.127 84836 -89916 95627.595 -89916 95500.393 -90020.392 95321.068 -90238.899 95187.818 -90488.192 95105.764 -90758.691 95085 -90969.508 95085 -91910.491 95105.764 -92121.308 95187.818 -92391.807 95321.068 -92641.1 95500.392 -92859.607 95718.899 -93038.932 95968.192 -93172.182 96238.691 -93254.236 96520 -93281.943 96801.308 -93254.236 97071.807 -93172.182 97321.1 -93038.932 97539.607 -92859.608 97718.932 -92641.101 97790 -92508.142 97861.068 -92641.1 98040.392 -92859.607 98044.001 -92862.568 98044.001 -93559.158 96099.16 -95504 91489.893 -95504 91439.999 -95499.086 91390.105 -95504 91390.098 -95504 91260.177 -95516.796 91240.828 -95518.702 91182.732 -95536.326 91049.313 -95576.798 90872.81 -95671.14 90718.104 -95798.104 90686.293 -95836.866 88216.872 -98306.288 88178.104 -98338.104 88051.14 -98492.81 87956.798 -98669.314 87915.335 -98806 87898.702 -98860.83 87879.085 -99060 87884 -99109.902 87884 -99711.127 87539.017 -99941.637 87241.637 -100239.017 87007.988 -100588.698 86847.047 -100977.244 86765 -101389.721 86765 -101810.279 86847.047 -102222.756 87007.988 -102611.302 87241.637 -102960.983 87539.017 -103258.363 87888.698 -103492.012 88277.244 -103652.953 88689.721 -103735 89110.279 -103735 89522.756 -103652.953 89911.302 -103492.012 90260.983 -103258.363 90427.693 -103091.653 92667.952 -103091.653 92823.962 -103407.214 93198.745 -103598.02 93603.551 -103712.044 94022.824 -103744.902 94440.451 -103695.334 94840.383 -103565.243 95136.038 -103407.214 95292.048 -103091.653 93980 -101779.605 92667.952 -103091.653 90427.693 -103091.653 90558.363 -102960.983 90792.012 -102611.302 90952.953 -102222.756 91035 -101810.279 91035 -101642.824 91835.098 -101642.824 91884.666 -102060.451 92014.757 -102460.383 92172.786 -102756.038 92488.347 -102912.048 93800.395 -101600 94159.605 -101600 95471.653 -102912.048 95787.214 -102756.038 95978.02 -102381.255 96092.044 -101976.449 96124.902 -101557.176 96075.334 -101139.549 95945.243 -100739.617 95787.214 -100443.962 95471.653 -100287.952 94159.605 -101600 93800.395 -101600 92488.347 -100287.952 92172.786 -100443.962 91981.98 -100818.745 91867.956 -101223.551 91835.098 -101642.824 91035 -101642.824 91035 -101389.721 90952.953 -100977.244 90792.012 -100588.698 90558.363 -100239.017 90427.693 -100108.347 92667.952 -100108.347 93980 -101420.395 95292.048 -100108.347 95136.038 -99792.786 94761.255 -99601.98 94356.449 -99487.956 93937.176 -99455.098 93519.549 -99504.666 93119.617 -99634.757 92823.962 -99792.786 92667.952 -100108.347 90427.693 -100108.347 90260.983 -99941.637 89916 -99711.127 89916 -99480.84 91675 -97721.841 91675 -97891.939 91714.774 -98091.898 91792.795 -98280.256 91906.063 -98449.774 92050.226 -98593.937 92219.744 -98707.205 92408.102 -98785.226 92608.061 -98825 92811.939 -98825 92907.459 -98806 97369.16 -98806 98044 -99480.841 98044 -99711.127 97699.017 -99941.637 97401.637 -100239.017 97167.988 -100588.698 97007.047 -100977.244 96925 -101389.721 96925 -101810.279 97007.047 -102222.756 97167.988 -102611.302 97401.637 -102960.983 97699.017 -103258.363 98048.698 -103492.012 98437.244 -103652.953 98849.721 -103735 99270.279 -103735 99682.756 -103652.953 100071.302 -103492.012 100420.983 -103258.363 100718.363 -102960.983 100952.012 -102611.302 101112.953 -102222.756 101195 -101810.279 101195 -101389.721 101112.953 -100977.244 100952.012 -100588.698 100718.363 -100239.017 100420.983 -99941.637 100076 -99711.127 100076 -99109.893 100080.914 -99059.999 100076 -99010.105 100076 -99010.098 100061.298 -98860.829 100003.202 -98669.313 99908.86 -98492.81 99781.896 -98338.104 99743.133 -98306.292 98543.712 -97106.872 98511.896 -97068.104 98357.19 -96941.14 98180.687 -96846.798 97989.171 -96788.702 97839.902 -96774 97790 -96769.085 97740.098 -96774 97702.84 -96774 99743.133 -94733.708 99781.896 -94701.896 99908.86 -94547.19 100003.202 -94370.687 100061.298 -94179.171 100076 -94029.902 100076 -94029.895 100080.914 -93980.001 100076 -93930.107 100076 -92862.568 100079.607 -92859.608 100258.932 -92641.101 100330 -92508.142 100401.068 -92641.1 100580.392 -92859.607 100584.001 -92862.569 100584 -95200.098 100579.085 -95250 100584 -95299.901 100598.702 -95449.17 100656.798 -95640.686 100751.14 -95817.19 100878.104 -95971.896 100916.872 -96003.712 103124.001 -98210.842 103124 -99711.127 102779.017 -99941.637 102481.637 -100239.017 102247.988 -100588.698 102087.047 -100977.244 102005 -101389.721 102005 -101810.279 102087.047 -102222.756 102247.988 -102611.302 102481.637 -102960.983 102779.017 -103258.363 103128.698 -103492.012 103517.244 -103652.953 103929.721 -103735 104350.279 -103735 104762.756 -103652.953 105151.302 -103492.012 105500.983 -103258.363 105798.363 -102960.983 106032.012 -102611.302 106192.953 -102222.756 106275 -101810.279 106275 -101389.721 106273.041 -101379.872 124765 -101379.872 124765 -101820.128 124850.89 -102251.925 125019.369 -102658.669 125263.962 -103024.729 125575.271 -103336.038 125941.331 -103580.631 126348.075 -103749.11 126779.872 -103835 127220.128 -103835 127651.925 -103749.11 128058.669 -103580.631 128424.729 -103336.038 128736.038 -103024.729 128980.631 -102658.669 129149.11 -102251.925 129235 -101820.128 129235 -101379.872 129149.11 -100948.075 128980.631 -100541.331 128736.038 -100175.271 128424.729 -99863.962 128058.669 -99619.369 127651.925 -99450.89 127220.128 -99365 126779.872 -99365 126348.075 -99450.89 125941.331 -99619.369 125575.271 -99863.962 125263.962 -100175.271 125019.369 -100541.331 124850.89 -100948.075 124765 -101379.872 106273.041 -101379.872 106192.953 -100977.244 106032.012 -100588.698 105798.363 -100239.017 105500.983 -99941.637 105156 -99711.127 105156 -97839.893 105160.914 -97789.999 105156 -97740.105 105156 -97740.098 105141.298 -97590.829 105083.202 -97399.313 104988.86 -97222.81 104861.896 -97068.104 104823.133 -97036.292 102616 -94829.16 102616 -93726 127250.928 -93726 127263.188 -93850.482 127299.498 -93970.18 127358.463 -94080.494 127437.815 -94177.185 127534.506 -94256.537 127644.82 -94315.502 127764.518 -94351.812 127889 -94364.072 129698.75 -94361 129857.5 -94202.25 129857.5 -92519.5 127412.75 -92519.5 127254 -92678.25 127250.928 -93726 102616 -93726 102616 -92862.568 102619.607 -92859.608 102798.932 -92641.101 102870 -92508.142 102941.068 -92641.1 103120.392 -92859.607 103338.899 -93038.932 103588.192 -93172.182 103858.691 -93254.236 104140 -93281.943 104421.308 -93254.236 104691.807 -93172.182 104941.1 -93038.932 105159.607 -92859.608 105338.932 -92641.101 105472.182 -92391.808 105554.236 -92121.309 105575 -91910.492 105575 -90969.509 105554.236 -90758.691 105472.182 -90488.192 105338.932 -90238.899 105159.608 -90020.392 104941.101 -89841.068 104691.808 -89707.818 104421.309 -89625.764 104140 -89598.057 103858.692 -89625.764 103588.193 -89707.818 103338.9 -89841.068 103120.393 -90020.392 102941.068 -90238.899 102870 -90371.858 102798.932 -90238.899 102619.608 -90020.392 102401.101 -89841.068 102151.808 -89707.818 101881.309 -89625.764 101600 -89598.057 101318.692 -89625.764 101048.193 -89707.818 100798.9 -89841.068 100580.393 -90020.392 100401.068 -90238.899 100330 -90371.858 100258.932 -90238.899 100079.608 -90020.392 99861.101 -89841.068 99611.808 -89707.818 99341.309 -89625.764 99060 -89598.057 98778.692 -89625.764 98508.193 -89707.818 98258.9 -89841.068 98040.393 -90020.392 97861.068 -90238.899 97790 -90371.858 97718.932 -90238.899 97539.608 -90020.392 97321.101 -89841.068 97111.408 -89728.985 97241.896 -89621.896 97273.712 -89583.128 99743.133 -87113.708 99781.896 -87081.896 99908.86 -86927.19 100003.202 -86750.687 100061.298 -86559.171 100076 -86409.902 100076 -86409.895 100080.914 -86360.001 100076 -86310.107 100076 -85242.568 100079.607 -85239.608 100258.932 -85021.101 100330 -84888.142 100401.068 -85021.1 100580.392 -85239.607 100798.899 -85418.932 101048.192 -85552.182 101318.691 -85634.236 101600 -85661.943 101881.308 -85634.236 102151.807 -85552.182 102401.1 -85418.932 102619.607 -85239.608 102712.419 -85126.517 102714.188 -85144.482 102750.498 -85264.18 102809.463 -85374.494 102888.815 -85471.185 102985.506 -85550.537 103095.82 -85609.502 103215.518 -85645.812 103340 -85658.072 104940 -85658.072 105064.482 -85645.812 105184.18 -85609.502 105294.494 -85550.537 105391.185 -85471.185 105470.537 -85374.494 105529.502 -85264.18 105565.812 -85144.482 105578.072 -85020 105578.072 -84074 127250.928 -84074 127254 -85121.75 127412.75 -85280.5 129857.5 -85280.5 129857.5 -83597.75 129698.75 -83439 127889 -83435.928 127764.518 -83448.188 127644.82 -83484.498 127534.506 -83543.463 127437.815 -83622.815 127358.463 -83719.506 127299.498 -83829.82 127263.188 -83949.518 127250.928 -84074 105578.072 -84074 105578.072 -82620 105565.812 -82495.518 105529.502 -82375.82 105470.537 -82265.506 105391.185 -82168.815 105294.494 -82089.463 105184.18 -82030.498 105064.482 -81994.188 104940 -81981.928 103340 -81981.928 103215.518 -81994.188 103095.82 -82030.498 102985.506 -82089.463 102888.815 -82168.815 102809.463 -82265.506 102750.498 -82375.82 102714.188 -82495.518 102712.419 -82513.482 102619.608 -82400.392 102401.101 -82221.068 102151.808 -82087.818 101881.309 -82005.764 101600 -81978.057 101318.692 -82005.764 101048.193 -82087.818 100798.9 -82221.068 100580.393 -82400.392 100401.068 -82618.899 100330 -82751.858 100258.932 -82618.899 100079.608 -82400.392 99861.101 -82221.068 99611.808 -82087.818 99341.309 -82005.764 99060 -81978.057 98778.692 -82005.764 98508.193 -82087.818 98258.9 -82221.068 98040.393 -82400.392 97861.068 -82618.899 97790 -82751.858 97718.932 -82618.899 97539.608 -82400.392 97321.101 -82221.068 97071.808 -82087.818 96801.309 -82005.764 96520 -81978.057 96238.692 -82005.764 95968.193 -82087.818 95718.9 -82221.068 95500.393 -82400.392 95321.068 -82618.899 95222.129 -82804 92907.459 -82804 92811.939 -82785 92608.061 -82785 92408.102 -82824.774 92219.744 -82902.795 92050.226 -83016.063 91906.063 -83160.226 91792.795 -83329.744 91714.774 -83518.102 91675 -83718.061 91675 -83921.939 91714.774 -84121.898 91792.795 -84310.256 91906.063 -84479.774 92050.226 -84623.937 92219.744 -84737.205 92408.102 -84815.226 92608.061 -84855 92811.939 -84855 92907.459 -84836 95222.13 -84836 95321.068 -85021.1 95500.392 -85239.607 95718.899 -85418.932 95968.192 -85552.182 96238.691 -85634.236 96520 -85661.943 96801.308 -85634.236 97071.807 -85552.182 97321.1 -85418.932 97539.607 -85239.608 97718.932 -85021.101 97790 -84888.142 97861.068 -85021.1 98040.392 -85239.607 98044.001 -85242.568 98044.001 -85939.158 96099.16 -87884 83869.902 -87884 83820 -87879.085 83770.098 -87884 75936.048 -87884 75900.502 -87766.82 75841.537 -87656.506 75762.185 -87559.815 75665.494 -87480.463 75555.18 -87421.498 75435.482 -87385.188 75342.192 -87376 75435.482 -87366.812 75555.18 -87330.502 75665.494 -87271.537 75762.185 -87192.185 75841.537 -87095.494 75900.502 -86985.18 75936.812 -86865.482 75949.072 -86741 75946 -85693.25 75787.25 -85534.5 73342.5 -85534.5 73342.5 -85554.5 73088.5 -85554.5 73088.5 -85534.5 73068.5 -85534.5 73068.5 -85280.5 73088.5 -85280.5 73088.5 -83597.75 73342.5 -83597.75 73342.5 -85280.5 75787.25 -85280.5 75946 -85121.75 75949.072 -84074 75936.812 -83949.518 75900.502 -83829.82 75841.537 -83719.506 75762.185 -83622.815 75665.494 -83543.463 75555.18 -83484.498 75435.482 -83448.188 75311 -83435.928 73501.25 -83439 73342.5 -83597.75 73088.5 -83597.75 72929.75 -83439 71780 -83437.048 71780 -76229.392 71802.269 -75979.872 73965 -75979.872 73965 -76420.128 74050.89 -76851.925 74219.369 -77258.669 74463.962 -77624.729 74775.271 -77936.038 75141.331 -78180.631 75548.075 -78349.11 75979.872 -78435 76420.128 -78435 76851.925 -78349.11 77258.669 -78180.631 77624.729 -77936.038 77936.038 -77624.729 78180.631 -77258.669 78349.11 -76851.925 78435 -76420.128 78435 -75979.872 78349.11 -75548.075 78267.065 -75349.999 97551.928 -75349.999 97551.928 -77050.001 97568.992 -77223.255 97619.528 -77389.851 97701.595 -77543.387 97812.038 -77677.962 97946.613 -77788.405 98100.149 -77870.472 98266.745 -77921.008 98439.999 -77938.072 99680.001 -77938.072 99853.255 -77921.008 100019.851 -77870.472 100173.387 -77788.405 100307.962 -77677.962 100418.405 -77543.387 100476.507 -77434.686 100629.506 -77590.536 100874.563 -77757.571 101147.498 -77873.588 101239.969 -77891.302 101473 -77770.246 101473 -76327 101453 -76327 101453 -76073 101473 -76073 101473 -74629.754 101727 -74629.754 101727 -76073 101747 -76073 101747 -76327 101727 -76327 101727 -77770.246 101960.031 -77891.302 102052.502 -77873.588 102325.437 -77757.571 102570.494 -77590.536 102778.256 -77378.903 102867.698 -77242.331 102882.583 -77270.179 103070.655 -77499.345 103299.822 -77687.417 103561.276 -77827.166 103844.969 -77913.224 104140 -77942.282 104435.032 -77913.224 104718.725 -77827.166 104980.179 -77687.417 105209.345 -77499.345 105397.417 -77270.179 105537.166 -77008.724 105623.224 -76725.031 105645 -76503.935 105645 -75979.872 124765 -75979.872 124765 -76420.128 124850.89 -76851.925 125019.369 -77258.669 125263.962 -77624.729 125575.271 -77936.038 125941.331 -78180.631 126348.075 -78349.11 126779.872 -78435 127220.128 -78435 127651.925 -78349.11 128058.669 -78180.631 128424.729 -77936.038 128736.038 -77624.729 128980.631 -77258.669 129149.11 -76851.925 129235 -76420.128 129235 -75979.872 129149.11 -75548.075 128980.631 -75141.331 128736.038 -74775.271 128424.729 -74463.962 128058.669 -74219.369 127651.925 -74050.89 127220.128 -73965 126779.872 -73965 126348.075 -74050.89 125941.331 -74219.369 125575.271 -74463.962 125263.962 -74775.271 125019.369 -75141.331 124850.89 -75548.075 124765 -75979.872 105645 -75979.872 105645 -75896.064 105623.224 -75674.968 105537.166 -75391.275 105397.417 -75129.821 105209.345 -74900.655 104980.178 -74712.583 104718.724 -74572.834 104435.031 -74486.776 104140 -74457.718 103844.968 -74486.776 103561.275 -74572.834 103299.821 -74712.583 103070.655 -74900.655 102882.583 -75129.822 102867.698 -75157.669 102778.256 -75021.097 102570.494 -74809.464 102325.437 -74642.429 102052.502 -74526.412 101960.031 -74508.698 101727 -74629.754 101473 -74629.754 101239.969 -74508.698 101147.498 -74526.412 100874.563 -74642.429 100629.506 -74809.464 100476.507 -74965.314 100418.405 -74856.613 100307.962 -74722.038 100173.387 -74611.595 100019.851 -74529.528 99853.255 -74478.992 99680.001 -74461.928 98439.999 -74461.928 98266.745 -74478.992 98100.149 -74529.528 97946.613 -74611.595 97812.038 -74722.038 97701.595 -74856.613 97619.528 -75010.149 97568.992 -75176.745 97551.928 -75349.999 78267.065 -75349.999 78180.631 -75141.331 77936.038 -74775.271 77624.729 -74463.962 77258.669 -74219.369 76851.925 -74050.89 76420.128 -73965 75979.872 -73965 75548.075 -74050.89 75141.331 -74219.369 74775.271 -74463.962 74463.962 -74775.271 74219.369 -75141.331 74050.89 -75548.075 73965 -75979.872 71802.269 -75979.872 71852.437 -75417.751 72059.672 -74660.226 72397.777 -73951.375 72856.067 -73313.596 73420.055 -72767.054 74071.913 -72329.023 74791.038 -72013.349 75559.768 -71828.794 76224.207 -71780 126970.608 -71780 127782.249 -71852.437"/></g><g id="sYpxHsf32DwA_bottom_soldermask"><path d="M 127000 -71120 76200 -71120 M 132080 -101600 132080 -76200 M 76200 -106680 127000 -106680 M 71120 -76200 71120 -101600 M 132080 -101600 A 5080 5080 0 0 0 127000 -106680 M 76200 -106680 A 5080 5080 0 0 0 71120 -101600 M 71120 -76200 A 5080 5080 0 0 0 76200 -71120 M 127000 -71120 A 5080 5080 0 0 0 132080 -76200" fill="none" stroke-width="50"/><use xlink:href="#hYnnG_ilpYZS_pad-11" x="73215.5" y="-88900"/><use xlink:href="#hYnnG_ilpYZS_pad-12" x="73215.5" y="-92392.5"/><use xlink:href="#hYnnG_ilpYZS_pad-12" x="73215.5" y="-85407.5"/><use xlink:href="#hYnnG_ilpYZS_pad-11" x="129984.5" y="-88900"/><use xlink:href="#hYnnG_ilpYZS_pad-12" x="129984.5" y="-85407.5"/><use xlink:href="#hYnnG_ilpYZS_pad-12" x="129984.5" y="-92392.5"/><use xlink:href="#hYnnG_ilpYZS_pad-13" x="127000" y="-101600"/><use xlink:href="#hYnnG_ilpYZS_pad-13" x="76200" y="-101600"/><use xlink:href="#hYnnG_ilpYZS_pad-14" x="104140" y="-101600"/><use xlink:href="#hYnnG_ilpYZS_pad-14" x="99060" y="-101600"/><use xlink:href="#hYnnG_ilpYZS_pad-14" x="93980" y="-101600"/><use xlink:href="#hYnnG_ilpYZS_pad-14" x="88900" y="-101600"/><use xlink:href="#hYnnG_ilpYZS_pad-14" x="83820" y="-101600"/><use xlink:href="#hYnnG_ilpYZS_pad-15" x="104140" y="-91440"/><use xlink:href="#hYnnG_ilpYZS_pad-15" x="96520" y="-83820"/><use xlink:href="#hYnnG_ilpYZS_pad-15" x="101600" y="-91440"/><use xlink:href="#hYnnG_ilpYZS_pad-15" x="99060" y="-83820"/><use xlink:href="#hYnnG_ilpYZS_pad-15" x="99060" y="-91440"/><use xlink:href="#hYnnG_ilpYZS_pad-15" x="101600" y="-83820"/><use xlink:href="#hYnnG_ilpYZS_pad-15" x="96520" y="-91440"/><use xlink:href="#hYnnG_ilpYZS_pad-16" x="104140" y="-83820"/><use xlink:href="#hYnnG_ilpYZS_pad-13" x="76200" y="-76200"/><use xlink:href="#hYnnG_ilpYZS_pad-13" x="127000" y="-76200"/><use xlink:href="#hYnnG_ilpYZS_pad-17" x="111760" y="-91440"/><use xlink:href="#hYnnG_ilpYZS_pad-17" x="114300" y="-91440"/><use xlink:href="#hYnnG_ilpYZS_pad-17" x="116840" y="-91440"/><use xlink:href="#hYnnG_ilpYZS_pad-18" x="104140" y="-76200"/><use xlink:href="#hYnnG_ilpYZS_pad-18" x="101600" y="-76200"/><path d="M 98190 -77050.001 98190 -75349.999 A 249.999 249.999 0 0 0 98439.999 -75100 L 99680.001 -75100 A 249.999 249.999 0 0 0 99930 -75349.999 L 99930 -77050.001 A 249.999 249.999 0 0 0 99680.001 -77300 L 98439.999 -77300 A 249.999 249.999 0 0 0 98190 -77050.001"/></g><g id="sYpxHsf32DwA_bottom_silkscreen"><path d="M 119792.142 -75827.38 120125.476 -75351.19 M 120363.571 -75827.38 120363.571 -74827.38 119982.619 -74827.38 119887.38 -74875 119839.761 -74922.619 119792.142 -75017.857 119792.142 -75160.714 119839.761 -75255.952 119887.38 -75303.571 119982.619 -75351.19 120363.571 -75351.19 M 119363.571 -75303.571 119030.238 -75303.571 M 118887.38 -75827.38 119363.571 -75827.38 119363.571 -74827.38 118887.38 -74827.38 M 118601.666 -74827.38 118268.333 -75827.38 117935 -74827.38 M 117601.666 -75827.38 117601.666 -74827.38 M 117173.095 -75779.761 117030.238 -75827.38 116792.142 -75827.38 116696.904 -75779.761 116649.285 -75732.142 116601.666 -75636.904 116601.666 -75541.666 116649.285 -75446.428 116696.904 -75398.809 116792.142 -75351.19 116982.619 -75303.571 117077.857 -75255.952 117125.476 -75208.333 117173.095 -75113.095 117173.095 -75017.857 117125.476 -74922.619 117077.857 -74875 116982.619 -74827.38 116744.523 -74827.38 116601.666 -74875 M 116173.095 -75827.38 116173.095 -74827.38 M 115506.428 -74827.38 115315.952 -74827.38 115220.714 -74875 115125.476 -74970.238 115077.857 -75160.714 115077.857 -75494.047 115125.476 -75684.523 115220.714 -75779.761 115315.952 -75827.38 115506.428 -75827.38 115601.666 -75779.761 115696.904 -75684.523 115744.523 -75494.047 115744.523 -75160.714 115696.904 -74970.238 115601.666 -74875 115506.428 -74827.38 M 114649.285 -75827.38 114649.285 -74827.38 114077.857 -75827.38 114077.857 -74827.38 M 112315.952 -75827.38 112887.38 -75827.38 M 112601.666 -75827.38 112601.666 -74827.38 112696.904 -74970.238 112792.142 -75065.476 112887.38 -75113.095 M 111887.38 -75732.142 111839.761 -75779.761 111887.38 -75827.38 111935 -75779.761 111887.38 -75732.142 111887.38 -75827.38 M 110887.38 -75827.38 111458.809 -75827.38 M 111173.095 -75827.38 111173.095 -74827.38 111268.333 -74970.238 111363.571 -75065.476 111458.809 -75113.095 M 110458.809 -75732.142 110411.19 -75779.761 110458.809 -75827.38 110506.428 -75779.761 110458.809 -75732.142 110458.809 -75827.38 M 109792.142 -74827.38 109696.904 -74827.38 109601.666 -74875 109554.047 -74922.619 109506.428 -75017.857 109458.809 -75208.333 109458.809 -75446.428 109506.428 -75636.904 109554.047 -75732.142 109601.666 -75779.761 109696.904 -75827.38 109792.142 -75827.38 109887.38 -75779.761 109935 -75732.142 109982.619 -75636.904 110030.238 -75446.428 110030.238 -75208.333 109982.619 -75017.857 109935 -74922.619 109887.38 -74875 109792.142 -74827.38 M 120411.19 -76953.571 120744.523 -76953.571 M 120744.523 -77477.38 120744.523 -76477.38 120268.333 -76477.38 M 119887.38 -76953.571 119554.047 -76953.571 M 119411.19 -77477.38 119887.38 -77477.38 119887.38 -76477.38 119411.19 -76477.38 M 118649.285 -76953.571 118506.428 -77001.19 118458.809 -77048.809 118411.19 -77144.047 118411.19 -77286.904 118458.809 -77382.142 118506.428 -77429.761 118601.666 -77477.38 118982.619 -77477.38 118982.619 -76477.38 118649.285 -76477.38 118554.047 -76525 118506.428 -76572.619 118458.809 -76667.857 118458.809 -76763.095 118506.428 -76858.333 118554.047 -76905.952 118649.285 -76953.571 118982.619 -76953.571 M 117411.19 -77477.38 117744.523 -77001.19 M 117982.619 -77477.38 117982.619 -76477.38 117601.666 -76477.38 117506.428 -76525 117458.809 -76572.619 117411.19 -76667.857 117411.19 -76810.714 117458.809 -76905.952 117506.428 -76953.571 117601.666 -77001.19 117982.619 -77001.19 M 116982.619 -76477.38 116982.619 -77286.904 116935 -77382.142 116887.38 -77429.761 116792.142 -77477.38 116601.666 -77477.38 116506.428 -77429.761 116458.809 -77382.142 116411.19 -77286.904 116411.19 -76477.38 M 115982.619 -77191.666 115506.428 -77191.666 M 116077.857 -77477.38 115744.523 -76477.38 115411.19 -77477.38 M 114506.428 -77477.38 114839.761 -77001.19 M 115077.857 -77477.38 115077.857 -76477.38 114696.904 -76477.38 114601.666 -76525 114554.047 -76572.619 114506.428 -76667.857 114506.428 -76810.714 114554.047 -76905.952 114601.666 -76953.571 114696.904 -77001.19 115077.857 -77001.19 M 113887.38 -77001.19 113887.38 -77477.38 M 114220.714 -76477.38 113887.38 -77001.19 113554.047 -76477.38 M 112506.428 -76572.619 112458.809 -76525 112363.571 -76477.38 112125.476 -76477.38 112030.238 -76525 111982.619 -76572.619 111935 -76667.857 111935 -76763.095 111982.619 -76905.952 112554.047 -77477.38 111935 -77477.38 M 111315.952 -76477.38 111220.714 -76477.38 111125.476 -76525 111077.857 -76572.619 111030.238 -76667.857 110982.619 -76858.333 110982.619 -77096.428 111030.238 -77286.904 111077.857 -77382.142 111125.476 -77429.761 111220.714 -77477.38 111315.952 -77477.38 111411.19 -77429.761 111458.809 -77382.142 111506.428 -77286.904 111554.047 -77096.428 111554.047 -76858.333 111506.428 -76667.857 111458.809 -76572.619 111411.19 -76525 111315.952 -76477.38 M 110601.666 -76572.619 110554.047 -76525 110458.809 -76477.38 110220.714 -76477.38 110125.476 -76525 110077.857 -76572.619 110030.238 -76667.857 110030.238 -76763.095 110077.857 -76905.952 110649.285 -77477.38 110030.238 -77477.38 M 109077.857 -77477.38 109649.285 -77477.38 M 109363.571 -77477.38 109363.571 -76477.38 109458.809 -76620.238 109554.047 -76715.476 109649.285 -76763.095 M 94645.952 -74478.571 94503.095 -74526.19 94455.476 -74573.809 94407.857 -74669.047 94407.857 -74811.904 94455.476 -74907.142 94503.095 -74954.761 94598.333 -75002.38 94979.285 -75002.38 94979.285 -74002.38 94645.952 -74002.38 94550.714 -74050 94503.095 -74097.619 94455.476 -74192.857 94455.476 -74288.095 94503.095 -74383.333 94550.714 -74430.952 94645.952 -74478.571 94979.285 -74478.571 M 93979.285 -74907.142 93931.666 -74954.761 93979.285 -75002.38 94026.904 -74954.761 93979.285 -74907.142 93979.285 -75002.38 M 92741.19 -75002.38 92741.19 -74002.38 92407.857 -74716.666 92074.523 -74002.38 92074.523 -75002.38 M 91598.333 -74478.571 91265 -74478.571 M 91122.142 -75002.38 91598.333 -75002.38 91598.333 -74002.38 91122.142 -74002.38 M 90693.571 -75002.38 90693.571 -74002.38 M 90693.571 -74478.571 90122.142 -74478.571 M 90122.142 -75002.38 90122.142 -74002.38 M 89169.761 -75002.38 89645.952 -75002.38 89645.952 -74002.38 M 88836.428 -74478.571 88503.095 -74478.571 M 88360.238 -75002.38 88836.428 -75002.38 88836.428 -74002.38 88360.238 -74002.38 M 87931.666 -75002.38 87931.666 -74002.38 87360.238 -75002.38 87360.238 -74002.38 M 86550.714 -74478.571 86407.857 -74526.19 86360.238 -74573.809 86312.619 -74669.047 86312.619 -74811.904 86360.238 -74907.142 86407.857 -74954.761 86503.095 -75002.38 86884.047 -75002.38 86884.047 -74002.38 86550.714 -74002.38 86455.476 -74050 86407.857 -74097.619 86360.238 -74192.857 86360.238 -74288.095 86407.857 -74383.333 86455.476 -74430.952 86550.714 -74478.571 86884.047 -74478.571 M 85931.666 -74716.666 85455.476 -74716.666 M 86026.904 -75002.38 85693.571 -74002.38 85360.238 -75002.38 M 84455.476 -74907.142 84503.095 -74954.761 84645.952 -75002.38 84741.19 -75002.38 84884.047 -74954.761 84979.285 -74859.523 85026.904 -74764.285 85074.523 -74573.809 85074.523 -74430.952 85026.904 -74240.476 84979.285 -74145.238 84884.047 -74050 84741.19 -74002.38 84645.952 -74002.38 84503.095 -74050 84455.476 -74097.619 M 84026.904 -75002.38 84026.904 -74002.38 M 84026.904 -74478.571 83455.476 -74478.571 M 83455.476 -75002.38 83455.476 -74002.38 M 82979.285 -74478.571 82645.952 -74478.571 M 82503.095 -75002.38 82979.285 -75002.38 82979.285 -74002.38 82503.095 -74002.38 M 81503.095 -75002.38 81836.428 -74526.19 M 82074.523 -75002.38 82074.523 -74002.38 81693.571 -74002.38 81598.333 -74050 81550.714 -74097.619 81503.095 -74192.857 81503.095 -74335.714 81550.714 -74430.952 81598.333 -74478.571 81693.571 -74526.19 82074.523 -74526.19 M 93003.095 -75652.38 93003.095 -76461.904 92955.476 -76557.142 92907.857 -76604.761 92812.619 -76652.38 92622.142 -76652.38 92526.904 -76604.761 92479.285 -76557.142 92431.666 -76461.904 92431.666 -75652.38 M 92050.714 -75652.38 91812.619 -76652.38 91622.142 -75938.095 91431.666 -76652.38 91193.571 -75652.38 M 90812.619 -76271.428 90050.714 -76271.428 M 89574.523 -76652.38 89574.523 -75652.38 89241.19 -76366.666 88907.857 -75652.38 88907.857 -76652.38 M 88479.285 -76366.666 88003.095 -76366.666 M 88574.523 -76652.38 88241.19 -75652.38 87907.857 -76652.38 M 87574.523 -76652.38 87574.523 -75652.38 87336.428 -75652.38 87193.571 -75700 87098.333 -75795.238 87050.714 -75890.476 87003.095 -76080.952 87003.095 -76223.809 87050.714 -76414.285 87098.333 -76509.523 87193.571 -76604.761 87336.428 -76652.38 87574.523 -76652.38 M 86574.523 -76652.38 86574.523 -75652.38 M 86145.952 -76604.761 86003.095 -76652.38 85765 -76652.38 85669.761 -76604.761 85622.142 -76557.142 85574.523 -76461.904 85574.523 -76366.666 85622.142 -76271.428 85669.761 -76223.809 85765 -76176.19 85955.476 -76128.571 86050.714 -76080.952 86098.333 -76033.333 86145.952 -75938.095 86145.952 -75842.857 86098.333 -75747.619 86050.714 -75700 85955.476 -75652.38 85717.38 -75652.38 85574.523 -75700 M 84955.476 -75652.38 84765 -75652.38 84669.761 -75700 84574.523 -75795.238 84526.904 -75985.714 84526.904 -76319.047 84574.523 -76509.523 84669.761 -76604.761 84765 -76652.38 84955.476 -76652.38 85050.714 -76604.761 85145.952 -76509.523 85193.571 -76319.047 85193.571 -75985.714 85145.952 -75795.238 85050.714 -75700 84955.476 -75652.38 M 84098.333 -76652.38 84098.333 -75652.38 83526.904 -76652.38 83526.904 -75652.38 M 91526.904 -78207.142 91574.523 -78254.761 91717.38 -78302.38 91812.619 -78302.38 91955.476 -78254.761 92050.714 -78159.523 92098.333 -78064.285 92145.952 -77873.809 92145.952 -77730.952 92098.333 -77540.476 92050.714 -77445.238 91955.476 -77350 91812.619 -77302.38 91717.38 -77302.38 91574.523 -77350 91526.904 -77397.619 M 91098.333 -78302.38 91098.333 -77302.38 M 91098.333 -77778.571 90526.904 -77778.571 M 90526.904 -78302.38 90526.904 -77302.38 M 90050.714 -77778.571 89717.38 -77778.571 M 89574.523 -78302.38 90050.714 -78302.38 90050.714 -77302.38 89574.523 -77302.38 M 89145.952 -78302.38 89145.952 -77302.38 88812.619 -78016.666 88479.285 -77302.38 88479.285 -78302.38 M 88003.095 -78302.38 88003.095 -77302.38 M 87574.523 -78254.761 87431.666 -78302.38 87193.571 -78302.38 87098.333 -78254.761 87050.714 -78207.142 87003.095 -78111.904 87003.095 -78016.666 87050.714 -77921.428 87098.333 -77873.809 87193.571 -77826.19 87384.047 -77778.571 87479.285 -77730.952 87526.904 -77683.333 87574.523 -77588.095 87574.523 -77492.857 87526.904 -77397.619 87479.285 -77350 87384.047 -77302.38 87145.952 -77302.38 87003.095 -77350 M 86717.38 -77302.38 86145.952 -77302.38 M 86431.666 -78302.38 86431.666 -77302.38 M 85241.19 -78302.38 85574.523 -77826.19 M 85812.619 -78302.38 85812.619 -77302.38 85431.666 -77302.38 85336.428 -77350 85288.809 -77397.619 85241.19 -77492.857 85241.19 -77635.714 85288.809 -77730.952 85336.428 -77778.571 85431.666 -77826.19 85812.619 -77826.19 M 84622.142 -77826.19 84622.142 -78302.38 M 84955.476 -77302.38 84622.142 -77826.19 84288.809 -77302.38" fill="none" stroke-width="150"/><path d="M 127000 -71120 76200 -71120 M 132080 -101600 132080 -76200 M 76200 -106680 127000 -106680 M 71120 -76200 71120 -101600 M 132080 -101600 A 5080 5080 0 0 0 127000 -106680 M 76200 -106680 A 5080 5080 0 0 0 71120 -101600 M 71120 -76200 A 5080 5080 0 0 0 76200 -71120 M 127000 -71120 A 5080 5080 0 0 0 132080 -76200" fill="none" stroke-width="50"/><path d="M 78105 -83820 71120 -83820 M 78105 -93980 78105 -83820 M 71120 -93980 78105 -93980 M 71120 -83820 71120 -93980 M 125095 -93980 132080 -93980 M 125095 -83820 125095 -93980 M 132080 -83820 125095 -83820 M 132080 -93980 132080 -83820 M 76287.38 -85638.095 77001.666 -85638.095 77144.523 -85590.476 77239.761 -85495.238 77287.38 -85352.38 77287.38 -85257.142 M 77382.619 -85876.19 77382.619 -86638.095 M 77239.761 -86828.571 77287.38 -86971.428 77287.38 -87209.523 77239.761 -87304.761 77192.142 -87352.38 77096.904 -87400 77001.666 -87400 76906.428 -87352.38 76858.809 -87304.761 76811.19 -87209.523 76763.571 -87019.047 76715.952 -86923.809 76668.333 -86876.19 76573.095 -86828.571 76477.857 -86828.571 76382.619 -86876.19 76335 -86923.809 76287.38 -87019.047 76287.38 -87257.142 76335 -87400 M 77287.38 -87971.428 77239.761 -87876.19 77192.142 -87828.571 77096.904 -87780.952 76811.19 -87780.952 76715.952 -87828.571 76668.333 -87876.19 76620.714 -87971.428 76620.714 -88114.285 76668.333 -88209.523 76715.952 -88257.142 76811.19 -88304.761 77096.904 -88304.761 77192.142 -88257.142 77239.761 -88209.523 77287.38 -88114.285 77287.38 -87971.428 M 76620.714 -89161.904 77287.38 -89161.904 M 76620.714 -88733.333 77144.523 -88733.333 77239.761 -88780.952 77287.38 -88876.19 77287.38 -89019.047 77239.761 -89114.285 77192.142 -89161.904 M 77287.38 -89638.095 76620.714 -89638.095 M 76811.19 -89638.095 76715.952 -89685.714 76668.333 -89733.333 76620.714 -89828.571 76620.714 -89923.809 M 77239.761 -90685.714 77287.38 -90590.476 77287.38 -90400 77239.761 -90304.761 77192.142 -90257.142 77096.904 -90209.523 76811.19 -90209.523 76715.952 -90257.142 76668.333 -90304.761 76620.714 -90400 76620.714 -90590.476 76668.333 -90685.714 M 77239.761 -91495.238 77287.38 -91400 77287.38 -91209.523 77239.761 -91114.285 77144.523 -91066.666 76763.571 -91066.666 76668.333 -91114.285 76620.714 -91209.523 76620.714 -91400 76668.333 -91495.238 76763.571 -91542.857 76858.809 -91542.857 76954.047 -91066.666 M 77287.38 -92495.238 77287.38 -91923.809 M 77287.38 -92209.523 76287.38 -92209.523 76430.238 -92114.285 76525.476 -92019.047 76573.095 -91923.809 M 126912.619 -92066.666 126198.333 -92066.666 126055.476 -92114.285 125960.238 -92209.523 125912.619 -92352.38 125912.619 -92447.619 M 125817.38 -91828.571 125817.38 -91066.666 M 126912.619 -90638.095 126912.619 -90447.619 126865 -90352.38 126769.761 -90257.142 126579.285 -90209.523 126245.952 -90209.523 126055.476 -90257.142 125960.238 -90352.38 125912.619 -90447.619 125912.619 -90638.095 125960.238 -90733.333 126055.476 -90828.571 126245.952 -90876.19 126579.285 -90876.19 126769.761 -90828.571 126865 -90733.333 126912.619 -90638.095 M 126579.285 -89352.38 125912.619 -89352.38 M 126579.285 -89780.952 126055.476 -89780.952 125960.238 -89733.333 125912.619 -89638.095 125912.619 -89495.238 125960.238 -89400 126007.857 -89352.38 M 126579.285 -89019.047 126579.285 -88638.095 M 126912.619 -88876.19 126055.476 -88876.19 125960.238 -88828.571 125912.619 -88733.333 125912.619 -88638.095 M 126579.285 -88304.761 125579.285 -88304.761 M 126531.666 -88304.761 126579.285 -88209.523 126579.285 -88019.047 126531.666 -87923.809 126484.047 -87876.19 126388.809 -87828.571 126103.095 -87828.571 126007.857 -87876.19 125960.238 -87923.809 125912.619 -88019.047 125912.619 -88209.523 125960.238 -88304.761 M 126579.285 -86971.428 125912.619 -86971.428 M 126579.285 -87400 126055.476 -87400 125960.238 -87352.38 125912.619 -87257.142 125912.619 -87114.285 125960.238 -87019.047 126007.857 -86971.428 M 126579.285 -86638.095 126579.285 -86257.142 M 126912.619 -86495.238 126055.476 -86495.238 125960.238 -86447.619 125912.619 -86352.38 125912.619 -86257.142 M 125912.619 -85400 125912.619 -85971.428 M 125912.619 -85685.714 126912.619 -85685.714 126769.761 -85780.952 126674.523 -85876.19 126626.904 -85971.428" fill="none" stroke-width="150"/></g><g id="sYpxHsf32DwA_bottom_drill1" transform="scale(25.4,25.4)"><use xlink:href="#yO0u-5urkw3t_pad-1" x="3000" y="-4000"/><use xlink:href="#yO0u-5urkw3t_pad-1" x="3000" y="-3000"/><use xlink:href="#yO0u-5urkw3t_pad-1" x="5000" y="-3000"/><use xlink:href="#yO0u-5urkw3t_pad-1" x="5000" y="-4000"/></g><g id="sYpxHsf32DwA_bottom_drill2" transform="scale(25.4,25.4)"><use xlink:href="#vRYEP5iQeK4k_pad-1" x="3650" y="-3300"/><use xlink:href="#vRYEP5iQeK4k_pad-1" x="3650" y="-3850"/><use xlink:href="#vRYEP5iQeK4k_pad-2" x="3800" y="-3300"/><use xlink:href="#vRYEP5iQeK4k_pad-2" x="3800" y="-3600"/><use xlink:href="#vRYEP5iQeK4k_pad-2" x="3900" y="-3300"/><use xlink:href="#vRYEP5iQeK4k_pad-2" x="3900" y="-3600"/><use xlink:href="#vRYEP5iQeK4k_pad-2" x="4000" y="-3300"/><use xlink:href="#vRYEP5iQeK4k_pad-2" x="4000" y="-3600"/><use xlink:href="#vRYEP5iQeK4k_pad-2" x="4100" y="-3300"/><use xlink:href="#vRYEP5iQeK4k_pad-2" x="4100" y="-3600"/><use xlink:href="#vRYEP5iQeK4k_pad-2" x="4400" y="-3600"/><use xlink:href="#vRYEP5iQeK4k_pad-2" x="4500" y="-3600"/><use xlink:href="#vRYEP5iQeK4k_pad-2" x="4600" y="-3600"/><use xlink:href="#vRYEP5iQeK4k_pad-3" x="3900" y="-3000"/><use xlink:href="#vRYEP5iQeK4k_pad-3" x="4000" y="-3000"/><use xlink:href="#vRYEP5iQeK4k_pad-3" x="4100" y="-3000"/><use xlink:href="#vRYEP5iQeK4k_pad-4" x="3500" y="-4000"/><use xlink:href="#vRYEP5iQeK4k_pad-4" x="3300" y="-4000"/><use xlink:href="#vRYEP5iQeK4k_pad-4" x="3700" y="-4000"/><use xlink:href="#vRYEP5iQeK4k_pad-4" x="3900" y="-4000"/><use xlink:href="#vRYEP5iQeK4k_pad-4" x="4100" y="-4000"/></g><clipPath id="sYpxHsf32DwA_bottom_outline"><path d="M 127000 -71120 76200 -71120 A 5080 5080 0 0 1 71120 -76200 L 71120 -101600 A 5080 5080 0 0 1 76200 -106680 L 127000 -106680 A 5080 5080 0 0 1 132080 -101600 L 132080 -76200 A 5080 5080 0 0 1 127000 -71120" fill="none" stroke-width="50"/></clipPath><mask id="sYpxHsf32DwA_bottom_mech-mask"><g fill="#000" stroke="#000"><rect x="71120" y="-106680" width="60960" height="35560" fill="#fff"/><use xlink:href="#sYpxHsf32DwA_bottom_drill1"/><use xlink:href="#sYpxHsf32DwA_bottom_drill2"/></g></mask><mask id="sYpxHsf32DwA_bottom_cf-mask"><g fill="#fff" stroke="#fff"><use xlink:href="#sYpxHsf32DwA_bottom_soldermask"/></g></mask><mask id="sYpxHsf32DwA_bottom_sm-mask"><g fill="#000" stroke="#000"><rect x="71120" y="-106680" width="60960" height="35560" fill="#fff"/><use xlink:href="#sYpxHsf32DwA_bottom_soldermask"/></g></mask></defs><g transform="translate(0,-177800) scale(1,-1)"><g mask="url(#sYpxHsf32DwA_bottom_mech-mask)" clip-path="url(#sYpxHsf32DwA_bottom_outline)" transform="translate(203200,0) scale(-1,1)"><rect x="71120" y="-106680" width="60960" height="35560" fill="currentColor" class="sYpxHsf32DwA_fr4"/><use xlink:href="#sYpxHsf32DwA_bottom_copper" fill="currentColor" stroke="currentColor" class="sYpxHsf32DwA_cu"/><use xlink:href="#sYpxHsf32DwA_bottom_copper" fill="currentColor" stroke="currentColor" class="sYpxHsf32DwA_cf" mask="url(#sYpxHsf32DwA_bottom_cf-mask)"/><g mask="url(#sYpxHsf32DwA_bottom_sm-mask)"><rect x="71120" y="-106680" width="60960" height="35560" fill="currentColor" class="sYpxHsf32DwA_sm"/><use xlink:href="#sYpxHsf32DwA_bottom_silkscreen" fill="currentColor" stroke="currentColor" class="sYpxHsf32DwA_ss"/></g></g></g></svg>