<svg version="1.1" xmlns="http://www.w3.org/2000/svg" xmlns:xlink="http://www.w3.org/1999/xlink" stroke-linecap="round" stroke-linejoin="round" stroke-width="0" fill-rule="evenodd" clip-rule="evenodd" id="DUov_o08p41r_bottom" viewBox="71120 -106680 60960 35560" width="60.96mm" height="35.56mm"><defs><style>.DUov_o08p41r_fr4 {color: #666666;}
.DUov_o08p41r_cu {color: #cccccc;}
.DUov_o08p41r_cf {color: #cc9933;}
.DUov_o08p41r_sm {color: #ff0000; opacity: 0.75;}
.DUov_o08p41r_ss {color: #ffffff;}
.DUov_o08p41r_sp {color: #999999;}
.DUov_o08p41r_out {color: #000000;}</style><rect x="-800" y="-1200" width="1600" height="2400" id="xs4T8HawvYes_pad-10"/><rect x="-800" y="-1200" width="1600" height="2400" rx="800" ry="800" id="xs4T8HawvYes_pad-11"/><g id="xs4T8HawvYes_pad-12"><polygon points="-620.001,-850.001 620.001,-850.001 620.001,850.001 -620.001,850.001"/><circle cx="-620.001" cy="-850.001" r="249.999"/><circle cx="620.001" cy="-850.001" r="249.999"/><circle cx="620.001" cy="850.001" r="249.999"/><circle cx="-620.001" cy="850.001" r="249.999"/><polygon points="-620.001,-1100 620.001,-1100 620.001,-600.002 -620.001,-600.002"/><polygon points="870,-850.001 870,850.001 370.002,850.001 370.002,-850.001"/><polygon points="620.001,600.002 -620.001,600.002 -620.001,1100 620.001,1100"/><polygon points="-370.002,850.001 -370.002,-850.001 -870,-850.001 -870,850.001"/></g><rect x="-870" y="-1100" width="1740" height="2200" rx="870" ry="870" id="xs4T8HawvYes_pad-13"/><circle cx="0" cy="0" r="720" id="xs4T8HawvYes_pad-14"/><circle cx="0" cy="0" r="1500" id="xs4T8HawvYes_pad-15"/><rect x="-2095.5" y="-889" width="4191" height="1778" id="xs4T8HawvYes_pad-16"/><rect x="-2095.5" y="-1333.5" width="4191" height="2667" id="xs4T8HawvYes_pad-17"/><circle cx="0" cy="0" r="400" id="xs4T8HawvYes_pad-18"/><rect x="-800" y="-1200" width="1600" height="2400" id="RbMtCX58-55K_pad-10"/><rect x="-800" y="-1200" width="1600" height="2400" rx="800" ry="800" id="RbMtCX58-55K_pad-11"/><g id="RbMtCX58-55K_pad-12"><polygon points="-620.001,-850.001 620.001,-850.001 620.001,850.001 -620.001,850.001"/><circle cx="-620.001" cy="-850.001" r="249.999"/><circle cx="620.001" cy="-850.001" r="249.999"/><circle cx="620.001" cy="850.001" r="249.999"/><circle cx="-620.001" cy="850.001" r="249.999"/><polygon points="-620.001,-1100 620.001,-1100 620.001,-600.002 -620.001,-600.002"/><polygon points="870,-850.001 870,850.001 370.002,850.001 370.002,-850.001"/><polygon points="620.001,600.002 -620.001,600.002 -620.001,1100 620.001,1100"/><polygon points="-370.002,850.001 -370.002,-850.001 -870,-850.001 -870,850.001"/></g><rect x="-870" y="-1100" width="1740" height="2200" rx="870" ry="870" id="RbMtCX58-55K_pad-13"/><circle cx="0" cy="0" r="720" id="RbMtCX58-55K_pad-14"/><circle cx="0" cy="0" r="1600" id="RbMtCX58-55K_pad-15"/><circle cx="0" cy="0" r="1500" id="RbMtCX58-55K_pad-16"/><rect x="-2095.5" y="-889" width="4191" height="1778" id="RbMtCX58-55K_pad-17"/><rect x="-2095.5" y="-1333.5" width="4191" height="2667" id="RbMtCX58-55K_pad-18"/><circle cx="0" cy="0" r="63" id="eY_42-EK-roe_pad-1"/><circle cx="0" cy="0" r="7.85" id="aWPI6RtpzlyK_pad-1"/><circle cx="0" cy="0" r="15.75" id="aWPI6RtpzlyK_pad-2"/><circle cx="0" cy="0" r="23.6" id="aWPI6RtpzlyK_pad-3"/><circle cx="0" cy="0" r="29.55" id="aWPI6RtpzlyK_pad-4"/><g id="DUov_o08p41r_bottom_copper"><use xlink:href="#xs4T8HawvYes_pad-10" x="104140" y="-83820"/><use xlink:href="#xs4T8HawvYes_pad-11" x="101600" y="-83820"/><use xlink:href="#xs4T8HawvYes_pad-11" x="99060" y="-83820"/><use xlink:href="#xs4T8HawvYes_pad-11" x="96520" y="-83820"/><use xlink:href="#xs4T8HawvYes_pad-11" x="96520" y="-91440"/><use xlink:href="#xs4T8HawvYes_pad-11" x="99060" y="-91440"/><use xlink:href="#xs4T8HawvYes_pad-11" x="101600" y="-91440"/><use xlink:href="#xs4T8HawvYes_pad-11" x="104140" y="-91440"/><use xlink:href="#xs4T8HawvYes_pad-12" x="99060" y="-76200"/><use xlink:href="#xs4T8HawvYes_pad-13" x="101600" y="-76200"/><use xlink:href="#xs4T8HawvYes_pad-13" x="104140" y="-76200"/><use xlink:href="#xs4T8HawvYes_pad-14" x="116840" y="-91440"/><use xlink:href="#xs4T8HawvYes_pad-14" x="114300" y="-91440"/><use xlink:href="#xs4T8HawvYes_pad-14" x="111760" y="-91440"/><use xlink:href="#xs4T8HawvYes_pad-15" x="83820" y="-101600"/><use xlink:href="#xs4T8HawvYes_pad-15" x="88900" y="-101600"/><use xlink:href="#xs4T8HawvYes_pad-15" x="93980" y="-101600"/><use xlink:href="#xs4T8HawvYes_pad-15" x="104140" y="-101600"/><use xlink:href="#xs4T8HawvYes_pad-15" x="99060" y="-101600"/><use xlink:href="#xs4T8HawvYes_pad-16" x="129984.5" y="-88900"/><use xlink:href="#xs4T8HawvYes_pad-17" x="129984.5" y="-92392.5"/><use xlink:href="#xs4T8HawvYes_pad-17" x="129984.5" y="-85407.5"/><use xlink:href="#xs4T8HawvYes_pad-16" x="73215.5" y="-88900"/><use xlink:href="#xs4T8HawvYes_pad-17" x="73215.5" y="-85407.5"/><use xlink:href="#xs4T8HawvYes_pad-17" x="73215.5" y="-92392.5"/><use xlink:href="#xs4T8HawvYes_pad-18" x="92710" y="-83820"/><use xlink:href="#xs4T8HawvYes_pad-18" x="92710" y="-97790"/><path d="M 88900 -99060 88900 -101600 M 115570 -88900 114300 -90170 M 91440 -96520 88900 -99060 M 96520 -96520 91440 -96520 M 99060 -91440 99060 -93980 M 129984.5 -88900 115570 -88900 M 114300 -90170 114300 -91440 M 99060 -93980 96520 -96520 M 99060 -83820 99060 -86360 96520 -88900 M 83820 -101600 83820 -88900 M 96520 -88900 83820 -88900 73215.5 -88900 M 101600 -95250 101600 -91440 M 104140 -97790 101600 -95250 M 104140 -101600 104140 -97790 M 99060 -99060 99060 -101600 M 92710 -97790 97790 -97790 99060 -99060 M 96520 -83820 92710 -83820" fill="none" stroke-width="762"/><path d="M 127013.24 -71146.047 127414.822 -71162.657 127419.948 -71163.082 127829.364 -71214.115 127834.477 -71214.968 128238.274 -71299.635 128243.289 -71300.905 128638.701 -71418.625 128643.619 -71420.314 129027.947 -71570.279 129032.718 -71572.372 129403.328 -71753.552 129407.909 -71756.031 129580.86 -71859.087 129762.318 -71967.212 129766.672 -71970.058 130102.413 -72209.773 130106.524 -72212.972 130421.34 -72479.607 130425.16 -72483.123 130716.875 -72774.838 130720.392 -72778.659 130987.027 -73093.475 130990.226 -73097.586 131229.941 -73433.327 131232.791 -73437.688 131443.968 -73792.09 131446.447 -73796.671 131627.627 -74167.281 131629.72 -74172.052 131779.685 -74556.38 131781.377 -74561.307 131899.092 -74956.703 131900.368 -74961.742 131940.13 -75151.377 131985.028 -75365.506 131985.885 -75370.644 132003.145 -75509.106 132036.915 -75780.029 132037.343 -75785.199 132046.107 -75997.069 132054.5 -76200 132054.5 -83440 132034.498 -83508.121 131980.842 -83554.614 131928.5 -83566 130238.5 -83566 130238.5 -87249 131928.5 -87249 131996.621 -87269.002 132043.114 -87322.658 132054.5 -87375 132054.5 -87376.5 132034.498 -87444.621 131980.842 -87491.114 131928.5 -87502.5 127840.35 -87502.5 127779.803 -87509.009 127779.795 -87509.011 127642.797 -87560.11 127642.792 -87560.112 127525.738 -87647.738 127438.112 -87764.792 127438.11 -87764.797 127387.011 -87901.795 127385.197 -87909.474 127382.883 -87908.927 127360.249 -87963.566 127301.929 -88004.054 127262.144 -88010.5 115649.925 -88010.5 115630.215 -88008.949 115616.806 -88006.825 115574.258 -88009.056 115548.334 -88010.414 115545.064 -88010.5 115523.38 -88010.5 115523.376 -88010.5 115523.364 -88010.501 115501.812 -88012.766 115498.527 -88013.024 115430.086 -88016.611 115416.975 -88020.124 115397.545 -88023.725 115384.048 -88025.144 115384.045 -88025.144 115384.044 -88025.145 115346.118 -88037.467 115318.85 -88046.327 115315.693 -88047.262 115307.717 -88049.399 115249.471 -88065.006 115249.469 -88065.007 115237.375 -88071.169 115219.131 -88078.727 115206.215 -88082.925 115146.841 -88117.203 115143.945 -88118.775 115082.875 -88149.893 115072.329 -88158.433 115056.044 -88169.625 115044.288 -88176.412 115044.285 -88176.414 114993.344 -88222.281 114990.839 -88224.42 114973.995 -88238.061 114973.992 -88238.063 114958.657 -88253.398 114956.267 -88255.665 114905.33 -88301.529 114897.346 -88312.518 114884.511 -88327.544 113727.544 -89484.511 113712.518 -89497.346 113701.529 -89505.33 113655.665 -89556.267 113653.398 -89558.657 113638.065 -89573.991 113638.057 -89574 113624.412 -89590.848 113622.274 -89593.352 113576.418 -89644.281 113576.41 -89644.292 113569.626 -89656.042 113558.431 -89672.331 113549.893 -89682.874 113518.773 -89743.95 113517.199 -89746.848 113482.925 -89806.214 113482.923 -89806.217 113478.731 -89819.12 113471.168 -89837.381 113465.007 -89849.473 113447.261 -89915.696 113446.325 -89918.858 113425.144 -89984.042 113423.726 -89997.538 113420.125 -90016.968 113416.61 -90030.087 113413.024 -90098.534 113412.765 -90101.822 113410.5 -90123.371 113410.5 -90145.055 113410.414 -90148.327 113410.209 -90152.261 113406.825 -90216.807 113408.949 -90230.212 113410.5 -90249.924 113410.5 -90539.947 113390.498 -90608.068 113373.595 -90629.042 113355.323 -90647.313 113355.314 -90647.323 113232.025 -90823.4 113144.195 -91011.753 113097.278 -91065.038 113029 -91084.499 112961.04 -91063.957 112915.805 -91011.753 112827.974 -90823.4 112704.685 -90647.323 112704.682 -90647.32 112638.872 -90581.51 112552.681 -90495.319 112552.515 -90495.203 112376.597 -90372.024 112181.78 -90281.179 112181.774 -90281.177 112065.136 -90249.924 111974.142 -90225.542 111760 -90206.807 111545.858 -90225.542 111338.225 -90281.177 111338.22 -90281.179 111143.4 -90372.025 110967.323 -90495.314 110967.313 -90495.323 110815.323 -90647.313 110815.314 -90647.323 110692.025 -90823.4 110601.179 -91018.22 110601.177 -91018.225 110545.542 -91225.858 110526.807 -91440 110545.542 -91654.141 110601.177 -91861.774 110601.179 -91861.78 110692.024 -92056.597 110761.591 -92155.95 110815.319 -92232.681 110967.319 -92384.681 111143.403 -92507.976 111338.223 -92598.822 111545.858 -92654.458 111760 -92673.193 111974.142 -92654.458 112181.777 -92598.822 112376.597 -92507.976 112552.681 -92384.681 112704.681 -92232.681 112827.976 -92056.597 112915.805 -91868.244 112962.722 -91814.961 113030.999 -91795.5 113098.959 -91816.042 113144.194 -91868.244 113157.662 -91897.127 113232.024 -92056.597 113301.591 -92155.95 113355.319 -92232.681 113507.319 -92384.681 113683.403 -92507.976 113878.223 -92598.822 114085.858 -92654.458 114300 -92673.193 114514.142 -92654.458 114721.777 -92598.822 114916.597 -92507.976 115092.681 -92384.681 115244.681 -92232.681 115367.976 -92056.597 115455.805 -91868.244 115502.722 -91814.961 115570.999 -91795.5 115638.959 -91816.042 115684.194 -91868.244 115697.662 -91897.127 115772.024 -92056.597 115841.591 -92155.95 115895.319 -92232.681 116047.319 -92384.681 116223.403 -92507.976 116418.223 -92598.822 116625.858 -92654.458 116840 -92673.193 117054.142 -92654.458 117083.841 -92646.5 127381 -92646.5 127381 -93774.597 127387.505 -93835.093 127438.555 -93971.964 127438.555 -93971.965 127526.095 -94088.904 127643.034 -94176.444 127779.906 -94227.494 127840.402 -94233.999 127840.415 -94234 129730.5 -94234 129730.5 -92646.5 127381 -92646.5 117083.841 -92646.5 117261.777 -92598.822 117456.597 -92507.976 117632.681 -92384.681 117784.681 -92232.681 117850.627 -92138.5 127381 -92138.5 129730.5 -92138.5 129730.5 -90551 127840.402 -90551 127779.906 -90557.505 127643.035 -90608.555 127643.034 -90608.555 127526.095 -90696.095 127438.555 -90813.034 127438.555 -90813.035 127387.505 -90949.906 127381 -91010.402 127381 -92138.5 117850.627 -92138.5 117907.976 -92056.597 117998.822 -91861.777 118054.458 -91654.142 118073.193 -91440 118054.458 -91225.858 117998.822 -91018.223 117907.976 -90823.404 117907.975 -90823.403 117907.974 -90823.4 117784.685 -90647.323 117784.682 -90647.32 117718.872 -90581.51 117632.681 -90495.319 117632.515 -90495.203 117456.597 -90372.024 117261.78 -90281.179 117261.774 -90281.177 117145.136 -90249.924 117054.142 -90225.542 116840 -90206.807 116839.999 -90206.807 116625.858 -90225.542 116418.225 -90281.177 116418.22 -90281.179 116223.4 -90372.025 116047.323 -90495.314 116047.313 -90495.323 115895.323 -90647.313 115895.314 -90647.323 115772.025 -90823.4 115684.195 -91011.753 115637.278 -91065.038 115569 -91084.499 115501.04 -91063.957 115455.805 -91011.753 115367.974 -90823.4 115244.683 -90647.321 115244.038 -90646.552 115243.86 -90646.145 115241.526 -90642.812 115242.196 -90642.342 115215.578 -90581.51 115226.8 -90511.406 115251.465 -90476.477 115901.54 -89826.402 115963.85 -89792.379 115990.633 -89789.5 127262.144 -89789.5 127330.265 -89809.502 127376.758 -89863.158 127384.322 -89890.732 127385.197 -89890.526 127387.011 -89898.204 127438.11 -90035.202 127438.112 -90035.207 127525.738 -90152.261 127642.792 -90239.887 127642.794 -90239.888 127642.796 -90239.889 127669.701 -90249.924 127779.795 -90290.988 127779.803 -90290.99 127840.35 -90297.499 127840.355 -90297.499 127840.362 -90297.5 131928.5 -90297.5 131996.621 -90317.502 132043.114 -90371.158 132054.5 -90423.5 132054.5 -90425 132034.498 -90493.121 131980.842 -90539.614 131928.5 -90551 130238.5 -90551 130238.5 -94234 131928.5 -94234 131996.621 -94254.002 132043.114 -94307.658 132054.5 -94359.999 132054.5 -101591.715 132054.5 -101600 132046.107 -101802.933 132037.344 -102014.792 132036.914 -102019.972 132017.161 -102178.445 131985.885 -102429.355 131985.028 -102434.493 131900.371 -102838.246 131899.092 -102843.296 131781.377 -103238.692 131779.685 -103243.619 131629.72 -103627.947 131627.627 -103632.718 131446.447 -104003.328 131443.968 -104007.909 131232.791 -104362.311 131229.941 -104366.672 130990.226 -104702.413 130987.027 -104706.524 130720.392 -105021.34 130716.864 -105025.173 130425.173 -105316.864 130421.34 -105320.392 130106.524 -105587.027 130102.413 -105590.226 129766.672 -105829.941 129762.311 -105832.791 129407.909 -106043.968 129403.328 -106046.447 129032.718 -106227.627 129027.947 -106229.72 128643.619 -106379.685 128638.692 -106381.377 128243.296 -106499.092 128238.251 -106500.369 128071.718 -106535.287 127834.493 -106585.028 127829.355 -106585.885 127600.639 -106614.394 127419.972 -106636.914 127414.798 -106637.343 127000 -106654.5 76200 -106654.5 75785.199 -106637.343 75780.029 -106636.915 75551.299 -106608.404 75370.644 -106585.885 75365.506 -106585.028 75281.473 -106567.408 74961.742 -106500.368 74956.703 -106499.092 74561.307 -106381.377 74556.38 -106379.685 74172.052 -106229.72 74167.281 -106227.627 73796.671 -106046.447 73792.09 -106043.968 73437.688 -105832.791 73433.327 -105829.941 73097.586 -105590.226 73093.475 -105587.027 72778.659 -105320.392 72774.838 -105316.875 72483.123 -105025.16 72479.607 -105021.34 72212.972 -104706.524 72209.773 -104702.413 71970.058 -104366.672 71967.208 -104362.311 71756.031 -104007.909 71753.552 -104003.328 71572.372 -103632.718 71570.279 -103627.947 71420.314 -103243.619 71418.622 -103238.692 71412.474 -103218.043 71300.905 -102843.289 71299.635 -102838.274 71214.968 -102434.477 71214.114 -102429.355 71163.082 -102019.948 71162.657 -102014.822 71148.303 -101667.765 74345.788 -101667.765 74375.412 -101937.014 74443.928 -102199.09 74549.869 -102448.389 74549.87 -102448.39 74690.982 -102679.61 74864.255 -102887.82 75065.998 -103068.582 75291.91 -103218.044 75537.176 -103333.02 75796.569 -103411.06 75796.572 -103411.06 75796.574 -103411.061 76064.557 -103450.5 76064.561 -103450.5 76267.633 -103450.5 76302.363 -103447.957 76470.156 -103435.677 76470.16 -103435.676 76470.161 -103435.676 76580.665 -103411.06 76734.553 -103376.78 76987.558 -103280.014 77223.777 -103147.441 77438.177 -102981.888 77626.186 -102786.881 77783.799 -102566.579 77907.656 -102325.675 77995.118 -102069.305 78026.56 -101899.082 78044.318 -101802.941 78044.319 -101802.93 78046.943 -101731.123 78054.212 -101532.235 78031.507 -101325.883 78024.587 -101262.985 77956.071 -101000.909 77850.13 -100751.61 77850.129 -100751.61 77709.018 -100520.39 77535.745 -100312.18 77535.741 -100312.177 77535.74 -100312.175 77334.012 -100131.427 77334.002 -100131.418 77108.09 -99981.956 76862.824 -99866.98 76681.794 -99812.516 76603.425 -99788.938 76335.442 -99749.5 76335.439 -99749.5 76132.369 -99749.5 76132.367 -99749.5 75929.839 -99764.323 75929.838 -99764.323 75665.456 -99823.217 75665.441 -99823.222 75412.441 -99919.986 75176.229 -100052.555 75176.225 -100052.557 74961.818 -100218.116 74773.815 -100413.117 74773.81 -100413.123 74616.203 -100633.417 74616.196 -100633.427 74492.343 -100874.324 74492.342 -100874.327 74404.883 -101130.689 74404.88 -101130.702 74355.681 -101397.058 74355.68 -101397.069 74345.788 -101667.765 71148.303 -101667.765 71145.5 -101600 71145.5 -101591.715 71145.5 -94360 71165.502 -94291.879 71219.158 -94245.386 71271.5 -94234 72961.5 -94234 72961.5 -92646.5 73469.5 -92646.5 73469.5 -94234 75359.585 -94234 75359.597 -94233.999 75420.093 -94227.494 75556.964 -94176.444 75556.965 -94176.444 75673.904 -94088.904 75761.444 -93971.965 75761.444 -93971.964 75812.494 -93835.093 75818.999 -93774.597 75819 -93774.585 75819 -92646.5 73469.5 -92646.5 72961.5 -92646.5 72961.5 -90551 73469.5 -90551 73469.5 -92138.5 75819 -92138.5 75819 -91010.414 75818.999 -91010.402 75812.494 -90949.906 75761.444 -90813.035 75761.444 -90813.034 75673.904 -90696.095 75556.965 -90608.555 75420.093 -90557.505 75359.597 -90551 73469.5 -90551 72961.5 -90551 71271.5 -90551 71203.379 -90530.998 71156.886 -90477.342 71145.5 -90425 71145.5 -90423.5 71165.502 -90355.379 71219.158 -90308.886 71271.5 -90297.5 75359.632 -90297.5 75359.638 -90297.5 75359.645 -90297.499 75359.649 -90297.499 75420.196 -90290.99 75420.199 -90290.989 75420.201 -90290.989 75557.204 -90239.889 75576.37 -90225.542 75674.261 -90152.261 75761.887 -90035.207 75761.887 -90035.206 75761.889 -90035.204 75812.989 -89898.201 75812.989 -89898.198 75814.803 -89890.526 75817.116 -89891.072 75839.751 -89836.434 75898.071 -89795.946 75937.856 -89789.5 82804.5 -89789.5 82872.621 -89809.502 82919.114 -89863.158 82930.5 -89915.5 82930.5 -99719.352 82910.498 -99787.473 82869.969 -99827.007 82804.238 -99866.98 82659.028 -99955.284 82445.886 -100128.688 82258.343 -100329.498 82099.892 -100553.971 81973.477 -100797.941 81881.462 -101056.845 81881.46 -101056.853 81862.295 -101149.082 81838.627 -101262.982 81825.557 -101325.877 81825.556 -101325.883 81806.807 -101599.995 81806.807 -101599.999 81825.556 -101874.116 81825.557 -101874.122 81825.558 -101874.13 81843.238 -101959.21 81881.46 -102143.146 81881.462 -102143.154 81973.408 -102401.865 81973.477 -102402.058 82099.752 -102645.759 82099.892 -102646.028 82101.724 -102648.623 82258.343 -102870.502 82362.366 -102981.883 82433.482 -103058.03 82445.889 -103071.314 82659.031 -103244.718 82893.8 -103387.484 83145.823 -103496.953 83410.404 -103571.085 83505.504 -103584.156 83682.604 -103608.499 83682.615 -103608.5 83957.385 -103608.5 83957.395 -103608.499 84086.945 -103590.692 84229.596 -103571.085 84494.177 -103496.953 84746.2 -103387.484 84980.969 -103244.718 85194.111 -103071.314 85381.657 -102870.502 85540.111 -102646.023 85666.523 -102402.058 85758.538 -102143.153 85814.442 -101874.13 85833.193 -101600 85832.626 -101591.715 85814.443 -101325.883 85814.442 -101325.877 85814.442 -101325.87 85758.538 -101056.847 85666.523 -100797.942 85540.111 -100553.977 85381.657 -100329.498 85194.111 -100128.686 84980.969 -99955.282 84770.031 -99827.007 84722.221 -99774.524 84709.5 -99719.352 84709.5 -89915.5 84729.502 -89847.379 84783.158 -89800.886 84835.5 -89789.5 95624.978 -89789.5 95693.099 -89809.502 95739.592 -89863.158 95749.696 -89933.432 95720.202 -89998.012 95697.249 -90018.713 95675.703 -90033.799 95675.697 -90033.804 95513.804 -90195.697 95513.799 -90195.703 95382.477 -90383.25 95285.717 -90590.753 95285.715 -90590.759 95226.457 -90811.913 95211.5 -90982.874 95211.5 -91897.126 95226.457 -92068.086 95285.715 -92289.24 95285.717 -92289.246 95382.477 -92496.749 95492.905 -92654.457 95513.802 -92684.3 95675.7 -92846.198 95863.251 -92977.523 96070.757 -93074.284 96291.913 -93133.543 96520 -93153.498 96748.087 -93133.543 96969.243 -93074.284 97176.749 -92977.523 97364.3 -92846.198 97526.198 -92684.3 97657.523 -92496.749 97675.804 -92457.543 97722.721 -92404.258 97790.998 -92384.796 97858.958 -92405.337 97904.195 -92457.543 97922.477 -92496.749 97960.025 -92550.373 98053.801 -92684.3 98133.594 -92764.093 98167.62 -92826.405 98170.499 -92853.188 98170.499 -93559.367 98150.497 -93627.488 98133.594 -93648.462 96188.462 -95593.595 96126.15 -95627.62 96099.367 -95630.5 91519.924 -95630.5 91500.214 -95628.949 91486.805 -95626.825 91444.257 -95629.056 91418.333 -95630.414 91415.063 -95630.5 91393.38 -95630.5 91393.376 -95630.5 91393.362 -95630.501 91371.811 -95632.766 91368.526 -95633.024 91300.083 -95636.611 91286.972 -95640.124 91267.547 -95643.725 91254.044 -95645.145 91254.038 -95645.146 91188.843 -95666.328 91185.683 -95667.264 91119.471 -95685.007 91119.466 -95685.009 91107.375 -95691.169 91089.131 -95698.727 91076.215 -95702.925 91016.841 -95737.203 91013.945 -95738.775 90952.873 -95769.894 90942.325 -95778.435 90926.05 -95789.62 90914.29 -95796.411 90914.287 -95796.412 90863.332 -95842.292 90860.827 -95844.432 90843.993 -95858.064 90843.991 -95858.066 90828.667 -95873.389 90826.277 -95875.656 90775.331 -95921.529 90767.345 -95932.52 90754.509 -95947.547 88327.544 -98374.511 88312.518 -98387.346 88301.529 -98395.33 88255.665 -98446.267 88253.398 -98448.657 88238.065 -98463.991 88238.057 -98464 88224.412 -98480.848 88222.274 -98483.352 88176.418 -98534.281 88176.41 -98534.292 88169.626 -98546.042 88158.431 -98562.331 88149.893 -98572.874 88118.773 -98633.95 88117.199 -98636.848 88082.925 -98696.214 88082.923 -98696.217 88078.731 -98709.12 88071.168 -98727.381 88065.007 -98739.473 88047.261 -98805.696 88046.325 -98808.858 88025.144 -98874.042 88023.726 -98887.538 88020.125 -98906.968 88016.61 -98920.087 88013.024 -98988.534 88012.765 -98991.822 88010.5 -99013.371 88010.5 -99035.055 88010.414 -99038.327 88009.093 -99063.546 88006.825 -99106.807 88008.949 -99120.212 88010.5 -99139.924 88010.5 -99719.352 87990.498 -99787.473 87949.969 -99827.007 87884.238 -99866.98 87739.028 -99955.284 87525.886 -100128.688 87338.343 -100329.498 87179.892 -100553.971 87053.477 -100797.941 86961.462 -101056.845 86961.46 -101056.853 86942.295 -101149.082 86918.627 -101262.982 86905.557 -101325.877 86905.556 -101325.883 86886.807 -101599.995 86886.807 -101599.999 86905.556 -101874.116 86905.557 -101874.122 86905.558 -101874.13 86923.238 -101959.21 86961.46 -102143.146 86961.462 -102143.154 87053.408 -102401.865 87053.477 -102402.058 87179.752 -102645.759 87179.892 -102646.028 87181.724 -102648.623 87338.343 -102870.502 87442.366 -102981.883 87513.482 -103058.03 87525.889 -103071.314 87739.031 -103244.718 87973.8 -103387.484 88225.823 -103496.953 88490.404 -103571.085 88585.504 -103584.156 88762.604 -103608.499 88762.615 -103608.5 89037.385 -103608.5 89037.395 -103608.499 89166.945 -103590.692 89309.596 -103571.085 89574.177 -103496.953 89826.2 -103387.484 90060.969 -103244.718 90274.111 -103071.314 90461.657 -102870.502 90620.111 -102646.023 90746.523 -102402.058 90838.538 -102143.153 90894.442 -101874.13 90913.193 -101600 90913.193 -101599.999 91967.308 -101599.999 91986.052 -101874.048 91986.053 -101874.054 92041.942 -102143.011 92041.944 -102143.019 92133.938 -102401.865 92260.314 -102645.756 92260.316 -102645.759 92390.541 -102830.248 93301.099 -101919.69 93326.059 -101977.553 93430.756 -102118.185 93565.062 -102230.882 93660.43 -102278.777 92750.715 -103188.492 92750.715 -103188.494 92819.313 -103244.304 92819.318 -103244.307 93054.03 -103387.038 93305.989 -103496.48 93570.509 -103570.595 93842.635 -103607.999 93842.649 -103608 94117.351 -103608 94117.364 -103607.999 94389.49 -103570.595 94654.01 -103496.48 94905.969 -103387.038 95140.679 -103244.309 95209.283 -103188.493 95209.283 -103188.492 94301.798 -102281.007 94318.891 -102274.787 94465.373 -102178.445 94585.688 -102050.918 94660.517 -101921.307 95569.457 -102830.247 95699.682 -102645.762 95699.685 -102645.756 95826.061 -102401.865 95918.055 -102143.019 95918.057 -102143.011 95973.946 -101874.054 95973.947 -101874.048 95992.692 -101599.999 95992.692 -101599.995 95973.947 -101325.951 95973.946 -101325.945 95918.057 -101056.988 95918.055 -101056.98 95826.061 -100798.134 95699.685 -100554.243 95699.681 -100554.237 95569.457 -100369.75 94658.899 -101280.307 94633.941 -101222.447 94529.244 -101081.815 94394.938 -100969.118 94299.567 -100921.221 95209.283 -100011.504 95140.68 -99955.691 94905.969 -99812.961 94654.01 -99703.519 94389.49 -99629.404 94117.364 -99592 93842.635 -99592 93570.509 -99629.404 93305.989 -99703.519 93054.03 -99812.961 92819.325 -99955.687 92750.715 -100011.505 92750.714 -100011.505 93658.201 -100918.992 93641.109 -100925.213 93494.627 -101021.555 93374.312 -101149.082 93299.482 -101278.691 92390.541 -100369.75 92260.317 -100554.236 92133.938 -100798.134 92041.944 -101056.98 92041.942 -101056.988 91986.053 -101325.945 91986.052 -101325.951 91967.308 -101599.995 91967.308 -101599.999 90913.193 -101599.999 90912.626 -101591.715 90894.443 -101325.883 90894.442 -101325.877 90894.442 -101325.87 90838.538 -101056.847 90746.523 -100797.942 90620.111 -100553.977 90461.657 -100329.498 90274.111 -100128.686 90060.969 -99955.282 89850.031 -99827.007 89802.221 -99774.524 89789.5 -99719.352 89789.5 -99480.632 89809.502 -99412.511 89826.405 -99391.537 90683.661 -98534.281 91588.186 -97629.755 91650.496 -97595.732 91721.311 -97600.796 91778.147 -97643.343 91802.958 -97709.863 91802.589 -97732.021 91796.496 -97789.999 91816.457 -97979.927 91846.526 -98072.47 91875.473 -98161.556 91875.476 -98161.561 91970.958 -98326.941 91970.965 -98326.951 92098.744 -98468.864 92116.985 -98482.117 92253.248 -98581.118 92427.712 -98658.794 92614.513 -98698.5 92805.484 -98698.5 92805.487 -98698.5 92867.363 -98685.347 92881.923 -98682.253 92908.119 -98679.5 97369.367 -98679.5 97437.488 -98699.502 97458.462 -98716.405 98133.595 -99391.538 98167.621 -99453.85 98170.5 -99480.633 98170.5 -99719.352 98150.498 -99787.473 98109.969 -99827.007 98044.238 -99866.98 97899.028 -99955.284 97685.886 -100128.688 97498.343 -100329.498 97339.892 -100553.971 97213.477 -100797.941 97121.462 -101056.845 97121.46 -101056.853 97102.295 -101149.082 97078.627 -101262.982 97065.557 -101325.877 97065.556 -101325.883 97046.807 -101599.995 97046.807 -101599.999 97065.556 -101874.116 97065.557 -101874.122 97065.558 -101874.13 97083.238 -101959.21 97121.46 -102143.146 97121.462 -102143.154 97213.408 -102401.865 97213.477 -102402.058 97339.752 -102645.759 97339.892 -102646.028 97341.724 -102648.623 97498.343 -102870.502 97602.366 -102981.883 97673.482 -103058.03 97685.889 -103071.314 97899.031 -103244.718 98133.8 -103387.484 98385.823 -103496.953 98650.404 -103571.085 98745.504 -103584.156 98922.604 -103608.499 98922.615 -103608.5 99197.385 -103608.5 99197.395 -103608.499 99326.945 -103590.692 99469.596 -103571.085 99734.177 -103496.953 99986.2 -103387.484 100220.969 -103244.718 100434.111 -103071.314 100621.657 -102870.502 100780.111 -102646.023 100906.523 -102402.058 100998.538 -102143.153 101054.442 -101874.13 101073.193 -101600 101072.626 -101591.715 101054.443 -101325.883 101054.442 -101325.877 101054.442 -101325.87 100998.538 -101056.847 100906.523 -100797.942 100780.111 -100553.977 100621.657 -100329.498 100434.111 -100128.686 100220.969 -99955.282 100010.031 -99827.007 99962.221 -99774.524 99949.5 -99719.352 99949.5 -99453.85 99949.5 -99139.911 99951.051 -99120.212 99953.174 -99106.81 99949.585 -99038.335 99949.5 -99035.063 99949.5 -99013.388 99949.5 -99013.38 99947.23 -98991.795 99946.975 -98988.553 99943.388 -98920.085 99939.875 -98906.974 99936.274 -98887.541 99935.695 -98882.04 99934.855 -98874.044 99913.669 -98808.842 99912.734 -98805.684 99894.994 -98739.475 99894.993 -98739.473 99888.832 -98727.381 99881.268 -98709.12 99877.075 -98696.215 99842.782 -98636.817 99841.225 -98633.949 99810.109 -98572.879 99810.103 -98572.871 99801.57 -98562.334 99790.373 -98546.043 99783.585 -98534.285 99737.706 -98483.331 99735.6 -98480.867 99721.937 -98463.994 99706.595 -98448.652 99704.36 -98446.297 99682.442 -98421.954 99658.472 -98395.332 99647.483 -98387.348 99632.452 -98374.509 98475.488 -97217.545 98462.646 -97202.509 98454.669 -97191.53 98403.712 -97145.647 98401.32 -97143.377 98386.012 -97128.068 98386.006 -97128.063 98369.168 -97114.427 98366.66 -97112.285 98344.108 -97091.98 98315.715 -97066.415 98303.961 -97059.629 98287.667 -97048.43 98277.123 -97039.891 98216.05 -97008.774 98213.167 -97007.209 98153.785 -96972.925 98140.873 -96968.729 98122.613 -96961.165 98110.524 -96955.006 98110.522 -96955.005 98086.258 -96948.503 98044.284 -96937.256 98041.167 -96936.333 98023.497 -96930.591 97975.957 -96915.144 97962.463 -96913.726 97943.033 -96910.125 97929.919 -96906.611 97929.908 -96906.61 97875.622 -96903.765 97861.457 -96903.023 97858.175 -96902.765 97836.624 -96900.5 97836.62 -96900.5 97814.944 -96900.5 97811.671 -96900.414 97783.703 -96898.949 97743.191 -96896.825 97729.786 -96898.949 97710.075 -96900.5 97701.633 -96900.5 97633.512 -96880.498 97587.019 -96826.842 97576.915 -96756.568 97606.409 -96691.988 97612.526 -96685.416 99632.458 -94665.482 99647.486 -94652.649 99658.466 -94644.672 99658.466 -94644.671 99658.47 -94644.669 99704.369 -94593.691 99706.606 -94591.335 99721.936 -94576.006 99735.587 -94559.147 99737.677 -94556.699 99783.585 -94505.715 99790.372 -94493.957 99801.568 -94477.667 99810.106 -94467.125 99841.229 -94406.042 99842.778 -94403.187 99877.075 -94343.785 99881.267 -94330.879 99888.838 -94312.606 99894.992 -94300.529 99894.992 -94300.528 99894.994 -94300.525 99912.747 -94234.266 99913.664 -94231.174 99934.855 -94165.956 99936.272 -94152.468 99939.875 -94133.023 99943.388 -94119.916 99946.975 -94051.447 99947.231 -94048.2 99949.5 -94026.62 99949.5 -94004.937 99949.585 -94001.665 99953.174 -93933.191 99951.051 -93919.786 99949.5 -93900.076 99949.5 -92853.187 99969.502 -92785.066 99986.396 -92764.101 100066.198 -92684.3 100197.523 -92496.749 100215.804 -92457.543 100262.721 -92404.258 100330.998 -92384.796 100398.958 -92405.337 100444.195 -92457.543 100462.477 -92496.749 100593.802 -92684.3 100673.597 -92764.095 100707.62 -92826.403 100710.5 -92853.187 100710.5 -95170.074 100708.949 -95189.784 100706.825 -95203.19 100708.967 -95244.055 100710.414 -95271.671 100710.5 -95274.944 100710.5 -95296.624 100712.765 -95318.175 100713.024 -95321.464 100716.61 -95389.908 100716.611 -95389.919 100720.125 -95403.033 100723.726 -95422.463 100725.144 -95435.957 100746.328 -95501.15 100747.256 -95504.284 100765.006 -95570.524 100771.165 -95582.613 100778.729 -95600.872 100782.925 -95613.785 100817.209 -95673.167 100818.774 -95676.05 100849.891 -95737.123 100858.43 -95747.667 100869.629 -95763.961 100876.415 -95775.715 100922.285 -95826.66 100924.427 -95829.168 100938.063 -95846.006 100938.068 -95846.012 100953.377 -95861.32 100955.647 -95863.712 101001.53 -95914.669 101012.509 -95922.646 101027.545 -95935.488 102131.95 -97039.893 103213.595 -98121.537 103247.62 -98183.849 103250.5 -98210.632 103250.5 -99719.352 103230.498 -99787.473 103189.969 -99827.007 103124.238 -99866.98 102979.028 -99955.284 102765.886 -100128.688 102578.343 -100329.498 102419.892 -100553.971 102293.477 -100797.941 102201.462 -101056.845 102201.46 -101056.853 102182.295 -101149.082 102158.627 -101262.982 102145.557 -101325.877 102145.556 -101325.883 102126.807 -101599.995 102126.807 -101599.999 102145.556 -101874.116 102145.557 -101874.122 102145.558 -101874.13 102163.238 -101959.21 102201.46 -102143.146 102201.462 -102143.154 102293.408 -102401.865 102293.477 -102402.058 102419.752 -102645.759 102419.892 -102646.028 102421.724 -102648.623 102578.343 -102870.502 102682.366 -102981.883 102753.482 -103058.03 102765.889 -103071.314 102979.031 -103244.718 103213.8 -103387.484 103465.823 -103496.953 103730.404 -103571.085 103825.504 -103584.156 104002.604 -103608.499 104002.615 -103608.5 104277.385 -103608.5 104277.395 -103608.499 104406.945 -103590.692 104549.596 -103571.085 104814.177 -103496.953 105066.2 -103387.484 105300.969 -103244.718 105514.111 -103071.314 105701.657 -102870.502 105860.111 -102646.023 105986.523 -102402.058 106078.538 -102143.153 106134.442 -101874.13 106148.558 -101667.765 125145.788 -101667.765 125175.412 -101937.014 125243.928 -102199.09 125349.869 -102448.389 125349.87 -102448.39 125490.982 -102679.61 125664.255 -102887.82 125865.998 -103068.582 126091.91 -103218.044 126337.176 -103333.02 126596.569 -103411.06 126596.572 -103411.06 126596.574 -103411.061 126864.557 -103450.5 126864.561 -103450.5 127067.633 -103450.5 127102.363 -103447.957 127270.156 -103435.677 127270.16 -103435.676 127270.161 -103435.676 127380.665 -103411.06 127534.553 -103376.78 127787.558 -103280.014 128023.777 -103147.441 128238.177 -102981.888 128426.186 -102786.881 128583.799 -102566.579 128707.656 -102325.675 128795.118 -102069.305 128826.56 -101899.082 128844.318 -101802.941 128844.319 -101802.93 128846.943 -101731.123 128854.212 -101532.235 128831.507 -101325.883 128824.587 -101262.985 128756.071 -101000.909 128650.13 -100751.61 128650.13 -100751.609 128509.018 -100520.39 128335.745 -100312.18 128335.741 -100312.177 128335.74 -100312.175 128134.012 -100131.427 128134.002 -100131.418 127908.09 -99981.956 127662.824 -99866.98 127481.794 -99812.516 127403.425 -99788.938 127135.442 -99749.5 127135.439 -99749.5 126932.369 -99749.5 126932.367 -99749.5 126729.839 -99764.323 126729.838 -99764.323 126465.456 -99823.217 126465.441 -99823.222 126212.441 -99919.986 125976.229 -100052.555 125976.225 -100052.557 125761.818 -100218.116 125573.815 -100413.117 125573.81 -100413.123 125416.203 -100633.417 125416.196 -100633.427 125292.343 -100874.324 125292.342 -100874.327 125204.883 -101130.689 125204.88 -101130.702 125155.681 -101397.058 125155.68 -101397.069 125145.788 -101667.765 106148.558 -101667.765 106153.193 -101600 106152.626 -101591.715 106134.443 -101325.883 106134.442 -101325.877 106134.442 -101325.87 106078.538 -101056.847 105986.523 -100797.942 105860.111 -100553.977 105701.657 -100329.498 105514.111 -100128.686 105300.969 -99955.282 105090.031 -99827.007 105042.221 -99774.524 105029.5 -99719.352 105029.5 -97869.923 105031.051 -97850.211 105033.174 -97836.806 105032.503 -97824.01 105029.585 -97768.334 105029.5 -97765.062 105029.5 -97743.388 105029.5 -97743.38 105027.23 -97721.796 105026.975 -97718.554 105023.388 -97650.084 105019.876 -97636.977 105016.272 -97617.53 105014.855 -97604.045 105014.855 -97604.044 104993.659 -97538.81 104992.747 -97535.732 104974.994 -97469.475 104968.834 -97457.385 104961.267 -97439.118 104957.075 -97426.215 104952.588 -97418.444 104922.782 -97366.817 104921.225 -97363.949 104890.109 -97302.879 104890.106 -97302.875 104881.565 -97292.327 104870.37 -97276.037 104863.586 -97264.286 104859.759 -97260.035 104817.692 -97213.316 104815.579 -97210.842 104810.088 -97204.06 104801.94 -97193.998 104799.472 -97191.53 104786.604 -97178.662 104784.369 -97176.307 104756.763 -97145.647 104738.472 -97125.332 104727.484 -97117.349 104712.45 -97104.508 102526.405 -94918.462 102492.379 -94856.15 102489.5 -94829.367 102489.5 -92853.188 102509.502 -92785.067 102526.405 -92764.093 102526.407 -92764.091 102606.198 -92684.3 102737.523 -92496.749 102755.804 -92457.543 102802.721 -92404.258 102870.998 -92384.796 102938.958 -92405.337 102984.195 -92457.543 103002.477 -92496.749 103133.802 -92684.3 103295.7 -92846.198 103483.251 -92977.523 103690.757 -93074.284 103911.913 -93133.543 104140 -93153.498 104368.087 -93133.543 104589.243 -93074.284 104796.749 -92977.523 104984.3 -92846.198 105146.198 -92684.3 105277.523 -92496.749 105374.284 -92289.243 105433.543 -92068.087 105448.5 -91897.127 105448.5 -90982.873 105433.543 -90811.913 105374.284 -90590.757 105277.523 -90383.251 105146.198 -90195.7 104984.3 -90033.802 104978.994 -90030.087 104796.749 -89902.477 104589.246 -89805.717 104589.24 -89805.715 104392.912 -89753.109 104368.087 -89746.457 104140 -89726.502 103911.913 -89746.457 103690.759 -89805.715 103690.753 -89805.717 103483.25 -89902.477 103295.703 -90033.799 103295.697 -90033.804 103133.804 -90195.697 103133.799 -90195.703 103002.476 -90383.251 102984.193 -90422.459 102937.275 -90475.743 102868.997 -90495.203 102801.038 -90474.66 102755.805 -90422.457 102737.523 -90383.251 102729.662 -90372.025 102606.2 -90195.703 102606.195 -90195.697 102444.302 -90033.804 102444.296 -90033.799 102256.749 -89902.477 102049.246 -89805.717 102049.24 -89805.715 101852.912 -89753.109 101828.087 -89746.457 101600 -89726.502 101371.913 -89746.457 101150.759 -89805.715 101150.753 -89805.717 100943.25 -89902.477 100755.703 -90033.799 100755.697 -90033.804 100593.804 -90195.697 100593.799 -90195.703 100462.476 -90383.251 100444.193 -90422.459 100397.275 -90475.743 100328.997 -90495.203 100261.038 -90474.66 100215.805 -90422.457 100197.523 -90383.251 100189.662 -90372.025 100066.2 -90195.703 100066.195 -90195.697 99904.302 -90033.804 99904.296 -90033.799 99716.749 -89902.477 99509.246 -89805.717 99509.24 -89805.715 99312.912 -89753.109 99288.087 -89746.457 99060 -89726.502 98831.913 -89746.457 98610.759 -89805.715 98610.753 -89805.717 98403.25 -89902.477 98215.703 -90033.799 98215.697 -90033.804 98053.804 -90195.697 98053.799 -90195.703 97922.477 -90383.25 97904.195 -90422.457 97857.278 -90475.742 97789.001 -90495.203 97721.041 -90474.661 97675.805 -90422.457 97673.894 -90418.359 97657.523 -90383.251 97526.198 -90195.7 97364.3 -90033.802 97358.994 -90030.087 97176.749 -89902.477 97056.401 -89846.358 97003.116 -89799.441 96983.655 -89731.164 97004.197 -89663.204 97041.026 -89628.37 97040.371 -89627.468 97045.716 -89623.584 97096.653 -89577.72 97099.162 -89575.577 97102.223 -89573.097 97116.006 -89561.937 97131.345 -89546.597 97133.701 -89544.36 97184.669 -89498.47 97192.654 -89487.478 97205.483 -89472.458 99632.452 -87045.488 99647.486 -87032.649 99658.466 -87024.672 99658.466 -87024.671 99658.47 -87024.669 99704.369 -86973.691 99706.606 -86971.335 99721.936 -86956.006 99735.587 -86939.147 99737.677 -86936.699 99783.585 -86885.715 99790.372 -86873.957 99801.568 -86857.667 99810.106 -86847.125 99841.229 -86786.042 99842.778 -86783.187 99877.075 -86723.785 99881.267 -86710.879 99888.838 -86692.606 99894.992 -86680.529 99894.992 -86680.528 99894.994 -86680.525 99912.747 -86614.266 99913.664 -86611.174 99934.855 -86545.956 99936.272 -86532.468 99939.875 -86513.023 99943.388 -86499.916 99946.975 -86431.447 99947.231 -86428.2 99949.5 -86406.62 99949.5 -86384.937 99949.585 -86381.665 99953.174 -86313.191 99951.051 -86299.786 99949.5 -86280.076 99949.5 -85661.5 127381 -85661.5 127381 -86789.597 127387.505 -86850.093 127438.555 -86986.964 127438.555 -86986.965 127526.095 -87103.904 127643.034 -87191.444 127779.906 -87242.494 127840.402 -87248.999 127840.415 -87249 129730.5 -87249 129730.5 -85661.5 127381 -85661.5 99949.5 -85661.5 99949.5 -85233.187 99969.502 -85165.066 99986.396 -85144.101 100066.198 -85064.3 100197.523 -84876.749 100215.804 -84837.543 100262.721 -84784.258 100330.998 -84764.796 100398.958 -84785.337 100444.195 -84837.543 100462.477 -84876.749 100593.802 -85064.3 100755.7 -85226.198 100943.251 -85357.523 101150.757 -85454.284 101371.913 -85513.543 101600 -85533.498 101828.087 -85513.543 102049.243 -85454.284 102256.749 -85357.523 102444.3 -85226.198 102606.198 -85064.3 102608.505 -85061.004 102663.961 -85016.673 102734.58 -85009.361 102797.942 -85041.389 102833.929 -85102.588 102837 -85119.802 102838.009 -85129.196 102838.011 -85129.204 102889.11 -85266.202 102889.112 -85266.207 102976.738 -85383.261 103093.792 -85470.887 103093.794 -85470.888 103093.796 -85470.889 103152.875 -85492.924 103230.795 -85521.988 103230.803 -85521.99 103291.35 -85528.499 103291.355 -85528.499 103291.362 -85528.5 103291.368 -85528.5 104988.632 -85528.5 104988.638 -85528.5 104988.645 -85528.499 104988.649 -85528.499 105049.196 -85521.99 105049.199 -85521.989 105049.201 -85521.989 105186.204 -85470.889 105208.389 -85454.282 105303.261 -85383.261 105390.887 -85266.207 105390.887 -85266.206 105390.889 -85266.204 105432.926 -85153.5 127381 -85153.5 129730.5 -85153.5 129730.5 -83566 127840.402 -83566 127779.906 -83572.505 127643.035 -83623.555 127643.034 -83623.555 127526.095 -83711.095 127438.555 -83828.034 127438.555 -83828.035 127387.505 -83964.906 127381 -84025.402 127381 -85153.5 105432.926 -85153.5 105441.989 -85129.201 105443 -85119.802 105448.499 -85068.649 105448.5 -85068.632 105448.5 -82571.367 105448.499 -82571.35 105441.99 -82510.803 105441.988 -82510.795 105405.811 -82413.804 105390.889 -82373.796 105390.888 -82373.794 105390.887 -82373.792 105303.261 -82256.738 105186.207 -82169.112 105186.202 -82169.11 105049.204 -82118.011 105049.196 -82118.009 104988.649 -82111.5 104988.638 -82111.5 103291.362 -82111.5 103291.35 -82111.5 103230.803 -82118.009 103230.795 -82118.011 103093.797 -82169.11 103093.792 -82169.112 102976.738 -82256.738 102889.112 -82373.792 102889.11 -82373.797 102838.011 -82510.795 102838.009 -82510.803 102837 -82520.197 102809.831 -82585.79 102751.513 -82626.281 102680.562 -82628.815 102619.504 -82592.588 102608.51 -82579.001 102606.203 -82575.706 102606.195 -82575.697 102444.302 -82413.804 102444.296 -82413.799 102256.749 -82282.477 102049.246 -82185.717 102049.24 -82185.715 101955.771 -82160.67 101828.087 -82126.457 101600 -82106.502 101599.999 -82106.502 101371.913 -82126.457 101150.759 -82185.715 101150.753 -82185.717 100943.25 -82282.477 100755.703 -82413.799 100755.697 -82413.804 100593.804 -82575.697 100593.799 -82575.703 100462.477 -82763.25 100444.195 -82802.457 100397.278 -82855.742 100329.001 -82875.203 100261.041 -82854.661 100215.805 -82802.457 100197.523 -82763.252 100197.523 -82763.251 100066.198 -82575.7 99904.3 -82413.802 99716.749 -82282.477 99716.748 -82282.477 99509.246 -82185.717 99509.24 -82185.715 99415.771 -82160.67 99288.087 -82126.457 99060 -82106.502 98831.913 -82126.457 98610.759 -82185.715 98610.753 -82185.717 98403.25 -82282.477 98215.703 -82413.799 98215.697 -82413.804 98053.804 -82575.697 98053.799 -82575.703 97922.477 -82763.25 97904.195 -82802.457 97857.278 -82855.742 97789.001 -82875.203 97721.041 -82854.661 97675.805 -82802.457 97657.523 -82763.252 97657.523 -82763.251 97526.198 -82575.7 97364.3 -82413.802 97176.749 -82282.477 97176.748 -82282.477 96969.246 -82185.717 96969.24 -82185.715 96875.771 -82160.67 96748.087 -82126.457 96520 -82106.502 96519.999 -82106.502 96291.913 -82126.457 96070.759 -82185.715 96070.753 -82185.717 95863.25 -82282.477 95675.703 -82413.799 95675.697 -82413.804 95513.804 -82575.697 95513.799 -82575.703 95382.475 -82763.252 95338.412 -82857.749 95291.495 -82911.035 95224.217 -82930.5 92908.119 -82930.5 92881.923 -82927.747 92867.363 -82924.652 92805.487 -82911.5 92614.513 -82911.5 92427.711 -82951.206 92253.247 -83028.882 92098.744 -83141.135 91970.965 -83283.048 91970.958 -83283.058 91875.476 -83448.438 91875.473 -83448.445 91816.457 -83630.072 91796.496 -83820 91816.457 -84009.927 91846.526 -84102.47 91875.473 -84191.556 91875.476 -84191.561 91970.958 -84356.941 91970.965 -84356.951 92098.744 -84498.864 92159.999 -84543.368 92253.248 -84611.118 92427.712 -84688.794 92614.513 -84728.5 92805.484 -84728.5 92805.487 -84728.5 92867.363 -84715.347 92881.923 -84712.253 92908.119 -84709.5 95224.217 -84709.5 95292.338 -84729.502 95338.412 -84782.251 95382.475 -84876.747 95475.333 -85009.361 95513.802 -85064.3 95675.7 -85226.198 95863.251 -85357.523 96070.757 -85454.284 96291.913 -85513.543 96520 -85533.498 96748.087 -85513.543 96969.243 -85454.284 97176.749 -85357.523 97364.3 -85226.198 97526.198 -85064.3 97657.523 -84876.749 97675.804 -84837.543 97722.721 -84784.258 97790.998 -84764.796 97858.958 -84785.337 97904.195 -84837.543 97922.476 -84876.747 98053.799 -85064.296 98053.804 -85064.302 98133.594 -85144.092 98167.62 -85206.404 98170.499 -85233.187 98170.499 -85939.367 98150.497 -86007.488 98133.594 -86028.462 96188.462 -87973.595 96126.15 -88007.62 96099.367 -88010.5 75937.856 -88010.5 75869.735 -87990.498 75823.242 -87936.842 75815.677 -87909.267 75814.803 -87909.474 75812.988 -87901.795 75761.889 -87764.797 75761.887 -87764.792 75674.261 -87647.738 75557.207 -87560.112 75557.202 -87560.11 75420.204 -87509.011 75420.196 -87509.009 75359.649 -87502.5 75359.638 -87502.5 71271.5 -87502.5 71203.379 -87482.498 71156.886 -87428.842 71145.5 -87376.5 71145.5 -87375 71165.502 -87306.879 71219.158 -87260.386 71271.5 -87249 72961.5 -87249 72961.5 -85661.5 73469.5 -85661.5 73469.5 -87249 75359.585 -87249 75359.597 -87248.999 75420.093 -87242.494 75556.964 -87191.444 75556.965 -87191.444 75673.904 -87103.904 75761.444 -86986.965 75761.444 -86986.964 75812.494 -86850.093 75818.999 -86789.597 75819 -86789.585 75819 -85661.5 73469.5 -85661.5 72961.5 -85661.5 72961.5 -83566 73469.5 -83566 73469.5 -85153.5 75819 -85153.5 75819 -84025.414 75818.999 -84025.402 75812.494 -83964.906 75761.444 -83828.035 75761.444 -83828.034 75673.904 -83711.095 75556.965 -83623.555 75420.093 -83572.505 75359.597 -83566 73469.5 -83566 72961.5 -83566 71271.5 -83566 71203.379 -83545.998 71156.886 -83492.342 71145.5 -83440 71145.5 -76267.765 74345.788 -76267.765 74375.412 -76537.014 74443.928 -76799.09 74549.869 -77048.389 74549.87 -77048.39 74690.982 -77279.61 74864.255 -77487.82 74864.257 -77487.822 74864.259 -77487.824 74969.236 -77581.883 75065.998 -77668.582 75291.91 -77818.044 75537.176 -77933.02 75796.569 -78011.06 75796.572 -78011.06 75796.574 -78011.061 76064.557 -78050.5 76064.561 -78050.5 76267.633 -78050.5 76302.363 -78047.957 76470.156 -78035.677 76470.16 -78035.676 76470.161 -78035.676 76580.665 -78011.06 76734.553 -77976.78 76987.558 -77880.014 77223.777 -77747.441 77438.177 -77581.888 77626.186 -77386.881 77783.799 -77166.579 77798.069 -77138.825 77817.745 -77100.554 97681.499 -77100.554 97692.112 -77204.421 97692.113 -77204.428 97717.025 -77279.607 97747.885 -77372.739 97818.871 -77487.824 97840.97 -77523.652 97840.975 -77523.658 97966.341 -77649.024 97966.347 -77649.029 97966.348 -77649.03 98117.261 -77742.115 98285.573 -77797.887 98325.527 -77801.968 98389.446 -77808.5 98389.454 -77808.5 99730.554 -77808.5 99791.447 -77802.278 99834.427 -77797.887 100002.739 -77742.115 100153.652 -77649.03 100279.03 -77523.652 100372.115 -77372.739 100372.116 -77372.733 100373.819 -77369.974 100426.605 -77322.496 100496.68 -77311.093 100561.795 -77339.385 100572.026 -77348.937 100686.292 -77468.16 100874.892 -77607.648 101084.35 -77713.255 101084.353 -77713.256 101308.63 -77781.94 101346 -77786.724 101346 -76744.224 101443.369 -76784.556 101560.677 -76800 101639.323 -76800 101756.631 -76784.556 101854 -76744.224 101854 -77784.896 102004.971 -77752.36 102222.624 -77664.899 102422.372 -77541.909 102422.374 -77541.907 102598.447 -77386.943 102598.455 -77386.934 102745.812 -77204.437 102745.812 -77204.436 102760.851 -77177.515 102811.534 -77127.798 102881.05 -77113.375 102947.328 -77138.825 102975.243 -77168.404 103063.6 -77299.132 103063.602 -77299.134 103063.605 -77299.138 103148.091 -77387.289 103225.967 -77468.543 103414.629 -77608.077 103624.159 -77713.72 103848.529 -77782.432 104081.283 -77812.237 104315.727 -77802.278 104545.116 -77752.841 104762.85 -77665.349 104962.665 -77542.317 105138.815 -77387.286 105286.23 -77204.716 105400.67 -76999.859 105471.607 -76799.088 105478.841 -76778.614 105478.841 -76778.613 105478.843 -76778.608 105518.5 -76547.328 105518.5 -76267.765 125145.788 -76267.765 125175.412 -76537.014 125243.928 -76799.09 125349.869 -77048.389 125349.87 -77048.39 125490.982 -77279.61 125664.255 -77487.82 125664.257 -77487.822 125664.259 -77487.824 125769.236 -77581.883 125865.998 -77668.582 126091.91 -77818.044 126337.176 -77933.02 126596.569 -78011.06 126596.572 -78011.06 126596.574 -78011.061 126864.557 -78050.5 126864.561 -78050.5 127067.633 -78050.5 127102.363 -78047.957 127270.156 -78035.677 127270.16 -78035.676 127270.161 -78035.676 127380.665 -78011.06 127534.553 -77976.78 127787.558 -77880.014 128023.777 -77747.441 128238.177 -77581.888 128426.186 -77386.881 128583.799 -77166.579 128598.069 -77138.825 128707.656 -76925.675 128707.657 -76925.672 128750.842 -76799.088 128795.118 -76669.305 128825.912 -76502.588 128844.318 -76402.941 128844.319 -76402.93 128846.011 -76356.631 128854.212 -76132.235 128838.434 -75988.835 128824.587 -75862.985 128756.071 -75600.909 128650.13 -75351.61 128650.13 -75351.609 128509.018 -75120.39 128335.745 -74912.18 128335.741 -74912.177 128335.74 -74912.175 128134.012 -74731.427 128134.002 -74731.418 127908.09 -74581.956 127662.824 -74466.98 127505.392 -74419.615 127403.425 -74388.938 127135.442 -74349.5 127135.439 -74349.5 126932.369 -74349.5 126932.367 -74349.5 126729.839 -74364.323 126729.838 -74364.323 126465.456 -74423.217 126465.441 -74423.222 126212.441 -74519.986 125976.229 -74652.555 125976.225 -74652.557 125761.818 -74818.116 125573.815 -75013.117 125573.81 -75013.123 125416.203 -75233.417 125416.196 -75233.427 125292.343 -75474.324 125292.342 -75474.327 125204.883 -75730.689 125204.88 -75730.702 125155.681 -75997.058 125155.68 -75997.069 125145.788 -76267.765 105518.5 -76267.765 105518.5 -75911.442 105503.584 -75736.19 105502.155 -75730.702 105444.459 -75509.115 105444.457 -75509.111 105444.456 -75509.106 105347.801 -75295.282 105216.4 -75100.868 105216.396 -75100.864 105216.394 -75100.861 105054.035 -74931.459 105054.034 -74931.458 105054.033 -74931.457 104865.371 -74791.923 104655.841 -74686.28 104655.835 -74686.278 104655.83 -74686.276 104431.471 -74617.568 104397.93 -74613.273 104198.717 -74587.763 104198.713 -74587.763 104198.705 -74587.762 103964.272 -74597.721 103734.881 -74647.159 103517.147 -74734.652 103517.143 -74734.654 103317.337 -74857.68 103141.188 -75012.71 102993.769 -75195.285 102978.559 -75222.513 102927.874 -75272.228 102858.357 -75286.648 102792.08 -75261.196 102764.168 -75231.619 102676.009 -75101.184 102676.008 -75101.183 102513.703 -74931.836 102325.107 -74792.351 102115.649 -74686.744 102115.643 -74686.742 101891.361 -74618.057 101854 -74613.273 101854 -75655.775 101756.631 -75615.444 101639.323 -75600 101560.677 -75600 101443.369 -75615.444 101346 -75655.775 101346 -74615.102 101195.026 -74647.64 100977.375 -74735.1 100777.627 -74858.09 100777.625 -74858.092 100601.552 -75013.056 100601.544 -75013.065 100578.336 -75041.808 100519.979 -75082.243 100449.025 -75084.708 100388.002 -75048.421 100373.063 -75028.799 100372.115 -75027.263 100372.115 -75027.261 100279.03 -74876.348 100279.029 -74876.347 100279.024 -74876.341 100153.658 -74750.975 100153.652 -74750.97 100127.2 -74734.654 100002.739 -74657.885 99873.626 -74615.102 99834.428 -74602.113 99834.421 -74602.112 99730.554 -74591.5 99730.546 -74591.5 98389.454 -74591.5 98389.446 -74591.5 98285.578 -74602.112 98285.571 -74602.113 98117.261 -74657.885 97966.347 -74750.97 97966.341 -74750.975 97840.975 -74876.341 97840.97 -74876.347 97747.885 -75027.261 97692.113 -75195.571 97692.112 -75195.578 97681.5 -75299.445 97681.5 -77100.554 97681.499 -77100.554 77817.745 -77100.554 77907.656 -76925.675 77907.657 -76925.672 77950.842 -76799.088 77995.118 -76669.305 78025.912 -76502.588 78044.318 -76402.941 78044.319 -76402.93 78046.011 -76356.631 78054.212 -76132.235 78038.434 -75988.835 78024.587 -75862.985 77956.071 -75600.909 77850.13 -75351.61 77850.129 -75351.609 77709.018 -75120.39 77535.745 -74912.18 77535.741 -74912.177 77535.74 -74912.175 77334.012 -74731.427 77334.002 -74731.418 77108.09 -74581.956 76862.824 -74466.98 76705.392 -74419.615 76603.425 -74388.938 76335.442 -74349.5 76335.439 -74349.5 76132.369 -74349.5 76132.367 -74349.5 75929.839 -74364.323 75929.838 -74364.323 75665.456 -74423.217 75665.441 -74423.222 75412.441 -74519.986 75176.229 -74652.555 75176.225 -74652.557 74961.818 -74818.116 74773.815 -75013.117 74773.81 -75013.123 74616.203 -75233.417 74616.196 -75233.427 74492.343 -75474.324 74492.342 -75474.327 74404.883 -75730.689 74404.88 -75730.702 74355.681 -75997.058 74355.68 -75997.069 74345.788 -76267.765 71145.5 -76267.765 71145.5 -76200 71153.893 -75997.069 71162.657 -75785.175 71163.081 -75780.053 71214.116 -75370.631 71214.967 -75365.526 71299.636 -74961.72 71300.903 -74956.716 71418.627 -74561.291 71420.314 -74556.38 71570.279 -74172.052 71572.372 -74167.281 71675.776 -73955.765 71753.558 -73796.659 71756.031 -73792.09 71967.219 -73437.67 71970.052 -73433.335 72114.677 -73230.776 72209.773 -73097.586 72212.972 -73093.475 72479.607 -72778.659 72483.111 -72774.851 72774.851 -72483.111 72778.659 -72479.607 73093.475 -72212.972 73097.586 -72209.773 73265.456 -72089.915 73433.335 -71970.052 73437.67 -71967.219 73792.093 -71756.029 73796.659 -71753.558 74167.288 -71572.368 74172.052 -71570.279 74556.38 -71420.314 74561.291 -71418.627 74956.716 -71300.903 74961.72 -71299.636 75365.526 -71214.967 75370.631 -71214.116 75780.053 -71163.081 75785.175 -71162.657 76187.169 -71146.03 76200.001 -71145.5 76208.285 -71145.5 126991.715 -71145.5 126999.999 -71145.5 127013.24 -71146.047"/></g><g id="DUov_o08p41r_bottom_soldermask"><use xlink:href="#RbMtCX58-55K_pad-10" x="104140" y="-83820"/><use xlink:href="#RbMtCX58-55K_pad-11" x="101600" y="-83820"/><use xlink:href="#RbMtCX58-55K_pad-11" x="99060" y="-83820"/><use xlink:href="#RbMtCX58-55K_pad-11" x="96520" y="-83820"/><use xlink:href="#RbMtCX58-55K_pad-11" x="96520" y="-91440"/><use xlink:href="#RbMtCX58-55K_pad-11" x="99060" y="-91440"/><use xlink:href="#RbMtCX58-55K_pad-11" x="101600" y="-91440"/><use xlink:href="#RbMtCX58-55K_pad-11" x="104140" y="-91440"/><use xlink:href="#RbMtCX58-55K_pad-12" x="99060" y="-76200"/><use xlink:href="#RbMtCX58-55K_pad-13" x="101600" y="-76200"/><use xlink:href="#RbMtCX58-55K_pad-13" x="104140" y="-76200"/><use xlink:href="#RbMtCX58-55K_pad-14" x="116840" y="-91440"/><use xlink:href="#RbMtCX58-55K_pad-14" x="114300" y="-91440"/><use xlink:href="#RbMtCX58-55K_pad-14" x="111760" y="-91440"/><use xlink:href="#RbMtCX58-55K_pad-15" x="127000" y="-76200"/><use xlink:href="#RbMtCX58-55K_pad-15" x="76200" y="-76200"/><use xlink:href="#RbMtCX58-55K_pad-16" x="83820" y="-101600"/><use xlink:href="#RbMtCX58-55K_pad-16" x="88900" y="-101600"/><use xlink:href="#RbMtCX58-55K_pad-16" x="93980" y="-101600"/><use xlink:href="#RbMtCX58-55K_pad-16" x="104140" y="-101600"/><use xlink:href="#RbMtCX58-55K_pad-15" x="127000" y="-101600"/><use xlink:href="#RbMtCX58-55K_pad-16" x="99060" y="-101600"/><use xlink:href="#RbMtCX58-55K_pad-15" x="76200" y="-101600"/><use xlink:href="#RbMtCX58-55K_pad-17" x="129984.5" y="-88900"/><use xlink:href="#RbMtCX58-55K_pad-18" x="129984.5" y="-92392.5"/><use xlink:href="#RbMtCX58-55K_pad-18" x="129984.5" y="-85407.5"/><use xlink:href="#RbMtCX58-55K_pad-17" x="73215.5" y="-88900"/><use xlink:href="#RbMtCX58-55K_pad-18" x="73215.5" y="-85407.5"/><use xlink:href="#RbMtCX58-55K_pad-18" x="73215.5" y="-92392.5"/></g><g id="DUov_o08p41r_bottom_silkscreen"><path d="M 118387.38 -75849.819 118720.713 -75373.628 M 118958.808 -75849.819 118958.808 -74849.819 118577.856 -74849.819 118482.618 -74897.438 118434.999 -74945.057 118387.38 -75040.295 118387.38 -75183.152 118434.999 -75278.39 118482.618 -75326.009 118577.856 -75373.628 118958.808 -75373.628 M 117958.808 -75326.009 117625.475 -75326.009 M 117482.618 -75849.819 117958.808 -75849.819 117958.808 -74849.819 117482.618 -74849.819 M 117196.903 -74849.819 116863.57 -75849.819 116530.237 -74849.819 M 116196.903 -75849.819 116196.903 -74849.819 M 115768.332 -75802.2 115625.475 -75849.819 115387.38 -75849.819 115292.142 -75802.2 115244.523 -75754.58 115196.904 -75659.342 115196.904 -75564.104 115244.523 -75468.866 115292.142 -75421.247 115387.38 -75373.628 115577.856 -75326.009 115673.094 -75278.39 115720.713 -75230.771 115768.332 -75135.533 115768.332 -75040.295 115720.713 -74945.057 115673.094 -74897.438 115577.856 -74849.819 115339.761 -74849.819 115196.904 -74897.438 M 114768.332 -75849.819 114768.332 -74849.819 M 114101.666 -74849.819 113911.19 -74849.819 113815.952 -74897.438 113720.714 -74992.676 113673.095 -75183.152 113673.095 -75516.485 113720.714 -75706.961 113815.952 -75802.2 113911.19 -75849.819 114101.666 -75849.819 114196.904 -75802.2 114292.142 -75706.961 114339.761 -75516.485 114339.761 -75183.152 114292.142 -74992.676 114196.904 -74897.438 114101.666 -74849.819 M 113244.523 -75849.819 113244.523 -74849.819 112673.095 -75849.819 112673.095 -74849.819 M 111101.666 -75326.009 110958.809 -75373.628 110911.19 -75421.247 110863.571 -75516.485 110863.571 -75659.342 110911.19 -75754.58 110958.809 -75802.2 111054.047 -75849.819 111434.999 -75849.819 111434.999 -74849.819 111101.666 -74849.819 111006.428 -74897.438 110958.809 -74945.057 110911.19 -75040.295 110911.19 -75135.533 110958.809 -75230.771 111006.428 -75278.39 111101.666 -75326.009 111434.999 -75326.009 M 118435 -76459.819 118435 -77174.104 118482.619 -77316.961 118577.857 -77412.2 118720.714 -77459.819 118815.952 -77459.819 M 117958.809 -76459.819 117958.809 -77269.342 117911.19 -77364.58 117863.571 -77412.2 117768.333 -77459.819 117577.857 -77459.819 117482.619 -77412.2 117435 -77364.58 117387.381 -77269.342 117387.381 -76459.819 M 116435 -77459.819 116911.19 -77459.819 116911.19 -76459.819 M 115911.19 -76983.628 115911.19 -77459.819 M 116244.523 -76459.819 115911.19 -76983.628 115577.857 -76459.819 M 114530.237 -76555.057 114482.618 -76507.438 114387.38 -76459.819 114149.285 -76459.819 114054.047 -76507.438 114006.428 -76555.057 113958.809 -76650.295 113958.809 -76745.533 114006.428 -76888.39 114577.856 -77459.819 113958.809 -77459.819 M 113339.761 -76459.819 113244.523 -76459.819 113149.285 -76507.438 113101.666 -76555.057 113054.047 -76650.295 113006.428 -76840.771 113006.428 -77078.866 113054.047 -77269.342 113101.666 -77364.58 113149.285 -77412.2 113244.523 -77459.819 113339.761 -77459.819 113434.999 -77412.2 113482.618 -77364.58 113530.237 -77269.342 113577.856 -77078.866 113577.856 -76840.771 113530.237 -76650.295 113482.618 -76555.057 113434.999 -76507.438 113339.761 -76459.819 M 112625.475 -76555.057 112577.856 -76507.438 112482.618 -76459.819 112244.523 -76459.819 112149.285 -76507.438 112101.666 -76555.057 112054.047 -76650.295 112054.047 -76745.533 112101.666 -76888.39 112673.094 -77459.819 112054.047 -77459.819 M 111720.713 -76459.819 111101.666 -76459.819 111434.999 -76840.771 111292.142 -76840.771 111196.904 -76888.39 111149.285 -76936.009 111101.666 -77031.247 111101.666 -77269.342 111149.285 -77364.58 111196.904 -77412.2 111292.142 -77459.819 111577.856 -77459.819 111673.094 -77412.2 111720.713 -77364.58 M 94645.952 -74521.009 94503.095 -74568.628 94455.476 -74616.247 94407.857 -74711.485 94407.857 -74854.342 94455.476 -74949.58 94503.095 -74997.2 94598.333 -75044.819 94979.285 -75044.819 94979.285 -74044.819 94645.952 -74044.819 94550.714 -74092.438 94503.095 -74140.057 94455.476 -74235.295 94455.476 -74330.533 94503.095 -74425.771 94550.714 -74473.39 94645.952 -74521.009 94979.285 -74521.009 M 93979.285 -74949.58 93931.666 -74997.2 93979.285 -75044.819 94026.904 -74997.2 93979.285 -74949.58 93979.285 -75044.819 M 92741.19 -75044.819 92741.19 -74044.819 92407.857 -74759.104 92074.524 -74044.819 92074.524 -75044.819 M 91598.333 -74521.009 91265 -74521.009 M 91122.143 -75044.819 91598.333 -75044.819 91598.333 -74044.819 91122.143 -74044.819 M 90693.571 -75044.819 90693.571 -74044.819 M 90693.571 -74521.009 90122.143 -74521.009 M 90122.143 -75044.819 90122.143 -74044.819 M 89169.762 -75044.819 89645.952 -75044.819 89645.952 -74044.819 M 88836.428 -74521.009 88503.095 -74521.009 M 88360.238 -75044.819 88836.428 -75044.819 88836.428 -74044.819 88360.238 -74044.819 M 87931.666 -75044.819 87931.666 -74044.819 87360.238 -75044.819 87360.238 -74044.819 M 86550.714 -74521.009 86407.857 -74568.628 86360.238 -74616.247 86312.619 -74711.485 86312.619 -74854.342 86360.238 -74949.58 86407.857 -74997.2 86503.095 -75044.819 86884.047 -75044.819 86884.047 -74044.819 86550.714 -74044.819 86455.476 -74092.438 86407.857 -74140.057 86360.238 -74235.295 86360.238 -74330.533 86407.857 -74425.771 86455.476 -74473.39 86550.714 -74521.009 86884.047 -74521.009 M 85931.666 -74759.104 85455.476 -74759.104 M 86026.904 -75044.819 85693.571 -74044.819 85360.238 -75044.819 M 84455.476 -74949.58 84503.095 -74997.2 84645.952 -75044.819 84741.19 -75044.819 84884.047 -74997.2 84979.285 -74901.961 85026.904 -74806.723 85074.523 -74616.247 85074.523 -74473.39 85026.904 -74282.914 84979.285 -74187.676 84884.047 -74092.438 84741.19 -74044.819 84645.952 -74044.819 84503.095 -74092.438 84455.476 -74140.057 M 84026.904 -75044.819 84026.904 -74044.819 M 84026.904 -74521.009 83455.476 -74521.009 M 83455.476 -75044.819 83455.476 -74044.819 M 82979.285 -74521.009 82645.952 -74521.009 M 82503.095 -75044.819 82979.285 -75044.819 82979.285 -74044.819 82503.095 -74044.819 M 81503.095 -75044.819 81836.428 -74568.628 M 82074.523 -75044.819 82074.523 -74044.819 81693.571 -74044.819 81598.333 -74092.438 81550.714 -74140.057 81503.095 -74235.295 81503.095 -74378.152 81550.714 -74473.39 81598.333 -74521.009 81693.571 -74568.628 82074.523 -74568.628 M 93003.094 -75654.819 93003.094 -76464.342 92955.475 -76559.58 92907.856 -76607.2 92812.618 -76654.819 92622.142 -76654.819 92526.904 -76607.2 92479.285 -76559.58 92431.666 -76464.342 92431.666 -75654.819 M 92050.713 -75654.819 91812.618 -76654.819 91622.142 -75940.533 91431.666 -76654.819 91193.571 -75654.819 M 90812.618 -76273.866 90050.714 -76273.866 M 89574.523 -76654.819 89574.523 -75654.819 89241.19 -76369.104 88907.857 -75654.819 88907.857 -76654.819 M 88479.285 -76369.104 88003.095 -76369.104 M 88574.523 -76654.819 88241.19 -75654.819 87907.857 -76654.819 M 87574.523 -76654.819 87574.523 -75654.819 87336.428 -75654.819 87193.571 -75702.438 87098.333 -75797.676 87050.714 -75892.914 87003.095 -76083.39 87003.095 -76226.247 87050.714 -76416.723 87098.333 -76511.961 87193.571 -76607.2 87336.428 -76654.819 87574.523 -76654.819 M 86574.523 -76654.819 86574.523 -75654.819 M 86145.952 -76607.2 86003.095 -76654.819 85765 -76654.819 85669.762 -76607.2 85622.143 -76559.58 85574.524 -76464.342 85574.524 -76369.104 85622.143 -76273.866 85669.762 -76226.247 85765 -76178.628 85955.476 -76131.009 86050.714 -76083.39 86098.333 -76035.771 86145.952 -75940.533 86145.952 -75845.295 86098.333 -75750.057 86050.714 -75702.438 85955.476 -75654.819 85717.381 -75654.819 85574.524 -75702.438 M 84955.476 -75654.819 84765 -75654.819 84669.762 -75702.438 84574.524 -75797.676 84526.905 -75988.152 84526.905 -76321.485 84574.524 -76511.961 84669.762 -76607.2 84765 -76654.819 84955.476 -76654.819 85050.714 -76607.2 85145.952 -76511.961 85193.571 -76321.485 85193.571 -75988.152 85145.952 -75797.676 85050.714 -75702.438 84955.476 -75654.819 M 84098.333 -76654.819 84098.333 -75654.819 83526.905 -76654.819 83526.905 -75654.819 M 91526.904 -78169.58 91574.523 -78217.2 91717.38 -78264.819 91812.618 -78264.819 91955.475 -78217.2 92050.713 -78121.961 92098.332 -78026.723 92145.951 -77836.247 92145.951 -77693.39 92098.332 -77502.914 92050.713 -77407.676 91955.475 -77312.438 91812.618 -77264.819 91717.38 -77264.819 91574.523 -77312.438 91526.904 -77360.057 M 91098.332 -78264.819 91098.332 -77264.819 M 91098.332 -77741.009 90526.904 -77741.009 M 90526.904 -78264.819 90526.904 -77264.819 M 90050.713 -77741.009 89717.38 -77741.009 M 89574.523 -78264.819 90050.713 -78264.819 90050.713 -77264.819 89574.523 -77264.819 M 89145.951 -78264.819 89145.951 -77264.819 88812.618 -77979.104 88479.285 -77264.819 88479.285 -78264.819 M 88003.094 -78264.819 88003.094 -77264.819 M 87574.523 -78217.2 87431.666 -78264.819 87193.571 -78264.819 87098.333 -78217.2 87050.714 -78169.58 87003.095 -78074.342 87003.095 -77979.104 87050.714 -77883.866 87098.333 -77836.247 87193.571 -77788.628 87384.047 -77741.009 87479.285 -77693.39 87526.904 -77645.771 87574.523 -77550.533 87574.523 -77455.295 87526.904 -77360.057 87479.285 -77312.438 87384.047 -77264.819 87145.952 -77264.819 87003.095 -77312.438 M 86717.38 -77264.819 86145.952 -77264.819 M 86431.666 -78264.819 86431.666 -77264.819 M 85241.19 -78264.819 85574.523 -77788.628 M 85812.618 -78264.819 85812.618 -77264.819 85431.666 -77264.819 85336.428 -77312.438 85288.809 -77360.057 85241.19 -77455.295 85241.19 -77598.152 85288.809 -77693.39 85336.428 -77741.009 85431.666 -77788.628 85812.618 -77788.628 M 84622.142 -77788.628 84622.142 -78264.819 M 84955.475 -77264.819 84622.142 -77788.628 84288.809 -77264.819 M 125819.819 -85733.332 126534.104 -85733.332 126676.961 -85685.713 126772.2 -85590.475 126819.819 -85447.618 126819.819 -85352.38 M 126915.057 -85971.428 126915.057 -86733.332 M 125819.819 -87161.904 125819.819 -87352.38 125867.438 -87447.618 125962.676 -87542.856 126153.152 -87590.475 126486.485 -87590.475 126676.961 -87542.856 126772.2 -87447.618 126819.819 -87352.38 126819.819 -87161.904 126772.2 -87066.666 126676.961 -86971.428 126486.485 -86923.809 126153.152 -86923.809 125962.676 -86971.428 125867.438 -87066.666 125819.819 -87161.904 M 126153.152 -88447.618 126819.819 -88447.618 M 126153.152 -88019.047 126676.961 -88019.047 126772.2 -88066.666 126819.819 -88161.904 126819.819 -88304.761 126772.2 -88399.999 126724.58 -88447.618 M 126153.152 -88780.952 126153.152 -89161.904 M 125819.819 -88923.809 126676.961 -88923.809 126772.2 -88971.428 126819.819 -89066.666 126819.819 -89161.904 M 126153.152 -89495.238 127153.152 -89495.238 M 126200.771 -89495.238 126153.152 -89590.476 126153.152 -89780.952 126200.771 -89876.19 126248.39 -89923.809 126343.628 -89971.428 126629.342 -89971.428 126724.58 -89923.809 126772.2 -89876.19 126819.819 -89780.952 126819.819 -89590.476 126772.2 -89495.238 M 126153.152 -90828.571 126819.819 -90828.571 M 126153.152 -90400 126676.961 -90400 126772.2 -90447.619 126819.819 -90542.857 126819.819 -90685.714 126772.2 -90780.952 126724.58 -90828.571 M 126153.152 -91161.905 126153.152 -91542.857 M 125819.819 -91304.762 126676.961 -91304.762 126772.2 -91352.381 126819.819 -91447.619 126819.819 -91542.857 M 126819.819 -92400 126819.819 -91828.572 M 126819.819 -92114.286 125819.819 -92114.286 125962.676 -92019.048 126057.914 -91923.81 126105.533 -91828.572 M 76289.819 -85638.094 77004.104 -85638.094 77146.961 -85590.475 77242.2 -85495.237 77289.819 -85352.38 77289.819 -85257.142 M 77385.057 -85876.19 77385.057 -86638.094 M 77242.2 -86828.571 77289.819 -86971.428 77289.819 -87209.523 77242.2 -87304.761 77194.58 -87352.38 77099.342 -87399.999 77004.104 -87399.999 76908.866 -87352.38 76861.247 -87304.761 76813.628 -87209.523 76766.009 -87019.047 76718.39 -86923.809 76670.771 -86876.19 76575.533 -86828.571 76480.295 -86828.571 76385.057 -86876.19 76337.438 -86923.809 76289.819 -87019.047 76289.819 -87257.142 76337.438 -87399.999 M 77289.819 -87971.428 77242.2 -87876.19 77194.58 -87828.571 77099.342 -87780.952 76813.628 -87780.952 76718.39 -87828.571 76670.771 -87876.19 76623.152 -87971.428 76623.152 -88114.285 76670.771 -88209.523 76718.39 -88257.142 76813.628 -88304.761 77099.342 -88304.761 77194.58 -88257.142 77242.2 -88209.523 77289.819 -88114.285 77289.819 -87971.428 M 76623.152 -89161.904 77289.819 -89161.904 M 76623.152 -88733.333 77146.961 -88733.333 77242.2 -88780.952 77289.819 -88876.19 77289.819 -89019.047 77242.2 -89114.285 77194.58 -89161.904 M 77289.819 -89638.095 76623.152 -89638.095 M 76813.628 -89638.095 76718.39 -89685.714 76670.771 -89733.333 76623.152 -89828.571 76623.152 -89923.809 M 77242.2 -90685.714 77289.819 -90590.476 77289.819 -90400 77242.2 -90304.762 77194.58 -90257.143 77099.342 -90209.524 76813.628 -90209.524 76718.39 -90257.143 76670.771 -90304.762 76623.152 -90400 76623.152 -90590.476 76670.771 -90685.714 M 77242.2 -91495.238 77289.819 -91400 77289.819 -91209.524 77242.2 -91114.286 77146.961 -91066.667 76766.009 -91066.667 76670.771 -91114.286 76623.152 -91209.524 76623.152 -91400 76670.771 -91495.238 76766.009 -91542.857 76861.247 -91542.857 76956.485 -91066.667 M 77289.819 -92495.238 77289.819 -91923.81 M 77289.819 -92209.524 76289.819 -92209.524 76432.676 -92114.286 76527.914 -92019.048 76575.533 -91923.81 M 125095 -93980 132080 -93980 132080 -83820 M 125095 -83820 125095 -93980 M 132080 -83820 125095 -83820 M 78105 -83820 71120 -83820 71120 -93980 M 78105 -93980 78105 -83820 M 71120 -93980 78105 -93980" fill="none" stroke-width="150"/></g><g id="DUov_o08p41r_bottom_drill1" transform="scale(25.4,25.4)"><use xlink:href="#eY_42-EK-roe_pad-1" x="3000" y="-3000"/><use xlink:href="#eY_42-EK-roe_pad-1" x="3000" y="-4000"/><use xlink:href="#eY_42-EK-roe_pad-1" x="5000" y="-3000"/><use xlink:href="#eY_42-EK-roe_pad-1" x="5000" y="-4000"/></g><g id="DUov_o08p41r_bottom_drill2" transform="scale(25.4,25.4)"><use xlink:href="#aWPI6RtpzlyK_pad-1" x="3650" y="-3300"/><use xlink:href="#aWPI6RtpzlyK_pad-1" x="3650" y="-3850"/><use xlink:href="#aWPI6RtpzlyK_pad-2" x="3800" y="-3300"/><use xlink:href="#aWPI6RtpzlyK_pad-2" x="3800" y="-3600"/><use xlink:href="#aWPI6RtpzlyK_pad-2" x="3900" y="-3300"/><use xlink:href="#aWPI6RtpzlyK_pad-2" x="3900" y="-3600"/><use xlink:href="#aWPI6RtpzlyK_pad-2" x="4000" y="-3300"/><use xlink:href="#aWPI6RtpzlyK_pad-2" x="4000" y="-3600"/><use xlink:href="#aWPI6RtpzlyK_pad-2" x="4100" y="-3300"/><use xlink:href="#aWPI6RtpzlyK_pad-2" x="4100" y="-3600"/><use xlink:href="#aWPI6RtpzlyK_pad-2" x="4400" y="-3600"/><use xlink:href="#aWPI6RtpzlyK_pad-2" x="4500" y="-3600"/><use xlink:href="#aWPI6RtpzlyK_pad-2" x="4600" y="-3600"/><use xlink:href="#aWPI6RtpzlyK_pad-3" x="3900" y="-3000"/><use xlink:href="#aWPI6RtpzlyK_pad-3" x="4000" y="-3000"/><use xlink:href="#aWPI6RtpzlyK_pad-3" x="4100" y="-3000"/><use xlink:href="#aWPI6RtpzlyK_pad-4" x="3300" y="-4000"/><use xlink:href="#aWPI6RtpzlyK_pad-4" x="3500" y="-4000"/><use xlink:href="#aWPI6RtpzlyK_pad-4" x="3700" y="-4000"/><use xlink:href="#aWPI6RtpzlyK_pad-4" x="3900" y="-4000"/><use xlink:href="#aWPI6RtpzlyK_pad-4" x="4100" y="-4000"/></g><clipPath id="DUov_o08p41r_bottom_outline"><path d="M 71120 -76200 71120 -101600 A 5080 5080 0 0 1 76200 -106680 L 127000 -106680 A 5080 5080 0 0 1 132080 -101600 L 132080 -76200 A 5080 5080 0 0 1 127000 -71120 L 76200 -71120 A 5080 5080 0 0 1 71120 -76200" fill="none" stroke-width="50"/></clipPath><mask id="DUov_o08p41r_bottom_mech-mask"><g fill="#000" stroke="#000"><rect x="71120" y="-106680" width="60960" height="35560" fill="#fff"/><use xlink:href="#DUov_o08p41r_bottom_drill1"/><use xlink:href="#DUov_o08p41r_bottom_drill2"/></g></mask><mask id="DUov_o08p41r_bottom_cf-mask"><g fill="#fff" stroke="#fff"><use xlink:href="#DUov_o08p41r_bottom_soldermask"/></g></mask><mask id="DUov_o08p41r_bottom_sm-mask"><g fill="#000" stroke="#000"><rect x="71120" y="-106680" width="60960" height="35560" fill="#fff"/><use xlink:href="#DUov_o08p41r_bottom_soldermask"/></g></mask></defs><g transform="translate(0,-177800) scale(1,-1)"><g mask="url(#DUov_o08p41r_bottom_mech-mask)" clip-path="url(#DUov_o08p41r_bottom_outline)" transform="translate(203200,0) scale(-1,1)"><rect x="71120" y="-106680" width="60960" height="35560" fill="currentColor" class="DUov_o08p41r_fr4"/><use xlink:href="#DUov_o08p41r_bottom_copper" fill="currentColor" stroke="currentColor" class="DUov_o08p41r_cu"/><use xlink:href="#DUov_o08p41r_bottom_copper" fill="currentColor" stroke="currentColor" class="DUov_o08p41r_cf" mask="url(#DUov_o08p41r_bottom_cf-mask)"/><g mask="url(#DUov_o08p41r_bottom_sm-mask)"><rect x="71120" y="-106680" width="60960" height="35560" fill="currentColor" class="DUov_o08p41r_sm"/><use xlink:href="#DUov_o08p41r_bottom_silkscreen" fill="currentColor" stroke="currentColor" class="DUov_o08p41r_ss"/></g></g></g></svg>