G04 #@! TF.GenerationSoftware,KiCad,Pcbnew,5.1.8+dfsg1-1+b1*
G04 #@! TF.CreationDate,2021-02-01T12:52:58-06:00*
G04 #@! TF.ProjectId,DC_Amplifier,44435f41-6d70-46c6-9966-6965722e6b69,1.1.0*
G04 #@! TF.SameCoordinates,Original*
G04 #@! TF.FileFunction,Legend,Top*
G04 #@! TF.FilePolarity,Positive*
%FSLAX46Y46*%
G04 Gerber Fmt 4.6, Leading zero omitted, Abs format (unit mm)*
G04 Created by KiCad (PCBNEW 5.1.8+dfsg1-1+b1) date 2021-02-01 12:52:58*
%MOMM*%
%LPD*%
G01*
G04 APERTURE LIST*
%ADD10C,0.150000*%
G04 #@! TA.AperFunction,Profile*
%ADD11C,0.050000*%
G04 #@! TD*
%ADD12C,0.010000*%
%ADD13C,0.120000*%
G04 APERTURE END LIST*
D10*
X98679047Y-71826428D02*
X99440952Y-71826428D01*
X99060000Y-72207380D02*
X99060000Y-71445476D01*
X103759047Y-71826428D02*
X104520952Y-71826428D01*
X83296190Y-105227380D02*
X83296190Y-104227380D01*
X83772380Y-105227380D02*
X83772380Y-104227380D01*
X84343809Y-105227380D01*
X84343809Y-104227380D01*
X87900000Y-104227380D02*
X88090476Y-104227380D01*
X88185714Y-104275000D01*
X88280952Y-104370238D01*
X88328571Y-104560714D01*
X88328571Y-104894047D01*
X88280952Y-105084523D01*
X88185714Y-105179761D01*
X88090476Y-105227380D01*
X87900000Y-105227380D01*
X87804761Y-105179761D01*
X87709523Y-105084523D01*
X87661904Y-104894047D01*
X87661904Y-104560714D01*
X87709523Y-104370238D01*
X87804761Y-104275000D01*
X87900000Y-104227380D01*
X88757142Y-104227380D02*
X88757142Y-105036904D01*
X88804761Y-105132142D01*
X88852380Y-105179761D01*
X88947619Y-105227380D01*
X89138095Y-105227380D01*
X89233333Y-105179761D01*
X89280952Y-105132142D01*
X89328571Y-105036904D01*
X89328571Y-104227380D01*
X89661904Y-104227380D02*
X90233333Y-104227380D01*
X89947619Y-105227380D02*
X89947619Y-104227380D01*
X103187619Y-104227380D02*
X103520952Y-105227380D01*
X103854285Y-104227380D01*
X104187619Y-104846428D02*
X104949523Y-104846428D01*
X104568571Y-105227380D02*
X104568571Y-104465476D01*
X98107619Y-104227380D02*
X98440952Y-105227380D01*
X98774285Y-104227380D01*
X99107619Y-104846428D02*
X99869523Y-104846428D01*
X93218095Y-104275000D02*
X93122857Y-104227380D01*
X92980000Y-104227380D01*
X92837142Y-104275000D01*
X92741904Y-104370238D01*
X92694285Y-104465476D01*
X92646666Y-104655952D01*
X92646666Y-104798809D01*
X92694285Y-104989285D01*
X92741904Y-105084523D01*
X92837142Y-105179761D01*
X92980000Y-105227380D01*
X93075238Y-105227380D01*
X93218095Y-105179761D01*
X93265714Y-105132142D01*
X93265714Y-104798809D01*
X93075238Y-104798809D01*
X93694285Y-105227380D02*
X93694285Y-104227380D01*
X94265714Y-105227380D01*
X94265714Y-104227380D01*
X94741904Y-105227380D02*
X94741904Y-104227380D01*
X94980000Y-104227380D01*
X95122857Y-104275000D01*
X95218095Y-104370238D01*
X95265714Y-104465476D01*
X95313333Y-104655952D01*
X95313333Y-104798809D01*
X95265714Y-104989285D01*
X95218095Y-105084523D01*
X95122857Y-105179761D01*
X94980000Y-105227380D01*
X94741904Y-105227380D01*
X109133333Y-95782380D02*
X109466666Y-96782380D01*
X109800000Y-95782380D01*
X110276190Y-96782380D02*
X110180952Y-96734761D01*
X110133333Y-96687142D01*
X110085714Y-96591904D01*
X110085714Y-96306190D01*
X110133333Y-96210952D01*
X110180952Y-96163333D01*
X110276190Y-96115714D01*
X110419047Y-96115714D01*
X110514285Y-96163333D01*
X110561904Y-96210952D01*
X110609523Y-96306190D01*
X110609523Y-96591904D01*
X110561904Y-96687142D01*
X110514285Y-96734761D01*
X110419047Y-96782380D01*
X110276190Y-96782380D01*
X111466666Y-96115714D02*
X111466666Y-96782380D01*
X111038095Y-96115714D02*
X111038095Y-96639523D01*
X111085714Y-96734761D01*
X111180952Y-96782380D01*
X111323809Y-96782380D01*
X111419047Y-96734761D01*
X111466666Y-96687142D01*
X111800000Y-96115714D02*
X112180952Y-96115714D01*
X111942857Y-95782380D02*
X111942857Y-96639523D01*
X111990476Y-96734761D01*
X112085714Y-96782380D01*
X112180952Y-96782380D01*
X113276190Y-96258571D02*
X114038095Y-96258571D01*
X114038095Y-96544285D02*
X113276190Y-96544285D01*
X115133333Y-95782380D02*
X115466666Y-96782380D01*
X115800000Y-95782380D01*
X116133333Y-96782380D02*
X116133333Y-96115714D01*
X116133333Y-95782380D02*
X116085714Y-95830000D01*
X116133333Y-95877619D01*
X116180952Y-95830000D01*
X116133333Y-95782380D01*
X116133333Y-95877619D01*
X116609523Y-96115714D02*
X116609523Y-96782380D01*
X116609523Y-96210952D02*
X116657142Y-96163333D01*
X116752380Y-96115714D01*
X116895238Y-96115714D01*
X116990476Y-96163333D01*
X117038095Y-96258571D01*
X117038095Y-96782380D01*
X118419047Y-95782380D02*
X118419047Y-96020476D01*
X118180952Y-95925238D02*
X118419047Y-96020476D01*
X118657142Y-95925238D01*
X118276190Y-96210952D02*
X118419047Y-96020476D01*
X118561904Y-96210952D01*
X107466666Y-98813333D02*
X107419047Y-98765714D01*
X107323809Y-98622857D01*
X107276190Y-98527619D01*
X107228571Y-98384761D01*
X107180952Y-98146666D01*
X107180952Y-97956190D01*
X107228571Y-97718095D01*
X107276190Y-97575238D01*
X107323809Y-97480000D01*
X107419047Y-97337142D01*
X107466666Y-97289523D01*
X108419047Y-98432380D02*
X108085714Y-97956190D01*
X107847619Y-98432380D02*
X107847619Y-97432380D01*
X108228571Y-97432380D01*
X108323809Y-97480000D01*
X108371428Y-97527619D01*
X108419047Y-97622857D01*
X108419047Y-97765714D01*
X108371428Y-97860952D01*
X108323809Y-97908571D01*
X108228571Y-97956190D01*
X107847619Y-97956190D01*
X109371428Y-98432380D02*
X108800000Y-98432380D01*
X109085714Y-98432380D02*
X109085714Y-97432380D01*
X108990476Y-97575238D01*
X108895238Y-97670476D01*
X108800000Y-97718095D01*
X111276190Y-97384761D02*
X110419047Y-98670476D01*
X112657142Y-98813333D02*
X112609523Y-98765714D01*
X112514285Y-98622857D01*
X112466666Y-98527619D01*
X112419047Y-98384761D01*
X112371428Y-98146666D01*
X112371428Y-97956190D01*
X112419047Y-97718095D01*
X112466666Y-97575238D01*
X112514285Y-97480000D01*
X112609523Y-97337142D01*
X112657142Y-97289523D01*
X113609523Y-98432380D02*
X113276190Y-97956190D01*
X113038095Y-98432380D02*
X113038095Y-97432380D01*
X113419047Y-97432380D01*
X113514285Y-97480000D01*
X113561904Y-97527619D01*
X113609523Y-97622857D01*
X113609523Y-97765714D01*
X113561904Y-97860952D01*
X113514285Y-97908571D01*
X113419047Y-97956190D01*
X113038095Y-97956190D01*
X114561904Y-98432380D02*
X113990476Y-98432380D01*
X114276190Y-98432380D02*
X114276190Y-97432380D01*
X114180952Y-97575238D01*
X114085714Y-97670476D01*
X113990476Y-97718095D01*
X115752380Y-98051428D02*
X116514285Y-98051428D01*
X116133333Y-98432380D02*
X116133333Y-97670476D01*
X118323809Y-98432380D02*
X117990476Y-97956190D01*
X117752380Y-98432380D02*
X117752380Y-97432380D01*
X118133333Y-97432380D01*
X118228571Y-97480000D01*
X118276190Y-97527619D01*
X118323809Y-97622857D01*
X118323809Y-97765714D01*
X118276190Y-97860952D01*
X118228571Y-97908571D01*
X118133333Y-97956190D01*
X117752380Y-97956190D01*
X118609523Y-97432380D02*
X118942857Y-98432380D01*
X119276190Y-97432380D01*
X120133333Y-98432380D02*
X119561904Y-98432380D01*
X119847619Y-98432380D02*
X119847619Y-97432380D01*
X119752380Y-97575238D01*
X119657142Y-97670476D01*
X119561904Y-97718095D01*
X120466666Y-98813333D02*
X120514285Y-98765714D01*
X120609523Y-98622857D01*
X120657142Y-98527619D01*
X120704761Y-98384761D01*
X120752380Y-98146666D01*
X120752380Y-97956190D01*
X120704761Y-97718095D01*
X120657142Y-97575238D01*
X120609523Y-97480000D01*
X120514285Y-97337142D01*
X120466666Y-97289523D01*
X121133333Y-98813333D02*
X121180952Y-98765714D01*
X121276190Y-98622857D01*
X121323809Y-98527619D01*
X121371428Y-98384761D01*
X121419047Y-98146666D01*
X121419047Y-97956190D01*
X121371428Y-97718095D01*
X121323809Y-97575238D01*
X121276190Y-97480000D01*
X121180952Y-97337142D01*
X121133333Y-97289523D01*
X81891904Y-92337380D02*
X81891904Y-91337380D01*
X82463333Y-92337380D01*
X82463333Y-91337380D01*
X83130000Y-91337380D02*
X83320476Y-91337380D01*
X83415714Y-91385000D01*
X83510952Y-91480238D01*
X83558571Y-91670714D01*
X83558571Y-92004047D01*
X83510952Y-92194523D01*
X83415714Y-92289761D01*
X83320476Y-92337380D01*
X83130000Y-92337380D01*
X83034761Y-92289761D01*
X82939523Y-92194523D01*
X82891904Y-92004047D01*
X82891904Y-91670714D01*
X82939523Y-91480238D01*
X83034761Y-91385000D01*
X83130000Y-91337380D01*
X83987142Y-92337380D02*
X83987142Y-91337380D01*
X84558571Y-92337380D01*
X84558571Y-91337380D01*
X85034761Y-91956428D02*
X85796666Y-91956428D01*
X86272857Y-92337380D02*
X86272857Y-91337380D01*
X86749047Y-92337380D02*
X86749047Y-91337380D01*
X87320476Y-92337380D01*
X87320476Y-91337380D01*
X87653809Y-91337380D02*
X87987142Y-92337380D01*
X88320476Y-91337380D01*
X88653809Y-91813571D02*
X88987142Y-91813571D01*
X89130000Y-92337380D02*
X88653809Y-92337380D01*
X88653809Y-91337380D01*
X89130000Y-91337380D01*
X90130000Y-92337380D02*
X89796666Y-91861190D01*
X89558571Y-92337380D02*
X89558571Y-91337380D01*
X89939523Y-91337380D01*
X90034761Y-91385000D01*
X90082380Y-91432619D01*
X90130000Y-91527857D01*
X90130000Y-91670714D01*
X90082380Y-91765952D01*
X90034761Y-91813571D01*
X89939523Y-91861190D01*
X89558571Y-91861190D01*
X90415714Y-91337380D02*
X90987142Y-91337380D01*
X90701428Y-92337380D02*
X90701428Y-91337380D01*
X91320476Y-92337380D02*
X91320476Y-91337380D01*
X91796666Y-92337380D02*
X91796666Y-91337380D01*
X92368095Y-92337380D01*
X92368095Y-91337380D01*
X93368095Y-91385000D02*
X93272857Y-91337380D01*
X93130000Y-91337380D01*
X92987142Y-91385000D01*
X92891904Y-91480238D01*
X92844285Y-91575476D01*
X92796666Y-91765952D01*
X92796666Y-91908809D01*
X92844285Y-92099285D01*
X92891904Y-92194523D01*
X92987142Y-92289761D01*
X93130000Y-92337380D01*
X93225238Y-92337380D01*
X93368095Y-92289761D01*
X93415714Y-92242142D01*
X93415714Y-91908809D01*
X93225238Y-91908809D01*
X84058571Y-93701666D02*
X84534761Y-93701666D01*
X83963333Y-93987380D02*
X84296666Y-92987380D01*
X84630000Y-93987380D01*
X84963333Y-93987380D02*
X84963333Y-92987380D01*
X85296666Y-93701666D01*
X85630000Y-92987380D01*
X85630000Y-93987380D01*
X86106190Y-93987380D02*
X86106190Y-92987380D01*
X86487142Y-92987380D01*
X86582380Y-93035000D01*
X86630000Y-93082619D01*
X86677619Y-93177857D01*
X86677619Y-93320714D01*
X86630000Y-93415952D01*
X86582380Y-93463571D01*
X86487142Y-93511190D01*
X86106190Y-93511190D01*
X87582380Y-93987380D02*
X87106190Y-93987380D01*
X87106190Y-92987380D01*
X87915714Y-93987380D02*
X87915714Y-92987380D01*
X88725238Y-93463571D02*
X88391904Y-93463571D01*
X88391904Y-93987380D02*
X88391904Y-92987380D01*
X88868095Y-92987380D01*
X89249047Y-93987380D02*
X89249047Y-92987380D01*
X89725238Y-93463571D02*
X90058571Y-93463571D01*
X90201428Y-93987380D02*
X89725238Y-93987380D01*
X89725238Y-92987380D01*
X90201428Y-92987380D01*
X91201428Y-93987380D02*
X90868095Y-93511190D01*
X90630000Y-93987380D02*
X90630000Y-92987380D01*
X91010952Y-92987380D01*
X91106190Y-93035000D01*
X91153809Y-93082619D01*
X91201428Y-93177857D01*
X91201428Y-93320714D01*
X91153809Y-93415952D01*
X91106190Y-93463571D01*
X91010952Y-93511190D01*
X90630000Y-93511190D01*
X78287619Y-88376190D02*
X79287619Y-88376190D01*
X78287619Y-88852380D02*
X79287619Y-88852380D01*
X78287619Y-89423809D01*
X79287619Y-89423809D01*
X123912380Y-89900000D02*
X123912380Y-89709523D01*
X123960000Y-89614285D01*
X124055238Y-89519047D01*
X124245714Y-89471428D01*
X124579047Y-89471428D01*
X124769523Y-89519047D01*
X124864761Y-89614285D01*
X124912380Y-89709523D01*
X124912380Y-89900000D01*
X124864761Y-89995238D01*
X124769523Y-90090476D01*
X124579047Y-90138095D01*
X124245714Y-90138095D01*
X124055238Y-90090476D01*
X123960000Y-89995238D01*
X123912380Y-89900000D01*
X123912380Y-89042857D02*
X124721904Y-89042857D01*
X124817142Y-88995238D01*
X124864761Y-88947619D01*
X124912380Y-88852380D01*
X124912380Y-88661904D01*
X124864761Y-88566666D01*
X124817142Y-88519047D01*
X124721904Y-88471428D01*
X123912380Y-88471428D01*
X123912380Y-88138095D02*
X123912380Y-87566666D01*
X124912380Y-87852380D02*
X123912380Y-87852380D01*
D11*
X127000000Y-71120000D02*
X76200000Y-71120000D01*
X132080000Y-101600000D02*
X132080000Y-76200000D01*
X76200000Y-106680000D02*
X127000000Y-106680000D01*
X71120000Y-76200000D02*
X71120000Y-101600000D01*
X132080000Y-101600000D02*
G75*
G02*
X127000000Y-106680000I-5080000J0D01*
G01*
X76200000Y-106680000D02*
G75*
G02*
X71120000Y-101600000I0J5080000D01*
G01*
X71120000Y-76200000D02*
G75*
G02*
X76200000Y-71120000I5080000J0D01*
G01*
X127000000Y-71120000D02*
G75*
G02*
X132080000Y-76200000I0J-5080000D01*
G01*
D12*
G36*
X87657014Y-77873991D02*
G01*
X87702375Y-77876052D01*
X87743794Y-77879780D01*
X87778483Y-77885150D01*
X87781395Y-77885759D01*
X87860635Y-77907497D01*
X87934009Y-77937438D01*
X88001830Y-77975785D01*
X88064414Y-78022739D01*
X88122077Y-78078504D01*
X88168895Y-78134889D01*
X88190962Y-78166620D01*
X88213934Y-78203879D01*
X88236332Y-78243914D01*
X88256682Y-78283972D01*
X88273506Y-78321301D01*
X88284383Y-78350197D01*
X88289840Y-78366109D01*
X88294296Y-78377714D01*
X88296434Y-78381967D01*
X88302382Y-78384133D01*
X88315301Y-78387240D01*
X88328942Y-78389959D01*
X88369191Y-78399382D01*
X88414524Y-78413437D01*
X88461659Y-78430992D01*
X88507314Y-78450915D01*
X88511541Y-78452931D01*
X88584134Y-78492295D01*
X88651352Y-78537714D01*
X88712191Y-78588300D01*
X88765644Y-78643169D01*
X88810704Y-78701433D01*
X88831778Y-78735007D01*
X88854618Y-78774605D01*
X88909059Y-78777746D01*
X89015529Y-78785775D01*
X89114491Y-78797326D01*
X89208105Y-78812803D01*
X89298531Y-78832607D01*
X89387931Y-78857143D01*
X89460719Y-78880639D01*
X89591526Y-78930876D01*
X89718777Y-78990499D01*
X89842356Y-79059334D01*
X89962152Y-79137209D01*
X90078049Y-79223949D01*
X90189933Y-79319381D01*
X90297691Y-79423332D01*
X90401209Y-79535630D01*
X90500372Y-79656099D01*
X90595067Y-79784568D01*
X90685180Y-79920862D01*
X90770596Y-80064809D01*
X90851201Y-80216235D01*
X90926883Y-80374967D01*
X90997526Y-80540831D01*
X91063017Y-80713654D01*
X91123241Y-80893263D01*
X91178085Y-81079485D01*
X91227435Y-81272146D01*
X91271177Y-81471072D01*
X91309196Y-81676092D01*
X91312619Y-81696560D01*
X91329612Y-81803878D01*
X91344818Y-81910232D01*
X91358415Y-82017300D01*
X91370581Y-82126754D01*
X91381495Y-82240272D01*
X91391334Y-82359528D01*
X91400276Y-82486198D01*
X91405515Y-82570320D01*
X91407014Y-82602053D01*
X91408320Y-82642725D01*
X91409431Y-82691114D01*
X91410350Y-82746000D01*
X91411074Y-82806164D01*
X91411606Y-82870384D01*
X91411943Y-82937440D01*
X91412087Y-83006112D01*
X91412038Y-83075179D01*
X91411795Y-83143422D01*
X91411358Y-83209620D01*
X91410728Y-83272553D01*
X91409904Y-83330999D01*
X91408887Y-83383740D01*
X91407676Y-83429555D01*
X91406271Y-83467223D01*
X91405521Y-83482180D01*
X91390706Y-83710254D01*
X91372134Y-83930657D01*
X91349574Y-84145248D01*
X91322797Y-84355882D01*
X91291575Y-84564418D01*
X91255677Y-84772712D01*
X91228562Y-84914740D01*
X91173920Y-85172528D01*
X91113133Y-85425889D01*
X91046343Y-85674551D01*
X90973690Y-85918243D01*
X90895316Y-86156694D01*
X90811363Y-86389632D01*
X90721971Y-86616785D01*
X90627284Y-86837883D01*
X90527441Y-87052653D01*
X90422585Y-87260825D01*
X90312856Y-87462126D01*
X90198397Y-87656286D01*
X90079349Y-87843033D01*
X89955853Y-88022096D01*
X89828051Y-88193202D01*
X89696084Y-88356082D01*
X89560094Y-88510462D01*
X89420222Y-88656073D01*
X89276610Y-88792641D01*
X89150289Y-88902593D01*
X89013014Y-89011660D01*
X88871799Y-89113264D01*
X88727294Y-89207063D01*
X88580149Y-89292714D01*
X88431014Y-89369876D01*
X88280540Y-89438204D01*
X88129377Y-89497358D01*
X87978174Y-89546995D01*
X87870991Y-89576312D01*
X87807344Y-89592251D01*
X87791635Y-89615083D01*
X87774591Y-89638346D01*
X87754320Y-89663671D01*
X87732624Y-89689020D01*
X87711308Y-89712358D01*
X87692175Y-89731647D01*
X87677028Y-89744850D01*
X87676183Y-89745479D01*
X87653935Y-89759595D01*
X87635278Y-89765820D01*
X87617957Y-89764570D01*
X87604181Y-89758815D01*
X87590991Y-89749444D01*
X87573303Y-89733706D01*
X87552753Y-89713330D01*
X87530982Y-89690045D01*
X87509628Y-89665582D01*
X87490330Y-89641669D01*
X87480140Y-89627911D01*
X87467365Y-89610384D01*
X87457746Y-89599308D01*
X87448771Y-89592702D01*
X87437924Y-89588586D01*
X87426800Y-89585887D01*
X87402077Y-89579853D01*
X87369916Y-89571219D01*
X87332503Y-89560636D01*
X87292024Y-89548759D01*
X87250666Y-89536241D01*
X87210614Y-89523736D01*
X87174055Y-89511897D01*
X87143174Y-89501377D01*
X87138262Y-89499629D01*
X86972831Y-89434883D01*
X86810279Y-89360418D01*
X86650659Y-89276275D01*
X86494023Y-89182493D01*
X86340422Y-89079114D01*
X86189910Y-88966177D01*
X86042537Y-88843722D01*
X85898357Y-88711790D01*
X85757422Y-88570420D01*
X85619783Y-88419654D01*
X85485494Y-88259531D01*
X85419719Y-88176100D01*
X85294395Y-88007017D01*
X85172577Y-87828870D01*
X85054589Y-87642241D01*
X84940754Y-87447715D01*
X84831397Y-87245873D01*
X84726840Y-87037302D01*
X84627407Y-86822583D01*
X84533423Y-86602300D01*
X84498289Y-86514940D01*
X84397925Y-86248042D01*
X84305635Y-85975710D01*
X84221509Y-85698589D01*
X84145632Y-85417325D01*
X84078093Y-85132562D01*
X84018978Y-84844947D01*
X83968376Y-84555126D01*
X83926373Y-84263744D01*
X83893058Y-83971446D01*
X83868517Y-83678879D01*
X83852838Y-83386688D01*
X83846547Y-83114462D01*
X83956287Y-83114462D01*
X83958822Y-83279384D01*
X83963993Y-83441364D01*
X83971793Y-83597853D01*
X83975244Y-83652360D01*
X84000618Y-83959241D01*
X84035342Y-84263647D01*
X84079348Y-84565270D01*
X84132567Y-84863805D01*
X84194930Y-85158945D01*
X84266367Y-85450384D01*
X84346811Y-85737816D01*
X84436192Y-86020935D01*
X84534442Y-86299434D01*
X84620684Y-86521931D01*
X84685957Y-86677947D01*
X84756386Y-86835661D01*
X84830914Y-86992941D01*
X84908488Y-87147656D01*
X84988051Y-87297674D01*
X85068549Y-87440864D01*
X85112985Y-87516182D01*
X85229807Y-87703112D01*
X85350417Y-87881375D01*
X85474719Y-88050884D01*
X85602616Y-88211555D01*
X85734011Y-88363304D01*
X85868807Y-88506046D01*
X86006907Y-88639697D01*
X86148214Y-88764171D01*
X86292632Y-88879386D01*
X86440063Y-88985255D01*
X86590411Y-89081695D01*
X86743578Y-89168620D01*
X86899467Y-89245947D01*
X87057983Y-89313591D01*
X87219027Y-89371467D01*
X87252043Y-89382023D01*
X87279381Y-89390486D01*
X87303552Y-89397788D01*
X87322797Y-89403411D01*
X87335357Y-89406839D01*
X87339238Y-89407656D01*
X87342388Y-89405383D01*
X87340497Y-89396908D01*
X87337209Y-89388950D01*
X87326747Y-89363084D01*
X87315009Y-89330389D01*
X87302971Y-89293943D01*
X87291606Y-89256824D01*
X87281889Y-89222111D01*
X87274795Y-89192883D01*
X87274098Y-89189560D01*
X87269266Y-89161076D01*
X87264933Y-89126556D01*
X87261564Y-89090119D01*
X87259903Y-89063042D01*
X87256890Y-88995868D01*
X87366905Y-88995868D01*
X87367163Y-89040783D01*
X87367337Y-89044780D01*
X87376427Y-89131631D01*
X87395464Y-89218713D01*
X87424264Y-89305497D01*
X87462642Y-89391460D01*
X87510413Y-89476074D01*
X87528867Y-89504601D01*
X87554326Y-89541751D01*
X87575734Y-89570462D01*
X87593917Y-89591208D01*
X87609699Y-89604465D01*
X87623907Y-89610707D01*
X87637365Y-89610408D01*
X87650899Y-89604043D01*
X87665334Y-89592087D01*
X87671040Y-89586369D01*
X87688353Y-89566242D01*
X87708748Y-89539034D01*
X87730884Y-89506807D01*
X87753420Y-89471627D01*
X87775014Y-89435558D01*
X87794324Y-89400663D01*
X87803723Y-89382235D01*
X87833997Y-89313853D01*
X87859291Y-89242860D01*
X87878108Y-89173495D01*
X87879129Y-89168877D01*
X87886248Y-89127133D01*
X87890882Y-89080440D01*
X87893034Y-89031358D01*
X87892707Y-88982448D01*
X87889904Y-88936270D01*
X87884628Y-88895385D01*
X87878779Y-88868745D01*
X87868121Y-88847399D01*
X87848756Y-88826104D01*
X87822095Y-88805838D01*
X87789549Y-88787578D01*
X87752527Y-88772301D01*
X87729060Y-88765055D01*
X87710157Y-88761112D01*
X87685259Y-88757526D01*
X87658527Y-88754852D01*
X87646653Y-88754075D01*
X87601525Y-88754554D01*
X87557178Y-88760308D01*
X87514939Y-88770741D01*
X87476135Y-88785259D01*
X87442094Y-88803267D01*
X87414141Y-88824170D01*
X87393605Y-88847373D01*
X87381812Y-88872282D01*
X87381654Y-88872869D01*
X87374437Y-88908474D01*
X87369425Y-88950620D01*
X87366905Y-88995868D01*
X87256890Y-88995868D01*
X87256620Y-88989864D01*
X87170591Y-88955256D01*
X87025922Y-88891754D01*
X86882939Y-88818378D01*
X86741888Y-88735310D01*
X86603016Y-88642733D01*
X86592792Y-88635097D01*
X86791212Y-88635097D01*
X86792726Y-88638565D01*
X86802731Y-88646102D01*
X86820440Y-88657446D01*
X86844486Y-88671829D01*
X86873502Y-88688483D01*
X86906120Y-88706639D01*
X86940974Y-88725529D01*
X86976695Y-88744384D01*
X87011918Y-88762437D01*
X87022940Y-88767958D01*
X87051532Y-88781918D01*
X87083008Y-88796819D01*
X87115923Y-88812026D01*
X87148832Y-88826903D01*
X87180292Y-88840815D01*
X87208859Y-88853124D01*
X87233087Y-88863195D01*
X87251534Y-88870392D01*
X87262755Y-88874079D01*
X87264701Y-88874422D01*
X87267372Y-88870025D01*
X87271057Y-88858521D01*
X87273685Y-88847930D01*
X87287916Y-88807272D01*
X87311293Y-88770049D01*
X87343268Y-88736653D01*
X87383294Y-88707474D01*
X87430824Y-88682904D01*
X87485311Y-88663332D01*
X87546207Y-88649151D01*
X87553800Y-88647850D01*
X87607481Y-88642661D01*
X87663329Y-88643953D01*
X87719522Y-88651256D01*
X87774237Y-88664100D01*
X87825652Y-88682013D01*
X87871944Y-88704526D01*
X87911290Y-88731169D01*
X87925672Y-88743828D01*
X87948311Y-88769554D01*
X87967647Y-88799093D01*
X87981848Y-88829244D01*
X87988667Y-88853893D01*
X87991164Y-88866718D01*
X87993446Y-88873984D01*
X87994044Y-88874600D01*
X88002258Y-88872515D01*
X88018243Y-88866667D01*
X88040599Y-88857666D01*
X88067924Y-88846122D01*
X88098818Y-88832645D01*
X88131881Y-88817845D01*
X88165713Y-88802332D01*
X88198913Y-88786715D01*
X88226900Y-88773173D01*
X88258547Y-88757288D01*
X88292414Y-88739719D01*
X88327140Y-88721227D01*
X88361369Y-88702571D01*
X88393741Y-88684513D01*
X88422899Y-88667812D01*
X88447483Y-88653230D01*
X88466137Y-88641527D01*
X88477500Y-88633462D01*
X88479256Y-88631895D01*
X88477459Y-88627148D01*
X88469230Y-88618037D01*
X88456231Y-88606345D01*
X88452942Y-88603641D01*
X88392409Y-88551521D01*
X88330954Y-88492794D01*
X88270569Y-88429641D01*
X88213245Y-88364242D01*
X88160976Y-88298777D01*
X88115752Y-88235428D01*
X88113463Y-88231980D01*
X88101811Y-88213465D01*
X88087818Y-88189860D01*
X88072503Y-88163036D01*
X88056882Y-88134863D01*
X88041973Y-88107213D01*
X88028795Y-88081958D01*
X88018365Y-88060969D01*
X88011701Y-88046117D01*
X88010341Y-88042386D01*
X88005405Y-88041949D01*
X87992832Y-88047877D01*
X87972550Y-88060208D01*
X87952442Y-88073542D01*
X87920622Y-88094350D01*
X87885391Y-88116019D01*
X87848026Y-88137886D01*
X87809806Y-88159286D01*
X87772008Y-88179556D01*
X87735910Y-88198033D01*
X87702791Y-88214052D01*
X87673928Y-88226951D01*
X87650600Y-88236065D01*
X87634083Y-88240730D01*
X87629567Y-88241204D01*
X87618006Y-88238736D01*
X87599038Y-88231681D01*
X87573948Y-88220715D01*
X87544019Y-88206513D01*
X87510537Y-88189752D01*
X87474784Y-88171107D01*
X87438046Y-88151254D01*
X87401607Y-88130867D01*
X87366750Y-88110624D01*
X87334760Y-88091200D01*
X87306922Y-88073270D01*
X87295419Y-88065398D01*
X87263098Y-88042725D01*
X87228901Y-88110342D01*
X87184733Y-88189312D01*
X87131829Y-88269398D01*
X87071308Y-88349233D01*
X87004287Y-88427453D01*
X86931883Y-88502694D01*
X86855215Y-88573592D01*
X86835906Y-88590146D01*
X86815072Y-88608053D01*
X86801313Y-88620802D01*
X86793678Y-88629460D01*
X86791212Y-88635097D01*
X86592792Y-88635097D01*
X86466570Y-88540830D01*
X86332796Y-88429783D01*
X86201941Y-88309776D01*
X86074251Y-88180992D01*
X85965795Y-88061800D01*
X85836555Y-87907190D01*
X85711335Y-87743430D01*
X85590262Y-87570752D01*
X85473462Y-87389391D01*
X85361061Y-87199579D01*
X85253185Y-87001551D01*
X85225502Y-86946300D01*
X85352295Y-86946300D01*
X85354926Y-86953153D01*
X85361901Y-86967587D01*
X85372542Y-86988351D01*
X85386170Y-87014195D01*
X85402105Y-87043870D01*
X85419670Y-87076124D01*
X85438183Y-87109707D01*
X85456968Y-87143370D01*
X85475345Y-87175860D01*
X85492634Y-87205930D01*
X85501744Y-87221509D01*
X85600991Y-87384428D01*
X85701365Y-87538012D01*
X85803477Y-87683076D01*
X85907935Y-87820430D01*
X86015350Y-87950887D01*
X86126332Y-88075261D01*
X86202520Y-88155113D01*
X86309986Y-88260949D01*
X86416236Y-88357749D01*
X86522280Y-88446390D01*
X86629133Y-88527749D01*
X86651491Y-88543793D01*
X86676717Y-88561508D01*
X86695106Y-88573824D01*
X86707948Y-88581441D01*
X86716529Y-88585061D01*
X86722138Y-88585386D01*
X86725151Y-88583904D01*
X86732229Y-88578226D01*
X86745207Y-88567636D01*
X86762164Y-88553705D01*
X86779100Y-88539727D01*
X86797596Y-88523743D01*
X86821066Y-88502426D01*
X86847412Y-88477739D01*
X86874538Y-88451646D01*
X86898559Y-88427905D01*
X86968575Y-88354090D01*
X87029729Y-88281871D01*
X87082920Y-88210037D01*
X87129052Y-88137376D01*
X87166748Y-88067309D01*
X87200421Y-87999158D01*
X87185667Y-87988569D01*
X87176757Y-87981867D01*
X87161610Y-87970150D01*
X87141927Y-87954744D01*
X87119407Y-87936979D01*
X87103857Y-87924640D01*
X86997229Y-87835045D01*
X86890252Y-87735703D01*
X86783247Y-87627006D01*
X86676537Y-87509343D01*
X86570444Y-87383106D01*
X86465291Y-87248686D01*
X86361401Y-87106473D01*
X86259094Y-86956858D01*
X86158696Y-86800233D01*
X86108546Y-86718140D01*
X86092004Y-86690689D01*
X86077159Y-86666183D01*
X86064830Y-86645966D01*
X86055836Y-86631379D01*
X86050998Y-86623765D01*
X86050481Y-86623044D01*
X86045436Y-86624363D01*
X86034539Y-86630970D01*
X86019723Y-86641628D01*
X86011920Y-86647714D01*
X85935375Y-86703366D01*
X85850110Y-86755183D01*
X85756963Y-86802775D01*
X85656772Y-86845752D01*
X85550376Y-86883724D01*
X85438612Y-86916300D01*
X85430360Y-86918432D01*
X85398986Y-86926725D01*
X85376528Y-86933316D01*
X85361954Y-86938573D01*
X85354232Y-86942865D01*
X85352295Y-86946300D01*
X85225502Y-86946300D01*
X85149962Y-86795539D01*
X85051517Y-86581778D01*
X84957978Y-86360500D01*
X84869469Y-86131940D01*
X84786119Y-85896330D01*
X84774566Y-85861887D01*
X84685656Y-85579570D01*
X84606084Y-85294332D01*
X84535804Y-85005918D01*
X84474765Y-84714075D01*
X84422921Y-84418550D01*
X84380223Y-84119091D01*
X84346623Y-83815443D01*
X84322073Y-83507354D01*
X84320007Y-83474560D01*
X84317528Y-83427279D01*
X84315317Y-83371448D01*
X84313390Y-83308673D01*
X84311761Y-83240562D01*
X84310448Y-83168721D01*
X84309464Y-83094756D01*
X84308826Y-83020275D01*
X84308668Y-82978027D01*
X84420806Y-82978027D01*
X84420952Y-83031941D01*
X84421274Y-83083486D01*
X84421779Y-83131522D01*
X84422473Y-83174911D01*
X84423362Y-83212514D01*
X84424045Y-83233260D01*
X84439923Y-83533146D01*
X84464726Y-83830769D01*
X84498371Y-84125784D01*
X84540778Y-84417845D01*
X84591863Y-84706607D01*
X84651544Y-84991725D01*
X84719740Y-85272853D01*
X84796367Y-85549646D01*
X84881345Y-85821759D01*
X84974591Y-86088846D01*
X85076022Y-86350562D01*
X85185556Y-86606562D01*
X85269796Y-86787990D01*
X85285173Y-86819367D01*
X85297139Y-86842212D01*
X85306193Y-86857367D01*
X85312837Y-86865676D01*
X85317252Y-86868000D01*
X85325269Y-86866791D01*
X85341065Y-86863473D01*
X85362585Y-86858508D01*
X85387779Y-86852358D01*
X85396523Y-86850154D01*
X85504054Y-86819723D01*
X85606356Y-86784525D01*
X85702588Y-86744949D01*
X85791906Y-86701390D01*
X85873468Y-86654237D01*
X85946429Y-86603885D01*
X85975463Y-86580922D01*
X86010027Y-86552364D01*
X85988498Y-86513332D01*
X85959283Y-86460111D01*
X85933008Y-86411632D01*
X85908448Y-86365552D01*
X85884377Y-86319530D01*
X85859569Y-86271222D01*
X85832799Y-86218287D01*
X85804582Y-86161880D01*
X85756840Y-86064946D01*
X85713783Y-85975014D01*
X85674726Y-85890460D01*
X85638984Y-85809661D01*
X85605873Y-85730992D01*
X85574706Y-85652831D01*
X85544800Y-85573554D01*
X85515470Y-85491536D01*
X85488512Y-85412580D01*
X85415143Y-85179193D01*
X85351445Y-84946055D01*
X85297219Y-84712148D01*
X85252262Y-84476454D01*
X85216372Y-84237955D01*
X85189350Y-83995631D01*
X85176246Y-83832700D01*
X85172467Y-83767650D01*
X85169488Y-83695893D01*
X85167310Y-83619218D01*
X85165934Y-83539416D01*
X85165886Y-83532520D01*
X85306878Y-83532520D01*
X85310763Y-83685933D01*
X85318687Y-83841080D01*
X85330651Y-83996444D01*
X85331701Y-84007960D01*
X85354361Y-84212471D01*
X85384587Y-84418128D01*
X85422067Y-84623734D01*
X85466492Y-84828091D01*
X85517551Y-85030001D01*
X85574934Y-85228268D01*
X85638330Y-85421694D01*
X85707428Y-85609081D01*
X85781918Y-85789233D01*
X85809791Y-85851638D01*
X85899882Y-86042834D01*
X85993645Y-86229349D01*
X86090624Y-86410410D01*
X86190364Y-86585245D01*
X86292407Y-86753082D01*
X86396300Y-86913150D01*
X86501586Y-87064677D01*
X86607809Y-87206891D01*
X86616862Y-87218520D01*
X86698136Y-87318966D01*
X86783076Y-87417123D01*
X86870387Y-87511653D01*
X86958776Y-87601222D01*
X87046947Y-87684491D01*
X87133606Y-87760127D01*
X87172069Y-87791560D01*
X87205208Y-87817068D01*
X87244257Y-87845545D01*
X87286983Y-87875486D01*
X87331155Y-87905383D01*
X87374541Y-87933732D01*
X87414907Y-87959027D01*
X87450023Y-87979762D01*
X87456118Y-87983173D01*
X87480906Y-87996482D01*
X87508349Y-88010539D01*
X87536779Y-88024563D01*
X87564526Y-88037774D01*
X87589920Y-88049391D01*
X87611291Y-88058635D01*
X87626970Y-88064724D01*
X87635223Y-88066880D01*
X87641928Y-88064696D01*
X87656235Y-88058593D01*
X87676683Y-88049244D01*
X87701812Y-88037321D01*
X87730161Y-88023497D01*
X87739370Y-88018933D01*
X87785786Y-87994876D01*
X88071963Y-87994876D01*
X88074085Y-88000428D01*
X88079917Y-88013371D01*
X88088663Y-88031995D01*
X88099524Y-88054586D01*
X88104278Y-88064340D01*
X88151362Y-88150364D01*
X88208243Y-88235947D01*
X88275019Y-88321214D01*
X88351786Y-88406292D01*
X88414860Y-88468990D01*
X88430865Y-88483913D01*
X88449944Y-88501209D01*
X88470652Y-88519623D01*
X88491539Y-88537903D01*
X88511161Y-88554796D01*
X88528068Y-88569049D01*
X88540815Y-88579409D01*
X88547953Y-88584622D01*
X88548834Y-88585000D01*
X88553565Y-88582293D01*
X88564470Y-88575063D01*
X88579466Y-88564702D01*
X88584394Y-88561232D01*
X88723013Y-88457271D01*
X88858432Y-88343744D01*
X88990565Y-88220753D01*
X89119326Y-88088404D01*
X89244629Y-87946800D01*
X89366388Y-87796045D01*
X89484517Y-87636244D01*
X89598932Y-87467500D01*
X89709545Y-87289917D01*
X89816271Y-87103599D01*
X89869799Y-87004066D01*
X89906473Y-86934392D01*
X89892186Y-86931183D01*
X89795060Y-86906449D01*
X89699168Y-86876365D01*
X89605901Y-86841554D01*
X89516654Y-86802639D01*
X89432820Y-86760243D01*
X89355792Y-86714990D01*
X89286964Y-86667501D01*
X89265844Y-86651090D01*
X89247245Y-86636750D01*
X89231405Y-86625628D01*
X89219997Y-86618826D01*
X89214698Y-86617445D01*
X89214692Y-86617451D01*
X89211012Y-86622844D01*
X89202920Y-86635665D01*
X89191211Y-86654619D01*
X89176684Y-86678411D01*
X89160134Y-86705746D01*
X89151145Y-86720680D01*
X89090575Y-86819050D01*
X89025521Y-86920208D01*
X88957681Y-87021657D01*
X88888751Y-87120900D01*
X88820429Y-87215441D01*
X88761581Y-87293515D01*
X88672153Y-87405753D01*
X88580316Y-87513723D01*
X88486971Y-87616495D01*
X88393015Y-87713141D01*
X88299349Y-87802733D01*
X88206872Y-87884342D01*
X88126070Y-87949682D01*
X88106198Y-87965263D01*
X88089609Y-87978729D01*
X88077785Y-87988841D01*
X88072208Y-87994362D01*
X88071963Y-87994876D01*
X87785786Y-87994876D01*
X87808722Y-87982989D01*
X87873389Y-87946263D01*
X87935700Y-87907245D01*
X87997988Y-87864420D01*
X88062585Y-87816277D01*
X88112600Y-87776855D01*
X88221519Y-87684166D01*
X88330070Y-87581560D01*
X88438078Y-87469280D01*
X88545364Y-87347566D01*
X88651754Y-87216662D01*
X88757070Y-87076808D01*
X88861136Y-86928247D01*
X88963775Y-86771219D01*
X89064811Y-86605968D01*
X89099777Y-86544941D01*
X89254286Y-86544941D01*
X89273993Y-86561856D01*
X89351772Y-86622342D01*
X89438353Y-86677853D01*
X89533659Y-86728351D01*
X89637611Y-86773799D01*
X89750132Y-86814157D01*
X89854303Y-86844931D01*
X89879435Y-86851476D01*
X89901895Y-86856942D01*
X89919407Y-86860799D01*
X89929690Y-86862520D01*
X89930344Y-86862558D01*
X89934788Y-86861761D01*
X89939482Y-86858342D01*
X89945113Y-86851172D01*
X89952373Y-86839125D01*
X89961948Y-86821072D01*
X89974529Y-86795886D01*
X89988052Y-86768126D01*
X90049951Y-86635865D01*
X90111705Y-86495227D01*
X90172600Y-86347978D01*
X90231925Y-86195882D01*
X90288965Y-86040708D01*
X90333201Y-85913389D01*
X90425384Y-85625269D01*
X90508474Y-85332822D01*
X90582412Y-85036364D01*
X90647139Y-84736213D01*
X90702599Y-84432688D01*
X90748732Y-84126106D01*
X90785481Y-83816786D01*
X90812787Y-83505045D01*
X90830321Y-83197700D01*
X90831245Y-83171007D01*
X90832086Y-83137543D01*
X90832839Y-83098373D01*
X90833501Y-83054560D01*
X90834069Y-83007168D01*
X90834540Y-82957259D01*
X90834911Y-82905899D01*
X90835176Y-82854149D01*
X90835335Y-82803074D01*
X90835382Y-82753738D01*
X90835315Y-82707204D01*
X90835131Y-82664535D01*
X90834825Y-82626796D01*
X90834394Y-82595050D01*
X90833836Y-82570360D01*
X90833146Y-82553789D01*
X90832396Y-82546640D01*
X90830662Y-82541732D01*
X90827541Y-82539566D01*
X90821193Y-82540506D01*
X90809780Y-82544914D01*
X90791463Y-82553156D01*
X90785475Y-82555910D01*
X90647113Y-82614043D01*
X90505121Y-82662761D01*
X90360063Y-82701901D01*
X90212504Y-82731303D01*
X90132227Y-82743042D01*
X90104857Y-82746603D01*
X90081332Y-82749784D01*
X90063359Y-82752343D01*
X90052647Y-82754039D01*
X90050388Y-82754566D01*
X90050700Y-82759739D01*
X90052170Y-82773125D01*
X90054577Y-82792869D01*
X90057702Y-82817119D01*
X90058784Y-82825283D01*
X90076208Y-82979804D01*
X90088329Y-83141702D01*
X90095149Y-83309689D01*
X90096672Y-83482477D01*
X90092902Y-83658779D01*
X90083841Y-83837308D01*
X90069493Y-84016776D01*
X90055384Y-84150200D01*
X90026835Y-84361830D01*
X89990804Y-84573478D01*
X89947603Y-84783989D01*
X89897544Y-84992211D01*
X89840936Y-85196989D01*
X89778091Y-85397169D01*
X89709321Y-85591598D01*
X89634935Y-85779121D01*
X89585581Y-85892640D01*
X89569413Y-85927786D01*
X89549350Y-85970191D01*
X89526150Y-86018341D01*
X89500571Y-86070721D01*
X89473372Y-86125815D01*
X89445309Y-86182110D01*
X89417142Y-86238089D01*
X89389629Y-86292240D01*
X89363527Y-86343045D01*
X89339595Y-86388992D01*
X89318592Y-86428565D01*
X89303484Y-86456280D01*
X89254286Y-86544941D01*
X89099777Y-86544941D01*
X89164067Y-86432735D01*
X89261366Y-86251761D01*
X89341773Y-86093300D01*
X89384129Y-86006835D01*
X89422113Y-85927538D01*
X89456422Y-85853774D01*
X89487755Y-85783907D01*
X89516810Y-85716301D01*
X89544287Y-85649321D01*
X89570884Y-85581331D01*
X89597300Y-85510695D01*
X89624232Y-85435779D01*
X89631842Y-85414154D01*
X89691644Y-85232896D01*
X89745764Y-85047101D01*
X89794094Y-84857705D01*
X89836529Y-84665642D01*
X89872964Y-84471849D01*
X89903293Y-84277259D01*
X89927410Y-84082810D01*
X89945211Y-83889434D01*
X89956588Y-83698069D01*
X89961438Y-83509649D01*
X89959654Y-83325109D01*
X89951130Y-83145385D01*
X89935761Y-82971411D01*
X89920881Y-82853597D01*
X89894018Y-82690290D01*
X89861113Y-82533552D01*
X89822269Y-82383577D01*
X89777585Y-82240558D01*
X89727164Y-82104689D01*
X89671106Y-81976162D01*
X89609512Y-81855170D01*
X89542484Y-81741908D01*
X89470123Y-81636567D01*
X89392529Y-81539341D01*
X89309806Y-81450423D01*
X89222052Y-81370006D01*
X89129370Y-81298284D01*
X89093040Y-81273454D01*
X89026368Y-81233585D01*
X88954871Y-81198943D01*
X88877656Y-81169229D01*
X88793827Y-81144148D01*
X88741300Y-81132217D01*
X89162658Y-81132217D01*
X89164410Y-81136918D01*
X89172764Y-81145659D01*
X89185990Y-81156666D01*
X89188058Y-81158232D01*
X89283321Y-81235515D01*
X89375004Y-81321826D01*
X89462727Y-81416547D01*
X89546108Y-81519061D01*
X89624764Y-81628752D01*
X89698315Y-81745002D01*
X89766377Y-81867194D01*
X89828570Y-81994713D01*
X89884511Y-82126939D01*
X89933819Y-82263258D01*
X89976112Y-82403052D01*
X89989130Y-82452465D01*
X89995425Y-82478066D01*
X90002372Y-82507591D01*
X90009598Y-82539310D01*
X90016730Y-82571493D01*
X90023395Y-82602408D01*
X90029220Y-82630325D01*
X90033831Y-82653513D01*
X90036855Y-82670243D01*
X90037920Y-82678716D01*
X90042652Y-82678996D01*
X90055686Y-82677973D01*
X90075282Y-82675869D01*
X90099695Y-82672905D01*
X90127184Y-82669301D01*
X90156007Y-82665280D01*
X90184421Y-82661062D01*
X90210684Y-82656869D01*
X90213180Y-82656451D01*
X90273655Y-82644901D01*
X90339998Y-82629845D01*
X90408892Y-82612126D01*
X90477024Y-82592590D01*
X90530680Y-82575579D01*
X90569130Y-82562233D01*
X90610778Y-82546837D01*
X90653589Y-82530222D01*
X90695528Y-82513219D01*
X90734560Y-82496658D01*
X90768651Y-82481370D01*
X90795764Y-82468185D01*
X90802460Y-82464641D01*
X90827860Y-82450825D01*
X90826295Y-82407702D01*
X90825394Y-82388496D01*
X90823855Y-82361725D01*
X90821840Y-82329951D01*
X90819512Y-82295739D01*
X90817322Y-82265520D01*
X90798234Y-82057667D01*
X90772486Y-81854959D01*
X90740174Y-81657702D01*
X90701389Y-81466204D01*
X90656226Y-81280771D01*
X90604778Y-81101712D01*
X90547138Y-80929333D01*
X90483400Y-80763941D01*
X90413657Y-80605845D01*
X90338003Y-80455350D01*
X90256530Y-80312765D01*
X90193850Y-80214470D01*
X90179070Y-80192589D01*
X90166251Y-80174083D01*
X90156442Y-80160431D01*
X90150696Y-80153116D01*
X90149715Y-80152286D01*
X90146630Y-80156611D01*
X90140474Y-80168179D01*
X90132302Y-80184952D01*
X90127393Y-80195517D01*
X90094749Y-80259549D01*
X90053876Y-80327291D01*
X90005537Y-80397721D01*
X89950496Y-80469818D01*
X89889514Y-80542561D01*
X89823355Y-80614928D01*
X89783987Y-80655252D01*
X89672427Y-80760748D01*
X89553388Y-80861436D01*
X89426205Y-80957836D01*
X89290215Y-81050472D01*
X89244883Y-81079310D01*
X89219637Y-81095188D01*
X89197332Y-81109360D01*
X89179418Y-81120894D01*
X89167349Y-81128855D01*
X89162658Y-81132217D01*
X88741300Y-81132217D01*
X88702490Y-81123402D01*
X88602751Y-81106694D01*
X88582500Y-81103915D01*
X88545053Y-81100044D01*
X88500417Y-81097209D01*
X88450935Y-81095412D01*
X88398949Y-81094654D01*
X88346804Y-81094938D01*
X88296841Y-81096264D01*
X88251405Y-81098636D01*
X88212839Y-81102053D01*
X88200440Y-81103632D01*
X88141998Y-81112800D01*
X88080159Y-81124317D01*
X88013112Y-81138554D01*
X87939046Y-81155881D01*
X87909400Y-81163174D01*
X87848535Y-81178102D01*
X87796284Y-81190359D01*
X87751502Y-81200105D01*
X87713042Y-81207498D01*
X87679761Y-81212696D01*
X87650512Y-81215859D01*
X87624152Y-81217145D01*
X87599535Y-81216712D01*
X87575516Y-81214720D01*
X87556082Y-81212128D01*
X87537962Y-81208873D01*
X87511769Y-81203476D01*
X87479268Y-81196335D01*
X87442223Y-81187849D01*
X87402398Y-81178416D01*
X87361558Y-81168434D01*
X87351705Y-81165976D01*
X87274954Y-81147241D01*
X87206400Y-81131631D01*
X87144638Y-81118950D01*
X87088261Y-81109003D01*
X87035866Y-81101593D01*
X86986047Y-81096524D01*
X86937398Y-81093601D01*
X86888515Y-81092627D01*
X86837993Y-81093408D01*
X86832491Y-81093585D01*
X86727174Y-81100190D01*
X86624849Y-81112660D01*
X86527029Y-81130720D01*
X86435225Y-81154092D01*
X86354606Y-81181099D01*
X86273488Y-81216932D01*
X86192587Y-81262397D01*
X86112525Y-81316973D01*
X86033924Y-81380139D01*
X85957404Y-81451376D01*
X85883588Y-81530162D01*
X85813097Y-81615977D01*
X85776520Y-81665213D01*
X85708587Y-81767568D01*
X85645253Y-81878512D01*
X85586712Y-81997480D01*
X85533157Y-82123907D01*
X85484781Y-82257227D01*
X85441777Y-82396875D01*
X85404339Y-82542285D01*
X85372659Y-82692891D01*
X85346932Y-82848129D01*
X85331738Y-82966560D01*
X85319464Y-83097860D01*
X85311229Y-83236966D01*
X85307034Y-83382358D01*
X85306878Y-83532520D01*
X85165886Y-83532520D01*
X85165359Y-83458278D01*
X85165586Y-83377594D01*
X85166616Y-83299156D01*
X85168448Y-83224753D01*
X85171082Y-83156176D01*
X85174520Y-83095217D01*
X85176130Y-83073240D01*
X85179444Y-83033794D01*
X85183321Y-82991691D01*
X85187577Y-82948609D01*
X85192025Y-82906227D01*
X85196482Y-82866225D01*
X85200763Y-82830281D01*
X85204682Y-82800074D01*
X85208056Y-82777284D01*
X85209774Y-82767702D01*
X85210746Y-82760363D01*
X85208511Y-82756017D01*
X85200955Y-82753448D01*
X85185964Y-82751439D01*
X85180456Y-82750845D01*
X85147807Y-82746870D01*
X85108403Y-82741307D01*
X85065298Y-82734653D01*
X85021543Y-82727406D01*
X84980192Y-82720064D01*
X84944296Y-82713122D01*
X84928809Y-82709839D01*
X84854847Y-82691949D01*
X84778583Y-82670659D01*
X84702228Y-82646721D01*
X84627991Y-82620891D01*
X84558080Y-82593923D01*
X84494707Y-82566569D01*
X84459442Y-82549635D01*
X84430865Y-82535252D01*
X84427700Y-82559136D01*
X84426420Y-82574101D01*
X84425255Y-82598087D01*
X84424210Y-82629953D01*
X84423293Y-82668563D01*
X84422509Y-82712776D01*
X84421865Y-82761453D01*
X84421367Y-82813456D01*
X84421020Y-82867645D01*
X84420831Y-82922881D01*
X84420806Y-82978027D01*
X84308668Y-82978027D01*
X84308550Y-82946884D01*
X84308651Y-82876190D01*
X84309143Y-82809799D01*
X84310044Y-82749319D01*
X84311368Y-82696355D01*
X84312246Y-82671920D01*
X84324275Y-82453513D01*
X84433291Y-82453513D01*
X84496215Y-82483560D01*
X84609843Y-82533575D01*
X84726863Y-82576575D01*
X84848370Y-82612864D01*
X84975459Y-82642745D01*
X85109224Y-82666523D01*
X85199220Y-82678724D01*
X85211263Y-82680268D01*
X85218173Y-82681318D01*
X85221961Y-82677680D01*
X85224347Y-82670650D01*
X85226282Y-82661124D01*
X85229613Y-82644197D01*
X85233837Y-82622447D01*
X85237512Y-82603340D01*
X85253205Y-82529915D01*
X85273091Y-82450531D01*
X85296320Y-82368047D01*
X85322041Y-82285322D01*
X85349404Y-82205217D01*
X85377558Y-82130590D01*
X85379845Y-82124877D01*
X85396879Y-82084456D01*
X85417841Y-82037766D01*
X85441515Y-81987297D01*
X85466682Y-81935541D01*
X85492127Y-81884989D01*
X85516632Y-81838131D01*
X85538979Y-81797460D01*
X85544569Y-81787718D01*
X85610438Y-81680927D01*
X85681683Y-81577935D01*
X85757355Y-81479865D01*
X85836507Y-81387842D01*
X85918189Y-81302988D01*
X86001452Y-81226428D01*
X86056872Y-81180940D01*
X86077561Y-81164632D01*
X86095082Y-81150537D01*
X86108017Y-81139820D01*
X86114943Y-81133648D01*
X86115721Y-81132680D01*
X86111772Y-81129189D01*
X86100940Y-81121986D01*
X86085190Y-81112348D01*
X86076727Y-81107385D01*
X86051767Y-81092350D01*
X86020378Y-81072535D01*
X85984345Y-81049140D01*
X85945453Y-81023364D01*
X85905485Y-80996409D01*
X85866226Y-80969473D01*
X85829461Y-80943758D01*
X85796974Y-80920464D01*
X85778340Y-80906696D01*
X85682575Y-80831776D01*
X85591338Y-80754412D01*
X85505282Y-80675314D01*
X85425063Y-80595192D01*
X85351335Y-80514754D01*
X85284754Y-80434712D01*
X85225975Y-80355774D01*
X85175652Y-80278649D01*
X85140097Y-80215206D01*
X85110142Y-80157069D01*
X85062619Y-80229584D01*
X84981383Y-80361724D01*
X84905201Y-80502396D01*
X84834177Y-80651259D01*
X84768415Y-80807972D01*
X84708020Y-80972195D01*
X84653096Y-81143587D01*
X84603747Y-81321807D01*
X84560077Y-81506513D01*
X84522190Y-81697367D01*
X84490190Y-81894026D01*
X84464183Y-82096149D01*
X84450339Y-82232500D01*
X84447061Y-82269347D01*
X84443871Y-82306672D01*
X84440977Y-82341925D01*
X84438590Y-82372558D01*
X84436915Y-82396024D01*
X84436731Y-82398886D01*
X84433291Y-82453513D01*
X84324275Y-82453513D01*
X84324988Y-82440569D01*
X84344106Y-82215257D01*
X84369549Y-81996179D01*
X84401266Y-81783535D01*
X84439207Y-81577520D01*
X84483321Y-81378334D01*
X84533558Y-81186173D01*
X84589867Y-81001234D01*
X84652198Y-80823716D01*
X84720499Y-80653815D01*
X84794722Y-80491730D01*
X84874815Y-80337658D01*
X84936584Y-80230980D01*
X85018414Y-80103567D01*
X85028232Y-80089988D01*
X85168609Y-80089988D01*
X85169031Y-80093043D01*
X85175481Y-80110181D01*
X85186410Y-80133922D01*
X85200781Y-80162339D01*
X85217555Y-80193505D01*
X85235692Y-80225491D01*
X85254156Y-80256372D01*
X85271908Y-80284218D01*
X85272528Y-80285150D01*
X85341056Y-80380471D01*
X85419152Y-80475227D01*
X85506226Y-80568882D01*
X85601686Y-80660900D01*
X85704940Y-80750744D01*
X85815398Y-80837879D01*
X85932468Y-80921768D01*
X86055558Y-81001874D01*
X86078060Y-81015699D01*
X86102915Y-81030939D01*
X86127156Y-81045983D01*
X86148208Y-81059221D01*
X86163493Y-81069042D01*
X86165012Y-81070044D01*
X86191004Y-81087263D01*
X86281570Y-81051419D01*
X86340494Y-81028617D01*
X86392403Y-81009837D01*
X86439373Y-80994563D01*
X86483480Y-80982281D01*
X86526801Y-80972477D01*
X86571411Y-80964636D01*
X86619387Y-80958245D01*
X86672806Y-80952787D01*
X86683521Y-80951833D01*
X86735013Y-80948313D01*
X86789443Y-80946340D01*
X86844542Y-80945879D01*
X86898042Y-80946896D01*
X86947676Y-80949357D01*
X86991176Y-80953226D01*
X87017930Y-80956949D01*
X87031902Y-80959616D01*
X87054619Y-80964330D01*
X87084927Y-80970835D01*
X87121674Y-80978879D01*
X87163708Y-80988205D01*
X87209876Y-80998561D01*
X87259027Y-81009691D01*
X87310007Y-81021341D01*
X87320190Y-81023681D01*
X87383034Y-81038094D01*
X87436873Y-81050326D01*
X87482588Y-81060540D01*
X87521060Y-81068895D01*
X87553172Y-81075554D01*
X87579804Y-81080677D01*
X87601838Y-81084426D01*
X87620154Y-81086961D01*
X87635635Y-81088445D01*
X87649162Y-81089038D01*
X87661616Y-81088902D01*
X87673180Y-81088249D01*
X87684175Y-81086625D01*
X87703938Y-81082833D01*
X87731364Y-81077117D01*
X87765351Y-81069721D01*
X87804795Y-81060889D01*
X87848593Y-81050864D01*
X87895644Y-81039891D01*
X87944843Y-81028214D01*
X87947500Y-81027578D01*
X87997127Y-81015722D01*
X88044933Y-81004373D01*
X88089770Y-80993798D01*
X88130490Y-80984264D01*
X88165947Y-80976038D01*
X88194994Y-80969388D01*
X88216483Y-80964581D01*
X88229268Y-80961886D01*
X88229440Y-80961853D01*
X88262538Y-80957112D01*
X88304125Y-80953719D01*
X88352623Y-80951654D01*
X88406452Y-80950898D01*
X88464033Y-80951430D01*
X88523789Y-80953232D01*
X88584140Y-80956283D01*
X88643508Y-80960564D01*
X88700313Y-80966054D01*
X88716637Y-80967936D01*
X88808115Y-80982183D01*
X88892334Y-81002229D01*
X88970626Y-81028448D01*
X89038936Y-81058527D01*
X89092840Y-81085181D01*
X89162790Y-81041560D01*
X89276095Y-80968333D01*
X89380835Y-80895155D01*
X89478530Y-80820852D01*
X89570701Y-80744247D01*
X89658869Y-80664165D01*
X89691782Y-80632437D01*
X89768223Y-80554597D01*
X89838390Y-80477082D01*
X89901794Y-80400547D01*
X89957945Y-80325644D01*
X90006355Y-80253028D01*
X90046533Y-80183352D01*
X90077992Y-80117270D01*
X90078670Y-80115651D01*
X90095006Y-80076522D01*
X90050306Y-80021671D01*
X90027243Y-79994658D01*
X89998365Y-79962841D01*
X89965252Y-79927802D01*
X89929488Y-79891121D01*
X89892654Y-79854378D01*
X89856332Y-79819154D01*
X89822105Y-79787029D01*
X89791555Y-79759585D01*
X89768745Y-79740380D01*
X89669760Y-79666523D01*
X89568321Y-79601938D01*
X89464758Y-79546757D01*
X89359401Y-79501111D01*
X89252581Y-79465132D01*
X89144629Y-79438950D01*
X89035876Y-79422698D01*
X88955823Y-79417168D01*
X88899330Y-79416692D01*
X88850549Y-79419842D01*
X88807542Y-79427073D01*
X88768369Y-79438837D01*
X88731090Y-79455589D01*
X88693767Y-79477783D01*
X88692162Y-79478845D01*
X88644997Y-79516168D01*
X88602258Y-79562309D01*
X88564267Y-79616793D01*
X88531352Y-79679142D01*
X88503835Y-79748879D01*
X88499685Y-79761535D01*
X88480345Y-79838091D01*
X88469478Y-79918480D01*
X88466977Y-80001100D01*
X88472732Y-80084344D01*
X88486636Y-80166609D01*
X88508581Y-80246291D01*
X88537306Y-80319288D01*
X88561376Y-80365209D01*
X88589970Y-80408902D01*
X88621729Y-80448806D01*
X88655292Y-80483358D01*
X88689299Y-80510996D01*
X88720026Y-80529077D01*
X88755350Y-80541838D01*
X88791263Y-80548005D01*
X88825211Y-80547387D01*
X88854643Y-80539793D01*
X88855905Y-80539247D01*
X88886058Y-80522919D01*
X88911617Y-80501850D01*
X88935522Y-80473555D01*
X88938552Y-80469370D01*
X88963268Y-80427942D01*
X88984518Y-80378302D01*
X89001773Y-80321962D01*
X89014503Y-80260438D01*
X89016663Y-80246220D01*
X89020889Y-80199931D01*
X89021747Y-80147343D01*
X89019450Y-80091664D01*
X89014213Y-80036103D01*
X89006248Y-79983866D01*
X88996298Y-79940058D01*
X88981818Y-79895942D01*
X88964005Y-79855089D01*
X88943698Y-79818758D01*
X88921735Y-79788207D01*
X88898957Y-79764694D01*
X88876201Y-79749477D01*
X88866779Y-79745841D01*
X88839286Y-79742729D01*
X88812181Y-79749089D01*
X88786363Y-79764244D01*
X88762732Y-79787518D01*
X88742187Y-79818237D01*
X88727559Y-79850398D01*
X88715111Y-79892785D01*
X88706801Y-79940636D01*
X88702710Y-79991162D01*
X88702919Y-80041574D01*
X88707512Y-80089084D01*
X88716569Y-80130903D01*
X88719100Y-80138860D01*
X88735224Y-80178373D01*
X88753364Y-80207949D01*
X88773544Y-80227617D01*
X88795788Y-80237403D01*
X88807520Y-80238600D01*
X88822820Y-80234822D01*
X88834979Y-80222918D01*
X88844777Y-80202028D01*
X88847012Y-80195093D01*
X88853541Y-80156751D01*
X88851657Y-80114574D01*
X88841584Y-80070077D01*
X88823544Y-80024776D01*
X88821314Y-80020268D01*
X88812712Y-80001727D01*
X88806386Y-79985309D01*
X88803534Y-79974178D01*
X88803480Y-79973157D01*
X88808263Y-79955552D01*
X88821473Y-79940843D01*
X88834020Y-79933774D01*
X88854918Y-79930257D01*
X88876364Y-79935888D01*
X88897174Y-79949803D01*
X88916164Y-79971139D01*
X88932147Y-79999034D01*
X88935987Y-80008065D01*
X88940395Y-80020074D01*
X88943564Y-80031665D01*
X88945701Y-80044837D01*
X88947014Y-80061586D01*
X88947710Y-80083913D01*
X88947995Y-80113815D01*
X88948031Y-80124300D01*
X88947869Y-80160175D01*
X88947055Y-80188135D01*
X88945418Y-80210412D01*
X88942787Y-80229240D01*
X88938993Y-80246850D01*
X88938532Y-80248676D01*
X88923725Y-80297604D01*
X88906308Y-80339582D01*
X88886712Y-80374009D01*
X88865367Y-80400284D01*
X88842703Y-80417805D01*
X88819150Y-80425972D01*
X88811190Y-80426512D01*
X88788484Y-80422243D01*
X88763406Y-80410494D01*
X88738442Y-80392710D01*
X88717653Y-80372190D01*
X88700661Y-80349156D01*
X88682507Y-80318884D01*
X88664518Y-80283988D01*
X88648019Y-80247080D01*
X88634338Y-80210772D01*
X88631811Y-80203040D01*
X88615065Y-80138684D01*
X88604287Y-80071576D01*
X88599511Y-80003788D01*
X88600769Y-79937394D01*
X88608093Y-79874464D01*
X88621516Y-79817071D01*
X88625550Y-79804636D01*
X88646995Y-79754797D01*
X88674680Y-79710810D01*
X88707713Y-79673768D01*
X88745200Y-79644769D01*
X88764594Y-79633988D01*
X88786010Y-79624467D01*
X88805078Y-79618796D01*
X88826685Y-79615755D01*
X88841546Y-79614754D01*
X88864082Y-79614001D01*
X88880363Y-79614962D01*
X88894233Y-79618221D01*
X88909534Y-79624366D01*
X88912019Y-79625494D01*
X88948243Y-79647502D01*
X88981506Y-79678620D01*
X89011567Y-79718173D01*
X89038189Y-79765483D01*
X89061133Y-79819874D01*
X89080161Y-79880669D01*
X89095034Y-79947191D01*
X89105515Y-80018764D01*
X89111364Y-80094710D01*
X89112343Y-80174353D01*
X89111863Y-80192880D01*
X89106870Y-80270810D01*
X89097345Y-80343995D01*
X89083544Y-80411854D01*
X89065725Y-80473807D01*
X89044143Y-80529274D01*
X89019057Y-80577675D01*
X88990722Y-80618431D01*
X88959397Y-80650961D01*
X88925337Y-80674685D01*
X88892479Y-80688051D01*
X88873155Y-80691966D01*
X88845471Y-80695554D01*
X88811227Y-80698716D01*
X88772222Y-80701355D01*
X88730254Y-80703372D01*
X88687121Y-80704669D01*
X88644622Y-80705149D01*
X88604556Y-80704713D01*
X88592755Y-80704372D01*
X88482322Y-80697267D01*
X88379626Y-80683681D01*
X88284544Y-80663572D01*
X88196955Y-80636897D01*
X88116735Y-80603615D01*
X88043762Y-80563684D01*
X87977915Y-80517060D01*
X87932279Y-80476852D01*
X87880750Y-80420706D01*
X87837645Y-80359902D01*
X87802623Y-80293787D01*
X87775346Y-80221708D01*
X87755472Y-80143012D01*
X87753823Y-80134460D01*
X87749381Y-80102680D01*
X87746208Y-80063040D01*
X87744291Y-80017755D01*
X87743617Y-79969043D01*
X87743640Y-79966907D01*
X87850489Y-79966907D01*
X87856691Y-80048268D01*
X87871409Y-80126194D01*
X87894457Y-80199823D01*
X87925647Y-80268292D01*
X87943139Y-80298564D01*
X87966587Y-80331662D01*
X87996653Y-80367076D01*
X88030960Y-80402403D01*
X88067128Y-80435238D01*
X88102779Y-80463178D01*
X88112977Y-80470218D01*
X88183518Y-80511780D01*
X88258683Y-80545958D01*
X88336637Y-80572129D01*
X88415543Y-80589667D01*
X88487098Y-80597622D01*
X88515881Y-80598768D01*
X88536037Y-80598195D01*
X88549021Y-80595462D01*
X88556285Y-80590126D01*
X88559282Y-80581745D01*
X88559640Y-80575545D01*
X88555294Y-80556272D01*
X88542462Y-80532482D01*
X88524032Y-80507840D01*
X88480708Y-80448050D01*
X88443574Y-80381256D01*
X88412816Y-80308647D01*
X88388621Y-80231413D01*
X88371175Y-80150745D01*
X88360664Y-80067833D01*
X88357273Y-79983868D01*
X88361189Y-79900041D01*
X88372597Y-79817541D01*
X88391684Y-79737559D01*
X88399671Y-79712006D01*
X88428657Y-79638384D01*
X88464560Y-79570506D01*
X88506816Y-79508942D01*
X88554861Y-79454261D01*
X88608132Y-79407032D01*
X88666066Y-79367827D01*
X88728098Y-79337215D01*
X88790780Y-79316493D01*
X88839262Y-79307381D01*
X88895403Y-79302503D01*
X88957670Y-79301766D01*
X89024529Y-79305077D01*
X89094446Y-79312343D01*
X89165889Y-79323471D01*
X89237324Y-79338368D01*
X89265227Y-79345277D01*
X89370145Y-79377551D01*
X89474240Y-79419594D01*
X89576973Y-79471020D01*
X89677802Y-79531444D01*
X89776190Y-79600479D01*
X89871595Y-79677738D01*
X89963479Y-79762836D01*
X90051301Y-79855386D01*
X90134522Y-79955002D01*
X90155822Y-79982648D01*
X90249884Y-80114751D01*
X90338327Y-80255126D01*
X90421092Y-80403541D01*
X90498124Y-80559766D01*
X90569363Y-80723568D01*
X90634752Y-80894718D01*
X90694234Y-81072984D01*
X90747751Y-81258135D01*
X90795245Y-81449940D01*
X90836660Y-81648168D01*
X90871936Y-81852588D01*
X90901017Y-82062969D01*
X90923845Y-82279079D01*
X90940363Y-82500689D01*
X90950512Y-82727565D01*
X90954235Y-82959479D01*
X90951958Y-83176147D01*
X90940504Y-83468796D01*
X90919631Y-83761527D01*
X90889461Y-84053737D01*
X90850116Y-84344822D01*
X90801716Y-84634179D01*
X90744384Y-84921205D01*
X90678240Y-85205296D01*
X90603406Y-85485849D01*
X90520004Y-85762261D01*
X90428155Y-86033927D01*
X90327981Y-86300245D01*
X90318029Y-86325264D01*
X90229484Y-86537656D01*
X90136444Y-86743163D01*
X90039066Y-86941567D01*
X89937508Y-87132654D01*
X89831927Y-87316207D01*
X89722481Y-87492008D01*
X89609328Y-87659844D01*
X89492624Y-87819496D01*
X89372528Y-87970749D01*
X89249197Y-88113387D01*
X89122789Y-88247193D01*
X88993460Y-88371952D01*
X88861370Y-88487446D01*
X88726675Y-88593460D01*
X88600280Y-88682642D01*
X88507931Y-88741778D01*
X88412600Y-88798130D01*
X88316404Y-88850566D01*
X88221459Y-88897953D01*
X88129883Y-88939161D01*
X88089158Y-88955854D01*
X88007297Y-88988279D01*
X88003762Y-89051911D01*
X87994628Y-89143984D01*
X87977463Y-89231505D01*
X87951774Y-89316735D01*
X87937926Y-89353390D01*
X87929538Y-89374790D01*
X87923039Y-89392255D01*
X87919092Y-89403938D01*
X87918320Y-89408000D01*
X87923832Y-89406665D01*
X87936967Y-89403055D01*
X87955598Y-89397765D01*
X87972141Y-89392980D01*
X88109777Y-89348490D01*
X88248984Y-89294929D01*
X88388408Y-89232955D01*
X88526699Y-89163229D01*
X88662503Y-89086409D01*
X88794469Y-89003155D01*
X88851571Y-88964235D01*
X88949740Y-88893500D01*
X89043343Y-88821335D01*
X89134344Y-88746081D01*
X89224706Y-88666079D01*
X89316394Y-88579668D01*
X89375126Y-88521789D01*
X89514543Y-88375998D01*
X89649008Y-88222605D01*
X89778767Y-88061281D01*
X89904065Y-87891695D01*
X90025147Y-87713517D01*
X90142260Y-87526418D01*
X90238509Y-87360760D01*
X90358237Y-87138089D01*
X90471546Y-86907900D01*
X90578301Y-86670660D01*
X90678364Y-86426835D01*
X90771601Y-86176892D01*
X90857876Y-85921297D01*
X90937051Y-85660517D01*
X91008991Y-85395020D01*
X91073560Y-85125270D01*
X91130621Y-84851736D01*
X91180040Y-84574883D01*
X91221679Y-84295179D01*
X91255402Y-84013090D01*
X91274829Y-83807300D01*
X91290738Y-83582724D01*
X91301065Y-83356246D01*
X91305854Y-83129067D01*
X91305151Y-82902389D01*
X91299001Y-82677413D01*
X91287450Y-82455342D01*
X91270543Y-82237376D01*
X91248325Y-82024719D01*
X91220843Y-81818572D01*
X91193189Y-81648300D01*
X91153554Y-81443405D01*
X91108290Y-81245102D01*
X91057491Y-81053563D01*
X91001249Y-80868961D01*
X90939657Y-80691466D01*
X90872808Y-80521252D01*
X90800796Y-80358491D01*
X90723714Y-80203355D01*
X90641654Y-80056016D01*
X90554710Y-79916647D01*
X90462975Y-79785419D01*
X90366542Y-79662506D01*
X90265504Y-79548079D01*
X90159954Y-79442310D01*
X90049985Y-79345372D01*
X89935691Y-79257437D01*
X89880440Y-79219224D01*
X89763129Y-79146853D01*
X89641788Y-79083543D01*
X89516918Y-79029447D01*
X89389020Y-78984721D01*
X89258596Y-78949518D01*
X89126149Y-78923990D01*
X88992178Y-78908294D01*
X88857187Y-78902582D01*
X88848262Y-78902560D01*
X88758749Y-78906052D01*
X88670712Y-78916295D01*
X88585349Y-78932934D01*
X88503863Y-78955617D01*
X88427451Y-78983991D01*
X88357315Y-79017702D01*
X88294654Y-79056398D01*
X88274183Y-79071461D01*
X88194514Y-79139195D01*
X88122827Y-79213151D01*
X88059216Y-79293148D01*
X88003775Y-79379002D01*
X87956601Y-79470531D01*
X87917786Y-79567552D01*
X87887427Y-79669882D01*
X87865619Y-79777339D01*
X87852990Y-79882973D01*
X87850489Y-79966907D01*
X87743640Y-79966907D01*
X87744172Y-79919122D01*
X87745941Y-79870208D01*
X87748912Y-79824519D01*
X87753069Y-79784272D01*
X87756134Y-79763620D01*
X87780410Y-79647524D01*
X87812457Y-79537710D01*
X87852539Y-79433615D01*
X87900918Y-79334675D01*
X87957856Y-79240330D01*
X88023615Y-79150016D01*
X88066331Y-79098767D01*
X88124816Y-79037220D01*
X88184832Y-78984963D01*
X88247478Y-78941134D01*
X88313260Y-78905155D01*
X88346420Y-78889709D01*
X88376680Y-78876711D01*
X88406687Y-78865198D01*
X88439088Y-78854206D01*
X88476528Y-78842771D01*
X88513920Y-78832088D01*
X88537797Y-78825751D01*
X88565745Y-78818880D01*
X88595745Y-78811910D01*
X88625779Y-78805276D01*
X88653828Y-78799414D01*
X88677875Y-78794759D01*
X88695901Y-78791747D01*
X88705308Y-78790799D01*
X88706695Y-78787126D01*
X88702569Y-78777041D01*
X88693905Y-78761951D01*
X88681682Y-78743260D01*
X88666877Y-78722374D01*
X88650467Y-78700698D01*
X88633430Y-78679636D01*
X88616742Y-78660594D01*
X88609245Y-78652688D01*
X88553307Y-78602739D01*
X88491043Y-78560528D01*
X88423104Y-78526406D01*
X88350139Y-78500722D01*
X88308180Y-78490337D01*
X88285412Y-78487048D01*
X88255473Y-78484915D01*
X88221287Y-78483933D01*
X88185775Y-78484101D01*
X88151860Y-78485416D01*
X88122466Y-78487876D01*
X88104980Y-78490503D01*
X88028447Y-78510155D01*
X87958446Y-78537539D01*
X87894880Y-78572736D01*
X87837655Y-78615827D01*
X87786673Y-78666894D01*
X87741838Y-78726020D01*
X87703055Y-78793285D01*
X87675426Y-78855268D01*
X87664840Y-78881135D01*
X87656418Y-78898840D01*
X87649104Y-78909854D01*
X87641839Y-78915648D01*
X87633564Y-78917695D01*
X87630467Y-78917799D01*
X87621259Y-78916506D01*
X87613505Y-78911634D01*
X87606142Y-78901693D01*
X87598105Y-78885196D01*
X87588330Y-78860653D01*
X87586893Y-78856840D01*
X87555733Y-78784728D01*
X87519347Y-78721125D01*
X87477247Y-78665548D01*
X87428943Y-78617516D01*
X87373946Y-78576549D01*
X87311766Y-78542164D01*
X87241915Y-78513882D01*
X87236082Y-78511902D01*
X87162583Y-78492490D01*
X87088465Y-78483066D01*
X87014443Y-78483548D01*
X86941231Y-78493852D01*
X86869543Y-78513896D01*
X86800092Y-78543596D01*
X86756901Y-78567784D01*
X86719631Y-78593885D01*
X86681456Y-78626277D01*
X86644415Y-78662808D01*
X86610547Y-78701330D01*
X86581892Y-78739691D01*
X86561399Y-78773940D01*
X86553140Y-78790100D01*
X86582300Y-78795878D01*
X86598596Y-78799418D01*
X86621694Y-78804842D01*
X86648579Y-78811424D01*
X86676234Y-78818441D01*
X86677500Y-78818768D01*
X86765022Y-78843864D01*
X86843903Y-78871789D01*
X86915433Y-78903229D01*
X86980901Y-78938871D01*
X87041597Y-78979401D01*
X87098811Y-79025506D01*
X87142040Y-79065967D01*
X87220021Y-79150482D01*
X87289545Y-79240525D01*
X87350437Y-79335739D01*
X87402523Y-79435767D01*
X87445627Y-79540250D01*
X87479573Y-79648831D01*
X87504187Y-79761152D01*
X87513707Y-79824580D01*
X87517318Y-79863234D01*
X87519421Y-79907936D01*
X87520056Y-79955987D01*
X87519267Y-80004684D01*
X87517096Y-80051328D01*
X87513586Y-80093218D01*
X87508927Y-80126840D01*
X87489767Y-80208939D01*
X87462920Y-80284417D01*
X87428266Y-80353436D01*
X87385683Y-80416156D01*
X87335051Y-80472738D01*
X87276247Y-80523344D01*
X87209152Y-80568133D01*
X87155179Y-80597097D01*
X87101020Y-80621969D01*
X87049604Y-80641852D01*
X86996600Y-80658252D01*
X86939120Y-80672362D01*
X86895302Y-80681545D01*
X86854861Y-80688779D01*
X86815620Y-80694270D01*
X86775405Y-80698220D01*
X86732041Y-80700836D01*
X86683353Y-80702319D01*
X86627167Y-80702876D01*
X86614000Y-80702895D01*
X86552510Y-80702531D01*
X86500283Y-80701361D01*
X86456448Y-80699305D01*
X86420134Y-80696283D01*
X86390468Y-80692215D01*
X86366581Y-80687022D01*
X86347600Y-80680623D01*
X86341639Y-80677930D01*
X86307030Y-80655596D01*
X86274977Y-80623904D01*
X86245755Y-80583399D01*
X86219644Y-80534624D01*
X86196919Y-80478123D01*
X86177858Y-80414440D01*
X86162739Y-80344119D01*
X86158559Y-80318883D01*
X86154222Y-80281743D01*
X86151245Y-80237384D01*
X86149629Y-80188527D01*
X86149376Y-80137893D01*
X86150485Y-80088207D01*
X86152958Y-80042188D01*
X86156795Y-80002561D01*
X86158465Y-79990676D01*
X86172361Y-79917739D01*
X86190236Y-79851306D01*
X86211819Y-79791905D01*
X86236838Y-79740060D01*
X86265021Y-79696297D01*
X86296096Y-79661142D01*
X86329792Y-79635120D01*
X86347138Y-79625880D01*
X86363440Y-79619106D01*
X86377823Y-79615371D01*
X86394239Y-79614040D01*
X86416643Y-79614475D01*
X86417724Y-79614520D01*
X86462167Y-79621167D01*
X86502952Y-79636756D01*
X86539786Y-79660644D01*
X86572379Y-79692188D01*
X86600439Y-79730745D01*
X86623677Y-79775671D01*
X86641800Y-79826323D01*
X86654519Y-79882059D01*
X86661541Y-79942236D01*
X86662577Y-80006209D01*
X86657335Y-80073335D01*
X86649020Y-80125822D01*
X86636367Y-80180019D01*
X86620275Y-80230545D01*
X86601272Y-80276748D01*
X86579885Y-80317977D01*
X86556642Y-80353579D01*
X86532069Y-80382904D01*
X86506695Y-80405299D01*
X86481047Y-80420113D01*
X86455651Y-80426693D01*
X86431036Y-80424390D01*
X86413683Y-80416611D01*
X86394366Y-80400002D01*
X86375171Y-80374815D01*
X86356945Y-80342610D01*
X86340532Y-80304943D01*
X86326778Y-80263372D01*
X86323158Y-80249823D01*
X86318595Y-80229849D01*
X86315439Y-80210572D01*
X86313459Y-80189394D01*
X86312428Y-80163714D01*
X86312116Y-80130937D01*
X86312119Y-80124300D01*
X86312330Y-80092199D01*
X86313000Y-80068135D01*
X86314341Y-80049987D01*
X86316565Y-80035635D01*
X86319884Y-80022959D01*
X86323219Y-80013278D01*
X86339378Y-79978443D01*
X86358571Y-79953115D01*
X86380707Y-79937382D01*
X86405693Y-79931331D01*
X86408897Y-79931260D01*
X86427983Y-79933881D01*
X86442594Y-79942819D01*
X86443323Y-79943493D01*
X86453555Y-79954531D01*
X86458594Y-79965080D01*
X86458390Y-79977401D01*
X86452895Y-79993754D01*
X86442060Y-80016402D01*
X86441720Y-80017068D01*
X86427397Y-80049668D01*
X86415967Y-80084574D01*
X86408436Y-80118188D01*
X86405808Y-80145639D01*
X86408598Y-80179424D01*
X86416697Y-80205943D01*
X86429092Y-80224808D01*
X86444770Y-80235631D01*
X86462717Y-80238025D01*
X86481920Y-80231602D01*
X86501366Y-80215973D01*
X86520042Y-80190751D01*
X86520708Y-80189622D01*
X86537818Y-80152118D01*
X86549986Y-80107843D01*
X86557222Y-80058897D01*
X86559540Y-80007379D01*
X86556951Y-79955390D01*
X86549465Y-79905029D01*
X86537096Y-79858395D01*
X86519854Y-79817589D01*
X86518630Y-79815307D01*
X86500031Y-79788320D01*
X86477365Y-79766748D01*
X86452333Y-79751499D01*
X86426638Y-79743476D01*
X86401979Y-79743586D01*
X86390363Y-79747059D01*
X86362218Y-79764089D01*
X86336068Y-79790287D01*
X86312269Y-79824793D01*
X86291178Y-79866747D01*
X86273153Y-79915291D01*
X86258550Y-79969565D01*
X86247726Y-80028710D01*
X86241038Y-80091865D01*
X86240010Y-80109060D01*
X86239490Y-80176087D01*
X86244545Y-80240590D01*
X86254837Y-80301611D01*
X86270027Y-80358191D01*
X86289777Y-80409370D01*
X86313749Y-80454191D01*
X86341604Y-80491694D01*
X86373005Y-80520921D01*
X86389153Y-80531679D01*
X86418001Y-80543303D01*
X86451616Y-80548229D01*
X86486995Y-80546302D01*
X86518771Y-80538256D01*
X86548549Y-80525884D01*
X86573566Y-80511510D01*
X86597649Y-80492675D01*
X86615189Y-80476315D01*
X86658419Y-80427320D01*
X86696305Y-80370702D01*
X86728530Y-80307664D01*
X86754779Y-80239412D01*
X86774734Y-80167151D01*
X86788080Y-80092085D01*
X86794501Y-80015419D01*
X86793680Y-79938357D01*
X86785302Y-79862105D01*
X86781704Y-79841820D01*
X86763942Y-79769201D01*
X86739776Y-79701476D01*
X86709704Y-79639362D01*
X86674226Y-79583574D01*
X86633840Y-79534827D01*
X86589046Y-79493835D01*
X86540343Y-79461316D01*
X86504182Y-79443972D01*
X86470956Y-79432110D01*
X86437334Y-79423784D01*
X86401013Y-79418685D01*
X86359689Y-79416503D01*
X86311061Y-79416932D01*
X86304120Y-79417162D01*
X86194241Y-79426109D01*
X86085386Y-79445014D01*
X85977874Y-79473697D01*
X85872024Y-79511980D01*
X85768154Y-79559685D01*
X85666583Y-79616632D01*
X85567630Y-79682645D01*
X85471614Y-79757543D01*
X85378854Y-79841149D01*
X85289668Y-79933284D01*
X85205719Y-80032083D01*
X85188273Y-80054506D01*
X85176815Y-80070730D01*
X85170531Y-80082107D01*
X85168609Y-80089988D01*
X85028232Y-80089988D01*
X85104208Y-79984910D01*
X85193832Y-79875151D01*
X85287147Y-79774432D01*
X85384019Y-79682894D01*
X85484311Y-79600678D01*
X85587887Y-79527928D01*
X85645454Y-79492442D01*
X85750439Y-79436355D01*
X85857640Y-79390137D01*
X85967484Y-79353657D01*
X86080398Y-79326783D01*
X86196809Y-79309384D01*
X86258400Y-79304068D01*
X86336299Y-79301868D01*
X86407127Y-79306219D01*
X86471844Y-79317455D01*
X86531411Y-79335907D01*
X86586790Y-79361906D01*
X86638942Y-79395786D01*
X86688829Y-79437878D01*
X86711868Y-79460699D01*
X86760833Y-79517706D01*
X86802461Y-79579793D01*
X86837169Y-79647786D01*
X86865374Y-79722513D01*
X86887494Y-79804800D01*
X86889045Y-79811880D01*
X86892897Y-79830916D01*
X86895799Y-79848747D01*
X86897884Y-79867304D01*
X86899283Y-79888520D01*
X86900129Y-79914327D01*
X86900554Y-79946659D01*
X86900685Y-79982060D01*
X86900357Y-80032289D01*
X86899037Y-80074704D01*
X86896420Y-80111629D01*
X86892205Y-80145387D01*
X86886088Y-80178301D01*
X86877767Y-80212694D01*
X86866940Y-80250889D01*
X86864677Y-80258428D01*
X86846775Y-80310612D01*
X86825001Y-80362517D01*
X86800463Y-80412012D01*
X86774269Y-80456965D01*
X86747527Y-80495247D01*
X86731617Y-80514197D01*
X86715495Y-80533827D01*
X86704197Y-80551702D01*
X86698765Y-80565961D01*
X86698940Y-80572610D01*
X86705610Y-80576880D01*
X86720768Y-80578667D01*
X86743085Y-80578110D01*
X86771234Y-80575348D01*
X86803885Y-80570518D01*
X86839711Y-80563761D01*
X86877383Y-80555214D01*
X86885780Y-80553109D01*
X86970015Y-80527490D01*
X87048255Y-80495304D01*
X87120000Y-80456914D01*
X87184747Y-80412684D01*
X87241993Y-80362975D01*
X87291237Y-80308151D01*
X87331977Y-80248574D01*
X87348084Y-80218956D01*
X87374313Y-80158404D01*
X87393359Y-80095223D01*
X87405286Y-80028571D01*
X87410158Y-79957609D01*
X87408040Y-79881495D01*
X87398997Y-79799388D01*
X87386013Y-79724762D01*
X87361183Y-79622027D01*
X87328868Y-79525849D01*
X87288706Y-79435537D01*
X87240336Y-79350402D01*
X87183396Y-79269756D01*
X87117524Y-79192909D01*
X87094072Y-79168575D01*
X87053058Y-79128398D01*
X87016050Y-79095037D01*
X86981139Y-79067049D01*
X86946412Y-79042991D01*
X86909958Y-79021422D01*
X86875825Y-79003788D01*
X86791608Y-78967598D01*
X86703107Y-78939429D01*
X86609954Y-78919238D01*
X86511783Y-78906982D01*
X86408226Y-78902620D01*
X86298916Y-78906108D01*
X86183485Y-78917403D01*
X86159340Y-78920637D01*
X86025666Y-78944419D01*
X85894190Y-78978036D01*
X85765305Y-79021322D01*
X85639403Y-79074112D01*
X85516879Y-79136242D01*
X85398124Y-79207548D01*
X85284896Y-79286837D01*
X85234005Y-79327024D01*
X85179178Y-79373650D01*
X85122352Y-79424866D01*
X85065463Y-79478821D01*
X85010451Y-79533666D01*
X84959251Y-79587549D01*
X84913803Y-79638621D01*
X84902627Y-79651860D01*
X84799923Y-79782706D01*
X84702881Y-79921891D01*
X84611545Y-80069287D01*
X84525953Y-80224768D01*
X84446149Y-80388210D01*
X84372173Y-80559486D01*
X84304068Y-80738469D01*
X84241874Y-80925036D01*
X84185632Y-81119059D01*
X84135385Y-81320413D01*
X84091173Y-81528972D01*
X84053039Y-81744610D01*
X84021023Y-81967202D01*
X83995167Y-82196621D01*
X83975513Y-82432742D01*
X83972611Y-82476340D01*
X83964549Y-82627537D01*
X83959144Y-82785989D01*
X83956392Y-82949147D01*
X83956287Y-83114462D01*
X83846547Y-83114462D01*
X83846109Y-83095519D01*
X83848417Y-82806017D01*
X83859849Y-82518827D01*
X83880493Y-82234597D01*
X83896599Y-82072480D01*
X83923931Y-81854578D01*
X83957723Y-81641304D01*
X83997851Y-81433035D01*
X84044192Y-81230147D01*
X84096623Y-81033017D01*
X84155019Y-80842021D01*
X84219258Y-80657535D01*
X84289216Y-80479937D01*
X84364769Y-80309602D01*
X84445796Y-80146908D01*
X84532171Y-79992230D01*
X84623771Y-79845945D01*
X84628788Y-79838407D01*
X84721600Y-79706941D01*
X84819128Y-79583445D01*
X84921128Y-79468085D01*
X85027352Y-79361029D01*
X85137555Y-79262443D01*
X85251490Y-79172494D01*
X85368911Y-79091350D01*
X85489573Y-79019175D01*
X85613230Y-78956139D01*
X85739635Y-78902407D01*
X85868542Y-78858146D01*
X85999705Y-78823523D01*
X86132879Y-78798705D01*
X86169500Y-78793662D01*
X86194301Y-78790812D01*
X86224949Y-78787758D01*
X86259085Y-78784688D01*
X86294348Y-78781789D01*
X86328379Y-78779248D01*
X86358819Y-78777253D01*
X86383307Y-78775992D01*
X86396487Y-78775638D01*
X86408975Y-78772034D01*
X86413318Y-78765467D01*
X86419479Y-78752240D01*
X86430857Y-78733294D01*
X86446040Y-78710609D01*
X86463614Y-78686162D01*
X86482166Y-78661933D01*
X86500285Y-78639902D01*
X86513334Y-78625381D01*
X86578770Y-78563762D01*
X86650877Y-78509531D01*
X86728963Y-78463074D01*
X86812335Y-78424779D01*
X86900299Y-78395034D01*
X86945831Y-78383479D01*
X86975403Y-78376780D01*
X86978465Y-78367611D01*
X87095639Y-78367611D01*
X87132949Y-78371056D01*
X87169090Y-78376433D01*
X87210457Y-78385910D01*
X87253506Y-78398462D01*
X87294690Y-78413064D01*
X87327740Y-78427357D01*
X87386048Y-78460317D01*
X87443405Y-78501796D01*
X87498023Y-78550188D01*
X87548112Y-78603886D01*
X87591883Y-78661285D01*
X87597265Y-78669313D01*
X87611860Y-78691119D01*
X87622095Y-78705366D01*
X87628964Y-78713128D01*
X87633463Y-78715480D01*
X87636587Y-78713498D01*
X87637241Y-78712498D01*
X87642254Y-78704491D01*
X87651371Y-78690289D01*
X87663114Y-78672185D01*
X87671439Y-78659436D01*
X87721377Y-78591410D01*
X87776335Y-78532197D01*
X87836278Y-78481818D01*
X87901171Y-78440297D01*
X87970980Y-78407657D01*
X88045670Y-78383920D01*
X88106950Y-78371653D01*
X88127795Y-78368274D01*
X88144548Y-78365188D01*
X88154878Y-78362845D01*
X88156986Y-78362026D01*
X88157688Y-78354699D01*
X88153657Y-78340468D01*
X88145704Y-78320942D01*
X88134639Y-78297732D01*
X88121272Y-78272449D01*
X88106413Y-78246703D01*
X88090872Y-78222105D01*
X88075939Y-78200899D01*
X88028569Y-78146188D01*
X87974930Y-78099420D01*
X87915270Y-78060744D01*
X87849835Y-78030308D01*
X87778873Y-78008261D01*
X87741760Y-78000493D01*
X87709340Y-77996346D01*
X87670225Y-77993851D01*
X87627745Y-77993010D01*
X87585229Y-77993821D01*
X87546007Y-77996287D01*
X87513408Y-78000407D01*
X87513111Y-78000460D01*
X87439538Y-78018217D01*
X87371365Y-78044437D01*
X87308844Y-78078967D01*
X87252227Y-78121655D01*
X87201764Y-78172351D01*
X87177001Y-78203218D01*
X87161289Y-78226061D01*
X87145052Y-78252575D01*
X87129508Y-78280450D01*
X87115876Y-78307377D01*
X87105372Y-78331045D01*
X87099216Y-78349145D01*
X87098617Y-78351875D01*
X87095639Y-78367611D01*
X86978465Y-78367611D01*
X86988127Y-78338680D01*
X86996177Y-78317002D01*
X87007172Y-78290587D01*
X87019308Y-78263678D01*
X87025391Y-78251057D01*
X87067931Y-78175440D01*
X87116585Y-78107810D01*
X87171199Y-78048289D01*
X87231618Y-77996999D01*
X87297689Y-77954061D01*
X87369257Y-77919598D01*
X87446167Y-77893731D01*
X87491914Y-77882965D01*
X87525161Y-77878085D01*
X87565619Y-77874980D01*
X87610499Y-77873625D01*
X87657014Y-77873991D01*
G37*
X87657014Y-77873991D02*
X87702375Y-77876052D01*
X87743794Y-77879780D01*
X87778483Y-77885150D01*
X87781395Y-77885759D01*
X87860635Y-77907497D01*
X87934009Y-77937438D01*
X88001830Y-77975785D01*
X88064414Y-78022739D01*
X88122077Y-78078504D01*
X88168895Y-78134889D01*
X88190962Y-78166620D01*
X88213934Y-78203879D01*
X88236332Y-78243914D01*
X88256682Y-78283972D01*
X88273506Y-78321301D01*
X88284383Y-78350197D01*
X88289840Y-78366109D01*
X88294296Y-78377714D01*
X88296434Y-78381967D01*
X88302382Y-78384133D01*
X88315301Y-78387240D01*
X88328942Y-78389959D01*
X88369191Y-78399382D01*
X88414524Y-78413437D01*
X88461659Y-78430992D01*
X88507314Y-78450915D01*
X88511541Y-78452931D01*
X88584134Y-78492295D01*
X88651352Y-78537714D01*
X88712191Y-78588300D01*
X88765644Y-78643169D01*
X88810704Y-78701433D01*
X88831778Y-78735007D01*
X88854618Y-78774605D01*
X88909059Y-78777746D01*
X89015529Y-78785775D01*
X89114491Y-78797326D01*
X89208105Y-78812803D01*
X89298531Y-78832607D01*
X89387931Y-78857143D01*
X89460719Y-78880639D01*
X89591526Y-78930876D01*
X89718777Y-78990499D01*
X89842356Y-79059334D01*
X89962152Y-79137209D01*
X90078049Y-79223949D01*
X90189933Y-79319381D01*
X90297691Y-79423332D01*
X90401209Y-79535630D01*
X90500372Y-79656099D01*
X90595067Y-79784568D01*
X90685180Y-79920862D01*
X90770596Y-80064809D01*
X90851201Y-80216235D01*
X90926883Y-80374967D01*
X90997526Y-80540831D01*
X91063017Y-80713654D01*
X91123241Y-80893263D01*
X91178085Y-81079485D01*
X91227435Y-81272146D01*
X91271177Y-81471072D01*
X91309196Y-81676092D01*
X91312619Y-81696560D01*
X91329612Y-81803878D01*
X91344818Y-81910232D01*
X91358415Y-82017300D01*
X91370581Y-82126754D01*
X91381495Y-82240272D01*
X91391334Y-82359528D01*
X91400276Y-82486198D01*
X91405515Y-82570320D01*
X91407014Y-82602053D01*
X91408320Y-82642725D01*
X91409431Y-82691114D01*
X91410350Y-82746000D01*
X91411074Y-82806164D01*
X91411606Y-82870384D01*
X91411943Y-82937440D01*
X91412087Y-83006112D01*
X91412038Y-83075179D01*
X91411795Y-83143422D01*
X91411358Y-83209620D01*
X91410728Y-83272553D01*
X91409904Y-83330999D01*
X91408887Y-83383740D01*
X91407676Y-83429555D01*
X91406271Y-83467223D01*
X91405521Y-83482180D01*
X91390706Y-83710254D01*
X91372134Y-83930657D01*
X91349574Y-84145248D01*
X91322797Y-84355882D01*
X91291575Y-84564418D01*
X91255677Y-84772712D01*
X91228562Y-84914740D01*
X91173920Y-85172528D01*
X91113133Y-85425889D01*
X91046343Y-85674551D01*
X90973690Y-85918243D01*
X90895316Y-86156694D01*
X90811363Y-86389632D01*
X90721971Y-86616785D01*
X90627284Y-86837883D01*
X90527441Y-87052653D01*
X90422585Y-87260825D01*
X90312856Y-87462126D01*
X90198397Y-87656286D01*
X90079349Y-87843033D01*
X89955853Y-88022096D01*
X89828051Y-88193202D01*
X89696084Y-88356082D01*
X89560094Y-88510462D01*
X89420222Y-88656073D01*
X89276610Y-88792641D01*
X89150289Y-88902593D01*
X89013014Y-89011660D01*
X88871799Y-89113264D01*
X88727294Y-89207063D01*
X88580149Y-89292714D01*
X88431014Y-89369876D01*
X88280540Y-89438204D01*
X88129377Y-89497358D01*
X87978174Y-89546995D01*
X87870991Y-89576312D01*
X87807344Y-89592251D01*
X87791635Y-89615083D01*
X87774591Y-89638346D01*
X87754320Y-89663671D01*
X87732624Y-89689020D01*
X87711308Y-89712358D01*
X87692175Y-89731647D01*
X87677028Y-89744850D01*
X87676183Y-89745479D01*
X87653935Y-89759595D01*
X87635278Y-89765820D01*
X87617957Y-89764570D01*
X87604181Y-89758815D01*
X87590991Y-89749444D01*
X87573303Y-89733706D01*
X87552753Y-89713330D01*
X87530982Y-89690045D01*
X87509628Y-89665582D01*
X87490330Y-89641669D01*
X87480140Y-89627911D01*
X87467365Y-89610384D01*
X87457746Y-89599308D01*
X87448771Y-89592702D01*
X87437924Y-89588586D01*
X87426800Y-89585887D01*
X87402077Y-89579853D01*
X87369916Y-89571219D01*
X87332503Y-89560636D01*
X87292024Y-89548759D01*
X87250666Y-89536241D01*
X87210614Y-89523736D01*
X87174055Y-89511897D01*
X87143174Y-89501377D01*
X87138262Y-89499629D01*
X86972831Y-89434883D01*
X86810279Y-89360418D01*
X86650659Y-89276275D01*
X86494023Y-89182493D01*
X86340422Y-89079114D01*
X86189910Y-88966177D01*
X86042537Y-88843722D01*
X85898357Y-88711790D01*
X85757422Y-88570420D01*
X85619783Y-88419654D01*
X85485494Y-88259531D01*
X85419719Y-88176100D01*
X85294395Y-88007017D01*
X85172577Y-87828870D01*
X85054589Y-87642241D01*
X84940754Y-87447715D01*
X84831397Y-87245873D01*
X84726840Y-87037302D01*
X84627407Y-86822583D01*
X84533423Y-86602300D01*
X84498289Y-86514940D01*
X84397925Y-86248042D01*
X84305635Y-85975710D01*
X84221509Y-85698589D01*
X84145632Y-85417325D01*
X84078093Y-85132562D01*
X84018978Y-84844947D01*
X83968376Y-84555126D01*
X83926373Y-84263744D01*
X83893058Y-83971446D01*
X83868517Y-83678879D01*
X83852838Y-83386688D01*
X83846547Y-83114462D01*
X83956287Y-83114462D01*
X83958822Y-83279384D01*
X83963993Y-83441364D01*
X83971793Y-83597853D01*
X83975244Y-83652360D01*
X84000618Y-83959241D01*
X84035342Y-84263647D01*
X84079348Y-84565270D01*
X84132567Y-84863805D01*
X84194930Y-85158945D01*
X84266367Y-85450384D01*
X84346811Y-85737816D01*
X84436192Y-86020935D01*
X84534442Y-86299434D01*
X84620684Y-86521931D01*
X84685957Y-86677947D01*
X84756386Y-86835661D01*
X84830914Y-86992941D01*
X84908488Y-87147656D01*
X84988051Y-87297674D01*
X85068549Y-87440864D01*
X85112985Y-87516182D01*
X85229807Y-87703112D01*
X85350417Y-87881375D01*
X85474719Y-88050884D01*
X85602616Y-88211555D01*
X85734011Y-88363304D01*
X85868807Y-88506046D01*
X86006907Y-88639697D01*
X86148214Y-88764171D01*
X86292632Y-88879386D01*
X86440063Y-88985255D01*
X86590411Y-89081695D01*
X86743578Y-89168620D01*
X86899467Y-89245947D01*
X87057983Y-89313591D01*
X87219027Y-89371467D01*
X87252043Y-89382023D01*
X87279381Y-89390486D01*
X87303552Y-89397788D01*
X87322797Y-89403411D01*
X87335357Y-89406839D01*
X87339238Y-89407656D01*
X87342388Y-89405383D01*
X87340497Y-89396908D01*
X87337209Y-89388950D01*
X87326747Y-89363084D01*
X87315009Y-89330389D01*
X87302971Y-89293943D01*
X87291606Y-89256824D01*
X87281889Y-89222111D01*
X87274795Y-89192883D01*
X87274098Y-89189560D01*
X87269266Y-89161076D01*
X87264933Y-89126556D01*
X87261564Y-89090119D01*
X87259903Y-89063042D01*
X87256890Y-88995868D01*
X87366905Y-88995868D01*
X87367163Y-89040783D01*
X87367337Y-89044780D01*
X87376427Y-89131631D01*
X87395464Y-89218713D01*
X87424264Y-89305497D01*
X87462642Y-89391460D01*
X87510413Y-89476074D01*
X87528867Y-89504601D01*
X87554326Y-89541751D01*
X87575734Y-89570462D01*
X87593917Y-89591208D01*
X87609699Y-89604465D01*
X87623907Y-89610707D01*
X87637365Y-89610408D01*
X87650899Y-89604043D01*
X87665334Y-89592087D01*
X87671040Y-89586369D01*
X87688353Y-89566242D01*
X87708748Y-89539034D01*
X87730884Y-89506807D01*
X87753420Y-89471627D01*
X87775014Y-89435558D01*
X87794324Y-89400663D01*
X87803723Y-89382235D01*
X87833997Y-89313853D01*
X87859291Y-89242860D01*
X87878108Y-89173495D01*
X87879129Y-89168877D01*
X87886248Y-89127133D01*
X87890882Y-89080440D01*
X87893034Y-89031358D01*
X87892707Y-88982448D01*
X87889904Y-88936270D01*
X87884628Y-88895385D01*
X87878779Y-88868745D01*
X87868121Y-88847399D01*
X87848756Y-88826104D01*
X87822095Y-88805838D01*
X87789549Y-88787578D01*
X87752527Y-88772301D01*
X87729060Y-88765055D01*
X87710157Y-88761112D01*
X87685259Y-88757526D01*
X87658527Y-88754852D01*
X87646653Y-88754075D01*
X87601525Y-88754554D01*
X87557178Y-88760308D01*
X87514939Y-88770741D01*
X87476135Y-88785259D01*
X87442094Y-88803267D01*
X87414141Y-88824170D01*
X87393605Y-88847373D01*
X87381812Y-88872282D01*
X87381654Y-88872869D01*
X87374437Y-88908474D01*
X87369425Y-88950620D01*
X87366905Y-88995868D01*
X87256890Y-88995868D01*
X87256620Y-88989864D01*
X87170591Y-88955256D01*
X87025922Y-88891754D01*
X86882939Y-88818378D01*
X86741888Y-88735310D01*
X86603016Y-88642733D01*
X86592792Y-88635097D01*
X86791212Y-88635097D01*
X86792726Y-88638565D01*
X86802731Y-88646102D01*
X86820440Y-88657446D01*
X86844486Y-88671829D01*
X86873502Y-88688483D01*
X86906120Y-88706639D01*
X86940974Y-88725529D01*
X86976695Y-88744384D01*
X87011918Y-88762437D01*
X87022940Y-88767958D01*
X87051532Y-88781918D01*
X87083008Y-88796819D01*
X87115923Y-88812026D01*
X87148832Y-88826903D01*
X87180292Y-88840815D01*
X87208859Y-88853124D01*
X87233087Y-88863195D01*
X87251534Y-88870392D01*
X87262755Y-88874079D01*
X87264701Y-88874422D01*
X87267372Y-88870025D01*
X87271057Y-88858521D01*
X87273685Y-88847930D01*
X87287916Y-88807272D01*
X87311293Y-88770049D01*
X87343268Y-88736653D01*
X87383294Y-88707474D01*
X87430824Y-88682904D01*
X87485311Y-88663332D01*
X87546207Y-88649151D01*
X87553800Y-88647850D01*
X87607481Y-88642661D01*
X87663329Y-88643953D01*
X87719522Y-88651256D01*
X87774237Y-88664100D01*
X87825652Y-88682013D01*
X87871944Y-88704526D01*
X87911290Y-88731169D01*
X87925672Y-88743828D01*
X87948311Y-88769554D01*
X87967647Y-88799093D01*
X87981848Y-88829244D01*
X87988667Y-88853893D01*
X87991164Y-88866718D01*
X87993446Y-88873984D01*
X87994044Y-88874600D01*
X88002258Y-88872515D01*
X88018243Y-88866667D01*
X88040599Y-88857666D01*
X88067924Y-88846122D01*
X88098818Y-88832645D01*
X88131881Y-88817845D01*
X88165713Y-88802332D01*
X88198913Y-88786715D01*
X88226900Y-88773173D01*
X88258547Y-88757288D01*
X88292414Y-88739719D01*
X88327140Y-88721227D01*
X88361369Y-88702571D01*
X88393741Y-88684513D01*
X88422899Y-88667812D01*
X88447483Y-88653230D01*
X88466137Y-88641527D01*
X88477500Y-88633462D01*
X88479256Y-88631895D01*
X88477459Y-88627148D01*
X88469230Y-88618037D01*
X88456231Y-88606345D01*
X88452942Y-88603641D01*
X88392409Y-88551521D01*
X88330954Y-88492794D01*
X88270569Y-88429641D01*
X88213245Y-88364242D01*
X88160976Y-88298777D01*
X88115752Y-88235428D01*
X88113463Y-88231980D01*
X88101811Y-88213465D01*
X88087818Y-88189860D01*
X88072503Y-88163036D01*
X88056882Y-88134863D01*
X88041973Y-88107213D01*
X88028795Y-88081958D01*
X88018365Y-88060969D01*
X88011701Y-88046117D01*
X88010341Y-88042386D01*
X88005405Y-88041949D01*
X87992832Y-88047877D01*
X87972550Y-88060208D01*
X87952442Y-88073542D01*
X87920622Y-88094350D01*
X87885391Y-88116019D01*
X87848026Y-88137886D01*
X87809806Y-88159286D01*
X87772008Y-88179556D01*
X87735910Y-88198033D01*
X87702791Y-88214052D01*
X87673928Y-88226951D01*
X87650600Y-88236065D01*
X87634083Y-88240730D01*
X87629567Y-88241204D01*
X87618006Y-88238736D01*
X87599038Y-88231681D01*
X87573948Y-88220715D01*
X87544019Y-88206513D01*
X87510537Y-88189752D01*
X87474784Y-88171107D01*
X87438046Y-88151254D01*
X87401607Y-88130867D01*
X87366750Y-88110624D01*
X87334760Y-88091200D01*
X87306922Y-88073270D01*
X87295419Y-88065398D01*
X87263098Y-88042725D01*
X87228901Y-88110342D01*
X87184733Y-88189312D01*
X87131829Y-88269398D01*
X87071308Y-88349233D01*
X87004287Y-88427453D01*
X86931883Y-88502694D01*
X86855215Y-88573592D01*
X86835906Y-88590146D01*
X86815072Y-88608053D01*
X86801313Y-88620802D01*
X86793678Y-88629460D01*
X86791212Y-88635097D01*
X86592792Y-88635097D01*
X86466570Y-88540830D01*
X86332796Y-88429783D01*
X86201941Y-88309776D01*
X86074251Y-88180992D01*
X85965795Y-88061800D01*
X85836555Y-87907190D01*
X85711335Y-87743430D01*
X85590262Y-87570752D01*
X85473462Y-87389391D01*
X85361061Y-87199579D01*
X85253185Y-87001551D01*
X85225502Y-86946300D01*
X85352295Y-86946300D01*
X85354926Y-86953153D01*
X85361901Y-86967587D01*
X85372542Y-86988351D01*
X85386170Y-87014195D01*
X85402105Y-87043870D01*
X85419670Y-87076124D01*
X85438183Y-87109707D01*
X85456968Y-87143370D01*
X85475345Y-87175860D01*
X85492634Y-87205930D01*
X85501744Y-87221509D01*
X85600991Y-87384428D01*
X85701365Y-87538012D01*
X85803477Y-87683076D01*
X85907935Y-87820430D01*
X86015350Y-87950887D01*
X86126332Y-88075261D01*
X86202520Y-88155113D01*
X86309986Y-88260949D01*
X86416236Y-88357749D01*
X86522280Y-88446390D01*
X86629133Y-88527749D01*
X86651491Y-88543793D01*
X86676717Y-88561508D01*
X86695106Y-88573824D01*
X86707948Y-88581441D01*
X86716529Y-88585061D01*
X86722138Y-88585386D01*
X86725151Y-88583904D01*
X86732229Y-88578226D01*
X86745207Y-88567636D01*
X86762164Y-88553705D01*
X86779100Y-88539727D01*
X86797596Y-88523743D01*
X86821066Y-88502426D01*
X86847412Y-88477739D01*
X86874538Y-88451646D01*
X86898559Y-88427905D01*
X86968575Y-88354090D01*
X87029729Y-88281871D01*
X87082920Y-88210037D01*
X87129052Y-88137376D01*
X87166748Y-88067309D01*
X87200421Y-87999158D01*
X87185667Y-87988569D01*
X87176757Y-87981867D01*
X87161610Y-87970150D01*
X87141927Y-87954744D01*
X87119407Y-87936979D01*
X87103857Y-87924640D01*
X86997229Y-87835045D01*
X86890252Y-87735703D01*
X86783247Y-87627006D01*
X86676537Y-87509343D01*
X86570444Y-87383106D01*
X86465291Y-87248686D01*
X86361401Y-87106473D01*
X86259094Y-86956858D01*
X86158696Y-86800233D01*
X86108546Y-86718140D01*
X86092004Y-86690689D01*
X86077159Y-86666183D01*
X86064830Y-86645966D01*
X86055836Y-86631379D01*
X86050998Y-86623765D01*
X86050481Y-86623044D01*
X86045436Y-86624363D01*
X86034539Y-86630970D01*
X86019723Y-86641628D01*
X86011920Y-86647714D01*
X85935375Y-86703366D01*
X85850110Y-86755183D01*
X85756963Y-86802775D01*
X85656772Y-86845752D01*
X85550376Y-86883724D01*
X85438612Y-86916300D01*
X85430360Y-86918432D01*
X85398986Y-86926725D01*
X85376528Y-86933316D01*
X85361954Y-86938573D01*
X85354232Y-86942865D01*
X85352295Y-86946300D01*
X85225502Y-86946300D01*
X85149962Y-86795539D01*
X85051517Y-86581778D01*
X84957978Y-86360500D01*
X84869469Y-86131940D01*
X84786119Y-85896330D01*
X84774566Y-85861887D01*
X84685656Y-85579570D01*
X84606084Y-85294332D01*
X84535804Y-85005918D01*
X84474765Y-84714075D01*
X84422921Y-84418550D01*
X84380223Y-84119091D01*
X84346623Y-83815443D01*
X84322073Y-83507354D01*
X84320007Y-83474560D01*
X84317528Y-83427279D01*
X84315317Y-83371448D01*
X84313390Y-83308673D01*
X84311761Y-83240562D01*
X84310448Y-83168721D01*
X84309464Y-83094756D01*
X84308826Y-83020275D01*
X84308668Y-82978027D01*
X84420806Y-82978027D01*
X84420952Y-83031941D01*
X84421274Y-83083486D01*
X84421779Y-83131522D01*
X84422473Y-83174911D01*
X84423362Y-83212514D01*
X84424045Y-83233260D01*
X84439923Y-83533146D01*
X84464726Y-83830769D01*
X84498371Y-84125784D01*
X84540778Y-84417845D01*
X84591863Y-84706607D01*
X84651544Y-84991725D01*
X84719740Y-85272853D01*
X84796367Y-85549646D01*
X84881345Y-85821759D01*
X84974591Y-86088846D01*
X85076022Y-86350562D01*
X85185556Y-86606562D01*
X85269796Y-86787990D01*
X85285173Y-86819367D01*
X85297139Y-86842212D01*
X85306193Y-86857367D01*
X85312837Y-86865676D01*
X85317252Y-86868000D01*
X85325269Y-86866791D01*
X85341065Y-86863473D01*
X85362585Y-86858508D01*
X85387779Y-86852358D01*
X85396523Y-86850154D01*
X85504054Y-86819723D01*
X85606356Y-86784525D01*
X85702588Y-86744949D01*
X85791906Y-86701390D01*
X85873468Y-86654237D01*
X85946429Y-86603885D01*
X85975463Y-86580922D01*
X86010027Y-86552364D01*
X85988498Y-86513332D01*
X85959283Y-86460111D01*
X85933008Y-86411632D01*
X85908448Y-86365552D01*
X85884377Y-86319530D01*
X85859569Y-86271222D01*
X85832799Y-86218287D01*
X85804582Y-86161880D01*
X85756840Y-86064946D01*
X85713783Y-85975014D01*
X85674726Y-85890460D01*
X85638984Y-85809661D01*
X85605873Y-85730992D01*
X85574706Y-85652831D01*
X85544800Y-85573554D01*
X85515470Y-85491536D01*
X85488512Y-85412580D01*
X85415143Y-85179193D01*
X85351445Y-84946055D01*
X85297219Y-84712148D01*
X85252262Y-84476454D01*
X85216372Y-84237955D01*
X85189350Y-83995631D01*
X85176246Y-83832700D01*
X85172467Y-83767650D01*
X85169488Y-83695893D01*
X85167310Y-83619218D01*
X85165934Y-83539416D01*
X85165886Y-83532520D01*
X85306878Y-83532520D01*
X85310763Y-83685933D01*
X85318687Y-83841080D01*
X85330651Y-83996444D01*
X85331701Y-84007960D01*
X85354361Y-84212471D01*
X85384587Y-84418128D01*
X85422067Y-84623734D01*
X85466492Y-84828091D01*
X85517551Y-85030001D01*
X85574934Y-85228268D01*
X85638330Y-85421694D01*
X85707428Y-85609081D01*
X85781918Y-85789233D01*
X85809791Y-85851638D01*
X85899882Y-86042834D01*
X85993645Y-86229349D01*
X86090624Y-86410410D01*
X86190364Y-86585245D01*
X86292407Y-86753082D01*
X86396300Y-86913150D01*
X86501586Y-87064677D01*
X86607809Y-87206891D01*
X86616862Y-87218520D01*
X86698136Y-87318966D01*
X86783076Y-87417123D01*
X86870387Y-87511653D01*
X86958776Y-87601222D01*
X87046947Y-87684491D01*
X87133606Y-87760127D01*
X87172069Y-87791560D01*
X87205208Y-87817068D01*
X87244257Y-87845545D01*
X87286983Y-87875486D01*
X87331155Y-87905383D01*
X87374541Y-87933732D01*
X87414907Y-87959027D01*
X87450023Y-87979762D01*
X87456118Y-87983173D01*
X87480906Y-87996482D01*
X87508349Y-88010539D01*
X87536779Y-88024563D01*
X87564526Y-88037774D01*
X87589920Y-88049391D01*
X87611291Y-88058635D01*
X87626970Y-88064724D01*
X87635223Y-88066880D01*
X87641928Y-88064696D01*
X87656235Y-88058593D01*
X87676683Y-88049244D01*
X87701812Y-88037321D01*
X87730161Y-88023497D01*
X87739370Y-88018933D01*
X87785786Y-87994876D01*
X88071963Y-87994876D01*
X88074085Y-88000428D01*
X88079917Y-88013371D01*
X88088663Y-88031995D01*
X88099524Y-88054586D01*
X88104278Y-88064340D01*
X88151362Y-88150364D01*
X88208243Y-88235947D01*
X88275019Y-88321214D01*
X88351786Y-88406292D01*
X88414860Y-88468990D01*
X88430865Y-88483913D01*
X88449944Y-88501209D01*
X88470652Y-88519623D01*
X88491539Y-88537903D01*
X88511161Y-88554796D01*
X88528068Y-88569049D01*
X88540815Y-88579409D01*
X88547953Y-88584622D01*
X88548834Y-88585000D01*
X88553565Y-88582293D01*
X88564470Y-88575063D01*
X88579466Y-88564702D01*
X88584394Y-88561232D01*
X88723013Y-88457271D01*
X88858432Y-88343744D01*
X88990565Y-88220753D01*
X89119326Y-88088404D01*
X89244629Y-87946800D01*
X89366388Y-87796045D01*
X89484517Y-87636244D01*
X89598932Y-87467500D01*
X89709545Y-87289917D01*
X89816271Y-87103599D01*
X89869799Y-87004066D01*
X89906473Y-86934392D01*
X89892186Y-86931183D01*
X89795060Y-86906449D01*
X89699168Y-86876365D01*
X89605901Y-86841554D01*
X89516654Y-86802639D01*
X89432820Y-86760243D01*
X89355792Y-86714990D01*
X89286964Y-86667501D01*
X89265844Y-86651090D01*
X89247245Y-86636750D01*
X89231405Y-86625628D01*
X89219997Y-86618826D01*
X89214698Y-86617445D01*
X89214692Y-86617451D01*
X89211012Y-86622844D01*
X89202920Y-86635665D01*
X89191211Y-86654619D01*
X89176684Y-86678411D01*
X89160134Y-86705746D01*
X89151145Y-86720680D01*
X89090575Y-86819050D01*
X89025521Y-86920208D01*
X88957681Y-87021657D01*
X88888751Y-87120900D01*
X88820429Y-87215441D01*
X88761581Y-87293515D01*
X88672153Y-87405753D01*
X88580316Y-87513723D01*
X88486971Y-87616495D01*
X88393015Y-87713141D01*
X88299349Y-87802733D01*
X88206872Y-87884342D01*
X88126070Y-87949682D01*
X88106198Y-87965263D01*
X88089609Y-87978729D01*
X88077785Y-87988841D01*
X88072208Y-87994362D01*
X88071963Y-87994876D01*
X87785786Y-87994876D01*
X87808722Y-87982989D01*
X87873389Y-87946263D01*
X87935700Y-87907245D01*
X87997988Y-87864420D01*
X88062585Y-87816277D01*
X88112600Y-87776855D01*
X88221519Y-87684166D01*
X88330070Y-87581560D01*
X88438078Y-87469280D01*
X88545364Y-87347566D01*
X88651754Y-87216662D01*
X88757070Y-87076808D01*
X88861136Y-86928247D01*
X88963775Y-86771219D01*
X89064811Y-86605968D01*
X89099777Y-86544941D01*
X89254286Y-86544941D01*
X89273993Y-86561856D01*
X89351772Y-86622342D01*
X89438353Y-86677853D01*
X89533659Y-86728351D01*
X89637611Y-86773799D01*
X89750132Y-86814157D01*
X89854303Y-86844931D01*
X89879435Y-86851476D01*
X89901895Y-86856942D01*
X89919407Y-86860799D01*
X89929690Y-86862520D01*
X89930344Y-86862558D01*
X89934788Y-86861761D01*
X89939482Y-86858342D01*
X89945113Y-86851172D01*
X89952373Y-86839125D01*
X89961948Y-86821072D01*
X89974529Y-86795886D01*
X89988052Y-86768126D01*
X90049951Y-86635865D01*
X90111705Y-86495227D01*
X90172600Y-86347978D01*
X90231925Y-86195882D01*
X90288965Y-86040708D01*
X90333201Y-85913389D01*
X90425384Y-85625269D01*
X90508474Y-85332822D01*
X90582412Y-85036364D01*
X90647139Y-84736213D01*
X90702599Y-84432688D01*
X90748732Y-84126106D01*
X90785481Y-83816786D01*
X90812787Y-83505045D01*
X90830321Y-83197700D01*
X90831245Y-83171007D01*
X90832086Y-83137543D01*
X90832839Y-83098373D01*
X90833501Y-83054560D01*
X90834069Y-83007168D01*
X90834540Y-82957259D01*
X90834911Y-82905899D01*
X90835176Y-82854149D01*
X90835335Y-82803074D01*
X90835382Y-82753738D01*
X90835315Y-82707204D01*
X90835131Y-82664535D01*
X90834825Y-82626796D01*
X90834394Y-82595050D01*
X90833836Y-82570360D01*
X90833146Y-82553789D01*
X90832396Y-82546640D01*
X90830662Y-82541732D01*
X90827541Y-82539566D01*
X90821193Y-82540506D01*
X90809780Y-82544914D01*
X90791463Y-82553156D01*
X90785475Y-82555910D01*
X90647113Y-82614043D01*
X90505121Y-82662761D01*
X90360063Y-82701901D01*
X90212504Y-82731303D01*
X90132227Y-82743042D01*
X90104857Y-82746603D01*
X90081332Y-82749784D01*
X90063359Y-82752343D01*
X90052647Y-82754039D01*
X90050388Y-82754566D01*
X90050700Y-82759739D01*
X90052170Y-82773125D01*
X90054577Y-82792869D01*
X90057702Y-82817119D01*
X90058784Y-82825283D01*
X90076208Y-82979804D01*
X90088329Y-83141702D01*
X90095149Y-83309689D01*
X90096672Y-83482477D01*
X90092902Y-83658779D01*
X90083841Y-83837308D01*
X90069493Y-84016776D01*
X90055384Y-84150200D01*
X90026835Y-84361830D01*
X89990804Y-84573478D01*
X89947603Y-84783989D01*
X89897544Y-84992211D01*
X89840936Y-85196989D01*
X89778091Y-85397169D01*
X89709321Y-85591598D01*
X89634935Y-85779121D01*
X89585581Y-85892640D01*
X89569413Y-85927786D01*
X89549350Y-85970191D01*
X89526150Y-86018341D01*
X89500571Y-86070721D01*
X89473372Y-86125815D01*
X89445309Y-86182110D01*
X89417142Y-86238089D01*
X89389629Y-86292240D01*
X89363527Y-86343045D01*
X89339595Y-86388992D01*
X89318592Y-86428565D01*
X89303484Y-86456280D01*
X89254286Y-86544941D01*
X89099777Y-86544941D01*
X89164067Y-86432735D01*
X89261366Y-86251761D01*
X89341773Y-86093300D01*
X89384129Y-86006835D01*
X89422113Y-85927538D01*
X89456422Y-85853774D01*
X89487755Y-85783907D01*
X89516810Y-85716301D01*
X89544287Y-85649321D01*
X89570884Y-85581331D01*
X89597300Y-85510695D01*
X89624232Y-85435779D01*
X89631842Y-85414154D01*
X89691644Y-85232896D01*
X89745764Y-85047101D01*
X89794094Y-84857705D01*
X89836529Y-84665642D01*
X89872964Y-84471849D01*
X89903293Y-84277259D01*
X89927410Y-84082810D01*
X89945211Y-83889434D01*
X89956588Y-83698069D01*
X89961438Y-83509649D01*
X89959654Y-83325109D01*
X89951130Y-83145385D01*
X89935761Y-82971411D01*
X89920881Y-82853597D01*
X89894018Y-82690290D01*
X89861113Y-82533552D01*
X89822269Y-82383577D01*
X89777585Y-82240558D01*
X89727164Y-82104689D01*
X89671106Y-81976162D01*
X89609512Y-81855170D01*
X89542484Y-81741908D01*
X89470123Y-81636567D01*
X89392529Y-81539341D01*
X89309806Y-81450423D01*
X89222052Y-81370006D01*
X89129370Y-81298284D01*
X89093040Y-81273454D01*
X89026368Y-81233585D01*
X88954871Y-81198943D01*
X88877656Y-81169229D01*
X88793827Y-81144148D01*
X88741300Y-81132217D01*
X89162658Y-81132217D01*
X89164410Y-81136918D01*
X89172764Y-81145659D01*
X89185990Y-81156666D01*
X89188058Y-81158232D01*
X89283321Y-81235515D01*
X89375004Y-81321826D01*
X89462727Y-81416547D01*
X89546108Y-81519061D01*
X89624764Y-81628752D01*
X89698315Y-81745002D01*
X89766377Y-81867194D01*
X89828570Y-81994713D01*
X89884511Y-82126939D01*
X89933819Y-82263258D01*
X89976112Y-82403052D01*
X89989130Y-82452465D01*
X89995425Y-82478066D01*
X90002372Y-82507591D01*
X90009598Y-82539310D01*
X90016730Y-82571493D01*
X90023395Y-82602408D01*
X90029220Y-82630325D01*
X90033831Y-82653513D01*
X90036855Y-82670243D01*
X90037920Y-82678716D01*
X90042652Y-82678996D01*
X90055686Y-82677973D01*
X90075282Y-82675869D01*
X90099695Y-82672905D01*
X90127184Y-82669301D01*
X90156007Y-82665280D01*
X90184421Y-82661062D01*
X90210684Y-82656869D01*
X90213180Y-82656451D01*
X90273655Y-82644901D01*
X90339998Y-82629845D01*
X90408892Y-82612126D01*
X90477024Y-82592590D01*
X90530680Y-82575579D01*
X90569130Y-82562233D01*
X90610778Y-82546837D01*
X90653589Y-82530222D01*
X90695528Y-82513219D01*
X90734560Y-82496658D01*
X90768651Y-82481370D01*
X90795764Y-82468185D01*
X90802460Y-82464641D01*
X90827860Y-82450825D01*
X90826295Y-82407702D01*
X90825394Y-82388496D01*
X90823855Y-82361725D01*
X90821840Y-82329951D01*
X90819512Y-82295739D01*
X90817322Y-82265520D01*
X90798234Y-82057667D01*
X90772486Y-81854959D01*
X90740174Y-81657702D01*
X90701389Y-81466204D01*
X90656226Y-81280771D01*
X90604778Y-81101712D01*
X90547138Y-80929333D01*
X90483400Y-80763941D01*
X90413657Y-80605845D01*
X90338003Y-80455350D01*
X90256530Y-80312765D01*
X90193850Y-80214470D01*
X90179070Y-80192589D01*
X90166251Y-80174083D01*
X90156442Y-80160431D01*
X90150696Y-80153116D01*
X90149715Y-80152286D01*
X90146630Y-80156611D01*
X90140474Y-80168179D01*
X90132302Y-80184952D01*
X90127393Y-80195517D01*
X90094749Y-80259549D01*
X90053876Y-80327291D01*
X90005537Y-80397721D01*
X89950496Y-80469818D01*
X89889514Y-80542561D01*
X89823355Y-80614928D01*
X89783987Y-80655252D01*
X89672427Y-80760748D01*
X89553388Y-80861436D01*
X89426205Y-80957836D01*
X89290215Y-81050472D01*
X89244883Y-81079310D01*
X89219637Y-81095188D01*
X89197332Y-81109360D01*
X89179418Y-81120894D01*
X89167349Y-81128855D01*
X89162658Y-81132217D01*
X88741300Y-81132217D01*
X88702490Y-81123402D01*
X88602751Y-81106694D01*
X88582500Y-81103915D01*
X88545053Y-81100044D01*
X88500417Y-81097209D01*
X88450935Y-81095412D01*
X88398949Y-81094654D01*
X88346804Y-81094938D01*
X88296841Y-81096264D01*
X88251405Y-81098636D01*
X88212839Y-81102053D01*
X88200440Y-81103632D01*
X88141998Y-81112800D01*
X88080159Y-81124317D01*
X88013112Y-81138554D01*
X87939046Y-81155881D01*
X87909400Y-81163174D01*
X87848535Y-81178102D01*
X87796284Y-81190359D01*
X87751502Y-81200105D01*
X87713042Y-81207498D01*
X87679761Y-81212696D01*
X87650512Y-81215859D01*
X87624152Y-81217145D01*
X87599535Y-81216712D01*
X87575516Y-81214720D01*
X87556082Y-81212128D01*
X87537962Y-81208873D01*
X87511769Y-81203476D01*
X87479268Y-81196335D01*
X87442223Y-81187849D01*
X87402398Y-81178416D01*
X87361558Y-81168434D01*
X87351705Y-81165976D01*
X87274954Y-81147241D01*
X87206400Y-81131631D01*
X87144638Y-81118950D01*
X87088261Y-81109003D01*
X87035866Y-81101593D01*
X86986047Y-81096524D01*
X86937398Y-81093601D01*
X86888515Y-81092627D01*
X86837993Y-81093408D01*
X86832491Y-81093585D01*
X86727174Y-81100190D01*
X86624849Y-81112660D01*
X86527029Y-81130720D01*
X86435225Y-81154092D01*
X86354606Y-81181099D01*
X86273488Y-81216932D01*
X86192587Y-81262397D01*
X86112525Y-81316973D01*
X86033924Y-81380139D01*
X85957404Y-81451376D01*
X85883588Y-81530162D01*
X85813097Y-81615977D01*
X85776520Y-81665213D01*
X85708587Y-81767568D01*
X85645253Y-81878512D01*
X85586712Y-81997480D01*
X85533157Y-82123907D01*
X85484781Y-82257227D01*
X85441777Y-82396875D01*
X85404339Y-82542285D01*
X85372659Y-82692891D01*
X85346932Y-82848129D01*
X85331738Y-82966560D01*
X85319464Y-83097860D01*
X85311229Y-83236966D01*
X85307034Y-83382358D01*
X85306878Y-83532520D01*
X85165886Y-83532520D01*
X85165359Y-83458278D01*
X85165586Y-83377594D01*
X85166616Y-83299156D01*
X85168448Y-83224753D01*
X85171082Y-83156176D01*
X85174520Y-83095217D01*
X85176130Y-83073240D01*
X85179444Y-83033794D01*
X85183321Y-82991691D01*
X85187577Y-82948609D01*
X85192025Y-82906227D01*
X85196482Y-82866225D01*
X85200763Y-82830281D01*
X85204682Y-82800074D01*
X85208056Y-82777284D01*
X85209774Y-82767702D01*
X85210746Y-82760363D01*
X85208511Y-82756017D01*
X85200955Y-82753448D01*
X85185964Y-82751439D01*
X85180456Y-82750845D01*
X85147807Y-82746870D01*
X85108403Y-82741307D01*
X85065298Y-82734653D01*
X85021543Y-82727406D01*
X84980192Y-82720064D01*
X84944296Y-82713122D01*
X84928809Y-82709839D01*
X84854847Y-82691949D01*
X84778583Y-82670659D01*
X84702228Y-82646721D01*
X84627991Y-82620891D01*
X84558080Y-82593923D01*
X84494707Y-82566569D01*
X84459442Y-82549635D01*
X84430865Y-82535252D01*
X84427700Y-82559136D01*
X84426420Y-82574101D01*
X84425255Y-82598087D01*
X84424210Y-82629953D01*
X84423293Y-82668563D01*
X84422509Y-82712776D01*
X84421865Y-82761453D01*
X84421367Y-82813456D01*
X84421020Y-82867645D01*
X84420831Y-82922881D01*
X84420806Y-82978027D01*
X84308668Y-82978027D01*
X84308550Y-82946884D01*
X84308651Y-82876190D01*
X84309143Y-82809799D01*
X84310044Y-82749319D01*
X84311368Y-82696355D01*
X84312246Y-82671920D01*
X84324275Y-82453513D01*
X84433291Y-82453513D01*
X84496215Y-82483560D01*
X84609843Y-82533575D01*
X84726863Y-82576575D01*
X84848370Y-82612864D01*
X84975459Y-82642745D01*
X85109224Y-82666523D01*
X85199220Y-82678724D01*
X85211263Y-82680268D01*
X85218173Y-82681318D01*
X85221961Y-82677680D01*
X85224347Y-82670650D01*
X85226282Y-82661124D01*
X85229613Y-82644197D01*
X85233837Y-82622447D01*
X85237512Y-82603340D01*
X85253205Y-82529915D01*
X85273091Y-82450531D01*
X85296320Y-82368047D01*
X85322041Y-82285322D01*
X85349404Y-82205217D01*
X85377558Y-82130590D01*
X85379845Y-82124877D01*
X85396879Y-82084456D01*
X85417841Y-82037766D01*
X85441515Y-81987297D01*
X85466682Y-81935541D01*
X85492127Y-81884989D01*
X85516632Y-81838131D01*
X85538979Y-81797460D01*
X85544569Y-81787718D01*
X85610438Y-81680927D01*
X85681683Y-81577935D01*
X85757355Y-81479865D01*
X85836507Y-81387842D01*
X85918189Y-81302988D01*
X86001452Y-81226428D01*
X86056872Y-81180940D01*
X86077561Y-81164632D01*
X86095082Y-81150537D01*
X86108017Y-81139820D01*
X86114943Y-81133648D01*
X86115721Y-81132680D01*
X86111772Y-81129189D01*
X86100940Y-81121986D01*
X86085190Y-81112348D01*
X86076727Y-81107385D01*
X86051767Y-81092350D01*
X86020378Y-81072535D01*
X85984345Y-81049140D01*
X85945453Y-81023364D01*
X85905485Y-80996409D01*
X85866226Y-80969473D01*
X85829461Y-80943758D01*
X85796974Y-80920464D01*
X85778340Y-80906696D01*
X85682575Y-80831776D01*
X85591338Y-80754412D01*
X85505282Y-80675314D01*
X85425063Y-80595192D01*
X85351335Y-80514754D01*
X85284754Y-80434712D01*
X85225975Y-80355774D01*
X85175652Y-80278649D01*
X85140097Y-80215206D01*
X85110142Y-80157069D01*
X85062619Y-80229584D01*
X84981383Y-80361724D01*
X84905201Y-80502396D01*
X84834177Y-80651259D01*
X84768415Y-80807972D01*
X84708020Y-80972195D01*
X84653096Y-81143587D01*
X84603747Y-81321807D01*
X84560077Y-81506513D01*
X84522190Y-81697367D01*
X84490190Y-81894026D01*
X84464183Y-82096149D01*
X84450339Y-82232500D01*
X84447061Y-82269347D01*
X84443871Y-82306672D01*
X84440977Y-82341925D01*
X84438590Y-82372558D01*
X84436915Y-82396024D01*
X84436731Y-82398886D01*
X84433291Y-82453513D01*
X84324275Y-82453513D01*
X84324988Y-82440569D01*
X84344106Y-82215257D01*
X84369549Y-81996179D01*
X84401266Y-81783535D01*
X84439207Y-81577520D01*
X84483321Y-81378334D01*
X84533558Y-81186173D01*
X84589867Y-81001234D01*
X84652198Y-80823716D01*
X84720499Y-80653815D01*
X84794722Y-80491730D01*
X84874815Y-80337658D01*
X84936584Y-80230980D01*
X85018414Y-80103567D01*
X85028232Y-80089988D01*
X85168609Y-80089988D01*
X85169031Y-80093043D01*
X85175481Y-80110181D01*
X85186410Y-80133922D01*
X85200781Y-80162339D01*
X85217555Y-80193505D01*
X85235692Y-80225491D01*
X85254156Y-80256372D01*
X85271908Y-80284218D01*
X85272528Y-80285150D01*
X85341056Y-80380471D01*
X85419152Y-80475227D01*
X85506226Y-80568882D01*
X85601686Y-80660900D01*
X85704940Y-80750744D01*
X85815398Y-80837879D01*
X85932468Y-80921768D01*
X86055558Y-81001874D01*
X86078060Y-81015699D01*
X86102915Y-81030939D01*
X86127156Y-81045983D01*
X86148208Y-81059221D01*
X86163493Y-81069042D01*
X86165012Y-81070044D01*
X86191004Y-81087263D01*
X86281570Y-81051419D01*
X86340494Y-81028617D01*
X86392403Y-81009837D01*
X86439373Y-80994563D01*
X86483480Y-80982281D01*
X86526801Y-80972477D01*
X86571411Y-80964636D01*
X86619387Y-80958245D01*
X86672806Y-80952787D01*
X86683521Y-80951833D01*
X86735013Y-80948313D01*
X86789443Y-80946340D01*
X86844542Y-80945879D01*
X86898042Y-80946896D01*
X86947676Y-80949357D01*
X86991176Y-80953226D01*
X87017930Y-80956949D01*
X87031902Y-80959616D01*
X87054619Y-80964330D01*
X87084927Y-80970835D01*
X87121674Y-80978879D01*
X87163708Y-80988205D01*
X87209876Y-80998561D01*
X87259027Y-81009691D01*
X87310007Y-81021341D01*
X87320190Y-81023681D01*
X87383034Y-81038094D01*
X87436873Y-81050326D01*
X87482588Y-81060540D01*
X87521060Y-81068895D01*
X87553172Y-81075554D01*
X87579804Y-81080677D01*
X87601838Y-81084426D01*
X87620154Y-81086961D01*
X87635635Y-81088445D01*
X87649162Y-81089038D01*
X87661616Y-81088902D01*
X87673180Y-81088249D01*
X87684175Y-81086625D01*
X87703938Y-81082833D01*
X87731364Y-81077117D01*
X87765351Y-81069721D01*
X87804795Y-81060889D01*
X87848593Y-81050864D01*
X87895644Y-81039891D01*
X87944843Y-81028214D01*
X87947500Y-81027578D01*
X87997127Y-81015722D01*
X88044933Y-81004373D01*
X88089770Y-80993798D01*
X88130490Y-80984264D01*
X88165947Y-80976038D01*
X88194994Y-80969388D01*
X88216483Y-80964581D01*
X88229268Y-80961886D01*
X88229440Y-80961853D01*
X88262538Y-80957112D01*
X88304125Y-80953719D01*
X88352623Y-80951654D01*
X88406452Y-80950898D01*
X88464033Y-80951430D01*
X88523789Y-80953232D01*
X88584140Y-80956283D01*
X88643508Y-80960564D01*
X88700313Y-80966054D01*
X88716637Y-80967936D01*
X88808115Y-80982183D01*
X88892334Y-81002229D01*
X88970626Y-81028448D01*
X89038936Y-81058527D01*
X89092840Y-81085181D01*
X89162790Y-81041560D01*
X89276095Y-80968333D01*
X89380835Y-80895155D01*
X89478530Y-80820852D01*
X89570701Y-80744247D01*
X89658869Y-80664165D01*
X89691782Y-80632437D01*
X89768223Y-80554597D01*
X89838390Y-80477082D01*
X89901794Y-80400547D01*
X89957945Y-80325644D01*
X90006355Y-80253028D01*
X90046533Y-80183352D01*
X90077992Y-80117270D01*
X90078670Y-80115651D01*
X90095006Y-80076522D01*
X90050306Y-80021671D01*
X90027243Y-79994658D01*
X89998365Y-79962841D01*
X89965252Y-79927802D01*
X89929488Y-79891121D01*
X89892654Y-79854378D01*
X89856332Y-79819154D01*
X89822105Y-79787029D01*
X89791555Y-79759585D01*
X89768745Y-79740380D01*
X89669760Y-79666523D01*
X89568321Y-79601938D01*
X89464758Y-79546757D01*
X89359401Y-79501111D01*
X89252581Y-79465132D01*
X89144629Y-79438950D01*
X89035876Y-79422698D01*
X88955823Y-79417168D01*
X88899330Y-79416692D01*
X88850549Y-79419842D01*
X88807542Y-79427073D01*
X88768369Y-79438837D01*
X88731090Y-79455589D01*
X88693767Y-79477783D01*
X88692162Y-79478845D01*
X88644997Y-79516168D01*
X88602258Y-79562309D01*
X88564267Y-79616793D01*
X88531352Y-79679142D01*
X88503835Y-79748879D01*
X88499685Y-79761535D01*
X88480345Y-79838091D01*
X88469478Y-79918480D01*
X88466977Y-80001100D01*
X88472732Y-80084344D01*
X88486636Y-80166609D01*
X88508581Y-80246291D01*
X88537306Y-80319288D01*
X88561376Y-80365209D01*
X88589970Y-80408902D01*
X88621729Y-80448806D01*
X88655292Y-80483358D01*
X88689299Y-80510996D01*
X88720026Y-80529077D01*
X88755350Y-80541838D01*
X88791263Y-80548005D01*
X88825211Y-80547387D01*
X88854643Y-80539793D01*
X88855905Y-80539247D01*
X88886058Y-80522919D01*
X88911617Y-80501850D01*
X88935522Y-80473555D01*
X88938552Y-80469370D01*
X88963268Y-80427942D01*
X88984518Y-80378302D01*
X89001773Y-80321962D01*
X89014503Y-80260438D01*
X89016663Y-80246220D01*
X89020889Y-80199931D01*
X89021747Y-80147343D01*
X89019450Y-80091664D01*
X89014213Y-80036103D01*
X89006248Y-79983866D01*
X88996298Y-79940058D01*
X88981818Y-79895942D01*
X88964005Y-79855089D01*
X88943698Y-79818758D01*
X88921735Y-79788207D01*
X88898957Y-79764694D01*
X88876201Y-79749477D01*
X88866779Y-79745841D01*
X88839286Y-79742729D01*
X88812181Y-79749089D01*
X88786363Y-79764244D01*
X88762732Y-79787518D01*
X88742187Y-79818237D01*
X88727559Y-79850398D01*
X88715111Y-79892785D01*
X88706801Y-79940636D01*
X88702710Y-79991162D01*
X88702919Y-80041574D01*
X88707512Y-80089084D01*
X88716569Y-80130903D01*
X88719100Y-80138860D01*
X88735224Y-80178373D01*
X88753364Y-80207949D01*
X88773544Y-80227617D01*
X88795788Y-80237403D01*
X88807520Y-80238600D01*
X88822820Y-80234822D01*
X88834979Y-80222918D01*
X88844777Y-80202028D01*
X88847012Y-80195093D01*
X88853541Y-80156751D01*
X88851657Y-80114574D01*
X88841584Y-80070077D01*
X88823544Y-80024776D01*
X88821314Y-80020268D01*
X88812712Y-80001727D01*
X88806386Y-79985309D01*
X88803534Y-79974178D01*
X88803480Y-79973157D01*
X88808263Y-79955552D01*
X88821473Y-79940843D01*
X88834020Y-79933774D01*
X88854918Y-79930257D01*
X88876364Y-79935888D01*
X88897174Y-79949803D01*
X88916164Y-79971139D01*
X88932147Y-79999034D01*
X88935987Y-80008065D01*
X88940395Y-80020074D01*
X88943564Y-80031665D01*
X88945701Y-80044837D01*
X88947014Y-80061586D01*
X88947710Y-80083913D01*
X88947995Y-80113815D01*
X88948031Y-80124300D01*
X88947869Y-80160175D01*
X88947055Y-80188135D01*
X88945418Y-80210412D01*
X88942787Y-80229240D01*
X88938993Y-80246850D01*
X88938532Y-80248676D01*
X88923725Y-80297604D01*
X88906308Y-80339582D01*
X88886712Y-80374009D01*
X88865367Y-80400284D01*
X88842703Y-80417805D01*
X88819150Y-80425972D01*
X88811190Y-80426512D01*
X88788484Y-80422243D01*
X88763406Y-80410494D01*
X88738442Y-80392710D01*
X88717653Y-80372190D01*
X88700661Y-80349156D01*
X88682507Y-80318884D01*
X88664518Y-80283988D01*
X88648019Y-80247080D01*
X88634338Y-80210772D01*
X88631811Y-80203040D01*
X88615065Y-80138684D01*
X88604287Y-80071576D01*
X88599511Y-80003788D01*
X88600769Y-79937394D01*
X88608093Y-79874464D01*
X88621516Y-79817071D01*
X88625550Y-79804636D01*
X88646995Y-79754797D01*
X88674680Y-79710810D01*
X88707713Y-79673768D01*
X88745200Y-79644769D01*
X88764594Y-79633988D01*
X88786010Y-79624467D01*
X88805078Y-79618796D01*
X88826685Y-79615755D01*
X88841546Y-79614754D01*
X88864082Y-79614001D01*
X88880363Y-79614962D01*
X88894233Y-79618221D01*
X88909534Y-79624366D01*
X88912019Y-79625494D01*
X88948243Y-79647502D01*
X88981506Y-79678620D01*
X89011567Y-79718173D01*
X89038189Y-79765483D01*
X89061133Y-79819874D01*
X89080161Y-79880669D01*
X89095034Y-79947191D01*
X89105515Y-80018764D01*
X89111364Y-80094710D01*
X89112343Y-80174353D01*
X89111863Y-80192880D01*
X89106870Y-80270810D01*
X89097345Y-80343995D01*
X89083544Y-80411854D01*
X89065725Y-80473807D01*
X89044143Y-80529274D01*
X89019057Y-80577675D01*
X88990722Y-80618431D01*
X88959397Y-80650961D01*
X88925337Y-80674685D01*
X88892479Y-80688051D01*
X88873155Y-80691966D01*
X88845471Y-80695554D01*
X88811227Y-80698716D01*
X88772222Y-80701355D01*
X88730254Y-80703372D01*
X88687121Y-80704669D01*
X88644622Y-80705149D01*
X88604556Y-80704713D01*
X88592755Y-80704372D01*
X88482322Y-80697267D01*
X88379626Y-80683681D01*
X88284544Y-80663572D01*
X88196955Y-80636897D01*
X88116735Y-80603615D01*
X88043762Y-80563684D01*
X87977915Y-80517060D01*
X87932279Y-80476852D01*
X87880750Y-80420706D01*
X87837645Y-80359902D01*
X87802623Y-80293787D01*
X87775346Y-80221708D01*
X87755472Y-80143012D01*
X87753823Y-80134460D01*
X87749381Y-80102680D01*
X87746208Y-80063040D01*
X87744291Y-80017755D01*
X87743617Y-79969043D01*
X87743640Y-79966907D01*
X87850489Y-79966907D01*
X87856691Y-80048268D01*
X87871409Y-80126194D01*
X87894457Y-80199823D01*
X87925647Y-80268292D01*
X87943139Y-80298564D01*
X87966587Y-80331662D01*
X87996653Y-80367076D01*
X88030960Y-80402403D01*
X88067128Y-80435238D01*
X88102779Y-80463178D01*
X88112977Y-80470218D01*
X88183518Y-80511780D01*
X88258683Y-80545958D01*
X88336637Y-80572129D01*
X88415543Y-80589667D01*
X88487098Y-80597622D01*
X88515881Y-80598768D01*
X88536037Y-80598195D01*
X88549021Y-80595462D01*
X88556285Y-80590126D01*
X88559282Y-80581745D01*
X88559640Y-80575545D01*
X88555294Y-80556272D01*
X88542462Y-80532482D01*
X88524032Y-80507840D01*
X88480708Y-80448050D01*
X88443574Y-80381256D01*
X88412816Y-80308647D01*
X88388621Y-80231413D01*
X88371175Y-80150745D01*
X88360664Y-80067833D01*
X88357273Y-79983868D01*
X88361189Y-79900041D01*
X88372597Y-79817541D01*
X88391684Y-79737559D01*
X88399671Y-79712006D01*
X88428657Y-79638384D01*
X88464560Y-79570506D01*
X88506816Y-79508942D01*
X88554861Y-79454261D01*
X88608132Y-79407032D01*
X88666066Y-79367827D01*
X88728098Y-79337215D01*
X88790780Y-79316493D01*
X88839262Y-79307381D01*
X88895403Y-79302503D01*
X88957670Y-79301766D01*
X89024529Y-79305077D01*
X89094446Y-79312343D01*
X89165889Y-79323471D01*
X89237324Y-79338368D01*
X89265227Y-79345277D01*
X89370145Y-79377551D01*
X89474240Y-79419594D01*
X89576973Y-79471020D01*
X89677802Y-79531444D01*
X89776190Y-79600479D01*
X89871595Y-79677738D01*
X89963479Y-79762836D01*
X90051301Y-79855386D01*
X90134522Y-79955002D01*
X90155822Y-79982648D01*
X90249884Y-80114751D01*
X90338327Y-80255126D01*
X90421092Y-80403541D01*
X90498124Y-80559766D01*
X90569363Y-80723568D01*
X90634752Y-80894718D01*
X90694234Y-81072984D01*
X90747751Y-81258135D01*
X90795245Y-81449940D01*
X90836660Y-81648168D01*
X90871936Y-81852588D01*
X90901017Y-82062969D01*
X90923845Y-82279079D01*
X90940363Y-82500689D01*
X90950512Y-82727565D01*
X90954235Y-82959479D01*
X90951958Y-83176147D01*
X90940504Y-83468796D01*
X90919631Y-83761527D01*
X90889461Y-84053737D01*
X90850116Y-84344822D01*
X90801716Y-84634179D01*
X90744384Y-84921205D01*
X90678240Y-85205296D01*
X90603406Y-85485849D01*
X90520004Y-85762261D01*
X90428155Y-86033927D01*
X90327981Y-86300245D01*
X90318029Y-86325264D01*
X90229484Y-86537656D01*
X90136444Y-86743163D01*
X90039066Y-86941567D01*
X89937508Y-87132654D01*
X89831927Y-87316207D01*
X89722481Y-87492008D01*
X89609328Y-87659844D01*
X89492624Y-87819496D01*
X89372528Y-87970749D01*
X89249197Y-88113387D01*
X89122789Y-88247193D01*
X88993460Y-88371952D01*
X88861370Y-88487446D01*
X88726675Y-88593460D01*
X88600280Y-88682642D01*
X88507931Y-88741778D01*
X88412600Y-88798130D01*
X88316404Y-88850566D01*
X88221459Y-88897953D01*
X88129883Y-88939161D01*
X88089158Y-88955854D01*
X88007297Y-88988279D01*
X88003762Y-89051911D01*
X87994628Y-89143984D01*
X87977463Y-89231505D01*
X87951774Y-89316735D01*
X87937926Y-89353390D01*
X87929538Y-89374790D01*
X87923039Y-89392255D01*
X87919092Y-89403938D01*
X87918320Y-89408000D01*
X87923832Y-89406665D01*
X87936967Y-89403055D01*
X87955598Y-89397765D01*
X87972141Y-89392980D01*
X88109777Y-89348490D01*
X88248984Y-89294929D01*
X88388408Y-89232955D01*
X88526699Y-89163229D01*
X88662503Y-89086409D01*
X88794469Y-89003155D01*
X88851571Y-88964235D01*
X88949740Y-88893500D01*
X89043343Y-88821335D01*
X89134344Y-88746081D01*
X89224706Y-88666079D01*
X89316394Y-88579668D01*
X89375126Y-88521789D01*
X89514543Y-88375998D01*
X89649008Y-88222605D01*
X89778767Y-88061281D01*
X89904065Y-87891695D01*
X90025147Y-87713517D01*
X90142260Y-87526418D01*
X90238509Y-87360760D01*
X90358237Y-87138089D01*
X90471546Y-86907900D01*
X90578301Y-86670660D01*
X90678364Y-86426835D01*
X90771601Y-86176892D01*
X90857876Y-85921297D01*
X90937051Y-85660517D01*
X91008991Y-85395020D01*
X91073560Y-85125270D01*
X91130621Y-84851736D01*
X91180040Y-84574883D01*
X91221679Y-84295179D01*
X91255402Y-84013090D01*
X91274829Y-83807300D01*
X91290738Y-83582724D01*
X91301065Y-83356246D01*
X91305854Y-83129067D01*
X91305151Y-82902389D01*
X91299001Y-82677413D01*
X91287450Y-82455342D01*
X91270543Y-82237376D01*
X91248325Y-82024719D01*
X91220843Y-81818572D01*
X91193189Y-81648300D01*
X91153554Y-81443405D01*
X91108290Y-81245102D01*
X91057491Y-81053563D01*
X91001249Y-80868961D01*
X90939657Y-80691466D01*
X90872808Y-80521252D01*
X90800796Y-80358491D01*
X90723714Y-80203355D01*
X90641654Y-80056016D01*
X90554710Y-79916647D01*
X90462975Y-79785419D01*
X90366542Y-79662506D01*
X90265504Y-79548079D01*
X90159954Y-79442310D01*
X90049985Y-79345372D01*
X89935691Y-79257437D01*
X89880440Y-79219224D01*
X89763129Y-79146853D01*
X89641788Y-79083543D01*
X89516918Y-79029447D01*
X89389020Y-78984721D01*
X89258596Y-78949518D01*
X89126149Y-78923990D01*
X88992178Y-78908294D01*
X88857187Y-78902582D01*
X88848262Y-78902560D01*
X88758749Y-78906052D01*
X88670712Y-78916295D01*
X88585349Y-78932934D01*
X88503863Y-78955617D01*
X88427451Y-78983991D01*
X88357315Y-79017702D01*
X88294654Y-79056398D01*
X88274183Y-79071461D01*
X88194514Y-79139195D01*
X88122827Y-79213151D01*
X88059216Y-79293148D01*
X88003775Y-79379002D01*
X87956601Y-79470531D01*
X87917786Y-79567552D01*
X87887427Y-79669882D01*
X87865619Y-79777339D01*
X87852990Y-79882973D01*
X87850489Y-79966907D01*
X87743640Y-79966907D01*
X87744172Y-79919122D01*
X87745941Y-79870208D01*
X87748912Y-79824519D01*
X87753069Y-79784272D01*
X87756134Y-79763620D01*
X87780410Y-79647524D01*
X87812457Y-79537710D01*
X87852539Y-79433615D01*
X87900918Y-79334675D01*
X87957856Y-79240330D01*
X88023615Y-79150016D01*
X88066331Y-79098767D01*
X88124816Y-79037220D01*
X88184832Y-78984963D01*
X88247478Y-78941134D01*
X88313260Y-78905155D01*
X88346420Y-78889709D01*
X88376680Y-78876711D01*
X88406687Y-78865198D01*
X88439088Y-78854206D01*
X88476528Y-78842771D01*
X88513920Y-78832088D01*
X88537797Y-78825751D01*
X88565745Y-78818880D01*
X88595745Y-78811910D01*
X88625779Y-78805276D01*
X88653828Y-78799414D01*
X88677875Y-78794759D01*
X88695901Y-78791747D01*
X88705308Y-78790799D01*
X88706695Y-78787126D01*
X88702569Y-78777041D01*
X88693905Y-78761951D01*
X88681682Y-78743260D01*
X88666877Y-78722374D01*
X88650467Y-78700698D01*
X88633430Y-78679636D01*
X88616742Y-78660594D01*
X88609245Y-78652688D01*
X88553307Y-78602739D01*
X88491043Y-78560528D01*
X88423104Y-78526406D01*
X88350139Y-78500722D01*
X88308180Y-78490337D01*
X88285412Y-78487048D01*
X88255473Y-78484915D01*
X88221287Y-78483933D01*
X88185775Y-78484101D01*
X88151860Y-78485416D01*
X88122466Y-78487876D01*
X88104980Y-78490503D01*
X88028447Y-78510155D01*
X87958446Y-78537539D01*
X87894880Y-78572736D01*
X87837655Y-78615827D01*
X87786673Y-78666894D01*
X87741838Y-78726020D01*
X87703055Y-78793285D01*
X87675426Y-78855268D01*
X87664840Y-78881135D01*
X87656418Y-78898840D01*
X87649104Y-78909854D01*
X87641839Y-78915648D01*
X87633564Y-78917695D01*
X87630467Y-78917799D01*
X87621259Y-78916506D01*
X87613505Y-78911634D01*
X87606142Y-78901693D01*
X87598105Y-78885196D01*
X87588330Y-78860653D01*
X87586893Y-78856840D01*
X87555733Y-78784728D01*
X87519347Y-78721125D01*
X87477247Y-78665548D01*
X87428943Y-78617516D01*
X87373946Y-78576549D01*
X87311766Y-78542164D01*
X87241915Y-78513882D01*
X87236082Y-78511902D01*
X87162583Y-78492490D01*
X87088465Y-78483066D01*
X87014443Y-78483548D01*
X86941231Y-78493852D01*
X86869543Y-78513896D01*
X86800092Y-78543596D01*
X86756901Y-78567784D01*
X86719631Y-78593885D01*
X86681456Y-78626277D01*
X86644415Y-78662808D01*
X86610547Y-78701330D01*
X86581892Y-78739691D01*
X86561399Y-78773940D01*
X86553140Y-78790100D01*
X86582300Y-78795878D01*
X86598596Y-78799418D01*
X86621694Y-78804842D01*
X86648579Y-78811424D01*
X86676234Y-78818441D01*
X86677500Y-78818768D01*
X86765022Y-78843864D01*
X86843903Y-78871789D01*
X86915433Y-78903229D01*
X86980901Y-78938871D01*
X87041597Y-78979401D01*
X87098811Y-79025506D01*
X87142040Y-79065967D01*
X87220021Y-79150482D01*
X87289545Y-79240525D01*
X87350437Y-79335739D01*
X87402523Y-79435767D01*
X87445627Y-79540250D01*
X87479573Y-79648831D01*
X87504187Y-79761152D01*
X87513707Y-79824580D01*
X87517318Y-79863234D01*
X87519421Y-79907936D01*
X87520056Y-79955987D01*
X87519267Y-80004684D01*
X87517096Y-80051328D01*
X87513586Y-80093218D01*
X87508927Y-80126840D01*
X87489767Y-80208939D01*
X87462920Y-80284417D01*
X87428266Y-80353436D01*
X87385683Y-80416156D01*
X87335051Y-80472738D01*
X87276247Y-80523344D01*
X87209152Y-80568133D01*
X87155179Y-80597097D01*
X87101020Y-80621969D01*
X87049604Y-80641852D01*
X86996600Y-80658252D01*
X86939120Y-80672362D01*
X86895302Y-80681545D01*
X86854861Y-80688779D01*
X86815620Y-80694270D01*
X86775405Y-80698220D01*
X86732041Y-80700836D01*
X86683353Y-80702319D01*
X86627167Y-80702876D01*
X86614000Y-80702895D01*
X86552510Y-80702531D01*
X86500283Y-80701361D01*
X86456448Y-80699305D01*
X86420134Y-80696283D01*
X86390468Y-80692215D01*
X86366581Y-80687022D01*
X86347600Y-80680623D01*
X86341639Y-80677930D01*
X86307030Y-80655596D01*
X86274977Y-80623904D01*
X86245755Y-80583399D01*
X86219644Y-80534624D01*
X86196919Y-80478123D01*
X86177858Y-80414440D01*
X86162739Y-80344119D01*
X86158559Y-80318883D01*
X86154222Y-80281743D01*
X86151245Y-80237384D01*
X86149629Y-80188527D01*
X86149376Y-80137893D01*
X86150485Y-80088207D01*
X86152958Y-80042188D01*
X86156795Y-80002561D01*
X86158465Y-79990676D01*
X86172361Y-79917739D01*
X86190236Y-79851306D01*
X86211819Y-79791905D01*
X86236838Y-79740060D01*
X86265021Y-79696297D01*
X86296096Y-79661142D01*
X86329792Y-79635120D01*
X86347138Y-79625880D01*
X86363440Y-79619106D01*
X86377823Y-79615371D01*
X86394239Y-79614040D01*
X86416643Y-79614475D01*
X86417724Y-79614520D01*
X86462167Y-79621167D01*
X86502952Y-79636756D01*
X86539786Y-79660644D01*
X86572379Y-79692188D01*
X86600439Y-79730745D01*
X86623677Y-79775671D01*
X86641800Y-79826323D01*
X86654519Y-79882059D01*
X86661541Y-79942236D01*
X86662577Y-80006209D01*
X86657335Y-80073335D01*
X86649020Y-80125822D01*
X86636367Y-80180019D01*
X86620275Y-80230545D01*
X86601272Y-80276748D01*
X86579885Y-80317977D01*
X86556642Y-80353579D01*
X86532069Y-80382904D01*
X86506695Y-80405299D01*
X86481047Y-80420113D01*
X86455651Y-80426693D01*
X86431036Y-80424390D01*
X86413683Y-80416611D01*
X86394366Y-80400002D01*
X86375171Y-80374815D01*
X86356945Y-80342610D01*
X86340532Y-80304943D01*
X86326778Y-80263372D01*
X86323158Y-80249823D01*
X86318595Y-80229849D01*
X86315439Y-80210572D01*
X86313459Y-80189394D01*
X86312428Y-80163714D01*
X86312116Y-80130937D01*
X86312119Y-80124300D01*
X86312330Y-80092199D01*
X86313000Y-80068135D01*
X86314341Y-80049987D01*
X86316565Y-80035635D01*
X86319884Y-80022959D01*
X86323219Y-80013278D01*
X86339378Y-79978443D01*
X86358571Y-79953115D01*
X86380707Y-79937382D01*
X86405693Y-79931331D01*
X86408897Y-79931260D01*
X86427983Y-79933881D01*
X86442594Y-79942819D01*
X86443323Y-79943493D01*
X86453555Y-79954531D01*
X86458594Y-79965080D01*
X86458390Y-79977401D01*
X86452895Y-79993754D01*
X86442060Y-80016402D01*
X86441720Y-80017068D01*
X86427397Y-80049668D01*
X86415967Y-80084574D01*
X86408436Y-80118188D01*
X86405808Y-80145639D01*
X86408598Y-80179424D01*
X86416697Y-80205943D01*
X86429092Y-80224808D01*
X86444770Y-80235631D01*
X86462717Y-80238025D01*
X86481920Y-80231602D01*
X86501366Y-80215973D01*
X86520042Y-80190751D01*
X86520708Y-80189622D01*
X86537818Y-80152118D01*
X86549986Y-80107843D01*
X86557222Y-80058897D01*
X86559540Y-80007379D01*
X86556951Y-79955390D01*
X86549465Y-79905029D01*
X86537096Y-79858395D01*
X86519854Y-79817589D01*
X86518630Y-79815307D01*
X86500031Y-79788320D01*
X86477365Y-79766748D01*
X86452333Y-79751499D01*
X86426638Y-79743476D01*
X86401979Y-79743586D01*
X86390363Y-79747059D01*
X86362218Y-79764089D01*
X86336068Y-79790287D01*
X86312269Y-79824793D01*
X86291178Y-79866747D01*
X86273153Y-79915291D01*
X86258550Y-79969565D01*
X86247726Y-80028710D01*
X86241038Y-80091865D01*
X86240010Y-80109060D01*
X86239490Y-80176087D01*
X86244545Y-80240590D01*
X86254837Y-80301611D01*
X86270027Y-80358191D01*
X86289777Y-80409370D01*
X86313749Y-80454191D01*
X86341604Y-80491694D01*
X86373005Y-80520921D01*
X86389153Y-80531679D01*
X86418001Y-80543303D01*
X86451616Y-80548229D01*
X86486995Y-80546302D01*
X86518771Y-80538256D01*
X86548549Y-80525884D01*
X86573566Y-80511510D01*
X86597649Y-80492675D01*
X86615189Y-80476315D01*
X86658419Y-80427320D01*
X86696305Y-80370702D01*
X86728530Y-80307664D01*
X86754779Y-80239412D01*
X86774734Y-80167151D01*
X86788080Y-80092085D01*
X86794501Y-80015419D01*
X86793680Y-79938357D01*
X86785302Y-79862105D01*
X86781704Y-79841820D01*
X86763942Y-79769201D01*
X86739776Y-79701476D01*
X86709704Y-79639362D01*
X86674226Y-79583574D01*
X86633840Y-79534827D01*
X86589046Y-79493835D01*
X86540343Y-79461316D01*
X86504182Y-79443972D01*
X86470956Y-79432110D01*
X86437334Y-79423784D01*
X86401013Y-79418685D01*
X86359689Y-79416503D01*
X86311061Y-79416932D01*
X86304120Y-79417162D01*
X86194241Y-79426109D01*
X86085386Y-79445014D01*
X85977874Y-79473697D01*
X85872024Y-79511980D01*
X85768154Y-79559685D01*
X85666583Y-79616632D01*
X85567630Y-79682645D01*
X85471614Y-79757543D01*
X85378854Y-79841149D01*
X85289668Y-79933284D01*
X85205719Y-80032083D01*
X85188273Y-80054506D01*
X85176815Y-80070730D01*
X85170531Y-80082107D01*
X85168609Y-80089988D01*
X85028232Y-80089988D01*
X85104208Y-79984910D01*
X85193832Y-79875151D01*
X85287147Y-79774432D01*
X85384019Y-79682894D01*
X85484311Y-79600678D01*
X85587887Y-79527928D01*
X85645454Y-79492442D01*
X85750439Y-79436355D01*
X85857640Y-79390137D01*
X85967484Y-79353657D01*
X86080398Y-79326783D01*
X86196809Y-79309384D01*
X86258400Y-79304068D01*
X86336299Y-79301868D01*
X86407127Y-79306219D01*
X86471844Y-79317455D01*
X86531411Y-79335907D01*
X86586790Y-79361906D01*
X86638942Y-79395786D01*
X86688829Y-79437878D01*
X86711868Y-79460699D01*
X86760833Y-79517706D01*
X86802461Y-79579793D01*
X86837169Y-79647786D01*
X86865374Y-79722513D01*
X86887494Y-79804800D01*
X86889045Y-79811880D01*
X86892897Y-79830916D01*
X86895799Y-79848747D01*
X86897884Y-79867304D01*
X86899283Y-79888520D01*
X86900129Y-79914327D01*
X86900554Y-79946659D01*
X86900685Y-79982060D01*
X86900357Y-80032289D01*
X86899037Y-80074704D01*
X86896420Y-80111629D01*
X86892205Y-80145387D01*
X86886088Y-80178301D01*
X86877767Y-80212694D01*
X86866940Y-80250889D01*
X86864677Y-80258428D01*
X86846775Y-80310612D01*
X86825001Y-80362517D01*
X86800463Y-80412012D01*
X86774269Y-80456965D01*
X86747527Y-80495247D01*
X86731617Y-80514197D01*
X86715495Y-80533827D01*
X86704197Y-80551702D01*
X86698765Y-80565961D01*
X86698940Y-80572610D01*
X86705610Y-80576880D01*
X86720768Y-80578667D01*
X86743085Y-80578110D01*
X86771234Y-80575348D01*
X86803885Y-80570518D01*
X86839711Y-80563761D01*
X86877383Y-80555214D01*
X86885780Y-80553109D01*
X86970015Y-80527490D01*
X87048255Y-80495304D01*
X87120000Y-80456914D01*
X87184747Y-80412684D01*
X87241993Y-80362975D01*
X87291237Y-80308151D01*
X87331977Y-80248574D01*
X87348084Y-80218956D01*
X87374313Y-80158404D01*
X87393359Y-80095223D01*
X87405286Y-80028571D01*
X87410158Y-79957609D01*
X87408040Y-79881495D01*
X87398997Y-79799388D01*
X87386013Y-79724762D01*
X87361183Y-79622027D01*
X87328868Y-79525849D01*
X87288706Y-79435537D01*
X87240336Y-79350402D01*
X87183396Y-79269756D01*
X87117524Y-79192909D01*
X87094072Y-79168575D01*
X87053058Y-79128398D01*
X87016050Y-79095037D01*
X86981139Y-79067049D01*
X86946412Y-79042991D01*
X86909958Y-79021422D01*
X86875825Y-79003788D01*
X86791608Y-78967598D01*
X86703107Y-78939429D01*
X86609954Y-78919238D01*
X86511783Y-78906982D01*
X86408226Y-78902620D01*
X86298916Y-78906108D01*
X86183485Y-78917403D01*
X86159340Y-78920637D01*
X86025666Y-78944419D01*
X85894190Y-78978036D01*
X85765305Y-79021322D01*
X85639403Y-79074112D01*
X85516879Y-79136242D01*
X85398124Y-79207548D01*
X85284896Y-79286837D01*
X85234005Y-79327024D01*
X85179178Y-79373650D01*
X85122352Y-79424866D01*
X85065463Y-79478821D01*
X85010451Y-79533666D01*
X84959251Y-79587549D01*
X84913803Y-79638621D01*
X84902627Y-79651860D01*
X84799923Y-79782706D01*
X84702881Y-79921891D01*
X84611545Y-80069287D01*
X84525953Y-80224768D01*
X84446149Y-80388210D01*
X84372173Y-80559486D01*
X84304068Y-80738469D01*
X84241874Y-80925036D01*
X84185632Y-81119059D01*
X84135385Y-81320413D01*
X84091173Y-81528972D01*
X84053039Y-81744610D01*
X84021023Y-81967202D01*
X83995167Y-82196621D01*
X83975513Y-82432742D01*
X83972611Y-82476340D01*
X83964549Y-82627537D01*
X83959144Y-82785989D01*
X83956392Y-82949147D01*
X83956287Y-83114462D01*
X83846547Y-83114462D01*
X83846109Y-83095519D01*
X83848417Y-82806017D01*
X83859849Y-82518827D01*
X83880493Y-82234597D01*
X83896599Y-82072480D01*
X83923931Y-81854578D01*
X83957723Y-81641304D01*
X83997851Y-81433035D01*
X84044192Y-81230147D01*
X84096623Y-81033017D01*
X84155019Y-80842021D01*
X84219258Y-80657535D01*
X84289216Y-80479937D01*
X84364769Y-80309602D01*
X84445796Y-80146908D01*
X84532171Y-79992230D01*
X84623771Y-79845945D01*
X84628788Y-79838407D01*
X84721600Y-79706941D01*
X84819128Y-79583445D01*
X84921128Y-79468085D01*
X85027352Y-79361029D01*
X85137555Y-79262443D01*
X85251490Y-79172494D01*
X85368911Y-79091350D01*
X85489573Y-79019175D01*
X85613230Y-78956139D01*
X85739635Y-78902407D01*
X85868542Y-78858146D01*
X85999705Y-78823523D01*
X86132879Y-78798705D01*
X86169500Y-78793662D01*
X86194301Y-78790812D01*
X86224949Y-78787758D01*
X86259085Y-78784688D01*
X86294348Y-78781789D01*
X86328379Y-78779248D01*
X86358819Y-78777253D01*
X86383307Y-78775992D01*
X86396487Y-78775638D01*
X86408975Y-78772034D01*
X86413318Y-78765467D01*
X86419479Y-78752240D01*
X86430857Y-78733294D01*
X86446040Y-78710609D01*
X86463614Y-78686162D01*
X86482166Y-78661933D01*
X86500285Y-78639902D01*
X86513334Y-78625381D01*
X86578770Y-78563762D01*
X86650877Y-78509531D01*
X86728963Y-78463074D01*
X86812335Y-78424779D01*
X86900299Y-78395034D01*
X86945831Y-78383479D01*
X86975403Y-78376780D01*
X86978465Y-78367611D01*
X87095639Y-78367611D01*
X87132949Y-78371056D01*
X87169090Y-78376433D01*
X87210457Y-78385910D01*
X87253506Y-78398462D01*
X87294690Y-78413064D01*
X87327740Y-78427357D01*
X87386048Y-78460317D01*
X87443405Y-78501796D01*
X87498023Y-78550188D01*
X87548112Y-78603886D01*
X87591883Y-78661285D01*
X87597265Y-78669313D01*
X87611860Y-78691119D01*
X87622095Y-78705366D01*
X87628964Y-78713128D01*
X87633463Y-78715480D01*
X87636587Y-78713498D01*
X87637241Y-78712498D01*
X87642254Y-78704491D01*
X87651371Y-78690289D01*
X87663114Y-78672185D01*
X87671439Y-78659436D01*
X87721377Y-78591410D01*
X87776335Y-78532197D01*
X87836278Y-78481818D01*
X87901171Y-78440297D01*
X87970980Y-78407657D01*
X88045670Y-78383920D01*
X88106950Y-78371653D01*
X88127795Y-78368274D01*
X88144548Y-78365188D01*
X88154878Y-78362845D01*
X88156986Y-78362026D01*
X88157688Y-78354699D01*
X88153657Y-78340468D01*
X88145704Y-78320942D01*
X88134639Y-78297732D01*
X88121272Y-78272449D01*
X88106413Y-78246703D01*
X88090872Y-78222105D01*
X88075939Y-78200899D01*
X88028569Y-78146188D01*
X87974930Y-78099420D01*
X87915270Y-78060744D01*
X87849835Y-78030308D01*
X87778873Y-78008261D01*
X87741760Y-78000493D01*
X87709340Y-77996346D01*
X87670225Y-77993851D01*
X87627745Y-77993010D01*
X87585229Y-77993821D01*
X87546007Y-77996287D01*
X87513408Y-78000407D01*
X87513111Y-78000460D01*
X87439538Y-78018217D01*
X87371365Y-78044437D01*
X87308844Y-78078967D01*
X87252227Y-78121655D01*
X87201764Y-78172351D01*
X87177001Y-78203218D01*
X87161289Y-78226061D01*
X87145052Y-78252575D01*
X87129508Y-78280450D01*
X87115876Y-78307377D01*
X87105372Y-78331045D01*
X87099216Y-78349145D01*
X87098617Y-78351875D01*
X87095639Y-78367611D01*
X86978465Y-78367611D01*
X86988127Y-78338680D01*
X86996177Y-78317002D01*
X87007172Y-78290587D01*
X87019308Y-78263678D01*
X87025391Y-78251057D01*
X87067931Y-78175440D01*
X87116585Y-78107810D01*
X87171199Y-78048289D01*
X87231618Y-77996999D01*
X87297689Y-77954061D01*
X87369257Y-77919598D01*
X87446167Y-77893731D01*
X87491914Y-77882965D01*
X87525161Y-77878085D01*
X87565619Y-77874980D01*
X87610499Y-77873625D01*
X87657014Y-77873991D01*
G36*
X87620497Y-81767841D02*
G01*
X87637933Y-81768488D01*
X87648683Y-81769868D01*
X87654481Y-81772227D01*
X87657064Y-81775810D01*
X87657312Y-81776570D01*
X87658537Y-81782166D01*
X87661761Y-81797346D01*
X87666909Y-81821744D01*
X87673904Y-81854999D01*
X87682670Y-81896746D01*
X87693132Y-81946623D01*
X87705213Y-82004267D01*
X87718838Y-82069314D01*
X87733930Y-82141400D01*
X87750413Y-82220164D01*
X87768212Y-82305240D01*
X87787251Y-82396267D01*
X87807452Y-82492881D01*
X87828742Y-82594719D01*
X87851043Y-82701417D01*
X87874279Y-82812613D01*
X87898375Y-82927942D01*
X87923255Y-83047043D01*
X87948842Y-83169551D01*
X87975061Y-83295103D01*
X88001835Y-83423336D01*
X88013589Y-83479640D01*
X88040596Y-83608994D01*
X88067087Y-83735858D01*
X88092985Y-83859867D01*
X88118216Y-83980656D01*
X88142702Y-84097860D01*
X88166367Y-84211114D01*
X88189134Y-84320053D01*
X88210927Y-84424311D01*
X88231671Y-84523524D01*
X88251288Y-84617327D01*
X88269702Y-84705354D01*
X88286836Y-84787241D01*
X88302615Y-84862622D01*
X88316963Y-84931133D01*
X88329801Y-84992408D01*
X88341055Y-85046083D01*
X88350648Y-85091792D01*
X88358504Y-85129170D01*
X88364545Y-85157853D01*
X88368697Y-85177475D01*
X88370882Y-85187671D01*
X88371196Y-85189060D01*
X88373609Y-85197405D01*
X88375499Y-85198620D01*
X88377792Y-85191715D01*
X88380710Y-85178900D01*
X88382330Y-85171781D01*
X88386140Y-85155185D01*
X88392042Y-85129532D01*
X88399940Y-85095243D01*
X88409736Y-85052740D01*
X88421332Y-85002445D01*
X88434633Y-84944777D01*
X88449540Y-84880160D01*
X88465956Y-84809013D01*
X88483785Y-84731758D01*
X88502928Y-84648816D01*
X88523289Y-84560609D01*
X88544770Y-84467558D01*
X88567275Y-84370084D01*
X88590706Y-84268609D01*
X88614965Y-84163553D01*
X88639956Y-84055338D01*
X88665582Y-83944385D01*
X88684338Y-83863180D01*
X88715751Y-83727185D01*
X88744958Y-83600732D01*
X88772035Y-83483458D01*
X88797057Y-83375005D01*
X88820100Y-83275012D01*
X88841241Y-83183119D01*
X88860555Y-83098966D01*
X88878118Y-83022193D01*
X88894006Y-82952440D01*
X88908294Y-82889347D01*
X88921060Y-82832553D01*
X88932378Y-82781700D01*
X88942324Y-82736426D01*
X88950974Y-82696371D01*
X88958405Y-82661177D01*
X88964692Y-82630482D01*
X88969911Y-82603926D01*
X88974137Y-82581150D01*
X88977448Y-82561793D01*
X88979918Y-82545495D01*
X88981623Y-82531897D01*
X88982640Y-82520638D01*
X88983043Y-82511357D01*
X88982910Y-82503697D01*
X88982316Y-82497295D01*
X88981337Y-82491792D01*
X88980049Y-82486828D01*
X88978527Y-82482042D01*
X88976847Y-82477076D01*
X88976602Y-82476340D01*
X88961641Y-82445657D01*
X88939555Y-82422180D01*
X88910449Y-82405972D01*
X88874424Y-82397098D01*
X88846660Y-82395288D01*
X88823898Y-82395678D01*
X88802022Y-82396919D01*
X88785471Y-82398751D01*
X88784430Y-82398930D01*
X88762840Y-82402800D01*
X88762840Y-82148680D01*
X89524840Y-82148680D01*
X89524840Y-82276950D01*
X89524841Y-82405220D01*
X89472770Y-82405220D01*
X89448094Y-82405485D01*
X89430598Y-82406633D01*
X89417312Y-82409190D01*
X89405263Y-82413683D01*
X89394345Y-82419115D01*
X89365022Y-82440058D01*
X89342361Y-82468573D01*
X89337445Y-82477409D01*
X89335974Y-82483070D01*
X89332384Y-82498337D01*
X89326745Y-82522894D01*
X89319126Y-82556426D01*
X89309599Y-82598618D01*
X89298233Y-82649154D01*
X89285099Y-82707719D01*
X89270267Y-82773997D01*
X89253807Y-82847673D01*
X89235788Y-82928432D01*
X89216282Y-83015958D01*
X89195359Y-83109936D01*
X89173088Y-83210050D01*
X89149540Y-83315985D01*
X89124785Y-83427426D01*
X89098893Y-83544056D01*
X89071935Y-83665562D01*
X89043980Y-83791626D01*
X89015099Y-83921935D01*
X88985362Y-84056172D01*
X88954838Y-84194022D01*
X88923599Y-84335170D01*
X88891715Y-84479300D01*
X88859255Y-84626096D01*
X88839009Y-84717689D01*
X88806237Y-84865968D01*
X88774011Y-85011776D01*
X88742400Y-85154797D01*
X88711474Y-85294715D01*
X88681303Y-85431215D01*
X88651956Y-85563982D01*
X88623504Y-85692700D01*
X88596016Y-85817055D01*
X88569561Y-85936729D01*
X88544210Y-86051409D01*
X88520032Y-86160779D01*
X88497097Y-86264522D01*
X88475475Y-86362325D01*
X88455235Y-86453871D01*
X88436447Y-86538845D01*
X88419181Y-86616931D01*
X88403507Y-86687815D01*
X88389494Y-86751180D01*
X88377212Y-86806712D01*
X88366730Y-86854094D01*
X88358120Y-86893012D01*
X88351449Y-86923150D01*
X88346789Y-86944193D01*
X88344208Y-86955825D01*
X88343684Y-86958170D01*
X88342204Y-86962781D01*
X88339192Y-86965949D01*
X88332978Y-86967944D01*
X88321893Y-86969036D01*
X88304265Y-86969498D01*
X88278425Y-86969599D01*
X88273218Y-86969600D01*
X88205430Y-86969600D01*
X88197226Y-86927690D01*
X88195605Y-86919376D01*
X88192123Y-86901482D01*
X88186855Y-86874402D01*
X88179879Y-86838527D01*
X88171269Y-86794253D01*
X88161104Y-86741971D01*
X88149459Y-86682075D01*
X88136411Y-86614958D01*
X88122036Y-86541014D01*
X88106411Y-86460636D01*
X88089612Y-86374217D01*
X88071716Y-86282150D01*
X88052799Y-86184828D01*
X88032937Y-86082646D01*
X88012207Y-85975995D01*
X87990685Y-85865269D01*
X87968448Y-85750862D01*
X87945573Y-85633167D01*
X87922135Y-85512577D01*
X87898211Y-85389485D01*
X87888903Y-85341596D01*
X87864903Y-85218128D01*
X87841395Y-85097246D01*
X87818456Y-84979330D01*
X87796159Y-84864759D01*
X87774579Y-84753914D01*
X87753789Y-84647174D01*
X87733863Y-84544920D01*
X87714877Y-84447532D01*
X87696904Y-84355389D01*
X87680018Y-84268872D01*
X87664294Y-84188360D01*
X87649805Y-84114234D01*
X87636627Y-84046873D01*
X87624832Y-83986658D01*
X87614496Y-83933968D01*
X87605693Y-83889183D01*
X87598496Y-83852684D01*
X87592980Y-83824851D01*
X87589220Y-83806062D01*
X87587288Y-83796700D01*
X87587037Y-83795663D01*
X87586895Y-83795053D01*
X87586855Y-83793875D01*
X87586866Y-83792475D01*
X87586873Y-83791199D01*
X87586822Y-83790393D01*
X87586662Y-83790403D01*
X87586337Y-83791574D01*
X87585795Y-83794253D01*
X87584982Y-83798785D01*
X87583845Y-83805515D01*
X87582331Y-83814791D01*
X87580386Y-83826957D01*
X87577956Y-83842359D01*
X87574989Y-83861344D01*
X87571431Y-83884257D01*
X87567229Y-83911444D01*
X87562329Y-83943250D01*
X87556678Y-83980022D01*
X87550222Y-84022105D01*
X87542908Y-84069846D01*
X87534683Y-84123589D01*
X87525493Y-84183681D01*
X87515284Y-84250468D01*
X87504005Y-84324295D01*
X87491600Y-84405509D01*
X87478018Y-84494454D01*
X87463203Y-84591478D01*
X87447104Y-84696925D01*
X87429666Y-84811141D01*
X87410836Y-84934473D01*
X87390561Y-85067267D01*
X87375843Y-85163660D01*
X87357801Y-85281816D01*
X87339907Y-85398998D01*
X87322240Y-85514688D01*
X87304879Y-85628368D01*
X87287902Y-85739522D01*
X87271390Y-85847632D01*
X87255421Y-85952182D01*
X87240073Y-86052654D01*
X87225427Y-86148531D01*
X87211560Y-86239296D01*
X87198553Y-86324432D01*
X87186483Y-86403421D01*
X87175430Y-86475748D01*
X87165474Y-86540893D01*
X87156692Y-86598342D01*
X87149164Y-86647575D01*
X87142969Y-86688077D01*
X87138186Y-86719330D01*
X87136229Y-86732110D01*
X87099841Y-86969600D01*
X86949671Y-86969600D01*
X86944611Y-86950550D01*
X86943131Y-86944372D01*
X86939421Y-86928617D01*
X86933554Y-86903601D01*
X86925606Y-86869642D01*
X86915650Y-86827057D01*
X86903761Y-86776164D01*
X86890011Y-86717280D01*
X86874475Y-86650723D01*
X86857228Y-86576810D01*
X86838343Y-86495858D01*
X86817894Y-86408185D01*
X86795955Y-86314109D01*
X86772601Y-86213946D01*
X86747904Y-86108014D01*
X86721940Y-85996631D01*
X86694782Y-85880113D01*
X86666505Y-85758779D01*
X86637182Y-85632946D01*
X86606887Y-85502931D01*
X86575694Y-85369052D01*
X86543678Y-85231625D01*
X86510912Y-85090969D01*
X86477471Y-84947401D01*
X86443427Y-84801238D01*
X86426086Y-84726780D01*
X86391752Y-84579367D01*
X86357973Y-84434363D01*
X86324823Y-84292086D01*
X86292377Y-84152855D01*
X86260710Y-84016988D01*
X86229896Y-83884805D01*
X86200008Y-83756623D01*
X86171123Y-83632761D01*
X86143313Y-83513539D01*
X86116654Y-83399274D01*
X86091219Y-83290286D01*
X86067084Y-83186893D01*
X86044322Y-83089413D01*
X86023009Y-82998166D01*
X86003217Y-82913470D01*
X85985023Y-82835643D01*
X85968500Y-82765005D01*
X85953722Y-82701874D01*
X85940765Y-82646569D01*
X85929701Y-82599408D01*
X85920607Y-82560710D01*
X85913556Y-82530794D01*
X85908622Y-82509978D01*
X85905881Y-82498582D01*
X85905358Y-82496523D01*
X85891527Y-82465939D01*
X85869157Y-82439348D01*
X85839390Y-82417669D01*
X85803370Y-82401820D01*
X85779604Y-82395566D01*
X85747860Y-82389094D01*
X85745136Y-82148680D01*
X86593680Y-82148680D01*
X86593680Y-82392409D01*
X86548694Y-82389216D01*
X86526038Y-82387911D01*
X86510030Y-82388153D01*
X86497220Y-82390395D01*
X86484153Y-82395093D01*
X86475760Y-82398817D01*
X86448490Y-82415867D01*
X86427969Y-82439243D01*
X86413912Y-82469508D01*
X86406033Y-82507222D01*
X86404017Y-82539840D01*
X86404061Y-82544798D01*
X86404375Y-82550574D01*
X86405043Y-82557532D01*
X86406147Y-82566038D01*
X86407768Y-82576458D01*
X86409991Y-82589157D01*
X86412896Y-82604500D01*
X86416566Y-82622853D01*
X86421085Y-82644582D01*
X86426534Y-82670052D01*
X86432995Y-82699629D01*
X86440552Y-82733678D01*
X86449286Y-82772564D01*
X86459280Y-82816654D01*
X86470617Y-82866313D01*
X86483379Y-82921906D01*
X86497648Y-82983799D01*
X86513507Y-83052358D01*
X86531038Y-83127947D01*
X86550323Y-83210933D01*
X86571446Y-83301681D01*
X86594489Y-83400556D01*
X86619533Y-83507925D01*
X86646662Y-83624152D01*
X86675958Y-83749604D01*
X86701895Y-83860640D01*
X86728032Y-83972496D01*
X86753587Y-84081806D01*
X86778461Y-84188153D01*
X86802556Y-84291122D01*
X86825776Y-84390296D01*
X86848022Y-84485258D01*
X86869196Y-84575594D01*
X86889200Y-84660886D01*
X86907938Y-84740718D01*
X86925311Y-84814675D01*
X86941222Y-84882341D01*
X86955572Y-84943298D01*
X86968264Y-84997131D01*
X86979201Y-85043425D01*
X86988284Y-85081762D01*
X86995415Y-85111726D01*
X87000498Y-85132902D01*
X87003434Y-85144873D01*
X87004148Y-85147527D01*
X87005240Y-85143356D01*
X87007832Y-85129430D01*
X87011878Y-85106033D01*
X87017332Y-85073453D01*
X87024150Y-85031976D01*
X87032287Y-84981888D01*
X87041696Y-84923474D01*
X87052333Y-84857022D01*
X87064153Y-84782816D01*
X87077109Y-84701144D01*
X87091157Y-84612292D01*
X87106252Y-84516545D01*
X87122348Y-84414190D01*
X87139400Y-84305512D01*
X87157363Y-84190799D01*
X87176191Y-84070336D01*
X87195839Y-83944409D01*
X87216261Y-83813304D01*
X87237414Y-83677308D01*
X87259250Y-83536706D01*
X87266273Y-83491447D01*
X87286286Y-83362444D01*
X87305923Y-83235882D01*
X87325126Y-83112138D01*
X87343835Y-82991590D01*
X87361992Y-82874615D01*
X87379538Y-82761593D01*
X87396415Y-82652899D01*
X87412564Y-82548912D01*
X87427925Y-82450009D01*
X87442442Y-82356569D01*
X87456054Y-82268968D01*
X87468703Y-82187585D01*
X87480330Y-82112797D01*
X87490878Y-82044982D01*
X87500286Y-81984518D01*
X87508497Y-81931781D01*
X87515451Y-81887150D01*
X87521090Y-81851003D01*
X87525356Y-81823717D01*
X87528189Y-81805670D01*
X87529531Y-81797240D01*
X87529590Y-81796890D01*
X87534565Y-81767680D01*
X87594640Y-81767680D01*
X87620497Y-81767841D01*
G37*
X87620497Y-81767841D02*
X87637933Y-81768488D01*
X87648683Y-81769868D01*
X87654481Y-81772227D01*
X87657064Y-81775810D01*
X87657312Y-81776570D01*
X87658537Y-81782166D01*
X87661761Y-81797346D01*
X87666909Y-81821744D01*
X87673904Y-81854999D01*
X87682670Y-81896746D01*
X87693132Y-81946623D01*
X87705213Y-82004267D01*
X87718838Y-82069314D01*
X87733930Y-82141400D01*
X87750413Y-82220164D01*
X87768212Y-82305240D01*
X87787251Y-82396267D01*
X87807452Y-82492881D01*
X87828742Y-82594719D01*
X87851043Y-82701417D01*
X87874279Y-82812613D01*
X87898375Y-82927942D01*
X87923255Y-83047043D01*
X87948842Y-83169551D01*
X87975061Y-83295103D01*
X88001835Y-83423336D01*
X88013589Y-83479640D01*
X88040596Y-83608994D01*
X88067087Y-83735858D01*
X88092985Y-83859867D01*
X88118216Y-83980656D01*
X88142702Y-84097860D01*
X88166367Y-84211114D01*
X88189134Y-84320053D01*
X88210927Y-84424311D01*
X88231671Y-84523524D01*
X88251288Y-84617327D01*
X88269702Y-84705354D01*
X88286836Y-84787241D01*
X88302615Y-84862622D01*
X88316963Y-84931133D01*
X88329801Y-84992408D01*
X88341055Y-85046083D01*
X88350648Y-85091792D01*
X88358504Y-85129170D01*
X88364545Y-85157853D01*
X88368697Y-85177475D01*
X88370882Y-85187671D01*
X88371196Y-85189060D01*
X88373609Y-85197405D01*
X88375499Y-85198620D01*
X88377792Y-85191715D01*
X88380710Y-85178900D01*
X88382330Y-85171781D01*
X88386140Y-85155185D01*
X88392042Y-85129532D01*
X88399940Y-85095243D01*
X88409736Y-85052740D01*
X88421332Y-85002445D01*
X88434633Y-84944777D01*
X88449540Y-84880160D01*
X88465956Y-84809013D01*
X88483785Y-84731758D01*
X88502928Y-84648816D01*
X88523289Y-84560609D01*
X88544770Y-84467558D01*
X88567275Y-84370084D01*
X88590706Y-84268609D01*
X88614965Y-84163553D01*
X88639956Y-84055338D01*
X88665582Y-83944385D01*
X88684338Y-83863180D01*
X88715751Y-83727185D01*
X88744958Y-83600732D01*
X88772035Y-83483458D01*
X88797057Y-83375005D01*
X88820100Y-83275012D01*
X88841241Y-83183119D01*
X88860555Y-83098966D01*
X88878118Y-83022193D01*
X88894006Y-82952440D01*
X88908294Y-82889347D01*
X88921060Y-82832553D01*
X88932378Y-82781700D01*
X88942324Y-82736426D01*
X88950974Y-82696371D01*
X88958405Y-82661177D01*
X88964692Y-82630482D01*
X88969911Y-82603926D01*
X88974137Y-82581150D01*
X88977448Y-82561793D01*
X88979918Y-82545495D01*
X88981623Y-82531897D01*
X88982640Y-82520638D01*
X88983043Y-82511357D01*
X88982910Y-82503697D01*
X88982316Y-82497295D01*
X88981337Y-82491792D01*
X88980049Y-82486828D01*
X88978527Y-82482042D01*
X88976847Y-82477076D01*
X88976602Y-82476340D01*
X88961641Y-82445657D01*
X88939555Y-82422180D01*
X88910449Y-82405972D01*
X88874424Y-82397098D01*
X88846660Y-82395288D01*
X88823898Y-82395678D01*
X88802022Y-82396919D01*
X88785471Y-82398751D01*
X88784430Y-82398930D01*
X88762840Y-82402800D01*
X88762840Y-82148680D01*
X89524840Y-82148680D01*
X89524840Y-82276950D01*
X89524841Y-82405220D01*
X89472770Y-82405220D01*
X89448094Y-82405485D01*
X89430598Y-82406633D01*
X89417312Y-82409190D01*
X89405263Y-82413683D01*
X89394345Y-82419115D01*
X89365022Y-82440058D01*
X89342361Y-82468573D01*
X89337445Y-82477409D01*
X89335974Y-82483070D01*
X89332384Y-82498337D01*
X89326745Y-82522894D01*
X89319126Y-82556426D01*
X89309599Y-82598618D01*
X89298233Y-82649154D01*
X89285099Y-82707719D01*
X89270267Y-82773997D01*
X89253807Y-82847673D01*
X89235788Y-82928432D01*
X89216282Y-83015958D01*
X89195359Y-83109936D01*
X89173088Y-83210050D01*
X89149540Y-83315985D01*
X89124785Y-83427426D01*
X89098893Y-83544056D01*
X89071935Y-83665562D01*
X89043980Y-83791626D01*
X89015099Y-83921935D01*
X88985362Y-84056172D01*
X88954838Y-84194022D01*
X88923599Y-84335170D01*
X88891715Y-84479300D01*
X88859255Y-84626096D01*
X88839009Y-84717689D01*
X88806237Y-84865968D01*
X88774011Y-85011776D01*
X88742400Y-85154797D01*
X88711474Y-85294715D01*
X88681303Y-85431215D01*
X88651956Y-85563982D01*
X88623504Y-85692700D01*
X88596016Y-85817055D01*
X88569561Y-85936729D01*
X88544210Y-86051409D01*
X88520032Y-86160779D01*
X88497097Y-86264522D01*
X88475475Y-86362325D01*
X88455235Y-86453871D01*
X88436447Y-86538845D01*
X88419181Y-86616931D01*
X88403507Y-86687815D01*
X88389494Y-86751180D01*
X88377212Y-86806712D01*
X88366730Y-86854094D01*
X88358120Y-86893012D01*
X88351449Y-86923150D01*
X88346789Y-86944193D01*
X88344208Y-86955825D01*
X88343684Y-86958170D01*
X88342204Y-86962781D01*
X88339192Y-86965949D01*
X88332978Y-86967944D01*
X88321893Y-86969036D01*
X88304265Y-86969498D01*
X88278425Y-86969599D01*
X88273218Y-86969600D01*
X88205430Y-86969600D01*
X88197226Y-86927690D01*
X88195605Y-86919376D01*
X88192123Y-86901482D01*
X88186855Y-86874402D01*
X88179879Y-86838527D01*
X88171269Y-86794253D01*
X88161104Y-86741971D01*
X88149459Y-86682075D01*
X88136411Y-86614958D01*
X88122036Y-86541014D01*
X88106411Y-86460636D01*
X88089612Y-86374217D01*
X88071716Y-86282150D01*
X88052799Y-86184828D01*
X88032937Y-86082646D01*
X88012207Y-85975995D01*
X87990685Y-85865269D01*
X87968448Y-85750862D01*
X87945573Y-85633167D01*
X87922135Y-85512577D01*
X87898211Y-85389485D01*
X87888903Y-85341596D01*
X87864903Y-85218128D01*
X87841395Y-85097246D01*
X87818456Y-84979330D01*
X87796159Y-84864759D01*
X87774579Y-84753914D01*
X87753789Y-84647174D01*
X87733863Y-84544920D01*
X87714877Y-84447532D01*
X87696904Y-84355389D01*
X87680018Y-84268872D01*
X87664294Y-84188360D01*
X87649805Y-84114234D01*
X87636627Y-84046873D01*
X87624832Y-83986658D01*
X87614496Y-83933968D01*
X87605693Y-83889183D01*
X87598496Y-83852684D01*
X87592980Y-83824851D01*
X87589220Y-83806062D01*
X87587288Y-83796700D01*
X87587037Y-83795663D01*
X87586895Y-83795053D01*
X87586855Y-83793875D01*
X87586866Y-83792475D01*
X87586873Y-83791199D01*
X87586822Y-83790393D01*
X87586662Y-83790403D01*
X87586337Y-83791574D01*
X87585795Y-83794253D01*
X87584982Y-83798785D01*
X87583845Y-83805515D01*
X87582331Y-83814791D01*
X87580386Y-83826957D01*
X87577956Y-83842359D01*
X87574989Y-83861344D01*
X87571431Y-83884257D01*
X87567229Y-83911444D01*
X87562329Y-83943250D01*
X87556678Y-83980022D01*
X87550222Y-84022105D01*
X87542908Y-84069846D01*
X87534683Y-84123589D01*
X87525493Y-84183681D01*
X87515284Y-84250468D01*
X87504005Y-84324295D01*
X87491600Y-84405509D01*
X87478018Y-84494454D01*
X87463203Y-84591478D01*
X87447104Y-84696925D01*
X87429666Y-84811141D01*
X87410836Y-84934473D01*
X87390561Y-85067267D01*
X87375843Y-85163660D01*
X87357801Y-85281816D01*
X87339907Y-85398998D01*
X87322240Y-85514688D01*
X87304879Y-85628368D01*
X87287902Y-85739522D01*
X87271390Y-85847632D01*
X87255421Y-85952182D01*
X87240073Y-86052654D01*
X87225427Y-86148531D01*
X87211560Y-86239296D01*
X87198553Y-86324432D01*
X87186483Y-86403421D01*
X87175430Y-86475748D01*
X87165474Y-86540893D01*
X87156692Y-86598342D01*
X87149164Y-86647575D01*
X87142969Y-86688077D01*
X87138186Y-86719330D01*
X87136229Y-86732110D01*
X87099841Y-86969600D01*
X86949671Y-86969600D01*
X86944611Y-86950550D01*
X86943131Y-86944372D01*
X86939421Y-86928617D01*
X86933554Y-86903601D01*
X86925606Y-86869642D01*
X86915650Y-86827057D01*
X86903761Y-86776164D01*
X86890011Y-86717280D01*
X86874475Y-86650723D01*
X86857228Y-86576810D01*
X86838343Y-86495858D01*
X86817894Y-86408185D01*
X86795955Y-86314109D01*
X86772601Y-86213946D01*
X86747904Y-86108014D01*
X86721940Y-85996631D01*
X86694782Y-85880113D01*
X86666505Y-85758779D01*
X86637182Y-85632946D01*
X86606887Y-85502931D01*
X86575694Y-85369052D01*
X86543678Y-85231625D01*
X86510912Y-85090969D01*
X86477471Y-84947401D01*
X86443427Y-84801238D01*
X86426086Y-84726780D01*
X86391752Y-84579367D01*
X86357973Y-84434363D01*
X86324823Y-84292086D01*
X86292377Y-84152855D01*
X86260710Y-84016988D01*
X86229896Y-83884805D01*
X86200008Y-83756623D01*
X86171123Y-83632761D01*
X86143313Y-83513539D01*
X86116654Y-83399274D01*
X86091219Y-83290286D01*
X86067084Y-83186893D01*
X86044322Y-83089413D01*
X86023009Y-82998166D01*
X86003217Y-82913470D01*
X85985023Y-82835643D01*
X85968500Y-82765005D01*
X85953722Y-82701874D01*
X85940765Y-82646569D01*
X85929701Y-82599408D01*
X85920607Y-82560710D01*
X85913556Y-82530794D01*
X85908622Y-82509978D01*
X85905881Y-82498582D01*
X85905358Y-82496523D01*
X85891527Y-82465939D01*
X85869157Y-82439348D01*
X85839390Y-82417669D01*
X85803370Y-82401820D01*
X85779604Y-82395566D01*
X85747860Y-82389094D01*
X85745136Y-82148680D01*
X86593680Y-82148680D01*
X86593680Y-82392409D01*
X86548694Y-82389216D01*
X86526038Y-82387911D01*
X86510030Y-82388153D01*
X86497220Y-82390395D01*
X86484153Y-82395093D01*
X86475760Y-82398817D01*
X86448490Y-82415867D01*
X86427969Y-82439243D01*
X86413912Y-82469508D01*
X86406033Y-82507222D01*
X86404017Y-82539840D01*
X86404061Y-82544798D01*
X86404375Y-82550574D01*
X86405043Y-82557532D01*
X86406147Y-82566038D01*
X86407768Y-82576458D01*
X86409991Y-82589157D01*
X86412896Y-82604500D01*
X86416566Y-82622853D01*
X86421085Y-82644582D01*
X86426534Y-82670052D01*
X86432995Y-82699629D01*
X86440552Y-82733678D01*
X86449286Y-82772564D01*
X86459280Y-82816654D01*
X86470617Y-82866313D01*
X86483379Y-82921906D01*
X86497648Y-82983799D01*
X86513507Y-83052358D01*
X86531038Y-83127947D01*
X86550323Y-83210933D01*
X86571446Y-83301681D01*
X86594489Y-83400556D01*
X86619533Y-83507925D01*
X86646662Y-83624152D01*
X86675958Y-83749604D01*
X86701895Y-83860640D01*
X86728032Y-83972496D01*
X86753587Y-84081806D01*
X86778461Y-84188153D01*
X86802556Y-84291122D01*
X86825776Y-84390296D01*
X86848022Y-84485258D01*
X86869196Y-84575594D01*
X86889200Y-84660886D01*
X86907938Y-84740718D01*
X86925311Y-84814675D01*
X86941222Y-84882341D01*
X86955572Y-84943298D01*
X86968264Y-84997131D01*
X86979201Y-85043425D01*
X86988284Y-85081762D01*
X86995415Y-85111726D01*
X87000498Y-85132902D01*
X87003434Y-85144873D01*
X87004148Y-85147527D01*
X87005240Y-85143356D01*
X87007832Y-85129430D01*
X87011878Y-85106033D01*
X87017332Y-85073453D01*
X87024150Y-85031976D01*
X87032287Y-84981888D01*
X87041696Y-84923474D01*
X87052333Y-84857022D01*
X87064153Y-84782816D01*
X87077109Y-84701144D01*
X87091157Y-84612292D01*
X87106252Y-84516545D01*
X87122348Y-84414190D01*
X87139400Y-84305512D01*
X87157363Y-84190799D01*
X87176191Y-84070336D01*
X87195839Y-83944409D01*
X87216261Y-83813304D01*
X87237414Y-83677308D01*
X87259250Y-83536706D01*
X87266273Y-83491447D01*
X87286286Y-83362444D01*
X87305923Y-83235882D01*
X87325126Y-83112138D01*
X87343835Y-82991590D01*
X87361992Y-82874615D01*
X87379538Y-82761593D01*
X87396415Y-82652899D01*
X87412564Y-82548912D01*
X87427925Y-82450009D01*
X87442442Y-82356569D01*
X87456054Y-82268968D01*
X87468703Y-82187585D01*
X87480330Y-82112797D01*
X87490878Y-82044982D01*
X87500286Y-81984518D01*
X87508497Y-81931781D01*
X87515451Y-81887150D01*
X87521090Y-81851003D01*
X87525356Y-81823717D01*
X87528189Y-81805670D01*
X87529531Y-81797240D01*
X87529590Y-81796890D01*
X87534565Y-81767680D01*
X87594640Y-81767680D01*
X87620497Y-81767841D01*
D13*
X105890000Y-101600000D02*
G75*
G03*
X105890000Y-101600000I-1750000J0D01*
G01*
X100810000Y-101600000D02*
G75*
G03*
X100810000Y-101600000I-1750000J0D01*
G01*
X95730000Y-101600000D02*
G75*
G03*
X95730000Y-101600000I-1750000J0D01*
G01*
X90650000Y-101600000D02*
G75*
G03*
X90650000Y-101600000I-1750000J0D01*
G01*
X85570000Y-101600000D02*
G75*
G03*
X85570000Y-101600000I-1750000J0D01*
G01*
X105470000Y-86630000D02*
X105470000Y-85380000D01*
X105470000Y-85380000D02*
X95190000Y-85380000D01*
X95190000Y-85380000D02*
X95190000Y-89880000D01*
X95190000Y-89880000D02*
X105470000Y-89880000D01*
X105470000Y-89880000D02*
X105470000Y-88630000D01*
X105470000Y-88630000D02*
G75*
G02*
X105470000Y-86630000I0J1000000D01*
G01*
X113572936Y-82910000D02*
X115027064Y-82910000D01*
X113572936Y-84730000D02*
X115027064Y-84730000D01*
X111201252Y-77110000D02*
X109778748Y-77110000D01*
X111201252Y-75290000D02*
X109778748Y-75290000D01*
X93421252Y-77110000D02*
X91998748Y-77110000D01*
X93421252Y-75290000D02*
X91998748Y-75290000D01*
X109415000Y-88910000D02*
X119185000Y-88910000D01*
X109415000Y-93980000D02*
X119185000Y-93980000D01*
X109415000Y-88910000D02*
X109415000Y-93980000D01*
X119185000Y-88910000D02*
X119185000Y-93980000D01*
X97680000Y-73170000D02*
X97680000Y-79190000D01*
X97680000Y-79190000D02*
X105520000Y-79190000D01*
X105520000Y-79190000D02*
X105520000Y-73170000D01*
X105520000Y-73170000D02*
X97680000Y-73170000D01*
X97390000Y-74200000D02*
X97390000Y-78200000D01*
X99060000Y-79190000D02*
X99060000Y-78190000D01*
X99060000Y-78190000D02*
X104140000Y-78190000D01*
X104140000Y-78190000D02*
X104140000Y-79190000D01*
X99060000Y-78190000D02*
X99310000Y-77660000D01*
X99310000Y-77660000D02*
X103890000Y-77660000D01*
X103890000Y-77660000D02*
X104140000Y-78190000D01*
X99310000Y-79190000D02*
X99310000Y-78190000D01*
X103890000Y-79190000D02*
X103890000Y-78190000D01*
X98260000Y-73170000D02*
X98260000Y-73770000D01*
X98260000Y-73770000D02*
X99860000Y-73770000D01*
X99860000Y-73770000D02*
X99860000Y-73170000D01*
X100800000Y-73170000D02*
X100800000Y-73770000D01*
X100800000Y-73770000D02*
X102400000Y-73770000D01*
X102400000Y-73770000D02*
X102400000Y-73170000D01*
X103340000Y-73170000D02*
X103340000Y-73770000D01*
X103340000Y-73770000D02*
X104940000Y-73770000D01*
X104940000Y-73770000D02*
X104940000Y-73170000D01*
D10*
X102878095Y-98654380D02*
X103449523Y-98654380D01*
X103163809Y-99654380D02*
X103163809Y-98654380D01*
X103782857Y-99654380D02*
X103782857Y-98654380D01*
X104163809Y-98654380D01*
X104259047Y-98702000D01*
X104306666Y-98749619D01*
X104354285Y-98844857D01*
X104354285Y-98987714D01*
X104306666Y-99082952D01*
X104259047Y-99130571D01*
X104163809Y-99178190D01*
X103782857Y-99178190D01*
X105259047Y-98654380D02*
X104782857Y-98654380D01*
X104735238Y-99130571D01*
X104782857Y-99082952D01*
X104878095Y-99035333D01*
X105116190Y-99035333D01*
X105211428Y-99082952D01*
X105259047Y-99130571D01*
X105306666Y-99225809D01*
X105306666Y-99463904D01*
X105259047Y-99559142D01*
X105211428Y-99606761D01*
X105116190Y-99654380D01*
X104878095Y-99654380D01*
X104782857Y-99606761D01*
X104735238Y-99559142D01*
X97798095Y-98654380D02*
X98369523Y-98654380D01*
X98083809Y-99654380D02*
X98083809Y-98654380D01*
X98702857Y-99654380D02*
X98702857Y-98654380D01*
X99083809Y-98654380D01*
X99179047Y-98702000D01*
X99226666Y-98749619D01*
X99274285Y-98844857D01*
X99274285Y-98987714D01*
X99226666Y-99082952D01*
X99179047Y-99130571D01*
X99083809Y-99178190D01*
X98702857Y-99178190D01*
X100131428Y-98987714D02*
X100131428Y-99654380D01*
X99893333Y-98606761D02*
X99655238Y-99321047D01*
X100274285Y-99321047D01*
X92718095Y-98654380D02*
X93289523Y-98654380D01*
X93003809Y-99654380D02*
X93003809Y-98654380D01*
X93622857Y-99654380D02*
X93622857Y-98654380D01*
X94003809Y-98654380D01*
X94099047Y-98702000D01*
X94146666Y-98749619D01*
X94194285Y-98844857D01*
X94194285Y-98987714D01*
X94146666Y-99082952D01*
X94099047Y-99130571D01*
X94003809Y-99178190D01*
X93622857Y-99178190D01*
X94527619Y-98654380D02*
X95146666Y-98654380D01*
X94813333Y-99035333D01*
X94956190Y-99035333D01*
X95051428Y-99082952D01*
X95099047Y-99130571D01*
X95146666Y-99225809D01*
X95146666Y-99463904D01*
X95099047Y-99559142D01*
X95051428Y-99606761D01*
X94956190Y-99654380D01*
X94670476Y-99654380D01*
X94575238Y-99606761D01*
X94527619Y-99559142D01*
X87638095Y-98654380D02*
X88209523Y-98654380D01*
X87923809Y-99654380D02*
X87923809Y-98654380D01*
X88542857Y-99654380D02*
X88542857Y-98654380D01*
X88923809Y-98654380D01*
X89019047Y-98702000D01*
X89066666Y-98749619D01*
X89114285Y-98844857D01*
X89114285Y-98987714D01*
X89066666Y-99082952D01*
X89019047Y-99130571D01*
X88923809Y-99178190D01*
X88542857Y-99178190D01*
X89495238Y-98749619D02*
X89542857Y-98702000D01*
X89638095Y-98654380D01*
X89876190Y-98654380D01*
X89971428Y-98702000D01*
X90019047Y-98749619D01*
X90066666Y-98844857D01*
X90066666Y-98940095D01*
X90019047Y-99082952D01*
X89447619Y-99654380D01*
X90066666Y-99654380D01*
X82558095Y-98654380D02*
X83129523Y-98654380D01*
X82843809Y-99654380D02*
X82843809Y-98654380D01*
X83462857Y-99654380D02*
X83462857Y-98654380D01*
X83843809Y-98654380D01*
X83939047Y-98702000D01*
X83986666Y-98749619D01*
X84034285Y-98844857D01*
X84034285Y-98987714D01*
X83986666Y-99082952D01*
X83939047Y-99130571D01*
X83843809Y-99178190D01*
X83462857Y-99178190D01*
X84986666Y-99654380D02*
X84415238Y-99654380D01*
X84700952Y-99654380D02*
X84700952Y-98654380D01*
X84605714Y-98797238D01*
X84510476Y-98892476D01*
X84415238Y-98940095D01*
X105922380Y-88391904D02*
X106731904Y-88391904D01*
X106827142Y-88344285D01*
X106874761Y-88296666D01*
X106922380Y-88201428D01*
X106922380Y-88010952D01*
X106874761Y-87915714D01*
X106827142Y-87868095D01*
X106731904Y-87820476D01*
X105922380Y-87820476D01*
X106922380Y-86820476D02*
X106922380Y-87391904D01*
X106922380Y-87106190D02*
X105922380Y-87106190D01*
X106065238Y-87201428D01*
X106160476Y-87296666D01*
X106208095Y-87391904D01*
X114133333Y-82452380D02*
X113800000Y-81976190D01*
X113561904Y-82452380D02*
X113561904Y-81452380D01*
X113942857Y-81452380D01*
X114038095Y-81500000D01*
X114085714Y-81547619D01*
X114133333Y-81642857D01*
X114133333Y-81785714D01*
X114085714Y-81880952D01*
X114038095Y-81928571D01*
X113942857Y-81976190D01*
X113561904Y-81976190D01*
X115085714Y-82452380D02*
X114514285Y-82452380D01*
X114800000Y-82452380D02*
X114800000Y-81452380D01*
X114704761Y-81595238D01*
X114609523Y-81690476D01*
X114514285Y-81738095D01*
X110323333Y-78407142D02*
X110275714Y-78454761D01*
X110132857Y-78502380D01*
X110037619Y-78502380D01*
X109894761Y-78454761D01*
X109799523Y-78359523D01*
X109751904Y-78264285D01*
X109704285Y-78073809D01*
X109704285Y-77930952D01*
X109751904Y-77740476D01*
X109799523Y-77645238D01*
X109894761Y-77550000D01*
X110037619Y-77502380D01*
X110132857Y-77502380D01*
X110275714Y-77550000D01*
X110323333Y-77597619D01*
X110704285Y-77597619D02*
X110751904Y-77550000D01*
X110847142Y-77502380D01*
X111085238Y-77502380D01*
X111180476Y-77550000D01*
X111228095Y-77597619D01*
X111275714Y-77692857D01*
X111275714Y-77788095D01*
X111228095Y-77930952D01*
X110656666Y-78502380D01*
X111275714Y-78502380D01*
X92543333Y-78407142D02*
X92495714Y-78454761D01*
X92352857Y-78502380D01*
X92257619Y-78502380D01*
X92114761Y-78454761D01*
X92019523Y-78359523D01*
X91971904Y-78264285D01*
X91924285Y-78073809D01*
X91924285Y-77930952D01*
X91971904Y-77740476D01*
X92019523Y-77645238D01*
X92114761Y-77550000D01*
X92257619Y-77502380D01*
X92352857Y-77502380D01*
X92495714Y-77550000D01*
X92543333Y-77597619D01*
X93495714Y-78502380D02*
X92924285Y-78502380D01*
X93210000Y-78502380D02*
X93210000Y-77502380D01*
X93114761Y-77645238D01*
X93019523Y-77740476D01*
X92924285Y-77788095D01*
X113704761Y-88232380D02*
X113371428Y-87756190D01*
X113133333Y-88232380D02*
X113133333Y-87232380D01*
X113514285Y-87232380D01*
X113609523Y-87280000D01*
X113657142Y-87327619D01*
X113704761Y-87422857D01*
X113704761Y-87565714D01*
X113657142Y-87660952D01*
X113609523Y-87708571D01*
X113514285Y-87756190D01*
X113133333Y-87756190D01*
X113990476Y-87232380D02*
X114323809Y-88232380D01*
X114657142Y-87232380D01*
X115514285Y-88232380D02*
X114942857Y-88232380D01*
X115228571Y-88232380D02*
X115228571Y-87232380D01*
X115133333Y-87375238D01*
X115038095Y-87470476D01*
X114942857Y-87518095D01*
X101933333Y-72627619D02*
X101933333Y-71913333D01*
X101980952Y-71770476D01*
X102076190Y-71675238D01*
X102219047Y-71627619D01*
X102314285Y-71627619D01*
X100933333Y-71627619D02*
X101504761Y-71627619D01*
X101219047Y-71627619D02*
X101219047Y-72627619D01*
X101314285Y-72484761D01*
X101409523Y-72389523D01*
X101504761Y-72341904D01*
M02*
