G04 #@! TF.GenerationSoftware,KiCad,Pcbnew,5.1.8+dfsg1-1+b1*
G04 #@! TF.CreationDate,2021-02-01T12:52:58-06:00*
G04 #@! TF.ProjectId,DC_Amplifier,44435f41-6d70-46c6-9966-6965722e6b69,1.1.0*
G04 #@! TF.SameCoordinates,Original*
G04 #@! TF.FileFunction,Copper,L1,Top*
G04 #@! TF.FilePolarity,Positive*
%FSLAX46Y46*%
G04 Gerber Fmt 4.6, Leading zero omitted, Abs format (unit mm)*
G04 Created by KiCad (PCBNEW 5.1.8+dfsg1-1+b1) date 2021-02-01 12:52:58*
%MOMM*%
%LPD*%
G01*
G04 APERTURE LIST*
G04 #@! TA.AperFunction,Profile*
%ADD10C,0.050000*%
G04 #@! TD*
G04 #@! TA.AperFunction,ComponentPad*
%ADD11C,3.000000*%
G04 #@! TD*
G04 #@! TA.AperFunction,ComponentPad*
%ADD12O,1.600000X2.400000*%
G04 #@! TD*
G04 #@! TA.AperFunction,ComponentPad*
%ADD13R,1.600000X2.400000*%
G04 #@! TD*
G04 #@! TA.AperFunction,ComponentPad*
%ADD14C,1.440000*%
G04 #@! TD*
G04 #@! TA.AperFunction,ComponentPad*
%ADD15O,1.740000X2.200000*%
G04 #@! TD*
G04 #@! TA.AperFunction,SMDPad,CuDef*
%ADD16R,4.191000X2.667000*%
G04 #@! TD*
G04 #@! TA.AperFunction,ViaPad*
%ADD17C,0.800000*%
G04 #@! TD*
G04 #@! TA.AperFunction,Conductor*
%ADD18C,0.762000*%
G04 #@! TD*
G04 #@! TA.AperFunction,Conductor*
%ADD19C,0.254000*%
G04 #@! TD*
G04 #@! TA.AperFunction,Conductor*
%ADD20C,0.100000*%
G04 #@! TD*
G04 APERTURE END LIST*
D10*
X127000000Y-71120000D02*
X76200000Y-71120000D01*
X132080000Y-101600000D02*
X132080000Y-76200000D01*
X76200000Y-106680000D02*
X127000000Y-106680000D01*
X71120000Y-76200000D02*
X71120000Y-101600000D01*
X132080000Y-101600000D02*
G75*
G02*
X127000000Y-106680000I-5080000J0D01*
G01*
X76200000Y-106680000D02*
G75*
G02*
X71120000Y-101600000I0J5080000D01*
G01*
X71120000Y-76200000D02*
G75*
G02*
X76200000Y-71120000I5080000J0D01*
G01*
X127000000Y-71120000D02*
G75*
G02*
X132080000Y-76200000I0J-5080000D01*
G01*
D11*
X104140000Y-101600000D03*
X99060000Y-101600000D03*
X93980000Y-101600000D03*
X88900000Y-101600000D03*
X83820000Y-101600000D03*
D12*
X104140000Y-91440000D03*
X96520000Y-83820000D03*
X101600000Y-91440000D03*
X99060000Y-83820000D03*
X99060000Y-91440000D03*
X101600000Y-83820000D03*
X96520000Y-91440000D03*
D13*
X104140000Y-83820000D03*
G04 #@! TA.AperFunction,SMDPad,CuDef*
G36*
G01*
X115200000Y-84445000D02*
X115200000Y-83195000D01*
G75*
G02*
X115450000Y-82945000I250000J0D01*
G01*
X116250000Y-82945000D01*
G75*
G02*
X116500000Y-83195000I0J-250000D01*
G01*
X116500000Y-84445000D01*
G75*
G02*
X116250000Y-84695000I-250000J0D01*
G01*
X115450000Y-84695000D01*
G75*
G02*
X115200000Y-84445000I0J250000D01*
G01*
G37*
G04 #@! TD.AperFunction*
G04 #@! TA.AperFunction,SMDPad,CuDef*
G36*
G01*
X112100000Y-84445000D02*
X112100000Y-83195000D01*
G75*
G02*
X112350000Y-82945000I250000J0D01*
G01*
X113150000Y-82945000D01*
G75*
G02*
X113400000Y-83195000I0J-250000D01*
G01*
X113400000Y-84445000D01*
G75*
G02*
X113150000Y-84695000I-250000J0D01*
G01*
X112350000Y-84695000D01*
G75*
G02*
X112100000Y-84445000I0J250000D01*
G01*
G37*
G04 #@! TD.AperFunction*
G04 #@! TA.AperFunction,SMDPad,CuDef*
G36*
G01*
X109590000Y-75549999D02*
X109590000Y-76850001D01*
G75*
G02*
X109340001Y-77100000I-249999J0D01*
G01*
X108514999Y-77100000D01*
G75*
G02*
X108265000Y-76850001I0J249999D01*
G01*
X108265000Y-75549999D01*
G75*
G02*
X108514999Y-75300000I249999J0D01*
G01*
X109340001Y-75300000D01*
G75*
G02*
X109590000Y-75549999I0J-249999D01*
G01*
G37*
G04 #@! TD.AperFunction*
G04 #@! TA.AperFunction,SMDPad,CuDef*
G36*
G01*
X112715000Y-75549999D02*
X112715000Y-76850001D01*
G75*
G02*
X112465001Y-77100000I-249999J0D01*
G01*
X111639999Y-77100000D01*
G75*
G02*
X111390000Y-76850001I0J249999D01*
G01*
X111390000Y-75549999D01*
G75*
G02*
X111639999Y-75300000I249999J0D01*
G01*
X112465001Y-75300000D01*
G75*
G02*
X112715000Y-75549999I0J-249999D01*
G01*
G37*
G04 #@! TD.AperFunction*
G04 #@! TA.AperFunction,SMDPad,CuDef*
G36*
G01*
X91810000Y-75549999D02*
X91810000Y-76850001D01*
G75*
G02*
X91560001Y-77100000I-249999J0D01*
G01*
X90734999Y-77100000D01*
G75*
G02*
X90485000Y-76850001I0J249999D01*
G01*
X90485000Y-75549999D01*
G75*
G02*
X90734999Y-75300000I249999J0D01*
G01*
X91560001Y-75300000D01*
G75*
G02*
X91810000Y-75549999I0J-249999D01*
G01*
G37*
G04 #@! TD.AperFunction*
G04 #@! TA.AperFunction,SMDPad,CuDef*
G36*
G01*
X94935000Y-75549999D02*
X94935000Y-76850001D01*
G75*
G02*
X94685001Y-77100000I-249999J0D01*
G01*
X93859999Y-77100000D01*
G75*
G02*
X93610000Y-76850001I0J249999D01*
G01*
X93610000Y-75549999D01*
G75*
G02*
X93859999Y-75300000I249999J0D01*
G01*
X94685001Y-75300000D01*
G75*
G02*
X94935000Y-75549999I0J-249999D01*
G01*
G37*
G04 #@! TD.AperFunction*
D14*
X111760000Y-91440000D03*
X114300000Y-91440000D03*
X116840000Y-91440000D03*
D15*
X104140000Y-76200000D03*
X101600000Y-76200000D03*
G04 #@! TA.AperFunction,ComponentPad*
G36*
G01*
X98190000Y-77050001D02*
X98190000Y-75349999D01*
G75*
G02*
X98439999Y-75100000I249999J0D01*
G01*
X99680001Y-75100000D01*
G75*
G02*
X99930000Y-75349999I0J-249999D01*
G01*
X99930000Y-77050001D01*
G75*
G02*
X99680001Y-77300000I-249999J0D01*
G01*
X98439999Y-77300000D01*
G75*
G02*
X98190000Y-77050001I0J249999D01*
G01*
G37*
G04 #@! TD.AperFunction*
D16*
X73215500Y-92392500D03*
X73215500Y-85407500D03*
X129984500Y-85407500D03*
X129984500Y-92392500D03*
D17*
X92710000Y-83820000D03*
X92710000Y-97790000D03*
D18*
X99060000Y-91440000D02*
X99060000Y-93980000D01*
X99060000Y-93980000D02*
X101600000Y-96520000D01*
X101600000Y-96520000D02*
X109220000Y-96520000D01*
X109220000Y-96520000D02*
X111760000Y-93980000D01*
X111760000Y-93980000D02*
X111760000Y-91440000D01*
X111760000Y-91440000D02*
X114300000Y-91440000D01*
X99060000Y-76200000D02*
X94272500Y-76200000D01*
X99060000Y-76200000D02*
X93980000Y-81280000D01*
X93980000Y-81280000D02*
X93980000Y-87630000D01*
X93980000Y-87630000D02*
X95250000Y-88900000D01*
X95250000Y-88900000D02*
X100330000Y-88900000D01*
X100330000Y-88900000D02*
X101600000Y-90170000D01*
X101600000Y-90170000D02*
X101600000Y-91440000D01*
X108927500Y-76200000D02*
X104140000Y-76200000D01*
X104140000Y-76200000D02*
X104140000Y-78740000D01*
X104140000Y-78740000D02*
X102870000Y-80010000D01*
X102870000Y-80010000D02*
X97790000Y-80010000D01*
X97790000Y-80010000D02*
X96520000Y-81280000D01*
X96520000Y-81280000D02*
X96520000Y-83820000D01*
X92710000Y-83820000D02*
X92710000Y-97790000D01*
X112750000Y-83820000D02*
X112750000Y-86080000D01*
X116840000Y-90170000D02*
X116840000Y-91440000D01*
X101600000Y-83820000D02*
X101600000Y-85090000D01*
X102870000Y-86360000D02*
X113030000Y-86360000D01*
X101600000Y-85090000D02*
X102870000Y-86360000D01*
X113030000Y-86360000D02*
X116840000Y-90170000D01*
X112750000Y-86080000D02*
X113030000Y-86360000D01*
D19*
X127782249Y-71852437D02*
X128539774Y-72059672D01*
X129248625Y-72397777D01*
X129886404Y-72856067D01*
X130432946Y-73420055D01*
X130870977Y-74071913D01*
X131186651Y-74791038D01*
X131371206Y-75559768D01*
X131420001Y-76224221D01*
X131420001Y-83437048D01*
X130270250Y-83439000D01*
X130111500Y-83597750D01*
X130111500Y-85280500D01*
X130131500Y-85280500D01*
X130131500Y-85534500D01*
X130111500Y-85534500D01*
X130111500Y-87217250D01*
X130270250Y-87376000D01*
X131420001Y-87377952D01*
X131420000Y-90422048D01*
X130270250Y-90424000D01*
X130111500Y-90582750D01*
X130111500Y-92265500D01*
X130131500Y-92265500D01*
X130131500Y-92519500D01*
X130111500Y-92519500D01*
X130111500Y-94202250D01*
X130270250Y-94361000D01*
X131420000Y-94362952D01*
X131420000Y-101570608D01*
X131347563Y-102382249D01*
X131140328Y-103139774D01*
X130802221Y-103848627D01*
X130343928Y-104486410D01*
X129779945Y-105032946D01*
X129128085Y-105470978D01*
X128408963Y-105786651D01*
X127640232Y-105971206D01*
X126975792Y-106020000D01*
X76229392Y-106020000D01*
X75417751Y-105947563D01*
X74660226Y-105740328D01*
X73951373Y-105402221D01*
X73313590Y-104943928D01*
X72767054Y-104379945D01*
X72329022Y-103728085D01*
X72013349Y-103008963D01*
X71828794Y-102240232D01*
X71780000Y-101575792D01*
X71780000Y-101379872D01*
X73965000Y-101379872D01*
X73965000Y-101820128D01*
X74050890Y-102251925D01*
X74219369Y-102658669D01*
X74463962Y-103024729D01*
X74775271Y-103336038D01*
X75141331Y-103580631D01*
X75548075Y-103749110D01*
X75979872Y-103835000D01*
X76420128Y-103835000D01*
X76851925Y-103749110D01*
X77258669Y-103580631D01*
X77624729Y-103336038D01*
X77936038Y-103024729D01*
X78180631Y-102658669D01*
X78349110Y-102251925D01*
X78435000Y-101820128D01*
X78435000Y-101389721D01*
X81685000Y-101389721D01*
X81685000Y-101810279D01*
X81767047Y-102222756D01*
X81927988Y-102611302D01*
X82161637Y-102960983D01*
X82459017Y-103258363D01*
X82808698Y-103492012D01*
X83197244Y-103652953D01*
X83609721Y-103735000D01*
X84030279Y-103735000D01*
X84442756Y-103652953D01*
X84831302Y-103492012D01*
X85180983Y-103258363D01*
X85478363Y-102960983D01*
X85712012Y-102611302D01*
X85872953Y-102222756D01*
X85955000Y-101810279D01*
X85955000Y-101389721D01*
X86765000Y-101389721D01*
X86765000Y-101810279D01*
X86847047Y-102222756D01*
X87007988Y-102611302D01*
X87241637Y-102960983D01*
X87539017Y-103258363D01*
X87888698Y-103492012D01*
X88277244Y-103652953D01*
X88689721Y-103735000D01*
X89110279Y-103735000D01*
X89522756Y-103652953D01*
X89911302Y-103492012D01*
X90260983Y-103258363D01*
X90427693Y-103091653D01*
X92667952Y-103091653D01*
X92823962Y-103407214D01*
X93198745Y-103598020D01*
X93603551Y-103712044D01*
X94022824Y-103744902D01*
X94440451Y-103695334D01*
X94840383Y-103565243D01*
X95136038Y-103407214D01*
X95292048Y-103091653D01*
X93980000Y-101779605D01*
X92667952Y-103091653D01*
X90427693Y-103091653D01*
X90558363Y-102960983D01*
X90792012Y-102611302D01*
X90952953Y-102222756D01*
X91035000Y-101810279D01*
X91035000Y-101642824D01*
X91835098Y-101642824D01*
X91884666Y-102060451D01*
X92014757Y-102460383D01*
X92172786Y-102756038D01*
X92488347Y-102912048D01*
X93800395Y-101600000D01*
X94159605Y-101600000D01*
X95471653Y-102912048D01*
X95787214Y-102756038D01*
X95978020Y-102381255D01*
X96092044Y-101976449D01*
X96124902Y-101557176D01*
X96105027Y-101389721D01*
X96925000Y-101389721D01*
X96925000Y-101810279D01*
X97007047Y-102222756D01*
X97167988Y-102611302D01*
X97401637Y-102960983D01*
X97699017Y-103258363D01*
X98048698Y-103492012D01*
X98437244Y-103652953D01*
X98849721Y-103735000D01*
X99270279Y-103735000D01*
X99682756Y-103652953D01*
X100071302Y-103492012D01*
X100420983Y-103258363D01*
X100718363Y-102960983D01*
X100952012Y-102611302D01*
X101112953Y-102222756D01*
X101195000Y-101810279D01*
X101195000Y-101389721D01*
X102005000Y-101389721D01*
X102005000Y-101810279D01*
X102087047Y-102222756D01*
X102247988Y-102611302D01*
X102481637Y-102960983D01*
X102779017Y-103258363D01*
X103128698Y-103492012D01*
X103517244Y-103652953D01*
X103929721Y-103735000D01*
X104350279Y-103735000D01*
X104762756Y-103652953D01*
X105151302Y-103492012D01*
X105500983Y-103258363D01*
X105798363Y-102960983D01*
X106032012Y-102611302D01*
X106192953Y-102222756D01*
X106275000Y-101810279D01*
X106275000Y-101389721D01*
X106273041Y-101379872D01*
X124765000Y-101379872D01*
X124765000Y-101820128D01*
X124850890Y-102251925D01*
X125019369Y-102658669D01*
X125263962Y-103024729D01*
X125575271Y-103336038D01*
X125941331Y-103580631D01*
X126348075Y-103749110D01*
X126779872Y-103835000D01*
X127220128Y-103835000D01*
X127651925Y-103749110D01*
X128058669Y-103580631D01*
X128424729Y-103336038D01*
X128736038Y-103024729D01*
X128980631Y-102658669D01*
X129149110Y-102251925D01*
X129235000Y-101820128D01*
X129235000Y-101379872D01*
X129149110Y-100948075D01*
X128980631Y-100541331D01*
X128736038Y-100175271D01*
X128424729Y-99863962D01*
X128058669Y-99619369D01*
X127651925Y-99450890D01*
X127220128Y-99365000D01*
X126779872Y-99365000D01*
X126348075Y-99450890D01*
X125941331Y-99619369D01*
X125575271Y-99863962D01*
X125263962Y-100175271D01*
X125019369Y-100541331D01*
X124850890Y-100948075D01*
X124765000Y-101379872D01*
X106273041Y-101379872D01*
X106192953Y-100977244D01*
X106032012Y-100588698D01*
X105798363Y-100239017D01*
X105500983Y-99941637D01*
X105151302Y-99707988D01*
X104762756Y-99547047D01*
X104350279Y-99465000D01*
X103929721Y-99465000D01*
X103517244Y-99547047D01*
X103128698Y-99707988D01*
X102779017Y-99941637D01*
X102481637Y-100239017D01*
X102247988Y-100588698D01*
X102087047Y-100977244D01*
X102005000Y-101389721D01*
X101195000Y-101389721D01*
X101112953Y-100977244D01*
X100952012Y-100588698D01*
X100718363Y-100239017D01*
X100420983Y-99941637D01*
X100071302Y-99707988D01*
X99682756Y-99547047D01*
X99270279Y-99465000D01*
X98849721Y-99465000D01*
X98437244Y-99547047D01*
X98048698Y-99707988D01*
X97699017Y-99941637D01*
X97401637Y-100239017D01*
X97167988Y-100588698D01*
X97007047Y-100977244D01*
X96925000Y-101389721D01*
X96105027Y-101389721D01*
X96075334Y-101139549D01*
X95945243Y-100739617D01*
X95787214Y-100443962D01*
X95471653Y-100287952D01*
X94159605Y-101600000D01*
X93800395Y-101600000D01*
X92488347Y-100287952D01*
X92172786Y-100443962D01*
X91981980Y-100818745D01*
X91867956Y-101223551D01*
X91835098Y-101642824D01*
X91035000Y-101642824D01*
X91035000Y-101389721D01*
X90952953Y-100977244D01*
X90792012Y-100588698D01*
X90558363Y-100239017D01*
X90427693Y-100108347D01*
X92667952Y-100108347D01*
X93980000Y-101420395D01*
X95292048Y-100108347D01*
X95136038Y-99792786D01*
X94761255Y-99601980D01*
X94356449Y-99487956D01*
X93937176Y-99455098D01*
X93519549Y-99504666D01*
X93119617Y-99634757D01*
X92823962Y-99792786D01*
X92667952Y-100108347D01*
X90427693Y-100108347D01*
X90260983Y-99941637D01*
X89911302Y-99707988D01*
X89522756Y-99547047D01*
X89110279Y-99465000D01*
X88689721Y-99465000D01*
X88277244Y-99547047D01*
X87888698Y-99707988D01*
X87539017Y-99941637D01*
X87241637Y-100239017D01*
X87007988Y-100588698D01*
X86847047Y-100977244D01*
X86765000Y-101389721D01*
X85955000Y-101389721D01*
X85872953Y-100977244D01*
X85712012Y-100588698D01*
X85478363Y-100239017D01*
X85180983Y-99941637D01*
X84831302Y-99707988D01*
X84442756Y-99547047D01*
X84030279Y-99465000D01*
X83609721Y-99465000D01*
X83197244Y-99547047D01*
X82808698Y-99707988D01*
X82459017Y-99941637D01*
X82161637Y-100239017D01*
X81927988Y-100588698D01*
X81767047Y-100977244D01*
X81685000Y-101389721D01*
X78435000Y-101389721D01*
X78435000Y-101379872D01*
X78349110Y-100948075D01*
X78180631Y-100541331D01*
X77936038Y-100175271D01*
X77624729Y-99863962D01*
X77258669Y-99619369D01*
X76851925Y-99450890D01*
X76420128Y-99365000D01*
X75979872Y-99365000D01*
X75548075Y-99450890D01*
X75141331Y-99619369D01*
X74775271Y-99863962D01*
X74463962Y-100175271D01*
X74219369Y-100541331D01*
X74050890Y-100948075D01*
X73965000Y-101379872D01*
X71780000Y-101379872D01*
X71780000Y-94362952D01*
X72929750Y-94361000D01*
X73088500Y-94202250D01*
X73088500Y-92519500D01*
X73342500Y-92519500D01*
X73342500Y-94202250D01*
X73501250Y-94361000D01*
X75311000Y-94364072D01*
X75435482Y-94351812D01*
X75555180Y-94315502D01*
X75665494Y-94256537D01*
X75762185Y-94177185D01*
X75841537Y-94080494D01*
X75900502Y-93970180D01*
X75936812Y-93850482D01*
X75949072Y-93726000D01*
X75946000Y-92678250D01*
X75787250Y-92519500D01*
X73342500Y-92519500D01*
X73088500Y-92519500D01*
X73068500Y-92519500D01*
X73068500Y-92265500D01*
X73088500Y-92265500D01*
X73088500Y-90582750D01*
X73342500Y-90582750D01*
X73342500Y-92265500D01*
X75787250Y-92265500D01*
X75946000Y-92106750D01*
X75949072Y-91059000D01*
X75936812Y-90934518D01*
X75900502Y-90814820D01*
X75841537Y-90704506D01*
X75762185Y-90607815D01*
X75665494Y-90528463D01*
X75555180Y-90469498D01*
X75435482Y-90433188D01*
X75311000Y-90420928D01*
X73501250Y-90424000D01*
X73342500Y-90582750D01*
X73088500Y-90582750D01*
X72929750Y-90424000D01*
X71780000Y-90422048D01*
X71780000Y-87377952D01*
X72929750Y-87376000D01*
X73088500Y-87217250D01*
X73088500Y-85534500D01*
X73342500Y-85534500D01*
X73342500Y-87217250D01*
X73501250Y-87376000D01*
X75311000Y-87379072D01*
X75435482Y-87366812D01*
X75555180Y-87330502D01*
X75665494Y-87271537D01*
X75762185Y-87192185D01*
X75841537Y-87095494D01*
X75900502Y-86985180D01*
X75936812Y-86865482D01*
X75949072Y-86741000D01*
X75946000Y-85693250D01*
X75787250Y-85534500D01*
X73342500Y-85534500D01*
X73088500Y-85534500D01*
X73068500Y-85534500D01*
X73068500Y-85280500D01*
X73088500Y-85280500D01*
X73088500Y-83597750D01*
X73342500Y-83597750D01*
X73342500Y-85280500D01*
X75787250Y-85280500D01*
X75946000Y-85121750D01*
X75949072Y-84074000D01*
X75936812Y-83949518D01*
X75900502Y-83829820D01*
X75841537Y-83719506D01*
X75840352Y-83718061D01*
X91675000Y-83718061D01*
X91675000Y-83921939D01*
X91694000Y-84017459D01*
X91694001Y-97592536D01*
X91675000Y-97688061D01*
X91675000Y-97891939D01*
X91714774Y-98091898D01*
X91792795Y-98280256D01*
X91906063Y-98449774D01*
X92050226Y-98593937D01*
X92219744Y-98707205D01*
X92408102Y-98785226D01*
X92608061Y-98825000D01*
X92811939Y-98825000D01*
X93011898Y-98785226D01*
X93200256Y-98707205D01*
X93369774Y-98593937D01*
X93513937Y-98449774D01*
X93627205Y-98280256D01*
X93705226Y-98091898D01*
X93745000Y-97891939D01*
X93745000Y-97688061D01*
X93726000Y-97592541D01*
X93726000Y-88812840D01*
X94496292Y-89583133D01*
X94528104Y-89621896D01*
X94682810Y-89748860D01*
X94859313Y-89843202D01*
X95050829Y-89901298D01*
X95200098Y-89916000D01*
X95200105Y-89916000D01*
X95249999Y-89920914D01*
X95299893Y-89916000D01*
X95627595Y-89916000D01*
X95500393Y-90020392D01*
X95321068Y-90238899D01*
X95187818Y-90488192D01*
X95105764Y-90758691D01*
X95085000Y-90969508D01*
X95085000Y-91910491D01*
X95105764Y-92121308D01*
X95187818Y-92391807D01*
X95321068Y-92641100D01*
X95500392Y-92859607D01*
X95718899Y-93038932D01*
X95968192Y-93172182D01*
X96238691Y-93254236D01*
X96520000Y-93281943D01*
X96801308Y-93254236D01*
X97071807Y-93172182D01*
X97321100Y-93038932D01*
X97539607Y-92859608D01*
X97718932Y-92641101D01*
X97790000Y-92508142D01*
X97861068Y-92641100D01*
X98040392Y-92859607D01*
X98044001Y-92862568D01*
X98044001Y-93930089D01*
X98039085Y-93980000D01*
X98058702Y-94179170D01*
X98100059Y-94315502D01*
X98116799Y-94370687D01*
X98211141Y-94547190D01*
X98338105Y-94701896D01*
X98376868Y-94733708D01*
X100846292Y-97203133D01*
X100878104Y-97241896D01*
X101032810Y-97368860D01*
X101209313Y-97463202D01*
X101342732Y-97503674D01*
X101400828Y-97521298D01*
X101420177Y-97523204D01*
X101550098Y-97536000D01*
X101550105Y-97536000D01*
X101599999Y-97540914D01*
X101649893Y-97536000D01*
X109170098Y-97536000D01*
X109220000Y-97540915D01*
X109269902Y-97536000D01*
X109419171Y-97521298D01*
X109610687Y-97463202D01*
X109787190Y-97368860D01*
X109941896Y-97241896D01*
X109973712Y-97203128D01*
X112443133Y-94733708D01*
X112481896Y-94701896D01*
X112608860Y-94547190D01*
X112703202Y-94370687D01*
X112761298Y-94179171D01*
X112776000Y-94029902D01*
X112776000Y-94029895D01*
X112780914Y-93980001D01*
X112776000Y-93930107D01*
X112776000Y-93726000D01*
X127250928Y-93726000D01*
X127263188Y-93850482D01*
X127299498Y-93970180D01*
X127358463Y-94080494D01*
X127437815Y-94177185D01*
X127534506Y-94256537D01*
X127644820Y-94315502D01*
X127764518Y-94351812D01*
X127889000Y-94364072D01*
X129698750Y-94361000D01*
X129857500Y-94202250D01*
X129857500Y-92519500D01*
X127412750Y-92519500D01*
X127254000Y-92678250D01*
X127250928Y-93726000D01*
X112776000Y-93726000D01*
X112776000Y-92456000D01*
X113399741Y-92456000D01*
X113436238Y-92492497D01*
X113658167Y-92640785D01*
X113904761Y-92742928D01*
X114166544Y-92795000D01*
X114433456Y-92795000D01*
X114695239Y-92742928D01*
X114941833Y-92640785D01*
X115163762Y-92492497D01*
X115352497Y-92303762D01*
X115500785Y-92081833D01*
X115570000Y-91914734D01*
X115639215Y-92081833D01*
X115787503Y-92303762D01*
X115976238Y-92492497D01*
X116198167Y-92640785D01*
X116444761Y-92742928D01*
X116706544Y-92795000D01*
X116973456Y-92795000D01*
X117235239Y-92742928D01*
X117481833Y-92640785D01*
X117703762Y-92492497D01*
X117892497Y-92303762D01*
X118040785Y-92081833D01*
X118142928Y-91835239D01*
X118195000Y-91573456D01*
X118195000Y-91306544D01*
X118145761Y-91059000D01*
X127250928Y-91059000D01*
X127254000Y-92106750D01*
X127412750Y-92265500D01*
X129857500Y-92265500D01*
X129857500Y-90582750D01*
X129698750Y-90424000D01*
X127889000Y-90420928D01*
X127764518Y-90433188D01*
X127644820Y-90469498D01*
X127534506Y-90528463D01*
X127437815Y-90607815D01*
X127358463Y-90704506D01*
X127299498Y-90814820D01*
X127263188Y-90934518D01*
X127250928Y-91059000D01*
X118145761Y-91059000D01*
X118142928Y-91044761D01*
X118040785Y-90798167D01*
X117892497Y-90576238D01*
X117856000Y-90539741D01*
X117856000Y-90219902D01*
X117860915Y-90170000D01*
X117841298Y-89970829D01*
X117783202Y-89779313D01*
X117688860Y-89602810D01*
X117593706Y-89486865D01*
X117561896Y-89448104D01*
X117523133Y-89416292D01*
X114847841Y-86741000D01*
X127250928Y-86741000D01*
X127263188Y-86865482D01*
X127299498Y-86985180D01*
X127358463Y-87095494D01*
X127437815Y-87192185D01*
X127534506Y-87271537D01*
X127644820Y-87330502D01*
X127764518Y-87366812D01*
X127889000Y-87379072D01*
X129698750Y-87376000D01*
X129857500Y-87217250D01*
X129857500Y-85534500D01*
X127412750Y-85534500D01*
X127254000Y-85693250D01*
X127250928Y-86741000D01*
X114847841Y-86741000D01*
X113783712Y-85676872D01*
X113766000Y-85655290D01*
X113766000Y-85082779D01*
X113777962Y-85072962D01*
X113888405Y-84938386D01*
X113970472Y-84784850D01*
X113997727Y-84695000D01*
X114561928Y-84695000D01*
X114574188Y-84819482D01*
X114610498Y-84939180D01*
X114669463Y-85049494D01*
X114748815Y-85146185D01*
X114845506Y-85225537D01*
X114955820Y-85284502D01*
X115075518Y-85320812D01*
X115200000Y-85333072D01*
X115564250Y-85330000D01*
X115723000Y-85171250D01*
X115723000Y-83947000D01*
X115977000Y-83947000D01*
X115977000Y-85171250D01*
X116135750Y-85330000D01*
X116500000Y-85333072D01*
X116624482Y-85320812D01*
X116744180Y-85284502D01*
X116854494Y-85225537D01*
X116951185Y-85146185D01*
X117030537Y-85049494D01*
X117089502Y-84939180D01*
X117125812Y-84819482D01*
X117138072Y-84695000D01*
X117135000Y-84105750D01*
X117103250Y-84074000D01*
X127250928Y-84074000D01*
X127254000Y-85121750D01*
X127412750Y-85280500D01*
X129857500Y-85280500D01*
X129857500Y-83597750D01*
X129698750Y-83439000D01*
X127889000Y-83435928D01*
X127764518Y-83448188D01*
X127644820Y-83484498D01*
X127534506Y-83543463D01*
X127437815Y-83622815D01*
X127358463Y-83719506D01*
X127299498Y-83829820D01*
X127263188Y-83949518D01*
X127250928Y-84074000D01*
X117103250Y-84074000D01*
X116976250Y-83947000D01*
X115977000Y-83947000D01*
X115723000Y-83947000D01*
X114723750Y-83947000D01*
X114565000Y-84105750D01*
X114561928Y-84695000D01*
X113997727Y-84695000D01*
X114021008Y-84618254D01*
X114038072Y-84445000D01*
X114038072Y-83195000D01*
X114021008Y-83021746D01*
X113997728Y-82945000D01*
X114561928Y-82945000D01*
X114565000Y-83534250D01*
X114723750Y-83693000D01*
X115723000Y-83693000D01*
X115723000Y-82468750D01*
X115977000Y-82468750D01*
X115977000Y-83693000D01*
X116976250Y-83693000D01*
X117135000Y-83534250D01*
X117138072Y-82945000D01*
X117125812Y-82820518D01*
X117089502Y-82700820D01*
X117030537Y-82590506D01*
X116951185Y-82493815D01*
X116854494Y-82414463D01*
X116744180Y-82355498D01*
X116624482Y-82319188D01*
X116500000Y-82306928D01*
X116135750Y-82310000D01*
X115977000Y-82468750D01*
X115723000Y-82468750D01*
X115564250Y-82310000D01*
X115200000Y-82306928D01*
X115075518Y-82319188D01*
X114955820Y-82355498D01*
X114845506Y-82414463D01*
X114748815Y-82493815D01*
X114669463Y-82590506D01*
X114610498Y-82700820D01*
X114574188Y-82820518D01*
X114561928Y-82945000D01*
X113997728Y-82945000D01*
X113970472Y-82855150D01*
X113888405Y-82701614D01*
X113777962Y-82567038D01*
X113643386Y-82456595D01*
X113489850Y-82374528D01*
X113323254Y-82323992D01*
X113150000Y-82306928D01*
X112350000Y-82306928D01*
X112176746Y-82323992D01*
X112010150Y-82374528D01*
X111856614Y-82456595D01*
X111722038Y-82567038D01*
X111611595Y-82701614D01*
X111529528Y-82855150D01*
X111478992Y-83021746D01*
X111461928Y-83195000D01*
X111461928Y-84445000D01*
X111478992Y-84618254D01*
X111529528Y-84784850D01*
X111611595Y-84938386D01*
X111722038Y-85072962D01*
X111734001Y-85082779D01*
X111734001Y-85344000D01*
X105486837Y-85344000D01*
X105529502Y-85264180D01*
X105565812Y-85144482D01*
X105578072Y-85020000D01*
X105578072Y-82620000D01*
X105565812Y-82495518D01*
X105529502Y-82375820D01*
X105470537Y-82265506D01*
X105391185Y-82168815D01*
X105294494Y-82089463D01*
X105184180Y-82030498D01*
X105064482Y-81994188D01*
X104940000Y-81981928D01*
X103340000Y-81981928D01*
X103215518Y-81994188D01*
X103095820Y-82030498D01*
X102985506Y-82089463D01*
X102888815Y-82168815D01*
X102809463Y-82265506D01*
X102750498Y-82375820D01*
X102714188Y-82495518D01*
X102712419Y-82513482D01*
X102619608Y-82400392D01*
X102401101Y-82221068D01*
X102151808Y-82087818D01*
X101881309Y-82005764D01*
X101600000Y-81978057D01*
X101318692Y-82005764D01*
X101048193Y-82087818D01*
X100798900Y-82221068D01*
X100580393Y-82400392D01*
X100401068Y-82618899D01*
X100330000Y-82751858D01*
X100258932Y-82618899D01*
X100079608Y-82400392D01*
X99861101Y-82221068D01*
X99611808Y-82087818D01*
X99341309Y-82005764D01*
X99060000Y-81978057D01*
X98778692Y-82005764D01*
X98508193Y-82087818D01*
X98258900Y-82221068D01*
X98040393Y-82400392D01*
X97861068Y-82618899D01*
X97790000Y-82751858D01*
X97718932Y-82618899D01*
X97539608Y-82400392D01*
X97536000Y-82397431D01*
X97536000Y-81700840D01*
X98210841Y-81026000D01*
X102820098Y-81026000D01*
X102870000Y-81030915D01*
X102919902Y-81026000D01*
X103069171Y-81011298D01*
X103260687Y-80953202D01*
X103437190Y-80858860D01*
X103591896Y-80731896D01*
X103623712Y-80693128D01*
X104823133Y-79493708D01*
X104861896Y-79461896D01*
X104988860Y-79307190D01*
X105083202Y-79130687D01*
X105141298Y-78939171D01*
X105156000Y-78789902D01*
X105156000Y-78789895D01*
X105160914Y-78740001D01*
X105156000Y-78690107D01*
X105156000Y-77543124D01*
X105209345Y-77499345D01*
X105397417Y-77270179D01*
X105426376Y-77216000D01*
X107708505Y-77216000D01*
X107776595Y-77343387D01*
X107887038Y-77477962D01*
X108021613Y-77588405D01*
X108175149Y-77670472D01*
X108341745Y-77721008D01*
X108514999Y-77738072D01*
X109340001Y-77738072D01*
X109513255Y-77721008D01*
X109679851Y-77670472D01*
X109833387Y-77588405D01*
X109967962Y-77477962D01*
X110078405Y-77343387D01*
X110160472Y-77189851D01*
X110187727Y-77100000D01*
X110751928Y-77100000D01*
X110764188Y-77224482D01*
X110800498Y-77344180D01*
X110859463Y-77454494D01*
X110938815Y-77551185D01*
X111035506Y-77630537D01*
X111145820Y-77689502D01*
X111265518Y-77725812D01*
X111390000Y-77738072D01*
X111766750Y-77735000D01*
X111925500Y-77576250D01*
X111925500Y-76327000D01*
X112179500Y-76327000D01*
X112179500Y-77576250D01*
X112338250Y-77735000D01*
X112715000Y-77738072D01*
X112839482Y-77725812D01*
X112959180Y-77689502D01*
X113069494Y-77630537D01*
X113166185Y-77551185D01*
X113245537Y-77454494D01*
X113304502Y-77344180D01*
X113340812Y-77224482D01*
X113353072Y-77100000D01*
X113350000Y-76485750D01*
X113191250Y-76327000D01*
X112179500Y-76327000D01*
X111925500Y-76327000D01*
X110913750Y-76327000D01*
X110755000Y-76485750D01*
X110751928Y-77100000D01*
X110187727Y-77100000D01*
X110211008Y-77023255D01*
X110228072Y-76850001D01*
X110228072Y-75549999D01*
X110211008Y-75376745D01*
X110187728Y-75300000D01*
X110751928Y-75300000D01*
X110755000Y-75914250D01*
X110913750Y-76073000D01*
X111925500Y-76073000D01*
X111925500Y-74823750D01*
X112179500Y-74823750D01*
X112179500Y-76073000D01*
X113191250Y-76073000D01*
X113284378Y-75979872D01*
X124765000Y-75979872D01*
X124765000Y-76420128D01*
X124850890Y-76851925D01*
X125019369Y-77258669D01*
X125263962Y-77624729D01*
X125575271Y-77936038D01*
X125941331Y-78180631D01*
X126348075Y-78349110D01*
X126779872Y-78435000D01*
X127220128Y-78435000D01*
X127651925Y-78349110D01*
X128058669Y-78180631D01*
X128424729Y-77936038D01*
X128736038Y-77624729D01*
X128980631Y-77258669D01*
X129149110Y-76851925D01*
X129235000Y-76420128D01*
X129235000Y-75979872D01*
X129149110Y-75548075D01*
X128980631Y-75141331D01*
X128736038Y-74775271D01*
X128424729Y-74463962D01*
X128058669Y-74219369D01*
X127651925Y-74050890D01*
X127220128Y-73965000D01*
X126779872Y-73965000D01*
X126348075Y-74050890D01*
X125941331Y-74219369D01*
X125575271Y-74463962D01*
X125263962Y-74775271D01*
X125019369Y-75141331D01*
X124850890Y-75548075D01*
X124765000Y-75979872D01*
X113284378Y-75979872D01*
X113350000Y-75914250D01*
X113353072Y-75300000D01*
X113340812Y-75175518D01*
X113304502Y-75055820D01*
X113245537Y-74945506D01*
X113166185Y-74848815D01*
X113069494Y-74769463D01*
X112959180Y-74710498D01*
X112839482Y-74674188D01*
X112715000Y-74661928D01*
X112338250Y-74665000D01*
X112179500Y-74823750D01*
X111925500Y-74823750D01*
X111766750Y-74665000D01*
X111390000Y-74661928D01*
X111265518Y-74674188D01*
X111145820Y-74710498D01*
X111035506Y-74769463D01*
X110938815Y-74848815D01*
X110859463Y-74945506D01*
X110800498Y-75055820D01*
X110764188Y-75175518D01*
X110751928Y-75300000D01*
X110187728Y-75300000D01*
X110160472Y-75210149D01*
X110078405Y-75056613D01*
X109967962Y-74922038D01*
X109833387Y-74811595D01*
X109679851Y-74729528D01*
X109513255Y-74678992D01*
X109340001Y-74661928D01*
X108514999Y-74661928D01*
X108341745Y-74678992D01*
X108175149Y-74729528D01*
X108021613Y-74811595D01*
X107887038Y-74922038D01*
X107776595Y-75056613D01*
X107708505Y-75184000D01*
X105426376Y-75184000D01*
X105397417Y-75129821D01*
X105209345Y-74900655D01*
X104980178Y-74712583D01*
X104718724Y-74572834D01*
X104435031Y-74486776D01*
X104140000Y-74457718D01*
X103844968Y-74486776D01*
X103561275Y-74572834D01*
X103299821Y-74712583D01*
X103070655Y-74900655D01*
X102882583Y-75129822D01*
X102867698Y-75157669D01*
X102778256Y-75021097D01*
X102570494Y-74809464D01*
X102325437Y-74642429D01*
X102052502Y-74526412D01*
X101960031Y-74508698D01*
X101727000Y-74629754D01*
X101727000Y-76073000D01*
X101747000Y-76073000D01*
X101747000Y-76327000D01*
X101727000Y-76327000D01*
X101727000Y-77770246D01*
X101960031Y-77891302D01*
X102052502Y-77873588D01*
X102325437Y-77757571D01*
X102570494Y-77590536D01*
X102778256Y-77378903D01*
X102867698Y-77242331D01*
X102882583Y-77270179D01*
X103070655Y-77499345D01*
X103124001Y-77543124D01*
X103124001Y-78319158D01*
X102449160Y-78994000D01*
X97839893Y-78994000D01*
X97789999Y-78989086D01*
X97740105Y-78994000D01*
X97740098Y-78994000D01*
X97698770Y-78998071D01*
X98758769Y-77938072D01*
X99680001Y-77938072D01*
X99853255Y-77921008D01*
X100019851Y-77870472D01*
X100173387Y-77788405D01*
X100307962Y-77677962D01*
X100418405Y-77543387D01*
X100476507Y-77434686D01*
X100629506Y-77590536D01*
X100874563Y-77757571D01*
X101147498Y-77873588D01*
X101239969Y-77891302D01*
X101473000Y-77770246D01*
X101473000Y-76327000D01*
X101453000Y-76327000D01*
X101453000Y-76073000D01*
X101473000Y-76073000D01*
X101473000Y-74629754D01*
X101239969Y-74508698D01*
X101147498Y-74526412D01*
X100874563Y-74642429D01*
X100629506Y-74809464D01*
X100476507Y-74965314D01*
X100418405Y-74856613D01*
X100307962Y-74722038D01*
X100173387Y-74611595D01*
X100019851Y-74529528D01*
X99853255Y-74478992D01*
X99680001Y-74461928D01*
X98439999Y-74461928D01*
X98266745Y-74478992D01*
X98100149Y-74529528D01*
X97946613Y-74611595D01*
X97812038Y-74722038D01*
X97701595Y-74856613D01*
X97619528Y-75010149D01*
X97568992Y-75176745D01*
X97568277Y-75184000D01*
X95491495Y-75184000D01*
X95423405Y-75056613D01*
X95312962Y-74922038D01*
X95178387Y-74811595D01*
X95024851Y-74729528D01*
X94858255Y-74678992D01*
X94685001Y-74661928D01*
X93859999Y-74661928D01*
X93686745Y-74678992D01*
X93520149Y-74729528D01*
X93366613Y-74811595D01*
X93232038Y-74922038D01*
X93121595Y-75056613D01*
X93039528Y-75210149D01*
X92988992Y-75376745D01*
X92971928Y-75549999D01*
X92971928Y-76850001D01*
X92988992Y-77023255D01*
X93039528Y-77189851D01*
X93121595Y-77343387D01*
X93232038Y-77477962D01*
X93366613Y-77588405D01*
X93520149Y-77670472D01*
X93686745Y-77721008D01*
X93859999Y-77738072D01*
X94685001Y-77738072D01*
X94858255Y-77721008D01*
X95024851Y-77670472D01*
X95178387Y-77588405D01*
X95312962Y-77477962D01*
X95423405Y-77343387D01*
X95491495Y-77216000D01*
X96607159Y-77216000D01*
X93296872Y-80526288D01*
X93258104Y-80558104D01*
X93131140Y-80712810D01*
X93036798Y-80889314D01*
X92995335Y-81026000D01*
X92978702Y-81080830D01*
X92959085Y-81280000D01*
X92964000Y-81329902D01*
X92964000Y-82815247D01*
X92811939Y-82785000D01*
X92608061Y-82785000D01*
X92408102Y-82824774D01*
X92219744Y-82902795D01*
X92050226Y-83016063D01*
X91906063Y-83160226D01*
X91792795Y-83329744D01*
X91714774Y-83518102D01*
X91675000Y-83718061D01*
X75840352Y-83718061D01*
X75762185Y-83622815D01*
X75665494Y-83543463D01*
X75555180Y-83484498D01*
X75435482Y-83448188D01*
X75311000Y-83435928D01*
X73501250Y-83439000D01*
X73342500Y-83597750D01*
X73088500Y-83597750D01*
X72929750Y-83439000D01*
X71780000Y-83437048D01*
X71780000Y-76229392D01*
X71802269Y-75979872D01*
X73965000Y-75979872D01*
X73965000Y-76420128D01*
X74050890Y-76851925D01*
X74219369Y-77258669D01*
X74463962Y-77624729D01*
X74775271Y-77936038D01*
X75141331Y-78180631D01*
X75548075Y-78349110D01*
X75979872Y-78435000D01*
X76420128Y-78435000D01*
X76851925Y-78349110D01*
X77258669Y-78180631D01*
X77624729Y-77936038D01*
X77936038Y-77624729D01*
X78180631Y-77258669D01*
X78246353Y-77100000D01*
X89846928Y-77100000D01*
X89859188Y-77224482D01*
X89895498Y-77344180D01*
X89954463Y-77454494D01*
X90033815Y-77551185D01*
X90130506Y-77630537D01*
X90240820Y-77689502D01*
X90360518Y-77725812D01*
X90485000Y-77738072D01*
X90861750Y-77735000D01*
X91020500Y-77576250D01*
X91020500Y-76327000D01*
X91274500Y-76327000D01*
X91274500Y-77576250D01*
X91433250Y-77735000D01*
X91810000Y-77738072D01*
X91934482Y-77725812D01*
X92054180Y-77689502D01*
X92164494Y-77630537D01*
X92261185Y-77551185D01*
X92340537Y-77454494D01*
X92399502Y-77344180D01*
X92435812Y-77224482D01*
X92448072Y-77100000D01*
X92445000Y-76485750D01*
X92286250Y-76327000D01*
X91274500Y-76327000D01*
X91020500Y-76327000D01*
X90008750Y-76327000D01*
X89850000Y-76485750D01*
X89846928Y-77100000D01*
X78246353Y-77100000D01*
X78349110Y-76851925D01*
X78435000Y-76420128D01*
X78435000Y-75979872D01*
X78349110Y-75548075D01*
X78246354Y-75300000D01*
X89846928Y-75300000D01*
X89850000Y-75914250D01*
X90008750Y-76073000D01*
X91020500Y-76073000D01*
X91020500Y-74823750D01*
X91274500Y-74823750D01*
X91274500Y-76073000D01*
X92286250Y-76073000D01*
X92445000Y-75914250D01*
X92448072Y-75300000D01*
X92435812Y-75175518D01*
X92399502Y-75055820D01*
X92340537Y-74945506D01*
X92261185Y-74848815D01*
X92164494Y-74769463D01*
X92054180Y-74710498D01*
X91934482Y-74674188D01*
X91810000Y-74661928D01*
X91433250Y-74665000D01*
X91274500Y-74823750D01*
X91020500Y-74823750D01*
X90861750Y-74665000D01*
X90485000Y-74661928D01*
X90360518Y-74674188D01*
X90240820Y-74710498D01*
X90130506Y-74769463D01*
X90033815Y-74848815D01*
X89954463Y-74945506D01*
X89895498Y-75055820D01*
X89859188Y-75175518D01*
X89846928Y-75300000D01*
X78246354Y-75300000D01*
X78180631Y-75141331D01*
X77936038Y-74775271D01*
X77624729Y-74463962D01*
X77258669Y-74219369D01*
X76851925Y-74050890D01*
X76420128Y-73965000D01*
X75979872Y-73965000D01*
X75548075Y-74050890D01*
X75141331Y-74219369D01*
X74775271Y-74463962D01*
X74463962Y-74775271D01*
X74219369Y-75141331D01*
X74050890Y-75548075D01*
X73965000Y-75979872D01*
X71802269Y-75979872D01*
X71852437Y-75417751D01*
X72059672Y-74660226D01*
X72397777Y-73951375D01*
X72856067Y-73313596D01*
X73420055Y-72767054D01*
X74071913Y-72329023D01*
X74791038Y-72013349D01*
X75559768Y-71828794D01*
X76224207Y-71780000D01*
X126970608Y-71780000D01*
X127782249Y-71852437D01*
G04 #@! TA.AperFunction,Conductor*
D20*
G36*
X127782249Y-71852437D02*
G01*
X128539774Y-72059672D01*
X129248625Y-72397777D01*
X129886404Y-72856067D01*
X130432946Y-73420055D01*
X130870977Y-74071913D01*
X131186651Y-74791038D01*
X131371206Y-75559768D01*
X131420001Y-76224221D01*
X131420001Y-83437048D01*
X130270250Y-83439000D01*
X130111500Y-83597750D01*
X130111500Y-85280500D01*
X130131500Y-85280500D01*
X130131500Y-85534500D01*
X130111500Y-85534500D01*
X130111500Y-87217250D01*
X130270250Y-87376000D01*
X131420001Y-87377952D01*
X131420000Y-90422048D01*
X130270250Y-90424000D01*
X130111500Y-90582750D01*
X130111500Y-92265500D01*
X130131500Y-92265500D01*
X130131500Y-92519500D01*
X130111500Y-92519500D01*
X130111500Y-94202250D01*
X130270250Y-94361000D01*
X131420000Y-94362952D01*
X131420000Y-101570608D01*
X131347563Y-102382249D01*
X131140328Y-103139774D01*
X130802221Y-103848627D01*
X130343928Y-104486410D01*
X129779945Y-105032946D01*
X129128085Y-105470978D01*
X128408963Y-105786651D01*
X127640232Y-105971206D01*
X126975792Y-106020000D01*
X76229392Y-106020000D01*
X75417751Y-105947563D01*
X74660226Y-105740328D01*
X73951373Y-105402221D01*
X73313590Y-104943928D01*
X72767054Y-104379945D01*
X72329022Y-103728085D01*
X72013349Y-103008963D01*
X71828794Y-102240232D01*
X71780000Y-101575792D01*
X71780000Y-101379872D01*
X73965000Y-101379872D01*
X73965000Y-101820128D01*
X74050890Y-102251925D01*
X74219369Y-102658669D01*
X74463962Y-103024729D01*
X74775271Y-103336038D01*
X75141331Y-103580631D01*
X75548075Y-103749110D01*
X75979872Y-103835000D01*
X76420128Y-103835000D01*
X76851925Y-103749110D01*
X77258669Y-103580631D01*
X77624729Y-103336038D01*
X77936038Y-103024729D01*
X78180631Y-102658669D01*
X78349110Y-102251925D01*
X78435000Y-101820128D01*
X78435000Y-101389721D01*
X81685000Y-101389721D01*
X81685000Y-101810279D01*
X81767047Y-102222756D01*
X81927988Y-102611302D01*
X82161637Y-102960983D01*
X82459017Y-103258363D01*
X82808698Y-103492012D01*
X83197244Y-103652953D01*
X83609721Y-103735000D01*
X84030279Y-103735000D01*
X84442756Y-103652953D01*
X84831302Y-103492012D01*
X85180983Y-103258363D01*
X85478363Y-102960983D01*
X85712012Y-102611302D01*
X85872953Y-102222756D01*
X85955000Y-101810279D01*
X85955000Y-101389721D01*
X86765000Y-101389721D01*
X86765000Y-101810279D01*
X86847047Y-102222756D01*
X87007988Y-102611302D01*
X87241637Y-102960983D01*
X87539017Y-103258363D01*
X87888698Y-103492012D01*
X88277244Y-103652953D01*
X88689721Y-103735000D01*
X89110279Y-103735000D01*
X89522756Y-103652953D01*
X89911302Y-103492012D01*
X90260983Y-103258363D01*
X90427693Y-103091653D01*
X92667952Y-103091653D01*
X92823962Y-103407214D01*
X93198745Y-103598020D01*
X93603551Y-103712044D01*
X94022824Y-103744902D01*
X94440451Y-103695334D01*
X94840383Y-103565243D01*
X95136038Y-103407214D01*
X95292048Y-103091653D01*
X93980000Y-101779605D01*
X92667952Y-103091653D01*
X90427693Y-103091653D01*
X90558363Y-102960983D01*
X90792012Y-102611302D01*
X90952953Y-102222756D01*
X91035000Y-101810279D01*
X91035000Y-101642824D01*
X91835098Y-101642824D01*
X91884666Y-102060451D01*
X92014757Y-102460383D01*
X92172786Y-102756038D01*
X92488347Y-102912048D01*
X93800395Y-101600000D01*
X94159605Y-101600000D01*
X95471653Y-102912048D01*
X95787214Y-102756038D01*
X95978020Y-102381255D01*
X96092044Y-101976449D01*
X96124902Y-101557176D01*
X96105027Y-101389721D01*
X96925000Y-101389721D01*
X96925000Y-101810279D01*
X97007047Y-102222756D01*
X97167988Y-102611302D01*
X97401637Y-102960983D01*
X97699017Y-103258363D01*
X98048698Y-103492012D01*
X98437244Y-103652953D01*
X98849721Y-103735000D01*
X99270279Y-103735000D01*
X99682756Y-103652953D01*
X100071302Y-103492012D01*
X100420983Y-103258363D01*
X100718363Y-102960983D01*
X100952012Y-102611302D01*
X101112953Y-102222756D01*
X101195000Y-101810279D01*
X101195000Y-101389721D01*
X102005000Y-101389721D01*
X102005000Y-101810279D01*
X102087047Y-102222756D01*
X102247988Y-102611302D01*
X102481637Y-102960983D01*
X102779017Y-103258363D01*
X103128698Y-103492012D01*
X103517244Y-103652953D01*
X103929721Y-103735000D01*
X104350279Y-103735000D01*
X104762756Y-103652953D01*
X105151302Y-103492012D01*
X105500983Y-103258363D01*
X105798363Y-102960983D01*
X106032012Y-102611302D01*
X106192953Y-102222756D01*
X106275000Y-101810279D01*
X106275000Y-101389721D01*
X106273041Y-101379872D01*
X124765000Y-101379872D01*
X124765000Y-101820128D01*
X124850890Y-102251925D01*
X125019369Y-102658669D01*
X125263962Y-103024729D01*
X125575271Y-103336038D01*
X125941331Y-103580631D01*
X126348075Y-103749110D01*
X126779872Y-103835000D01*
X127220128Y-103835000D01*
X127651925Y-103749110D01*
X128058669Y-103580631D01*
X128424729Y-103336038D01*
X128736038Y-103024729D01*
X128980631Y-102658669D01*
X129149110Y-102251925D01*
X129235000Y-101820128D01*
X129235000Y-101379872D01*
X129149110Y-100948075D01*
X128980631Y-100541331D01*
X128736038Y-100175271D01*
X128424729Y-99863962D01*
X128058669Y-99619369D01*
X127651925Y-99450890D01*
X127220128Y-99365000D01*
X126779872Y-99365000D01*
X126348075Y-99450890D01*
X125941331Y-99619369D01*
X125575271Y-99863962D01*
X125263962Y-100175271D01*
X125019369Y-100541331D01*
X124850890Y-100948075D01*
X124765000Y-101379872D01*
X106273041Y-101379872D01*
X106192953Y-100977244D01*
X106032012Y-100588698D01*
X105798363Y-100239017D01*
X105500983Y-99941637D01*
X105151302Y-99707988D01*
X104762756Y-99547047D01*
X104350279Y-99465000D01*
X103929721Y-99465000D01*
X103517244Y-99547047D01*
X103128698Y-99707988D01*
X102779017Y-99941637D01*
X102481637Y-100239017D01*
X102247988Y-100588698D01*
X102087047Y-100977244D01*
X102005000Y-101389721D01*
X101195000Y-101389721D01*
X101112953Y-100977244D01*
X100952012Y-100588698D01*
X100718363Y-100239017D01*
X100420983Y-99941637D01*
X100071302Y-99707988D01*
X99682756Y-99547047D01*
X99270279Y-99465000D01*
X98849721Y-99465000D01*
X98437244Y-99547047D01*
X98048698Y-99707988D01*
X97699017Y-99941637D01*
X97401637Y-100239017D01*
X97167988Y-100588698D01*
X97007047Y-100977244D01*
X96925000Y-101389721D01*
X96105027Y-101389721D01*
X96075334Y-101139549D01*
X95945243Y-100739617D01*
X95787214Y-100443962D01*
X95471653Y-100287952D01*
X94159605Y-101600000D01*
X93800395Y-101600000D01*
X92488347Y-100287952D01*
X92172786Y-100443962D01*
X91981980Y-100818745D01*
X91867956Y-101223551D01*
X91835098Y-101642824D01*
X91035000Y-101642824D01*
X91035000Y-101389721D01*
X90952953Y-100977244D01*
X90792012Y-100588698D01*
X90558363Y-100239017D01*
X90427693Y-100108347D01*
X92667952Y-100108347D01*
X93980000Y-101420395D01*
X95292048Y-100108347D01*
X95136038Y-99792786D01*
X94761255Y-99601980D01*
X94356449Y-99487956D01*
X93937176Y-99455098D01*
X93519549Y-99504666D01*
X93119617Y-99634757D01*
X92823962Y-99792786D01*
X92667952Y-100108347D01*
X90427693Y-100108347D01*
X90260983Y-99941637D01*
X89911302Y-99707988D01*
X89522756Y-99547047D01*
X89110279Y-99465000D01*
X88689721Y-99465000D01*
X88277244Y-99547047D01*
X87888698Y-99707988D01*
X87539017Y-99941637D01*
X87241637Y-100239017D01*
X87007988Y-100588698D01*
X86847047Y-100977244D01*
X86765000Y-101389721D01*
X85955000Y-101389721D01*
X85872953Y-100977244D01*
X85712012Y-100588698D01*
X85478363Y-100239017D01*
X85180983Y-99941637D01*
X84831302Y-99707988D01*
X84442756Y-99547047D01*
X84030279Y-99465000D01*
X83609721Y-99465000D01*
X83197244Y-99547047D01*
X82808698Y-99707988D01*
X82459017Y-99941637D01*
X82161637Y-100239017D01*
X81927988Y-100588698D01*
X81767047Y-100977244D01*
X81685000Y-101389721D01*
X78435000Y-101389721D01*
X78435000Y-101379872D01*
X78349110Y-100948075D01*
X78180631Y-100541331D01*
X77936038Y-100175271D01*
X77624729Y-99863962D01*
X77258669Y-99619369D01*
X76851925Y-99450890D01*
X76420128Y-99365000D01*
X75979872Y-99365000D01*
X75548075Y-99450890D01*
X75141331Y-99619369D01*
X74775271Y-99863962D01*
X74463962Y-100175271D01*
X74219369Y-100541331D01*
X74050890Y-100948075D01*
X73965000Y-101379872D01*
X71780000Y-101379872D01*
X71780000Y-94362952D01*
X72929750Y-94361000D01*
X73088500Y-94202250D01*
X73088500Y-92519500D01*
X73342500Y-92519500D01*
X73342500Y-94202250D01*
X73501250Y-94361000D01*
X75311000Y-94364072D01*
X75435482Y-94351812D01*
X75555180Y-94315502D01*
X75665494Y-94256537D01*
X75762185Y-94177185D01*
X75841537Y-94080494D01*
X75900502Y-93970180D01*
X75936812Y-93850482D01*
X75949072Y-93726000D01*
X75946000Y-92678250D01*
X75787250Y-92519500D01*
X73342500Y-92519500D01*
X73088500Y-92519500D01*
X73068500Y-92519500D01*
X73068500Y-92265500D01*
X73088500Y-92265500D01*
X73088500Y-90582750D01*
X73342500Y-90582750D01*
X73342500Y-92265500D01*
X75787250Y-92265500D01*
X75946000Y-92106750D01*
X75949072Y-91059000D01*
X75936812Y-90934518D01*
X75900502Y-90814820D01*
X75841537Y-90704506D01*
X75762185Y-90607815D01*
X75665494Y-90528463D01*
X75555180Y-90469498D01*
X75435482Y-90433188D01*
X75311000Y-90420928D01*
X73501250Y-90424000D01*
X73342500Y-90582750D01*
X73088500Y-90582750D01*
X72929750Y-90424000D01*
X71780000Y-90422048D01*
X71780000Y-87377952D01*
X72929750Y-87376000D01*
X73088500Y-87217250D01*
X73088500Y-85534500D01*
X73342500Y-85534500D01*
X73342500Y-87217250D01*
X73501250Y-87376000D01*
X75311000Y-87379072D01*
X75435482Y-87366812D01*
X75555180Y-87330502D01*
X75665494Y-87271537D01*
X75762185Y-87192185D01*
X75841537Y-87095494D01*
X75900502Y-86985180D01*
X75936812Y-86865482D01*
X75949072Y-86741000D01*
X75946000Y-85693250D01*
X75787250Y-85534500D01*
X73342500Y-85534500D01*
X73088500Y-85534500D01*
X73068500Y-85534500D01*
X73068500Y-85280500D01*
X73088500Y-85280500D01*
X73088500Y-83597750D01*
X73342500Y-83597750D01*
X73342500Y-85280500D01*
X75787250Y-85280500D01*
X75946000Y-85121750D01*
X75949072Y-84074000D01*
X75936812Y-83949518D01*
X75900502Y-83829820D01*
X75841537Y-83719506D01*
X75840352Y-83718061D01*
X91675000Y-83718061D01*
X91675000Y-83921939D01*
X91694000Y-84017459D01*
X91694001Y-97592536D01*
X91675000Y-97688061D01*
X91675000Y-97891939D01*
X91714774Y-98091898D01*
X91792795Y-98280256D01*
X91906063Y-98449774D01*
X92050226Y-98593937D01*
X92219744Y-98707205D01*
X92408102Y-98785226D01*
X92608061Y-98825000D01*
X92811939Y-98825000D01*
X93011898Y-98785226D01*
X93200256Y-98707205D01*
X93369774Y-98593937D01*
X93513937Y-98449774D01*
X93627205Y-98280256D01*
X93705226Y-98091898D01*
X93745000Y-97891939D01*
X93745000Y-97688061D01*
X93726000Y-97592541D01*
X93726000Y-88812840D01*
X94496292Y-89583133D01*
X94528104Y-89621896D01*
X94682810Y-89748860D01*
X94859313Y-89843202D01*
X95050829Y-89901298D01*
X95200098Y-89916000D01*
X95200105Y-89916000D01*
X95249999Y-89920914D01*
X95299893Y-89916000D01*
X95627595Y-89916000D01*
X95500393Y-90020392D01*
X95321068Y-90238899D01*
X95187818Y-90488192D01*
X95105764Y-90758691D01*
X95085000Y-90969508D01*
X95085000Y-91910491D01*
X95105764Y-92121308D01*
X95187818Y-92391807D01*
X95321068Y-92641100D01*
X95500392Y-92859607D01*
X95718899Y-93038932D01*
X95968192Y-93172182D01*
X96238691Y-93254236D01*
X96520000Y-93281943D01*
X96801308Y-93254236D01*
X97071807Y-93172182D01*
X97321100Y-93038932D01*
X97539607Y-92859608D01*
X97718932Y-92641101D01*
X97790000Y-92508142D01*
X97861068Y-92641100D01*
X98040392Y-92859607D01*
X98044001Y-92862568D01*
X98044001Y-93930089D01*
X98039085Y-93980000D01*
X98058702Y-94179170D01*
X98100059Y-94315502D01*
X98116799Y-94370687D01*
X98211141Y-94547190D01*
X98338105Y-94701896D01*
X98376868Y-94733708D01*
X100846292Y-97203133D01*
X100878104Y-97241896D01*
X101032810Y-97368860D01*
X101209313Y-97463202D01*
X101342732Y-97503674D01*
X101400828Y-97521298D01*
X101420177Y-97523204D01*
X101550098Y-97536000D01*
X101550105Y-97536000D01*
X101599999Y-97540914D01*
X101649893Y-97536000D01*
X109170098Y-97536000D01*
X109220000Y-97540915D01*
X109269902Y-97536000D01*
X109419171Y-97521298D01*
X109610687Y-97463202D01*
X109787190Y-97368860D01*
X109941896Y-97241896D01*
X109973712Y-97203128D01*
X112443133Y-94733708D01*
X112481896Y-94701896D01*
X112608860Y-94547190D01*
X112703202Y-94370687D01*
X112761298Y-94179171D01*
X112776000Y-94029902D01*
X112776000Y-94029895D01*
X112780914Y-93980001D01*
X112776000Y-93930107D01*
X112776000Y-93726000D01*
X127250928Y-93726000D01*
X127263188Y-93850482D01*
X127299498Y-93970180D01*
X127358463Y-94080494D01*
X127437815Y-94177185D01*
X127534506Y-94256537D01*
X127644820Y-94315502D01*
X127764518Y-94351812D01*
X127889000Y-94364072D01*
X129698750Y-94361000D01*
X129857500Y-94202250D01*
X129857500Y-92519500D01*
X127412750Y-92519500D01*
X127254000Y-92678250D01*
X127250928Y-93726000D01*
X112776000Y-93726000D01*
X112776000Y-92456000D01*
X113399741Y-92456000D01*
X113436238Y-92492497D01*
X113658167Y-92640785D01*
X113904761Y-92742928D01*
X114166544Y-92795000D01*
X114433456Y-92795000D01*
X114695239Y-92742928D01*
X114941833Y-92640785D01*
X115163762Y-92492497D01*
X115352497Y-92303762D01*
X115500785Y-92081833D01*
X115570000Y-91914734D01*
X115639215Y-92081833D01*
X115787503Y-92303762D01*
X115976238Y-92492497D01*
X116198167Y-92640785D01*
X116444761Y-92742928D01*
X116706544Y-92795000D01*
X116973456Y-92795000D01*
X117235239Y-92742928D01*
X117481833Y-92640785D01*
X117703762Y-92492497D01*
X117892497Y-92303762D01*
X118040785Y-92081833D01*
X118142928Y-91835239D01*
X118195000Y-91573456D01*
X118195000Y-91306544D01*
X118145761Y-91059000D01*
X127250928Y-91059000D01*
X127254000Y-92106750D01*
X127412750Y-92265500D01*
X129857500Y-92265500D01*
X129857500Y-90582750D01*
X129698750Y-90424000D01*
X127889000Y-90420928D01*
X127764518Y-90433188D01*
X127644820Y-90469498D01*
X127534506Y-90528463D01*
X127437815Y-90607815D01*
X127358463Y-90704506D01*
X127299498Y-90814820D01*
X127263188Y-90934518D01*
X127250928Y-91059000D01*
X118145761Y-91059000D01*
X118142928Y-91044761D01*
X118040785Y-90798167D01*
X117892497Y-90576238D01*
X117856000Y-90539741D01*
X117856000Y-90219902D01*
X117860915Y-90170000D01*
X117841298Y-89970829D01*
X117783202Y-89779313D01*
X117688860Y-89602810D01*
X117593706Y-89486865D01*
X117561896Y-89448104D01*
X117523133Y-89416292D01*
X114847841Y-86741000D01*
X127250928Y-86741000D01*
X127263188Y-86865482D01*
X127299498Y-86985180D01*
X127358463Y-87095494D01*
X127437815Y-87192185D01*
X127534506Y-87271537D01*
X127644820Y-87330502D01*
X127764518Y-87366812D01*
X127889000Y-87379072D01*
X129698750Y-87376000D01*
X129857500Y-87217250D01*
X129857500Y-85534500D01*
X127412750Y-85534500D01*
X127254000Y-85693250D01*
X127250928Y-86741000D01*
X114847841Y-86741000D01*
X113783712Y-85676872D01*
X113766000Y-85655290D01*
X113766000Y-85082779D01*
X113777962Y-85072962D01*
X113888405Y-84938386D01*
X113970472Y-84784850D01*
X113997727Y-84695000D01*
X114561928Y-84695000D01*
X114574188Y-84819482D01*
X114610498Y-84939180D01*
X114669463Y-85049494D01*
X114748815Y-85146185D01*
X114845506Y-85225537D01*
X114955820Y-85284502D01*
X115075518Y-85320812D01*
X115200000Y-85333072D01*
X115564250Y-85330000D01*
X115723000Y-85171250D01*
X115723000Y-83947000D01*
X115977000Y-83947000D01*
X115977000Y-85171250D01*
X116135750Y-85330000D01*
X116500000Y-85333072D01*
X116624482Y-85320812D01*
X116744180Y-85284502D01*
X116854494Y-85225537D01*
X116951185Y-85146185D01*
X117030537Y-85049494D01*
X117089502Y-84939180D01*
X117125812Y-84819482D01*
X117138072Y-84695000D01*
X117135000Y-84105750D01*
X117103250Y-84074000D01*
X127250928Y-84074000D01*
X127254000Y-85121750D01*
X127412750Y-85280500D01*
X129857500Y-85280500D01*
X129857500Y-83597750D01*
X129698750Y-83439000D01*
X127889000Y-83435928D01*
X127764518Y-83448188D01*
X127644820Y-83484498D01*
X127534506Y-83543463D01*
X127437815Y-83622815D01*
X127358463Y-83719506D01*
X127299498Y-83829820D01*
X127263188Y-83949518D01*
X127250928Y-84074000D01*
X117103250Y-84074000D01*
X116976250Y-83947000D01*
X115977000Y-83947000D01*
X115723000Y-83947000D01*
X114723750Y-83947000D01*
X114565000Y-84105750D01*
X114561928Y-84695000D01*
X113997727Y-84695000D01*
X114021008Y-84618254D01*
X114038072Y-84445000D01*
X114038072Y-83195000D01*
X114021008Y-83021746D01*
X113997728Y-82945000D01*
X114561928Y-82945000D01*
X114565000Y-83534250D01*
X114723750Y-83693000D01*
X115723000Y-83693000D01*
X115723000Y-82468750D01*
X115977000Y-82468750D01*
X115977000Y-83693000D01*
X116976250Y-83693000D01*
X117135000Y-83534250D01*
X117138072Y-82945000D01*
X117125812Y-82820518D01*
X117089502Y-82700820D01*
X117030537Y-82590506D01*
X116951185Y-82493815D01*
X116854494Y-82414463D01*
X116744180Y-82355498D01*
X116624482Y-82319188D01*
X116500000Y-82306928D01*
X116135750Y-82310000D01*
X115977000Y-82468750D01*
X115723000Y-82468750D01*
X115564250Y-82310000D01*
X115200000Y-82306928D01*
X115075518Y-82319188D01*
X114955820Y-82355498D01*
X114845506Y-82414463D01*
X114748815Y-82493815D01*
X114669463Y-82590506D01*
X114610498Y-82700820D01*
X114574188Y-82820518D01*
X114561928Y-82945000D01*
X113997728Y-82945000D01*
X113970472Y-82855150D01*
X113888405Y-82701614D01*
X113777962Y-82567038D01*
X113643386Y-82456595D01*
X113489850Y-82374528D01*
X113323254Y-82323992D01*
X113150000Y-82306928D01*
X112350000Y-82306928D01*
X112176746Y-82323992D01*
X112010150Y-82374528D01*
X111856614Y-82456595D01*
X111722038Y-82567038D01*
X111611595Y-82701614D01*
X111529528Y-82855150D01*
X111478992Y-83021746D01*
X111461928Y-83195000D01*
X111461928Y-84445000D01*
X111478992Y-84618254D01*
X111529528Y-84784850D01*
X111611595Y-84938386D01*
X111722038Y-85072962D01*
X111734001Y-85082779D01*
X111734001Y-85344000D01*
X105486837Y-85344000D01*
X105529502Y-85264180D01*
X105565812Y-85144482D01*
X105578072Y-85020000D01*
X105578072Y-82620000D01*
X105565812Y-82495518D01*
X105529502Y-82375820D01*
X105470537Y-82265506D01*
X105391185Y-82168815D01*
X105294494Y-82089463D01*
X105184180Y-82030498D01*
X105064482Y-81994188D01*
X104940000Y-81981928D01*
X103340000Y-81981928D01*
X103215518Y-81994188D01*
X103095820Y-82030498D01*
X102985506Y-82089463D01*
X102888815Y-82168815D01*
X102809463Y-82265506D01*
X102750498Y-82375820D01*
X102714188Y-82495518D01*
X102712419Y-82513482D01*
X102619608Y-82400392D01*
X102401101Y-82221068D01*
X102151808Y-82087818D01*
X101881309Y-82005764D01*
X101600000Y-81978057D01*
X101318692Y-82005764D01*
X101048193Y-82087818D01*
X100798900Y-82221068D01*
X100580393Y-82400392D01*
X100401068Y-82618899D01*
X100330000Y-82751858D01*
X100258932Y-82618899D01*
X100079608Y-82400392D01*
X99861101Y-82221068D01*
X99611808Y-82087818D01*
X99341309Y-82005764D01*
X99060000Y-81978057D01*
X98778692Y-82005764D01*
X98508193Y-82087818D01*
X98258900Y-82221068D01*
X98040393Y-82400392D01*
X97861068Y-82618899D01*
X97790000Y-82751858D01*
X97718932Y-82618899D01*
X97539608Y-82400392D01*
X97536000Y-82397431D01*
X97536000Y-81700840D01*
X98210841Y-81026000D01*
X102820098Y-81026000D01*
X102870000Y-81030915D01*
X102919902Y-81026000D01*
X103069171Y-81011298D01*
X103260687Y-80953202D01*
X103437190Y-80858860D01*
X103591896Y-80731896D01*
X103623712Y-80693128D01*
X104823133Y-79493708D01*
X104861896Y-79461896D01*
X104988860Y-79307190D01*
X105083202Y-79130687D01*
X105141298Y-78939171D01*
X105156000Y-78789902D01*
X105156000Y-78789895D01*
X105160914Y-78740001D01*
X105156000Y-78690107D01*
X105156000Y-77543124D01*
X105209345Y-77499345D01*
X105397417Y-77270179D01*
X105426376Y-77216000D01*
X107708505Y-77216000D01*
X107776595Y-77343387D01*
X107887038Y-77477962D01*
X108021613Y-77588405D01*
X108175149Y-77670472D01*
X108341745Y-77721008D01*
X108514999Y-77738072D01*
X109340001Y-77738072D01*
X109513255Y-77721008D01*
X109679851Y-77670472D01*
X109833387Y-77588405D01*
X109967962Y-77477962D01*
X110078405Y-77343387D01*
X110160472Y-77189851D01*
X110187727Y-77100000D01*
X110751928Y-77100000D01*
X110764188Y-77224482D01*
X110800498Y-77344180D01*
X110859463Y-77454494D01*
X110938815Y-77551185D01*
X111035506Y-77630537D01*
X111145820Y-77689502D01*
X111265518Y-77725812D01*
X111390000Y-77738072D01*
X111766750Y-77735000D01*
X111925500Y-77576250D01*
X111925500Y-76327000D01*
X112179500Y-76327000D01*
X112179500Y-77576250D01*
X112338250Y-77735000D01*
X112715000Y-77738072D01*
X112839482Y-77725812D01*
X112959180Y-77689502D01*
X113069494Y-77630537D01*
X113166185Y-77551185D01*
X113245537Y-77454494D01*
X113304502Y-77344180D01*
X113340812Y-77224482D01*
X113353072Y-77100000D01*
X113350000Y-76485750D01*
X113191250Y-76327000D01*
X112179500Y-76327000D01*
X111925500Y-76327000D01*
X110913750Y-76327000D01*
X110755000Y-76485750D01*
X110751928Y-77100000D01*
X110187727Y-77100000D01*
X110211008Y-77023255D01*
X110228072Y-76850001D01*
X110228072Y-75549999D01*
X110211008Y-75376745D01*
X110187728Y-75300000D01*
X110751928Y-75300000D01*
X110755000Y-75914250D01*
X110913750Y-76073000D01*
X111925500Y-76073000D01*
X111925500Y-74823750D01*
X112179500Y-74823750D01*
X112179500Y-76073000D01*
X113191250Y-76073000D01*
X113284378Y-75979872D01*
X124765000Y-75979872D01*
X124765000Y-76420128D01*
X124850890Y-76851925D01*
X125019369Y-77258669D01*
X125263962Y-77624729D01*
X125575271Y-77936038D01*
X125941331Y-78180631D01*
X126348075Y-78349110D01*
X126779872Y-78435000D01*
X127220128Y-78435000D01*
X127651925Y-78349110D01*
X128058669Y-78180631D01*
X128424729Y-77936038D01*
X128736038Y-77624729D01*
X128980631Y-77258669D01*
X129149110Y-76851925D01*
X129235000Y-76420128D01*
X129235000Y-75979872D01*
X129149110Y-75548075D01*
X128980631Y-75141331D01*
X128736038Y-74775271D01*
X128424729Y-74463962D01*
X128058669Y-74219369D01*
X127651925Y-74050890D01*
X127220128Y-73965000D01*
X126779872Y-73965000D01*
X126348075Y-74050890D01*
X125941331Y-74219369D01*
X125575271Y-74463962D01*
X125263962Y-74775271D01*
X125019369Y-75141331D01*
X124850890Y-75548075D01*
X124765000Y-75979872D01*
X113284378Y-75979872D01*
X113350000Y-75914250D01*
X113353072Y-75300000D01*
X113340812Y-75175518D01*
X113304502Y-75055820D01*
X113245537Y-74945506D01*
X113166185Y-74848815D01*
X113069494Y-74769463D01*
X112959180Y-74710498D01*
X112839482Y-74674188D01*
X112715000Y-74661928D01*
X112338250Y-74665000D01*
X112179500Y-74823750D01*
X111925500Y-74823750D01*
X111766750Y-74665000D01*
X111390000Y-74661928D01*
X111265518Y-74674188D01*
X111145820Y-74710498D01*
X111035506Y-74769463D01*
X110938815Y-74848815D01*
X110859463Y-74945506D01*
X110800498Y-75055820D01*
X110764188Y-75175518D01*
X110751928Y-75300000D01*
X110187728Y-75300000D01*
X110160472Y-75210149D01*
X110078405Y-75056613D01*
X109967962Y-74922038D01*
X109833387Y-74811595D01*
X109679851Y-74729528D01*
X109513255Y-74678992D01*
X109340001Y-74661928D01*
X108514999Y-74661928D01*
X108341745Y-74678992D01*
X108175149Y-74729528D01*
X108021613Y-74811595D01*
X107887038Y-74922038D01*
X107776595Y-75056613D01*
X107708505Y-75184000D01*
X105426376Y-75184000D01*
X105397417Y-75129821D01*
X105209345Y-74900655D01*
X104980178Y-74712583D01*
X104718724Y-74572834D01*
X104435031Y-74486776D01*
X104140000Y-74457718D01*
X103844968Y-74486776D01*
X103561275Y-74572834D01*
X103299821Y-74712583D01*
X103070655Y-74900655D01*
X102882583Y-75129822D01*
X102867698Y-75157669D01*
X102778256Y-75021097D01*
X102570494Y-74809464D01*
X102325437Y-74642429D01*
X102052502Y-74526412D01*
X101960031Y-74508698D01*
X101727000Y-74629754D01*
X101727000Y-76073000D01*
X101747000Y-76073000D01*
X101747000Y-76327000D01*
X101727000Y-76327000D01*
X101727000Y-77770246D01*
X101960031Y-77891302D01*
X102052502Y-77873588D01*
X102325437Y-77757571D01*
X102570494Y-77590536D01*
X102778256Y-77378903D01*
X102867698Y-77242331D01*
X102882583Y-77270179D01*
X103070655Y-77499345D01*
X103124001Y-77543124D01*
X103124001Y-78319158D01*
X102449160Y-78994000D01*
X97839893Y-78994000D01*
X97789999Y-78989086D01*
X97740105Y-78994000D01*
X97740098Y-78994000D01*
X97698770Y-78998071D01*
X98758769Y-77938072D01*
X99680001Y-77938072D01*
X99853255Y-77921008D01*
X100019851Y-77870472D01*
X100173387Y-77788405D01*
X100307962Y-77677962D01*
X100418405Y-77543387D01*
X100476507Y-77434686D01*
X100629506Y-77590536D01*
X100874563Y-77757571D01*
X101147498Y-77873588D01*
X101239969Y-77891302D01*
X101473000Y-77770246D01*
X101473000Y-76327000D01*
X101453000Y-76327000D01*
X101453000Y-76073000D01*
X101473000Y-76073000D01*
X101473000Y-74629754D01*
X101239969Y-74508698D01*
X101147498Y-74526412D01*
X100874563Y-74642429D01*
X100629506Y-74809464D01*
X100476507Y-74965314D01*
X100418405Y-74856613D01*
X100307962Y-74722038D01*
X100173387Y-74611595D01*
X100019851Y-74529528D01*
X99853255Y-74478992D01*
X99680001Y-74461928D01*
X98439999Y-74461928D01*
X98266745Y-74478992D01*
X98100149Y-74529528D01*
X97946613Y-74611595D01*
X97812038Y-74722038D01*
X97701595Y-74856613D01*
X97619528Y-75010149D01*
X97568992Y-75176745D01*
X97568277Y-75184000D01*
X95491495Y-75184000D01*
X95423405Y-75056613D01*
X95312962Y-74922038D01*
X95178387Y-74811595D01*
X95024851Y-74729528D01*
X94858255Y-74678992D01*
X94685001Y-74661928D01*
X93859999Y-74661928D01*
X93686745Y-74678992D01*
X93520149Y-74729528D01*
X93366613Y-74811595D01*
X93232038Y-74922038D01*
X93121595Y-75056613D01*
X93039528Y-75210149D01*
X92988992Y-75376745D01*
X92971928Y-75549999D01*
X92971928Y-76850001D01*
X92988992Y-77023255D01*
X93039528Y-77189851D01*
X93121595Y-77343387D01*
X93232038Y-77477962D01*
X93366613Y-77588405D01*
X93520149Y-77670472D01*
X93686745Y-77721008D01*
X93859999Y-77738072D01*
X94685001Y-77738072D01*
X94858255Y-77721008D01*
X95024851Y-77670472D01*
X95178387Y-77588405D01*
X95312962Y-77477962D01*
X95423405Y-77343387D01*
X95491495Y-77216000D01*
X96607159Y-77216000D01*
X93296872Y-80526288D01*
X93258104Y-80558104D01*
X93131140Y-80712810D01*
X93036798Y-80889314D01*
X92995335Y-81026000D01*
X92978702Y-81080830D01*
X92959085Y-81280000D01*
X92964000Y-81329902D01*
X92964000Y-82815247D01*
X92811939Y-82785000D01*
X92608061Y-82785000D01*
X92408102Y-82824774D01*
X92219744Y-82902795D01*
X92050226Y-83016063D01*
X91906063Y-83160226D01*
X91792795Y-83329744D01*
X91714774Y-83518102D01*
X91675000Y-83718061D01*
X75840352Y-83718061D01*
X75762185Y-83622815D01*
X75665494Y-83543463D01*
X75555180Y-83484498D01*
X75435482Y-83448188D01*
X75311000Y-83435928D01*
X73501250Y-83439000D01*
X73342500Y-83597750D01*
X73088500Y-83597750D01*
X72929750Y-83439000D01*
X71780000Y-83437048D01*
X71780000Y-76229392D01*
X71802269Y-75979872D01*
X73965000Y-75979872D01*
X73965000Y-76420128D01*
X74050890Y-76851925D01*
X74219369Y-77258669D01*
X74463962Y-77624729D01*
X74775271Y-77936038D01*
X75141331Y-78180631D01*
X75548075Y-78349110D01*
X75979872Y-78435000D01*
X76420128Y-78435000D01*
X76851925Y-78349110D01*
X77258669Y-78180631D01*
X77624729Y-77936038D01*
X77936038Y-77624729D01*
X78180631Y-77258669D01*
X78246353Y-77100000D01*
X89846928Y-77100000D01*
X89859188Y-77224482D01*
X89895498Y-77344180D01*
X89954463Y-77454494D01*
X90033815Y-77551185D01*
X90130506Y-77630537D01*
X90240820Y-77689502D01*
X90360518Y-77725812D01*
X90485000Y-77738072D01*
X90861750Y-77735000D01*
X91020500Y-77576250D01*
X91020500Y-76327000D01*
X91274500Y-76327000D01*
X91274500Y-77576250D01*
X91433250Y-77735000D01*
X91810000Y-77738072D01*
X91934482Y-77725812D01*
X92054180Y-77689502D01*
X92164494Y-77630537D01*
X92261185Y-77551185D01*
X92340537Y-77454494D01*
X92399502Y-77344180D01*
X92435812Y-77224482D01*
X92448072Y-77100000D01*
X92445000Y-76485750D01*
X92286250Y-76327000D01*
X91274500Y-76327000D01*
X91020500Y-76327000D01*
X90008750Y-76327000D01*
X89850000Y-76485750D01*
X89846928Y-77100000D01*
X78246353Y-77100000D01*
X78349110Y-76851925D01*
X78435000Y-76420128D01*
X78435000Y-75979872D01*
X78349110Y-75548075D01*
X78246354Y-75300000D01*
X89846928Y-75300000D01*
X89850000Y-75914250D01*
X90008750Y-76073000D01*
X91020500Y-76073000D01*
X91020500Y-74823750D01*
X91274500Y-74823750D01*
X91274500Y-76073000D01*
X92286250Y-76073000D01*
X92445000Y-75914250D01*
X92448072Y-75300000D01*
X92435812Y-75175518D01*
X92399502Y-75055820D01*
X92340537Y-74945506D01*
X92261185Y-74848815D01*
X92164494Y-74769463D01*
X92054180Y-74710498D01*
X91934482Y-74674188D01*
X91810000Y-74661928D01*
X91433250Y-74665000D01*
X91274500Y-74823750D01*
X91020500Y-74823750D01*
X90861750Y-74665000D01*
X90485000Y-74661928D01*
X90360518Y-74674188D01*
X90240820Y-74710498D01*
X90130506Y-74769463D01*
X90033815Y-74848815D01*
X89954463Y-74945506D01*
X89895498Y-75055820D01*
X89859188Y-75175518D01*
X89846928Y-75300000D01*
X78246354Y-75300000D01*
X78180631Y-75141331D01*
X77936038Y-74775271D01*
X77624729Y-74463962D01*
X77258669Y-74219369D01*
X76851925Y-74050890D01*
X76420128Y-73965000D01*
X75979872Y-73965000D01*
X75548075Y-74050890D01*
X75141331Y-74219369D01*
X74775271Y-74463962D01*
X74463962Y-74775271D01*
X74219369Y-75141331D01*
X74050890Y-75548075D01*
X73965000Y-75979872D01*
X71802269Y-75979872D01*
X71852437Y-75417751D01*
X72059672Y-74660226D01*
X72397777Y-73951375D01*
X72856067Y-73313596D01*
X73420055Y-72767054D01*
X74071913Y-72329023D01*
X74791038Y-72013349D01*
X75559768Y-71828794D01*
X76224207Y-71780000D01*
X126970608Y-71780000D01*
X127782249Y-71852437D01*
G37*
G04 #@! TD.AperFunction*
M02*
