G04 #@! TF.GenerationSoftware,KiCad,Pcbnew,5.1.8+dfsg1-1+b1*
G04 #@! TF.CreationDate,2021-02-01T12:52:58-06:00*
G04 #@! TF.ProjectId,DC_Amplifier,44435f41-6d70-46c6-9966-6965722e6b69,1.1.0*
G04 #@! TF.SameCoordinates,Original*
G04 #@! TF.FileFunction,Soldermask,Top*
G04 #@! TF.FilePolarity,Negative*
%FSLAX46Y46*%
G04 Gerber Fmt 4.6, Leading zero omitted, Abs format (unit mm)*
G04 Created by KiCad (PCBNEW 5.1.8+dfsg1-1+b1) date 2021-02-01 12:52:58*
%MOMM*%
%LPD*%
G01*
G04 APERTURE LIST*
G04 #@! TA.AperFunction,Profile*
%ADD10C,0.050000*%
G04 #@! TD*
%ADD11C,3.302000*%
%ADD12C,3.102000*%
%ADD13O,1.702000X2.502000*%
%ADD14C,1.542000*%
%ADD15O,1.842000X2.302000*%
%ADD16C,0.100000*%
G04 APERTURE END LIST*
D10*
X127000000Y-71120000D02*
X76200000Y-71120000D01*
X132080000Y-101600000D02*
X132080000Y-76200000D01*
X76200000Y-106680000D02*
X127000000Y-106680000D01*
X71120000Y-76200000D02*
X71120000Y-101600000D01*
X132080000Y-101600000D02*
G75*
G02*
X127000000Y-106680000I-5080000J0D01*
G01*
X76200000Y-106680000D02*
G75*
G02*
X71120000Y-101600000I0J5080000D01*
G01*
X71120000Y-76200000D02*
G75*
G02*
X76200000Y-71120000I5080000J0D01*
G01*
X127000000Y-71120000D02*
G75*
G02*
X132080000Y-76200000I0J-5080000D01*
G01*
X127000000Y-71120000D02*
X76200000Y-71120000D01*
X132080000Y-101600000D02*
X132080000Y-76200000D01*
X76200000Y-106680000D02*
X127000000Y-106680000D01*
X71120000Y-76200000D02*
X71120000Y-101600000D01*
X132080000Y-101600000D02*
G75*
G02*
X127000000Y-106680000I-5080000J0D01*
G01*
X76200000Y-106680000D02*
G75*
G02*
X71120000Y-101600000I0J5080000D01*
G01*
X71120000Y-76200000D02*
G75*
G02*
X76200000Y-71120000I5080000J0D01*
G01*
X127000000Y-71120000D02*
G75*
G02*
X132080000Y-76200000I0J-5080000D01*
G01*
D11*
X127000000Y-101600000D03*
X76200000Y-101600000D03*
D12*
X104140000Y-101600000D03*
X99060000Y-101600000D03*
X93980000Y-101600000D03*
X88900000Y-101600000D03*
X83820000Y-101600000D03*
D13*
X104140000Y-91440000D03*
X96520000Y-83820000D03*
X101600000Y-91440000D03*
X99060000Y-83820000D03*
X99060000Y-91440000D03*
X101600000Y-83820000D03*
X96520000Y-91440000D03*
G36*
G01*
X103340000Y-82569000D02*
X104940000Y-82569000D01*
G75*
G02*
X104991000Y-82620000I0J-51000D01*
G01*
X104991000Y-85020000D01*
G75*
G02*
X104940000Y-85071000I-51000J0D01*
G01*
X103340000Y-85071000D01*
G75*
G02*
X103289000Y-85020000I0J51000D01*
G01*
X103289000Y-82620000D01*
G75*
G02*
X103340000Y-82569000I51000J0D01*
G01*
G37*
D11*
X76200000Y-76200000D03*
X127000000Y-76200000D03*
G36*
G01*
X115149000Y-84476385D02*
X115149000Y-83163615D01*
G75*
G02*
X115418615Y-82894000I269615J0D01*
G01*
X116281385Y-82894000D01*
G75*
G02*
X116551000Y-83163615I0J-269615D01*
G01*
X116551000Y-84476385D01*
G75*
G02*
X116281385Y-84746000I-269615J0D01*
G01*
X115418615Y-84746000D01*
G75*
G02*
X115149000Y-84476385I0J269615D01*
G01*
G37*
G36*
G01*
X112049000Y-84476385D02*
X112049000Y-83163615D01*
G75*
G02*
X112318615Y-82894000I269615J0D01*
G01*
X113181385Y-82894000D01*
G75*
G02*
X113451000Y-83163615I0J-269615D01*
G01*
X113451000Y-84476385D01*
G75*
G02*
X113181385Y-84746000I-269615J0D01*
G01*
X112318615Y-84746000D01*
G75*
G02*
X112049000Y-84476385I0J269615D01*
G01*
G37*
G36*
G01*
X109641000Y-75518244D02*
X109641000Y-76881756D01*
G75*
G02*
X109371756Y-77151000I-269244J0D01*
G01*
X108483244Y-77151000D01*
G75*
G02*
X108214000Y-76881756I0J269244D01*
G01*
X108214000Y-75518244D01*
G75*
G02*
X108483244Y-75249000I269244J0D01*
G01*
X109371756Y-75249000D01*
G75*
G02*
X109641000Y-75518244I0J-269244D01*
G01*
G37*
G36*
G01*
X112766000Y-75518244D02*
X112766000Y-76881756D01*
G75*
G02*
X112496756Y-77151000I-269244J0D01*
G01*
X111608244Y-77151000D01*
G75*
G02*
X111339000Y-76881756I0J269244D01*
G01*
X111339000Y-75518244D01*
G75*
G02*
X111608244Y-75249000I269244J0D01*
G01*
X112496756Y-75249000D01*
G75*
G02*
X112766000Y-75518244I0J-269244D01*
G01*
G37*
G36*
G01*
X91861000Y-75518244D02*
X91861000Y-76881756D01*
G75*
G02*
X91591756Y-77151000I-269244J0D01*
G01*
X90703244Y-77151000D01*
G75*
G02*
X90434000Y-76881756I0J269244D01*
G01*
X90434000Y-75518244D01*
G75*
G02*
X90703244Y-75249000I269244J0D01*
G01*
X91591756Y-75249000D01*
G75*
G02*
X91861000Y-75518244I0J-269244D01*
G01*
G37*
G36*
G01*
X94986000Y-75518244D02*
X94986000Y-76881756D01*
G75*
G02*
X94716756Y-77151000I-269244J0D01*
G01*
X93828244Y-77151000D01*
G75*
G02*
X93559000Y-76881756I0J269244D01*
G01*
X93559000Y-75518244D01*
G75*
G02*
X93828244Y-75249000I269244J0D01*
G01*
X94716756Y-75249000D01*
G75*
G02*
X94986000Y-75518244I0J-269244D01*
G01*
G37*
D14*
X111760000Y-91440000D03*
X114300000Y-91440000D03*
X116840000Y-91440000D03*
D15*
X104140000Y-76200000D03*
X101600000Y-76200000D03*
G36*
G01*
X98139000Y-77086346D02*
X98139000Y-75313654D01*
G75*
G02*
X98403654Y-75049000I264654J0D01*
G01*
X99716346Y-75049000D01*
G75*
G02*
X99981000Y-75313654I0J-264654D01*
G01*
X99981000Y-77086346D01*
G75*
G02*
X99716346Y-77351000I-264654J0D01*
G01*
X98403654Y-77351000D01*
G75*
G02*
X98139000Y-77086346I0J264654D01*
G01*
G37*
D16*
G36*
X98140990Y-77086150D02*
G01*
X98146055Y-77137582D01*
X98161003Y-77186856D01*
X98185273Y-77232264D01*
X98217936Y-77272064D01*
X98257736Y-77304727D01*
X98303144Y-77328997D01*
X98352418Y-77343945D01*
X98403850Y-77349010D01*
X98405476Y-77350175D01*
X98405280Y-77352165D01*
X98403654Y-77353000D01*
X98320712Y-77353000D01*
X98320516Y-77352990D01*
X98280244Y-77349024D01*
X98279859Y-77348948D01*
X98247035Y-77338990D01*
X98246673Y-77338840D01*
X98216425Y-77322672D01*
X98216099Y-77322454D01*
X98189583Y-77300694D01*
X98189306Y-77300417D01*
X98167546Y-77273901D01*
X98167328Y-77273575D01*
X98151160Y-77243327D01*
X98151010Y-77242965D01*
X98141052Y-77210141D01*
X98140976Y-77209756D01*
X98137010Y-77169484D01*
X98137000Y-77169288D01*
X98137000Y-77086346D01*
X98138000Y-77084614D01*
X98140000Y-77084614D01*
X98140990Y-77086150D01*
G37*
G36*
X99982165Y-77084720D02*
G01*
X99983000Y-77086346D01*
X99983000Y-77169288D01*
X99982990Y-77169484D01*
X99979024Y-77209756D01*
X99978948Y-77210141D01*
X99968990Y-77242965D01*
X99968840Y-77243327D01*
X99952672Y-77273575D01*
X99952454Y-77273901D01*
X99930694Y-77300417D01*
X99930417Y-77300694D01*
X99903901Y-77322454D01*
X99903575Y-77322672D01*
X99873327Y-77338840D01*
X99872965Y-77338990D01*
X99840141Y-77348948D01*
X99839756Y-77349024D01*
X99799484Y-77352990D01*
X99799288Y-77353000D01*
X99716346Y-77353000D01*
X99714614Y-77352000D01*
X99714614Y-77350000D01*
X99716150Y-77349010D01*
X99767582Y-77343945D01*
X99816856Y-77328997D01*
X99862264Y-77304727D01*
X99902064Y-77272064D01*
X99934727Y-77232264D01*
X99958997Y-77186856D01*
X99973945Y-77137582D01*
X99979010Y-77086150D01*
X99980175Y-77084524D01*
X99982165Y-77084720D01*
G37*
G36*
X98405386Y-75048000D02*
G01*
X98405386Y-75050000D01*
X98403850Y-75050990D01*
X98352418Y-75056055D01*
X98303144Y-75071003D01*
X98257736Y-75095273D01*
X98217936Y-75127936D01*
X98185273Y-75167736D01*
X98161003Y-75213144D01*
X98146055Y-75262418D01*
X98140990Y-75313850D01*
X98139825Y-75315476D01*
X98137835Y-75315280D01*
X98137000Y-75313654D01*
X98137000Y-75230712D01*
X98137010Y-75230516D01*
X98140976Y-75190244D01*
X98141052Y-75189859D01*
X98151010Y-75157035D01*
X98151160Y-75156673D01*
X98167328Y-75126425D01*
X98167546Y-75126099D01*
X98189306Y-75099583D01*
X98189583Y-75099306D01*
X98216099Y-75077546D01*
X98216425Y-75077328D01*
X98246673Y-75061160D01*
X98247035Y-75061010D01*
X98279859Y-75051052D01*
X98280244Y-75050976D01*
X98320516Y-75047010D01*
X98320712Y-75047000D01*
X98403654Y-75047000D01*
X98405386Y-75048000D01*
G37*
G36*
X99799484Y-75047010D02*
G01*
X99839756Y-75050976D01*
X99840141Y-75051052D01*
X99872965Y-75061010D01*
X99873327Y-75061160D01*
X99903575Y-75077328D01*
X99903901Y-75077546D01*
X99930417Y-75099306D01*
X99930694Y-75099583D01*
X99952454Y-75126099D01*
X99952672Y-75126425D01*
X99968840Y-75156673D01*
X99968990Y-75157035D01*
X99978948Y-75189859D01*
X99979024Y-75190244D01*
X99982990Y-75230516D01*
X99983000Y-75230712D01*
X99983000Y-75313654D01*
X99982000Y-75315386D01*
X99980000Y-75315386D01*
X99979010Y-75313850D01*
X99973945Y-75262418D01*
X99958997Y-75213144D01*
X99934727Y-75167736D01*
X99902064Y-75127936D01*
X99862264Y-75095273D01*
X99816856Y-75071003D01*
X99767582Y-75056055D01*
X99716150Y-75050990D01*
X99714524Y-75049825D01*
X99714720Y-75047835D01*
X99716346Y-75047000D01*
X99799288Y-75047000D01*
X99799484Y-75047010D01*
G37*
M02*
