M48
; DRILL file {KiCad 5.1.8+dfsg1-1+b1} date Mon Feb  1 14:20:07 2021
; FORMAT={-:-/ absolute / inch / decimal}
; #@! TF.CreationDate,2021-02-01T14:20:07-06:00
; #@! TF.GenerationSoftware,Kicad,Pcbnew,5.1.8+dfsg1-1+b1
; #@! TF.FileFunction,Plated,1,2,PTH
FMAT,2
INCH
T1C0.0157
T2C0.0315
T3C0.0472
T4C0.0591
%
G90
G05
T1
X3.65Y-3.3
X3.65Y-3.85
T2
X3.8Y-3.3
X3.8Y-3.6
X3.9Y-3.3
X3.9Y-3.6
X4.0Y-3.3
X4.0Y-3.6
X4.1Y-3.3
X4.1Y-3.6
X4.4Y-3.6
X4.5Y-3.6
X4.6Y-3.6
T3
X3.9Y-3.0
X4.0Y-3.0
X4.1Y-3.0
T4
X3.5Y-4.0
X3.3Y-4.0
X3.7Y-4.0
X3.9Y-4.0
X4.1Y-4.0
T0
M30
