G04 #@! TF.GenerationSoftware,KiCad,Pcbnew,5.1.8+dfsg1-1+b1*
G04 #@! TF.CreationDate,2021-02-01T14:20:05-06:00*
G04 #@! TF.ProjectId,DC_Amplifier,44435f41-6d70-46c6-9966-6965722e6b69,1.1.0*
G04 #@! TF.SameCoordinates,Original*
G04 #@! TF.FileFunction,Legend,Bot*
G04 #@! TF.FilePolarity,Positive*
%FSLAX46Y46*%
G04 Gerber Fmt 4.6, Leading zero omitted, Abs format (unit mm)*
G04 Created by KiCad (PCBNEW 5.1.8+dfsg1-1+b1) date 2021-02-01 14:20:05*
%MOMM*%
%LPD*%
G01*
G04 APERTURE LIST*
%ADD10C,0.150000*%
G04 #@! TA.AperFunction,Profile*
%ADD11C,0.050000*%
G04 #@! TD*
G04 APERTURE END LIST*
D10*
X119792142Y-75827380D02*
X120125476Y-75351190D01*
X120363571Y-75827380D02*
X120363571Y-74827380D01*
X119982619Y-74827380D01*
X119887380Y-74875000D01*
X119839761Y-74922619D01*
X119792142Y-75017857D01*
X119792142Y-75160714D01*
X119839761Y-75255952D01*
X119887380Y-75303571D01*
X119982619Y-75351190D01*
X120363571Y-75351190D01*
X119363571Y-75303571D02*
X119030238Y-75303571D01*
X118887380Y-75827380D02*
X119363571Y-75827380D01*
X119363571Y-74827380D01*
X118887380Y-74827380D01*
X118601666Y-74827380D02*
X118268333Y-75827380D01*
X117935000Y-74827380D01*
X117601666Y-75827380D02*
X117601666Y-74827380D01*
X117173095Y-75779761D02*
X117030238Y-75827380D01*
X116792142Y-75827380D01*
X116696904Y-75779761D01*
X116649285Y-75732142D01*
X116601666Y-75636904D01*
X116601666Y-75541666D01*
X116649285Y-75446428D01*
X116696904Y-75398809D01*
X116792142Y-75351190D01*
X116982619Y-75303571D01*
X117077857Y-75255952D01*
X117125476Y-75208333D01*
X117173095Y-75113095D01*
X117173095Y-75017857D01*
X117125476Y-74922619D01*
X117077857Y-74875000D01*
X116982619Y-74827380D01*
X116744523Y-74827380D01*
X116601666Y-74875000D01*
X116173095Y-75827380D02*
X116173095Y-74827380D01*
X115506428Y-74827380D02*
X115315952Y-74827380D01*
X115220714Y-74875000D01*
X115125476Y-74970238D01*
X115077857Y-75160714D01*
X115077857Y-75494047D01*
X115125476Y-75684523D01*
X115220714Y-75779761D01*
X115315952Y-75827380D01*
X115506428Y-75827380D01*
X115601666Y-75779761D01*
X115696904Y-75684523D01*
X115744523Y-75494047D01*
X115744523Y-75160714D01*
X115696904Y-74970238D01*
X115601666Y-74875000D01*
X115506428Y-74827380D01*
X114649285Y-75827380D02*
X114649285Y-74827380D01*
X114077857Y-75827380D01*
X114077857Y-74827380D01*
X112315952Y-75827380D02*
X112887380Y-75827380D01*
X112601666Y-75827380D02*
X112601666Y-74827380D01*
X112696904Y-74970238D01*
X112792142Y-75065476D01*
X112887380Y-75113095D01*
X111887380Y-75732142D02*
X111839761Y-75779761D01*
X111887380Y-75827380D01*
X111935000Y-75779761D01*
X111887380Y-75732142D01*
X111887380Y-75827380D01*
X110887380Y-75827380D02*
X111458809Y-75827380D01*
X111173095Y-75827380D02*
X111173095Y-74827380D01*
X111268333Y-74970238D01*
X111363571Y-75065476D01*
X111458809Y-75113095D01*
X110458809Y-75732142D02*
X110411190Y-75779761D01*
X110458809Y-75827380D01*
X110506428Y-75779761D01*
X110458809Y-75732142D01*
X110458809Y-75827380D01*
X109792142Y-74827380D02*
X109696904Y-74827380D01*
X109601666Y-74875000D01*
X109554047Y-74922619D01*
X109506428Y-75017857D01*
X109458809Y-75208333D01*
X109458809Y-75446428D01*
X109506428Y-75636904D01*
X109554047Y-75732142D01*
X109601666Y-75779761D01*
X109696904Y-75827380D01*
X109792142Y-75827380D01*
X109887380Y-75779761D01*
X109935000Y-75732142D01*
X109982619Y-75636904D01*
X110030238Y-75446428D01*
X110030238Y-75208333D01*
X109982619Y-75017857D01*
X109935000Y-74922619D01*
X109887380Y-74875000D01*
X109792142Y-74827380D01*
X120411190Y-76953571D02*
X120744523Y-76953571D01*
X120744523Y-77477380D02*
X120744523Y-76477380D01*
X120268333Y-76477380D01*
X119887380Y-76953571D02*
X119554047Y-76953571D01*
X119411190Y-77477380D02*
X119887380Y-77477380D01*
X119887380Y-76477380D01*
X119411190Y-76477380D01*
X118649285Y-76953571D02*
X118506428Y-77001190D01*
X118458809Y-77048809D01*
X118411190Y-77144047D01*
X118411190Y-77286904D01*
X118458809Y-77382142D01*
X118506428Y-77429761D01*
X118601666Y-77477380D01*
X118982619Y-77477380D01*
X118982619Y-76477380D01*
X118649285Y-76477380D01*
X118554047Y-76525000D01*
X118506428Y-76572619D01*
X118458809Y-76667857D01*
X118458809Y-76763095D01*
X118506428Y-76858333D01*
X118554047Y-76905952D01*
X118649285Y-76953571D01*
X118982619Y-76953571D01*
X117411190Y-77477380D02*
X117744523Y-77001190D01*
X117982619Y-77477380D02*
X117982619Y-76477380D01*
X117601666Y-76477380D01*
X117506428Y-76525000D01*
X117458809Y-76572619D01*
X117411190Y-76667857D01*
X117411190Y-76810714D01*
X117458809Y-76905952D01*
X117506428Y-76953571D01*
X117601666Y-77001190D01*
X117982619Y-77001190D01*
X116982619Y-76477380D02*
X116982619Y-77286904D01*
X116935000Y-77382142D01*
X116887380Y-77429761D01*
X116792142Y-77477380D01*
X116601666Y-77477380D01*
X116506428Y-77429761D01*
X116458809Y-77382142D01*
X116411190Y-77286904D01*
X116411190Y-76477380D01*
X115982619Y-77191666D02*
X115506428Y-77191666D01*
X116077857Y-77477380D02*
X115744523Y-76477380D01*
X115411190Y-77477380D01*
X114506428Y-77477380D02*
X114839761Y-77001190D01*
X115077857Y-77477380D02*
X115077857Y-76477380D01*
X114696904Y-76477380D01*
X114601666Y-76525000D01*
X114554047Y-76572619D01*
X114506428Y-76667857D01*
X114506428Y-76810714D01*
X114554047Y-76905952D01*
X114601666Y-76953571D01*
X114696904Y-77001190D01*
X115077857Y-77001190D01*
X113887380Y-77001190D02*
X113887380Y-77477380D01*
X114220714Y-76477380D02*
X113887380Y-77001190D01*
X113554047Y-76477380D01*
X112506428Y-76572619D02*
X112458809Y-76525000D01*
X112363571Y-76477380D01*
X112125476Y-76477380D01*
X112030238Y-76525000D01*
X111982619Y-76572619D01*
X111935000Y-76667857D01*
X111935000Y-76763095D01*
X111982619Y-76905952D01*
X112554047Y-77477380D01*
X111935000Y-77477380D01*
X111315952Y-76477380D02*
X111220714Y-76477380D01*
X111125476Y-76525000D01*
X111077857Y-76572619D01*
X111030238Y-76667857D01*
X110982619Y-76858333D01*
X110982619Y-77096428D01*
X111030238Y-77286904D01*
X111077857Y-77382142D01*
X111125476Y-77429761D01*
X111220714Y-77477380D01*
X111315952Y-77477380D01*
X111411190Y-77429761D01*
X111458809Y-77382142D01*
X111506428Y-77286904D01*
X111554047Y-77096428D01*
X111554047Y-76858333D01*
X111506428Y-76667857D01*
X111458809Y-76572619D01*
X111411190Y-76525000D01*
X111315952Y-76477380D01*
X110601666Y-76572619D02*
X110554047Y-76525000D01*
X110458809Y-76477380D01*
X110220714Y-76477380D01*
X110125476Y-76525000D01*
X110077857Y-76572619D01*
X110030238Y-76667857D01*
X110030238Y-76763095D01*
X110077857Y-76905952D01*
X110649285Y-77477380D01*
X110030238Y-77477380D01*
X109077857Y-77477380D02*
X109649285Y-77477380D01*
X109363571Y-77477380D02*
X109363571Y-76477380D01*
X109458809Y-76620238D01*
X109554047Y-76715476D01*
X109649285Y-76763095D01*
X94645952Y-74478571D02*
X94503095Y-74526190D01*
X94455476Y-74573809D01*
X94407857Y-74669047D01*
X94407857Y-74811904D01*
X94455476Y-74907142D01*
X94503095Y-74954761D01*
X94598333Y-75002380D01*
X94979285Y-75002380D01*
X94979285Y-74002380D01*
X94645952Y-74002380D01*
X94550714Y-74050000D01*
X94503095Y-74097619D01*
X94455476Y-74192857D01*
X94455476Y-74288095D01*
X94503095Y-74383333D01*
X94550714Y-74430952D01*
X94645952Y-74478571D01*
X94979285Y-74478571D01*
X93979285Y-74907142D02*
X93931666Y-74954761D01*
X93979285Y-75002380D01*
X94026904Y-74954761D01*
X93979285Y-74907142D01*
X93979285Y-75002380D01*
X92741190Y-75002380D02*
X92741190Y-74002380D01*
X92407857Y-74716666D01*
X92074523Y-74002380D01*
X92074523Y-75002380D01*
X91598333Y-74478571D02*
X91265000Y-74478571D01*
X91122142Y-75002380D02*
X91598333Y-75002380D01*
X91598333Y-74002380D01*
X91122142Y-74002380D01*
X90693571Y-75002380D02*
X90693571Y-74002380D01*
X90693571Y-74478571D02*
X90122142Y-74478571D01*
X90122142Y-75002380D02*
X90122142Y-74002380D01*
X89169761Y-75002380D02*
X89645952Y-75002380D01*
X89645952Y-74002380D01*
X88836428Y-74478571D02*
X88503095Y-74478571D01*
X88360238Y-75002380D02*
X88836428Y-75002380D01*
X88836428Y-74002380D01*
X88360238Y-74002380D01*
X87931666Y-75002380D02*
X87931666Y-74002380D01*
X87360238Y-75002380D01*
X87360238Y-74002380D01*
X86550714Y-74478571D02*
X86407857Y-74526190D01*
X86360238Y-74573809D01*
X86312619Y-74669047D01*
X86312619Y-74811904D01*
X86360238Y-74907142D01*
X86407857Y-74954761D01*
X86503095Y-75002380D01*
X86884047Y-75002380D01*
X86884047Y-74002380D01*
X86550714Y-74002380D01*
X86455476Y-74050000D01*
X86407857Y-74097619D01*
X86360238Y-74192857D01*
X86360238Y-74288095D01*
X86407857Y-74383333D01*
X86455476Y-74430952D01*
X86550714Y-74478571D01*
X86884047Y-74478571D01*
X85931666Y-74716666D02*
X85455476Y-74716666D01*
X86026904Y-75002380D02*
X85693571Y-74002380D01*
X85360238Y-75002380D01*
X84455476Y-74907142D02*
X84503095Y-74954761D01*
X84645952Y-75002380D01*
X84741190Y-75002380D01*
X84884047Y-74954761D01*
X84979285Y-74859523D01*
X85026904Y-74764285D01*
X85074523Y-74573809D01*
X85074523Y-74430952D01*
X85026904Y-74240476D01*
X84979285Y-74145238D01*
X84884047Y-74050000D01*
X84741190Y-74002380D01*
X84645952Y-74002380D01*
X84503095Y-74050000D01*
X84455476Y-74097619D01*
X84026904Y-75002380D02*
X84026904Y-74002380D01*
X84026904Y-74478571D02*
X83455476Y-74478571D01*
X83455476Y-75002380D02*
X83455476Y-74002380D01*
X82979285Y-74478571D02*
X82645952Y-74478571D01*
X82503095Y-75002380D02*
X82979285Y-75002380D01*
X82979285Y-74002380D01*
X82503095Y-74002380D01*
X81503095Y-75002380D02*
X81836428Y-74526190D01*
X82074523Y-75002380D02*
X82074523Y-74002380D01*
X81693571Y-74002380D01*
X81598333Y-74050000D01*
X81550714Y-74097619D01*
X81503095Y-74192857D01*
X81503095Y-74335714D01*
X81550714Y-74430952D01*
X81598333Y-74478571D01*
X81693571Y-74526190D01*
X82074523Y-74526190D01*
X93003095Y-75652380D02*
X93003095Y-76461904D01*
X92955476Y-76557142D01*
X92907857Y-76604761D01*
X92812619Y-76652380D01*
X92622142Y-76652380D01*
X92526904Y-76604761D01*
X92479285Y-76557142D01*
X92431666Y-76461904D01*
X92431666Y-75652380D01*
X92050714Y-75652380D02*
X91812619Y-76652380D01*
X91622142Y-75938095D01*
X91431666Y-76652380D01*
X91193571Y-75652380D01*
X90812619Y-76271428D02*
X90050714Y-76271428D01*
X89574523Y-76652380D02*
X89574523Y-75652380D01*
X89241190Y-76366666D01*
X88907857Y-75652380D01*
X88907857Y-76652380D01*
X88479285Y-76366666D02*
X88003095Y-76366666D01*
X88574523Y-76652380D02*
X88241190Y-75652380D01*
X87907857Y-76652380D01*
X87574523Y-76652380D02*
X87574523Y-75652380D01*
X87336428Y-75652380D01*
X87193571Y-75700000D01*
X87098333Y-75795238D01*
X87050714Y-75890476D01*
X87003095Y-76080952D01*
X87003095Y-76223809D01*
X87050714Y-76414285D01*
X87098333Y-76509523D01*
X87193571Y-76604761D01*
X87336428Y-76652380D01*
X87574523Y-76652380D01*
X86574523Y-76652380D02*
X86574523Y-75652380D01*
X86145952Y-76604761D02*
X86003095Y-76652380D01*
X85765000Y-76652380D01*
X85669761Y-76604761D01*
X85622142Y-76557142D01*
X85574523Y-76461904D01*
X85574523Y-76366666D01*
X85622142Y-76271428D01*
X85669761Y-76223809D01*
X85765000Y-76176190D01*
X85955476Y-76128571D01*
X86050714Y-76080952D01*
X86098333Y-76033333D01*
X86145952Y-75938095D01*
X86145952Y-75842857D01*
X86098333Y-75747619D01*
X86050714Y-75700000D01*
X85955476Y-75652380D01*
X85717380Y-75652380D01*
X85574523Y-75700000D01*
X84955476Y-75652380D02*
X84765000Y-75652380D01*
X84669761Y-75700000D01*
X84574523Y-75795238D01*
X84526904Y-75985714D01*
X84526904Y-76319047D01*
X84574523Y-76509523D01*
X84669761Y-76604761D01*
X84765000Y-76652380D01*
X84955476Y-76652380D01*
X85050714Y-76604761D01*
X85145952Y-76509523D01*
X85193571Y-76319047D01*
X85193571Y-75985714D01*
X85145952Y-75795238D01*
X85050714Y-75700000D01*
X84955476Y-75652380D01*
X84098333Y-76652380D02*
X84098333Y-75652380D01*
X83526904Y-76652380D01*
X83526904Y-75652380D01*
X91526904Y-78207142D02*
X91574523Y-78254761D01*
X91717380Y-78302380D01*
X91812619Y-78302380D01*
X91955476Y-78254761D01*
X92050714Y-78159523D01*
X92098333Y-78064285D01*
X92145952Y-77873809D01*
X92145952Y-77730952D01*
X92098333Y-77540476D01*
X92050714Y-77445238D01*
X91955476Y-77350000D01*
X91812619Y-77302380D01*
X91717380Y-77302380D01*
X91574523Y-77350000D01*
X91526904Y-77397619D01*
X91098333Y-78302380D02*
X91098333Y-77302380D01*
X91098333Y-77778571D02*
X90526904Y-77778571D01*
X90526904Y-78302380D02*
X90526904Y-77302380D01*
X90050714Y-77778571D02*
X89717380Y-77778571D01*
X89574523Y-78302380D02*
X90050714Y-78302380D01*
X90050714Y-77302380D01*
X89574523Y-77302380D01*
X89145952Y-78302380D02*
X89145952Y-77302380D01*
X88812619Y-78016666D01*
X88479285Y-77302380D01*
X88479285Y-78302380D01*
X88003095Y-78302380D02*
X88003095Y-77302380D01*
X87574523Y-78254761D02*
X87431666Y-78302380D01*
X87193571Y-78302380D01*
X87098333Y-78254761D01*
X87050714Y-78207142D01*
X87003095Y-78111904D01*
X87003095Y-78016666D01*
X87050714Y-77921428D01*
X87098333Y-77873809D01*
X87193571Y-77826190D01*
X87384047Y-77778571D01*
X87479285Y-77730952D01*
X87526904Y-77683333D01*
X87574523Y-77588095D01*
X87574523Y-77492857D01*
X87526904Y-77397619D01*
X87479285Y-77350000D01*
X87384047Y-77302380D01*
X87145952Y-77302380D01*
X87003095Y-77350000D01*
X86717380Y-77302380D02*
X86145952Y-77302380D01*
X86431666Y-78302380D02*
X86431666Y-77302380D01*
X85241190Y-78302380D02*
X85574523Y-77826190D01*
X85812619Y-78302380D02*
X85812619Y-77302380D01*
X85431666Y-77302380D01*
X85336428Y-77350000D01*
X85288809Y-77397619D01*
X85241190Y-77492857D01*
X85241190Y-77635714D01*
X85288809Y-77730952D01*
X85336428Y-77778571D01*
X85431666Y-77826190D01*
X85812619Y-77826190D01*
X84622142Y-77826190D02*
X84622142Y-78302380D01*
X84955476Y-77302380D02*
X84622142Y-77826190D01*
X84288809Y-77302380D01*
D11*
X127000000Y-71120000D02*
X76200000Y-71120000D01*
X132080000Y-101600000D02*
X132080000Y-76200000D01*
X76200000Y-106680000D02*
X127000000Y-106680000D01*
X71120000Y-76200000D02*
X71120000Y-101600000D01*
X132080000Y-101600000D02*
G75*
G02*
X127000000Y-106680000I-5080000J0D01*
G01*
X76200000Y-106680000D02*
G75*
G02*
X71120000Y-101600000I0J5080000D01*
G01*
X71120000Y-76200000D02*
G75*
G02*
X76200000Y-71120000I5080000J0D01*
G01*
X127000000Y-71120000D02*
G75*
G02*
X132080000Y-76200000I0J-5080000D01*
G01*
D10*
X78105000Y-83820000D02*
X71120000Y-83820000D01*
X78105000Y-93980000D02*
X78105000Y-83820000D01*
X71120000Y-93980000D02*
X78105000Y-93980000D01*
X71120000Y-83820000D02*
X71120000Y-93980000D01*
X125095000Y-93980000D02*
X132080000Y-93980000D01*
X125095000Y-83820000D02*
X125095000Y-93980000D01*
X132080000Y-83820000D02*
X125095000Y-83820000D01*
X132080000Y-93980000D02*
X132080000Y-83820000D01*
X76287380Y-85638095D02*
X77001666Y-85638095D01*
X77144523Y-85590476D01*
X77239761Y-85495238D01*
X77287380Y-85352380D01*
X77287380Y-85257142D01*
X77382619Y-85876190D02*
X77382619Y-86638095D01*
X77239761Y-86828571D02*
X77287380Y-86971428D01*
X77287380Y-87209523D01*
X77239761Y-87304761D01*
X77192142Y-87352380D01*
X77096904Y-87400000D01*
X77001666Y-87400000D01*
X76906428Y-87352380D01*
X76858809Y-87304761D01*
X76811190Y-87209523D01*
X76763571Y-87019047D01*
X76715952Y-86923809D01*
X76668333Y-86876190D01*
X76573095Y-86828571D01*
X76477857Y-86828571D01*
X76382619Y-86876190D01*
X76335000Y-86923809D01*
X76287380Y-87019047D01*
X76287380Y-87257142D01*
X76335000Y-87400000D01*
X77287380Y-87971428D02*
X77239761Y-87876190D01*
X77192142Y-87828571D01*
X77096904Y-87780952D01*
X76811190Y-87780952D01*
X76715952Y-87828571D01*
X76668333Y-87876190D01*
X76620714Y-87971428D01*
X76620714Y-88114285D01*
X76668333Y-88209523D01*
X76715952Y-88257142D01*
X76811190Y-88304761D01*
X77096904Y-88304761D01*
X77192142Y-88257142D01*
X77239761Y-88209523D01*
X77287380Y-88114285D01*
X77287380Y-87971428D01*
X76620714Y-89161904D02*
X77287380Y-89161904D01*
X76620714Y-88733333D02*
X77144523Y-88733333D01*
X77239761Y-88780952D01*
X77287380Y-88876190D01*
X77287380Y-89019047D01*
X77239761Y-89114285D01*
X77192142Y-89161904D01*
X77287380Y-89638095D02*
X76620714Y-89638095D01*
X76811190Y-89638095D02*
X76715952Y-89685714D01*
X76668333Y-89733333D01*
X76620714Y-89828571D01*
X76620714Y-89923809D01*
X77239761Y-90685714D02*
X77287380Y-90590476D01*
X77287380Y-90400000D01*
X77239761Y-90304761D01*
X77192142Y-90257142D01*
X77096904Y-90209523D01*
X76811190Y-90209523D01*
X76715952Y-90257142D01*
X76668333Y-90304761D01*
X76620714Y-90400000D01*
X76620714Y-90590476D01*
X76668333Y-90685714D01*
X77239761Y-91495238D02*
X77287380Y-91400000D01*
X77287380Y-91209523D01*
X77239761Y-91114285D01*
X77144523Y-91066666D01*
X76763571Y-91066666D01*
X76668333Y-91114285D01*
X76620714Y-91209523D01*
X76620714Y-91400000D01*
X76668333Y-91495238D01*
X76763571Y-91542857D01*
X76858809Y-91542857D01*
X76954047Y-91066666D01*
X77287380Y-92495238D02*
X77287380Y-91923809D01*
X77287380Y-92209523D02*
X76287380Y-92209523D01*
X76430238Y-92114285D01*
X76525476Y-92019047D01*
X76573095Y-91923809D01*
X126912619Y-92066666D02*
X126198333Y-92066666D01*
X126055476Y-92114285D01*
X125960238Y-92209523D01*
X125912619Y-92352380D01*
X125912619Y-92447619D01*
X125817380Y-91828571D02*
X125817380Y-91066666D01*
X126912619Y-90638095D02*
X126912619Y-90447619D01*
X126865000Y-90352380D01*
X126769761Y-90257142D01*
X126579285Y-90209523D01*
X126245952Y-90209523D01*
X126055476Y-90257142D01*
X125960238Y-90352380D01*
X125912619Y-90447619D01*
X125912619Y-90638095D01*
X125960238Y-90733333D01*
X126055476Y-90828571D01*
X126245952Y-90876190D01*
X126579285Y-90876190D01*
X126769761Y-90828571D01*
X126865000Y-90733333D01*
X126912619Y-90638095D01*
X126579285Y-89352380D02*
X125912619Y-89352380D01*
X126579285Y-89780952D02*
X126055476Y-89780952D01*
X125960238Y-89733333D01*
X125912619Y-89638095D01*
X125912619Y-89495238D01*
X125960238Y-89400000D01*
X126007857Y-89352380D01*
X126579285Y-89019047D02*
X126579285Y-88638095D01*
X126912619Y-88876190D02*
X126055476Y-88876190D01*
X125960238Y-88828571D01*
X125912619Y-88733333D01*
X125912619Y-88638095D01*
X126579285Y-88304761D02*
X125579285Y-88304761D01*
X126531666Y-88304761D02*
X126579285Y-88209523D01*
X126579285Y-88019047D01*
X126531666Y-87923809D01*
X126484047Y-87876190D01*
X126388809Y-87828571D01*
X126103095Y-87828571D01*
X126007857Y-87876190D01*
X125960238Y-87923809D01*
X125912619Y-88019047D01*
X125912619Y-88209523D01*
X125960238Y-88304761D01*
X126579285Y-86971428D02*
X125912619Y-86971428D01*
X126579285Y-87400000D02*
X126055476Y-87400000D01*
X125960238Y-87352380D01*
X125912619Y-87257142D01*
X125912619Y-87114285D01*
X125960238Y-87019047D01*
X126007857Y-86971428D01*
X126579285Y-86638095D02*
X126579285Y-86257142D01*
X126912619Y-86495238D02*
X126055476Y-86495238D01*
X125960238Y-86447619D01*
X125912619Y-86352380D01*
X125912619Y-86257142D01*
X125912619Y-85400000D02*
X125912619Y-85971428D01*
X125912619Y-85685714D02*
X126912619Y-85685714D01*
X126769761Y-85780952D01*
X126674523Y-85876190D01*
X126626904Y-85971428D01*
M02*
