G04 #@! TF.GenerationSoftware,KiCad,Pcbnew,7.0.6*
G04 #@! TF.CreationDate,2023-07-18T09:57:41-05:00*
G04 #@! TF.ProjectId,DC_Amplifier,44435f41-6d70-46c6-9966-6965722e6b69,B*
G04 #@! TF.SameCoordinates,Original*
G04 #@! TF.FileFunction,Copper,L1,Top*
G04 #@! TF.FilePolarity,Positive*
%FSLAX46Y46*%
G04 Gerber Fmt 4.6, Leading zero omitted, Abs format (unit mm)*
G04 Created by KiCad (PCBNEW 7.0.6) date 2023-07-18 09:57:41*
%MOMM*%
%LPD*%
G01*
G04 APERTURE LIST*
G04 Aperture macros list*
%AMRoundRect*
0 Rectangle with rounded corners*
0 $1 Rounding radius*
0 $2 $3 $4 $5 $6 $7 $8 $9 X,Y pos of 4 corners*
0 Add a 4 corners polygon primitive as box body*
4,1,4,$2,$3,$4,$5,$6,$7,$8,$9,$2,$3,0*
0 Add four circle primitives for the rounded corners*
1,1,$1+$1,$2,$3*
1,1,$1+$1,$4,$5*
1,1,$1+$1,$6,$7*
1,1,$1+$1,$8,$9*
0 Add four rect primitives between the rounded corners*
20,1,$1+$1,$2,$3,$4,$5,0*
20,1,$1+$1,$4,$5,$6,$7,0*
20,1,$1+$1,$6,$7,$8,$9,0*
20,1,$1+$1,$8,$9,$2,$3,0*%
G04 Aperture macros list end*
G04 #@! TA.AperFunction,ComponentPad*
%ADD10R,1.600000X2.400000*%
G04 #@! TD*
G04 #@! TA.AperFunction,ComponentPad*
%ADD11O,1.600000X2.400000*%
G04 #@! TD*
G04 #@! TA.AperFunction,SMDPad,CuDef*
%ADD12RoundRect,0.250000X-0.400000X-0.625000X0.400000X-0.625000X0.400000X0.625000X-0.400000X0.625000X0*%
G04 #@! TD*
G04 #@! TA.AperFunction,SMDPad,CuDef*
%ADD13RoundRect,0.249999X0.412501X0.650001X-0.412501X0.650001X-0.412501X-0.650001X0.412501X-0.650001X0*%
G04 #@! TD*
G04 #@! TA.AperFunction,ComponentPad*
%ADD14RoundRect,0.249999X-0.620001X-0.850001X0.620001X-0.850001X0.620001X0.850001X-0.620001X0.850001X0*%
G04 #@! TD*
G04 #@! TA.AperFunction,ComponentPad*
%ADD15O,1.740000X2.200000*%
G04 #@! TD*
G04 #@! TA.AperFunction,ComponentPad*
%ADD16C,1.440000*%
G04 #@! TD*
G04 #@! TA.AperFunction,ComponentPad*
%ADD17C,3.000000*%
G04 #@! TD*
G04 #@! TA.AperFunction,SMDPad,CuDef*
%ADD18R,4.191000X2.667000*%
G04 #@! TD*
G04 #@! TA.AperFunction,ViaPad*
%ADD19C,0.800000*%
G04 #@! TD*
G04 #@! TA.AperFunction,Conductor*
%ADD20C,0.762000*%
G04 #@! TD*
G04 APERTURE END LIST*
D10*
X104140000Y-83820000D03*
D11*
X101600000Y-83820000D03*
X99060000Y-83820000D03*
X96520000Y-83820000D03*
X96520000Y-91440000D03*
X99060000Y-91440000D03*
X101600000Y-91440000D03*
X104140000Y-91440000D03*
D12*
X112750000Y-83820000D03*
X115850000Y-83820000D03*
D13*
X94272500Y-76200000D03*
X91147500Y-76200000D03*
X112052500Y-76200000D03*
X108927500Y-76200000D03*
D14*
X99060000Y-76200000D03*
D15*
X101600000Y-76200000D03*
X104140000Y-76200000D03*
D16*
X116840000Y-91440000D03*
X114300000Y-91440000D03*
X111760000Y-91440000D03*
D17*
X83820000Y-101600000D03*
X88900000Y-101600000D03*
X93980000Y-101600000D03*
X104140000Y-101600000D03*
X99060000Y-101600000D03*
D18*
X129984500Y-92392500D03*
X129984500Y-85407500D03*
X73215500Y-85407500D03*
X73215500Y-92392500D03*
D19*
X92710000Y-83820000D03*
X92710000Y-97790000D03*
D20*
X99060000Y-93980000D02*
X101600000Y-96520000D01*
X101600000Y-96520000D02*
X109220000Y-96520000D01*
X111760000Y-93980000D02*
X111760000Y-91440000D01*
X109220000Y-96520000D02*
X111760000Y-93980000D01*
X99060000Y-91440000D02*
X99060000Y-93980000D01*
X111760000Y-91440000D02*
X114300000Y-91440000D01*
X99060000Y-76200000D02*
X94272500Y-76200000D01*
X93980000Y-81280000D02*
X93980000Y-87630000D01*
X99060000Y-76200000D02*
X93980000Y-81280000D01*
X95250000Y-88900000D02*
X100330000Y-88900000D01*
X93980000Y-87630000D02*
X95250000Y-88900000D01*
X101600000Y-90170000D02*
X101600000Y-91440000D01*
X100330000Y-88900000D02*
X101600000Y-90170000D01*
X97790000Y-80010000D02*
X96520000Y-81280000D01*
X104140000Y-78740000D02*
X102870000Y-80010000D01*
X108927500Y-76200000D02*
X104140000Y-76200000D01*
X92710000Y-83820000D02*
X92710000Y-97790000D01*
X96520000Y-81280000D02*
X96520000Y-83820000D01*
X102870000Y-80010000D02*
X97790000Y-80010000D01*
X104140000Y-76200000D02*
X104140000Y-78740000D01*
X112750000Y-86080000D02*
X113030000Y-86360000D01*
X101600000Y-85090000D02*
X102870000Y-86360000D01*
X102870000Y-86360000D02*
X113030000Y-86360000D01*
X101600000Y-83820000D02*
X101600000Y-85090000D01*
X116840000Y-90170000D02*
X116840000Y-91440000D01*
X112750000Y-83820000D02*
X112750000Y-86080000D01*
X113030000Y-86360000D02*
X116840000Y-90170000D01*
G04 #@! TA.AperFunction,Conductor*
G36*
X101854000Y-77784896D02*
G01*
X102004971Y-77752360D01*
X102222624Y-77664899D01*
X102422372Y-77541909D01*
X102422374Y-77541907D01*
X102598447Y-77386943D01*
X102598455Y-77386934D01*
X102745812Y-77204437D01*
X102745812Y-77204436D01*
X102760851Y-77177515D01*
X102811534Y-77127798D01*
X102881050Y-77113375D01*
X102947328Y-77138825D01*
X102975243Y-77168404D01*
X103063600Y-77299132D01*
X103215467Y-77457587D01*
X103248161Y-77520607D01*
X103250500Y-77544771D01*
X103250500Y-78319365D01*
X103230498Y-78387486D01*
X103213596Y-78408460D01*
X102538462Y-79083595D01*
X102476149Y-79117620D01*
X102449366Y-79120500D01*
X97869925Y-79120500D01*
X97850215Y-79118949D01*
X97836806Y-79116825D01*
X97794258Y-79119056D01*
X97768334Y-79120414D01*
X97765064Y-79120500D01*
X97743380Y-79120500D01*
X97743376Y-79120500D01*
X97743362Y-79120501D01*
X97721813Y-79122765D01*
X97718530Y-79123024D01*
X97704815Y-79123743D01*
X97635740Y-79107336D01*
X97586501Y-79056189D01*
X97572731Y-78986541D01*
X97598801Y-78920504D01*
X97609113Y-78908829D01*
X98672538Y-77845405D01*
X98734850Y-77811379D01*
X98761633Y-77808500D01*
X99730554Y-77808500D01*
X99789906Y-77802435D01*
X99834427Y-77797887D01*
X100002739Y-77742115D01*
X100153652Y-77649030D01*
X100279030Y-77523652D01*
X100372115Y-77372739D01*
X100372116Y-77372733D01*
X100373819Y-77369974D01*
X100426605Y-77322496D01*
X100496680Y-77311093D01*
X100561795Y-77339385D01*
X100572026Y-77348937D01*
X100686292Y-77468160D01*
X100874892Y-77607648D01*
X101084350Y-77713255D01*
X101084353Y-77713256D01*
X101308630Y-77781940D01*
X101346000Y-77786724D01*
X101346000Y-76744224D01*
X101443369Y-76784556D01*
X101560677Y-76800000D01*
X101639323Y-76800000D01*
X101756631Y-76784556D01*
X101854000Y-76744224D01*
X101854000Y-77784896D01*
G37*
G04 #@! TD.AperFunction*
G04 #@! TA.AperFunction,Conductor*
G36*
X127013240Y-71146047D02*
G01*
X127414822Y-71162657D01*
X127419948Y-71163082D01*
X127829364Y-71214115D01*
X127834477Y-71214968D01*
X128238274Y-71299635D01*
X128243289Y-71300905D01*
X128638701Y-71418625D01*
X128643619Y-71420314D01*
X129027947Y-71570279D01*
X129032718Y-71572372D01*
X129403328Y-71753552D01*
X129407909Y-71756031D01*
X129580860Y-71859087D01*
X129762318Y-71967212D01*
X129766672Y-71970058D01*
X130102413Y-72209773D01*
X130106524Y-72212972D01*
X130421340Y-72479607D01*
X130425160Y-72483123D01*
X130716875Y-72774838D01*
X130720392Y-72778659D01*
X130987027Y-73093475D01*
X130990226Y-73097586D01*
X131229941Y-73433327D01*
X131232791Y-73437688D01*
X131443968Y-73792090D01*
X131446447Y-73796671D01*
X131627627Y-74167281D01*
X131629720Y-74172052D01*
X131779685Y-74556380D01*
X131781377Y-74561307D01*
X131899092Y-74956703D01*
X131900368Y-74961742D01*
X131940130Y-75151377D01*
X131985028Y-75365506D01*
X131985885Y-75370644D01*
X132001945Y-75499482D01*
X132036915Y-75780029D01*
X132037343Y-75785199D01*
X132046107Y-75997069D01*
X132054500Y-76200000D01*
X132054500Y-83440000D01*
X132034498Y-83508121D01*
X131980842Y-83554614D01*
X131928500Y-83566000D01*
X130238500Y-83566000D01*
X130238500Y-87249000D01*
X131928500Y-87249000D01*
X131996621Y-87269002D01*
X132043114Y-87322658D01*
X132054500Y-87375000D01*
X132054500Y-90425000D01*
X132034498Y-90493121D01*
X131980842Y-90539614D01*
X131928500Y-90551000D01*
X130238500Y-90551000D01*
X130238500Y-94234000D01*
X131928500Y-94234000D01*
X131996621Y-94254002D01*
X132043114Y-94307658D01*
X132054500Y-94360000D01*
X132054500Y-101591715D01*
X132054500Y-101600000D01*
X132046107Y-101802933D01*
X132037344Y-102014792D01*
X132036914Y-102019972D01*
X132017161Y-102178445D01*
X131985885Y-102429355D01*
X131985028Y-102434493D01*
X131900371Y-102838246D01*
X131899092Y-102843296D01*
X131781377Y-103238692D01*
X131779685Y-103243619D01*
X131629720Y-103627947D01*
X131627627Y-103632718D01*
X131446447Y-104003328D01*
X131443968Y-104007909D01*
X131232791Y-104362311D01*
X131229941Y-104366672D01*
X130990226Y-104702413D01*
X130987027Y-104706524D01*
X130720392Y-105021340D01*
X130716864Y-105025173D01*
X130425173Y-105316864D01*
X130421340Y-105320392D01*
X130106524Y-105587027D01*
X130102413Y-105590226D01*
X129766672Y-105829941D01*
X129762311Y-105832791D01*
X129407909Y-106043968D01*
X129403328Y-106046447D01*
X129032718Y-106227627D01*
X129027947Y-106229720D01*
X128643619Y-106379685D01*
X128638692Y-106381377D01*
X128243296Y-106499092D01*
X128238251Y-106500369D01*
X128071718Y-106535287D01*
X127834493Y-106585028D01*
X127829355Y-106585885D01*
X127600639Y-106614394D01*
X127419972Y-106636914D01*
X127414798Y-106637343D01*
X127000000Y-106654500D01*
X76200000Y-106654500D01*
X75785199Y-106637343D01*
X75780029Y-106636915D01*
X75551299Y-106608404D01*
X75370644Y-106585885D01*
X75365506Y-106585028D01*
X75281473Y-106567408D01*
X74961742Y-106500368D01*
X74956703Y-106499092D01*
X74561307Y-106381377D01*
X74556380Y-106379685D01*
X74172052Y-106229720D01*
X74167281Y-106227627D01*
X73796671Y-106046447D01*
X73792090Y-106043968D01*
X73437688Y-105832791D01*
X73433327Y-105829941D01*
X73097586Y-105590226D01*
X73093475Y-105587027D01*
X72778659Y-105320392D01*
X72774838Y-105316875D01*
X72483123Y-105025160D01*
X72479607Y-105021340D01*
X72212972Y-104706524D01*
X72209773Y-104702413D01*
X71970058Y-104366672D01*
X71967208Y-104362311D01*
X71756031Y-104007909D01*
X71753552Y-104003328D01*
X71572372Y-103632718D01*
X71570279Y-103627947D01*
X71420314Y-103243619D01*
X71418622Y-103238692D01*
X71412474Y-103218043D01*
X71300905Y-102843289D01*
X71299635Y-102838274D01*
X71214968Y-102434477D01*
X71214114Y-102429355D01*
X71163082Y-102019948D01*
X71162657Y-102014822D01*
X71148303Y-101667765D01*
X74345788Y-101667765D01*
X74375412Y-101937014D01*
X74443928Y-102199090D01*
X74549869Y-102448389D01*
X74549870Y-102448390D01*
X74690982Y-102679610D01*
X74864255Y-102887820D01*
X75065998Y-103068582D01*
X75291910Y-103218044D01*
X75537176Y-103333020D01*
X75796569Y-103411060D01*
X75796572Y-103411060D01*
X75796574Y-103411061D01*
X76064557Y-103450500D01*
X76064561Y-103450500D01*
X76267633Y-103450500D01*
X76302363Y-103447957D01*
X76470156Y-103435677D01*
X76470160Y-103435676D01*
X76470161Y-103435676D01*
X76580665Y-103411060D01*
X76734553Y-103376780D01*
X76987558Y-103280014D01*
X77223777Y-103147441D01*
X77438177Y-102981888D01*
X77626186Y-102786881D01*
X77783799Y-102566579D01*
X77907656Y-102325675D01*
X77995118Y-102069305D01*
X78026560Y-101899082D01*
X78044318Y-101802941D01*
X78044319Y-101802930D01*
X78046943Y-101731123D01*
X78051735Y-101599999D01*
X81806807Y-101599999D01*
X81825556Y-101874116D01*
X81825557Y-101874122D01*
X81825558Y-101874130D01*
X81843238Y-101959210D01*
X81881460Y-102143146D01*
X81881462Y-102143154D01*
X81973408Y-102401865D01*
X81973477Y-102402058D01*
X82099752Y-102645759D01*
X82099892Y-102646028D01*
X82101724Y-102648623D01*
X82258343Y-102870502D01*
X82362366Y-102981883D01*
X82433482Y-103058030D01*
X82445889Y-103071314D01*
X82659031Y-103244718D01*
X82893800Y-103387484D01*
X83145823Y-103496953D01*
X83410404Y-103571085D01*
X83505504Y-103584156D01*
X83682604Y-103608499D01*
X83682615Y-103608500D01*
X83957385Y-103608500D01*
X83957395Y-103608499D01*
X84086945Y-103590692D01*
X84229596Y-103571085D01*
X84494177Y-103496953D01*
X84746200Y-103387484D01*
X84980969Y-103244718D01*
X85194111Y-103071314D01*
X85381657Y-102870502D01*
X85540111Y-102646023D01*
X85666523Y-102402058D01*
X85758538Y-102143153D01*
X85814442Y-101874130D01*
X85833193Y-101600000D01*
X85833193Y-101599999D01*
X86886807Y-101599999D01*
X86905556Y-101874116D01*
X86905557Y-101874122D01*
X86905558Y-101874130D01*
X86923238Y-101959210D01*
X86961460Y-102143146D01*
X86961462Y-102143154D01*
X87053408Y-102401865D01*
X87053477Y-102402058D01*
X87179752Y-102645759D01*
X87179892Y-102646028D01*
X87181724Y-102648623D01*
X87338343Y-102870502D01*
X87442366Y-102981883D01*
X87513482Y-103058030D01*
X87525889Y-103071314D01*
X87739031Y-103244718D01*
X87973800Y-103387484D01*
X88225823Y-103496953D01*
X88490404Y-103571085D01*
X88585504Y-103584156D01*
X88762604Y-103608499D01*
X88762615Y-103608500D01*
X89037385Y-103608500D01*
X89037395Y-103608499D01*
X89166945Y-103590692D01*
X89309596Y-103571085D01*
X89574177Y-103496953D01*
X89826200Y-103387484D01*
X90060969Y-103244718D01*
X90274111Y-103071314D01*
X90461657Y-102870502D01*
X90620111Y-102646023D01*
X90746523Y-102402058D01*
X90838538Y-102143153D01*
X90894442Y-101874130D01*
X90913193Y-101600000D01*
X90913193Y-101599999D01*
X91967308Y-101599999D01*
X91986052Y-101874048D01*
X91986053Y-101874054D01*
X92041942Y-102143011D01*
X92041944Y-102143019D01*
X92133938Y-102401865D01*
X92260314Y-102645756D01*
X92260316Y-102645759D01*
X92390541Y-102830248D01*
X93301099Y-101919690D01*
X93326059Y-101977553D01*
X93430756Y-102118185D01*
X93565062Y-102230882D01*
X93660430Y-102278777D01*
X92750715Y-103188492D01*
X92750715Y-103188494D01*
X92819313Y-103244304D01*
X92819318Y-103244307D01*
X93054030Y-103387038D01*
X93305989Y-103496480D01*
X93570509Y-103570595D01*
X93842635Y-103607999D01*
X93842649Y-103608000D01*
X94117351Y-103608000D01*
X94117364Y-103607999D01*
X94389490Y-103570595D01*
X94654010Y-103496480D01*
X94905969Y-103387038D01*
X95140679Y-103244309D01*
X95209283Y-103188493D01*
X95209283Y-103188492D01*
X94301798Y-102281007D01*
X94318891Y-102274787D01*
X94465373Y-102178445D01*
X94585688Y-102050918D01*
X94660517Y-101921307D01*
X95569457Y-102830247D01*
X95699682Y-102645762D01*
X95699685Y-102645756D01*
X95826061Y-102401865D01*
X95918055Y-102143019D01*
X95918057Y-102143011D01*
X95973946Y-101874054D01*
X95973947Y-101874048D01*
X95992692Y-101599999D01*
X97046807Y-101599999D01*
X97065556Y-101874116D01*
X97065557Y-101874122D01*
X97065558Y-101874130D01*
X97083238Y-101959210D01*
X97121460Y-102143146D01*
X97121462Y-102143154D01*
X97213408Y-102401865D01*
X97213477Y-102402058D01*
X97339752Y-102645759D01*
X97339892Y-102646028D01*
X97341724Y-102648623D01*
X97498343Y-102870502D01*
X97602366Y-102981883D01*
X97673482Y-103058030D01*
X97685889Y-103071314D01*
X97899031Y-103244718D01*
X98133800Y-103387484D01*
X98385823Y-103496953D01*
X98650404Y-103571085D01*
X98745504Y-103584156D01*
X98922604Y-103608499D01*
X98922615Y-103608500D01*
X99197385Y-103608500D01*
X99197395Y-103608499D01*
X99326945Y-103590692D01*
X99469596Y-103571085D01*
X99734177Y-103496953D01*
X99986200Y-103387484D01*
X100220969Y-103244718D01*
X100434111Y-103071314D01*
X100621657Y-102870502D01*
X100780111Y-102646023D01*
X100906523Y-102402058D01*
X100998538Y-102143153D01*
X101054442Y-101874130D01*
X101073193Y-101600000D01*
X101073193Y-101599999D01*
X102126807Y-101599999D01*
X102145556Y-101874116D01*
X102145557Y-101874122D01*
X102145558Y-101874130D01*
X102163238Y-101959210D01*
X102201460Y-102143146D01*
X102201462Y-102143154D01*
X102293408Y-102401865D01*
X102293477Y-102402058D01*
X102419752Y-102645759D01*
X102419892Y-102646028D01*
X102421724Y-102648623D01*
X102578343Y-102870502D01*
X102682366Y-102981883D01*
X102753482Y-103058030D01*
X102765889Y-103071314D01*
X102979031Y-103244718D01*
X103213800Y-103387484D01*
X103465823Y-103496953D01*
X103730404Y-103571085D01*
X103825504Y-103584156D01*
X104002604Y-103608499D01*
X104002615Y-103608500D01*
X104277385Y-103608500D01*
X104277395Y-103608499D01*
X104406945Y-103590692D01*
X104549596Y-103571085D01*
X104814177Y-103496953D01*
X105066200Y-103387484D01*
X105300969Y-103244718D01*
X105514111Y-103071314D01*
X105701657Y-102870502D01*
X105860111Y-102646023D01*
X105986523Y-102402058D01*
X106078538Y-102143153D01*
X106134442Y-101874130D01*
X106148558Y-101667765D01*
X125145788Y-101667765D01*
X125175412Y-101937014D01*
X125243928Y-102199090D01*
X125349869Y-102448389D01*
X125349870Y-102448390D01*
X125490982Y-102679610D01*
X125664255Y-102887820D01*
X125865998Y-103068582D01*
X126091910Y-103218044D01*
X126337176Y-103333020D01*
X126596569Y-103411060D01*
X126596572Y-103411060D01*
X126596574Y-103411061D01*
X126864557Y-103450500D01*
X126864561Y-103450500D01*
X127067633Y-103450500D01*
X127102363Y-103447957D01*
X127270156Y-103435677D01*
X127270160Y-103435676D01*
X127270161Y-103435676D01*
X127380665Y-103411060D01*
X127534553Y-103376780D01*
X127787558Y-103280014D01*
X128023777Y-103147441D01*
X128238177Y-102981888D01*
X128426186Y-102786881D01*
X128583799Y-102566579D01*
X128707656Y-102325675D01*
X128795118Y-102069305D01*
X128826560Y-101899082D01*
X128844318Y-101802941D01*
X128844319Y-101802930D01*
X128846943Y-101731123D01*
X128854212Y-101532235D01*
X128831507Y-101325883D01*
X128824587Y-101262985D01*
X128756071Y-101000909D01*
X128650130Y-100751610D01*
X128650130Y-100751609D01*
X128509018Y-100520390D01*
X128335745Y-100312180D01*
X128335741Y-100312177D01*
X128335740Y-100312175D01*
X128134012Y-100131427D01*
X128134002Y-100131418D01*
X127908090Y-99981956D01*
X127662824Y-99866980D01*
X127481794Y-99812516D01*
X127403425Y-99788938D01*
X127135442Y-99749500D01*
X127135439Y-99749500D01*
X126932369Y-99749500D01*
X126932367Y-99749500D01*
X126729839Y-99764323D01*
X126729838Y-99764323D01*
X126465456Y-99823217D01*
X126465441Y-99823222D01*
X126212441Y-99919986D01*
X125976229Y-100052555D01*
X125976225Y-100052557D01*
X125761818Y-100218116D01*
X125573815Y-100413117D01*
X125573810Y-100413123D01*
X125416203Y-100633417D01*
X125416196Y-100633427D01*
X125292343Y-100874324D01*
X125292342Y-100874327D01*
X125204883Y-101130689D01*
X125204880Y-101130702D01*
X125155681Y-101397058D01*
X125155680Y-101397069D01*
X125145788Y-101667765D01*
X106148558Y-101667765D01*
X106153193Y-101600000D01*
X106152626Y-101591715D01*
X106134443Y-101325883D01*
X106134442Y-101325877D01*
X106134442Y-101325870D01*
X106078538Y-101056847D01*
X105986523Y-100797942D01*
X105860111Y-100553977D01*
X105701657Y-100329498D01*
X105514111Y-100128686D01*
X105300969Y-99955282D01*
X105066200Y-99812516D01*
X105066201Y-99812516D01*
X105066197Y-99812514D01*
X104814180Y-99703048D01*
X104814178Y-99703047D01*
X104814177Y-99703047D01*
X104681886Y-99665981D01*
X104549593Y-99628914D01*
X104277395Y-99591500D01*
X104277385Y-99591500D01*
X104002615Y-99591500D01*
X104002604Y-99591500D01*
X103730406Y-99628914D01*
X103465819Y-99703048D01*
X103213802Y-99812514D01*
X102979028Y-99955284D01*
X102765886Y-100128688D01*
X102578343Y-100329498D01*
X102419892Y-100553971D01*
X102293477Y-100797941D01*
X102201462Y-101056845D01*
X102201460Y-101056853D01*
X102182295Y-101149082D01*
X102158627Y-101262982D01*
X102145557Y-101325877D01*
X102145556Y-101325883D01*
X102126807Y-101599995D01*
X102126807Y-101599999D01*
X101073193Y-101599999D01*
X101072626Y-101591715D01*
X101054443Y-101325883D01*
X101054442Y-101325877D01*
X101054442Y-101325870D01*
X100998538Y-101056847D01*
X100906523Y-100797942D01*
X100780111Y-100553977D01*
X100621657Y-100329498D01*
X100434111Y-100128686D01*
X100220969Y-99955282D01*
X99986200Y-99812516D01*
X99986201Y-99812516D01*
X99986197Y-99812514D01*
X99734180Y-99703048D01*
X99734178Y-99703047D01*
X99734177Y-99703047D01*
X99601886Y-99665981D01*
X99469593Y-99628914D01*
X99197395Y-99591500D01*
X99197385Y-99591500D01*
X98922615Y-99591500D01*
X98922604Y-99591500D01*
X98650406Y-99628914D01*
X98385819Y-99703048D01*
X98133802Y-99812514D01*
X97899028Y-99955284D01*
X97685886Y-100128688D01*
X97498343Y-100329498D01*
X97339892Y-100553971D01*
X97213477Y-100797941D01*
X97121462Y-101056845D01*
X97121460Y-101056853D01*
X97102295Y-101149082D01*
X97078627Y-101262982D01*
X97065557Y-101325877D01*
X97065556Y-101325883D01*
X97046807Y-101599995D01*
X97046807Y-101599999D01*
X95992692Y-101599999D01*
X95992692Y-101599995D01*
X95973947Y-101325951D01*
X95973946Y-101325945D01*
X95918057Y-101056988D01*
X95918055Y-101056980D01*
X95826061Y-100798134D01*
X95699685Y-100554243D01*
X95699681Y-100554237D01*
X95569457Y-100369750D01*
X94658899Y-101280307D01*
X94633941Y-101222447D01*
X94529244Y-101081815D01*
X94394938Y-100969118D01*
X94299567Y-100921221D01*
X95209283Y-100011504D01*
X95140680Y-99955691D01*
X94905969Y-99812961D01*
X94654010Y-99703519D01*
X94389490Y-99629404D01*
X94117364Y-99592000D01*
X93842635Y-99592000D01*
X93570509Y-99629404D01*
X93305989Y-99703519D01*
X93054030Y-99812961D01*
X92819325Y-99955687D01*
X92750715Y-100011505D01*
X92750714Y-100011505D01*
X93658201Y-100918992D01*
X93641109Y-100925213D01*
X93494627Y-101021555D01*
X93374312Y-101149082D01*
X93299482Y-101278691D01*
X92390541Y-100369750D01*
X92260317Y-100554236D01*
X92133938Y-100798134D01*
X92041944Y-101056980D01*
X92041942Y-101056988D01*
X91986053Y-101325945D01*
X91986052Y-101325951D01*
X91967308Y-101599995D01*
X91967308Y-101599999D01*
X90913193Y-101599999D01*
X90912626Y-101591715D01*
X90894443Y-101325883D01*
X90894442Y-101325877D01*
X90894442Y-101325870D01*
X90838538Y-101056847D01*
X90746523Y-100797942D01*
X90620111Y-100553977D01*
X90461657Y-100329498D01*
X90274111Y-100128686D01*
X90060969Y-99955282D01*
X89826200Y-99812516D01*
X89826201Y-99812516D01*
X89826197Y-99812514D01*
X89574180Y-99703048D01*
X89574178Y-99703047D01*
X89574177Y-99703047D01*
X89441886Y-99665981D01*
X89309593Y-99628914D01*
X89037395Y-99591500D01*
X89037385Y-99591500D01*
X88762615Y-99591500D01*
X88762604Y-99591500D01*
X88490406Y-99628914D01*
X88225819Y-99703048D01*
X87973802Y-99812514D01*
X87739028Y-99955284D01*
X87525886Y-100128688D01*
X87338343Y-100329498D01*
X87179892Y-100553971D01*
X87053477Y-100797941D01*
X86961462Y-101056845D01*
X86961460Y-101056853D01*
X86942295Y-101149082D01*
X86918627Y-101262982D01*
X86905557Y-101325877D01*
X86905556Y-101325883D01*
X86886807Y-101599995D01*
X86886807Y-101599999D01*
X85833193Y-101599999D01*
X85832626Y-101591715D01*
X85814443Y-101325883D01*
X85814442Y-101325877D01*
X85814442Y-101325870D01*
X85758538Y-101056847D01*
X85666523Y-100797942D01*
X85540111Y-100553977D01*
X85381657Y-100329498D01*
X85194111Y-100128686D01*
X84980969Y-99955282D01*
X84746200Y-99812516D01*
X84746201Y-99812516D01*
X84746197Y-99812514D01*
X84494180Y-99703048D01*
X84494178Y-99703047D01*
X84494177Y-99703047D01*
X84361886Y-99665981D01*
X84229593Y-99628914D01*
X83957395Y-99591500D01*
X83957385Y-99591500D01*
X83682615Y-99591500D01*
X83682604Y-99591500D01*
X83410406Y-99628914D01*
X83145819Y-99703048D01*
X82893802Y-99812514D01*
X82659028Y-99955284D01*
X82445886Y-100128688D01*
X82258343Y-100329498D01*
X82099892Y-100553971D01*
X81973477Y-100797941D01*
X81881462Y-101056845D01*
X81881460Y-101056853D01*
X81862295Y-101149082D01*
X81838627Y-101262982D01*
X81825557Y-101325877D01*
X81825556Y-101325883D01*
X81806807Y-101599995D01*
X81806807Y-101599999D01*
X78051735Y-101599999D01*
X78054212Y-101532235D01*
X78031507Y-101325883D01*
X78024587Y-101262985D01*
X77956071Y-101000909D01*
X77850130Y-100751610D01*
X77850129Y-100751610D01*
X77709018Y-100520390D01*
X77535745Y-100312180D01*
X77535741Y-100312177D01*
X77535740Y-100312175D01*
X77334012Y-100131427D01*
X77334002Y-100131418D01*
X77108090Y-99981956D01*
X76862824Y-99866980D01*
X76681794Y-99812516D01*
X76603425Y-99788938D01*
X76335442Y-99749500D01*
X76335439Y-99749500D01*
X76132369Y-99749500D01*
X76132367Y-99749500D01*
X75929839Y-99764323D01*
X75929838Y-99764323D01*
X75665456Y-99823217D01*
X75665441Y-99823222D01*
X75412441Y-99919986D01*
X75176229Y-100052555D01*
X75176225Y-100052557D01*
X74961818Y-100218116D01*
X74773815Y-100413117D01*
X74773810Y-100413123D01*
X74616203Y-100633417D01*
X74616196Y-100633427D01*
X74492343Y-100874324D01*
X74492342Y-100874327D01*
X74404883Y-101130689D01*
X74404880Y-101130702D01*
X74355681Y-101397058D01*
X74355680Y-101397069D01*
X74345788Y-101667765D01*
X71148303Y-101667765D01*
X71145500Y-101600000D01*
X71145500Y-101591715D01*
X71145500Y-97789999D01*
X91796496Y-97789999D01*
X91816457Y-97979927D01*
X91846526Y-98072470D01*
X91875473Y-98161556D01*
X91875476Y-98161561D01*
X91970958Y-98326941D01*
X91970965Y-98326951D01*
X92098744Y-98468864D01*
X92098747Y-98468866D01*
X92253248Y-98581118D01*
X92427712Y-98658794D01*
X92614513Y-98698500D01*
X92805487Y-98698500D01*
X92992288Y-98658794D01*
X93166752Y-98581118D01*
X93321253Y-98468866D01*
X93449040Y-98326944D01*
X93544527Y-98161556D01*
X93603542Y-97979928D01*
X93623504Y-97790000D01*
X93603542Y-97600072D01*
X93603541Y-97600068D01*
X93602252Y-97594004D01*
X93599499Y-97567808D01*
X93599499Y-93074282D01*
X93599499Y-88811628D01*
X93619501Y-88743511D01*
X93673157Y-88697018D01*
X93743431Y-88686914D01*
X93808011Y-88716408D01*
X93814594Y-88722537D01*
X94564509Y-89472452D01*
X94577348Y-89487483D01*
X94585332Y-89498472D01*
X94611954Y-89522442D01*
X94636297Y-89544360D01*
X94638652Y-89546595D01*
X94653994Y-89561937D01*
X94670867Y-89575600D01*
X94673331Y-89577706D01*
X94724285Y-89623585D01*
X94736043Y-89630373D01*
X94752334Y-89641570D01*
X94762871Y-89650103D01*
X94762879Y-89650109D01*
X94823949Y-89681225D01*
X94826817Y-89682782D01*
X94886215Y-89717075D01*
X94899121Y-89721268D01*
X94917382Y-89728832D01*
X94929475Y-89734994D01*
X94968360Y-89745413D01*
X94995684Y-89752734D01*
X94998842Y-89753669D01*
X95064044Y-89774855D01*
X95072040Y-89775695D01*
X95077541Y-89776274D01*
X95096974Y-89779875D01*
X95110085Y-89783388D01*
X95178553Y-89786975D01*
X95181795Y-89787230D01*
X95203380Y-89789500D01*
X95225064Y-89789500D01*
X95228334Y-89789585D01*
X95292260Y-89792935D01*
X95296809Y-89793174D01*
X95296809Y-89793173D01*
X95296810Y-89793174D01*
X95304489Y-89791957D01*
X95310215Y-89791051D01*
X95329925Y-89789500D01*
X95624978Y-89789500D01*
X95693099Y-89809502D01*
X95739592Y-89863158D01*
X95749696Y-89933432D01*
X95720202Y-89998012D01*
X95697249Y-90018713D01*
X95675703Y-90033799D01*
X95675697Y-90033804D01*
X95513804Y-90195697D01*
X95513799Y-90195703D01*
X95382477Y-90383250D01*
X95285717Y-90590753D01*
X95285715Y-90590759D01*
X95226457Y-90811913D01*
X95211500Y-90982874D01*
X95211500Y-91897126D01*
X95226457Y-92068086D01*
X95285715Y-92289240D01*
X95285717Y-92289246D01*
X95382477Y-92496749D01*
X95492905Y-92654457D01*
X95513802Y-92684300D01*
X95675700Y-92846198D01*
X95863251Y-92977523D01*
X96070757Y-93074284D01*
X96291913Y-93133543D01*
X96520000Y-93153498D01*
X96748087Y-93133543D01*
X96969243Y-93074284D01*
X97176749Y-92977523D01*
X97364300Y-92846198D01*
X97526198Y-92684300D01*
X97657523Y-92496749D01*
X97675804Y-92457543D01*
X97722721Y-92404258D01*
X97790998Y-92384796D01*
X97858958Y-92405337D01*
X97904195Y-92457543D01*
X97922477Y-92496749D01*
X97960025Y-92550373D01*
X98053801Y-92684300D01*
X98133594Y-92764093D01*
X98167620Y-92826405D01*
X98170499Y-92853188D01*
X98170499Y-93900074D01*
X98168949Y-93919778D01*
X98166825Y-93933189D01*
X98168858Y-93971964D01*
X98170414Y-94001671D01*
X98170500Y-94004944D01*
X98170500Y-94026624D01*
X98172765Y-94048175D01*
X98173024Y-94051464D01*
X98176610Y-94119908D01*
X98176611Y-94119919D01*
X98180125Y-94133033D01*
X98183726Y-94152463D01*
X98185144Y-94165957D01*
X98206328Y-94231150D01*
X98207256Y-94234284D01*
X98225006Y-94300524D01*
X98231165Y-94312613D01*
X98238729Y-94330872D01*
X98242925Y-94343785D01*
X98277209Y-94403167D01*
X98278774Y-94406050D01*
X98309891Y-94467123D01*
X98318430Y-94477667D01*
X98329629Y-94493961D01*
X98336415Y-94505715D01*
X98382285Y-94556660D01*
X98384427Y-94559168D01*
X98398063Y-94576006D01*
X98398068Y-94576012D01*
X98413377Y-94591320D01*
X98415647Y-94593712D01*
X98461530Y-94644669D01*
X98472509Y-94652646D01*
X98487545Y-94665488D01*
X100914508Y-97092450D01*
X100927349Y-97107484D01*
X100935332Y-97118472D01*
X100961958Y-97142445D01*
X100986307Y-97164369D01*
X100988662Y-97166604D01*
X101003992Y-97181934D01*
X101003998Y-97181940D01*
X101014060Y-97190088D01*
X101020839Y-97195577D01*
X101023316Y-97197692D01*
X101070035Y-97239759D01*
X101074286Y-97243586D01*
X101086037Y-97250370D01*
X101102327Y-97261565D01*
X101102338Y-97261573D01*
X101112879Y-97270109D01*
X101173949Y-97301225D01*
X101176817Y-97302782D01*
X101236215Y-97337075D01*
X101249122Y-97341268D01*
X101267385Y-97348834D01*
X101267393Y-97348838D01*
X101279475Y-97354994D01*
X101345732Y-97372747D01*
X101348810Y-97373659D01*
X101414044Y-97394855D01*
X101424189Y-97395921D01*
X101427530Y-97396272D01*
X101446977Y-97399876D01*
X101456367Y-97402392D01*
X101460084Y-97403388D01*
X101528554Y-97406975D01*
X101531796Y-97407230D01*
X101553380Y-97409500D01*
X101575063Y-97409500D01*
X101578333Y-97409585D01*
X101642259Y-97412935D01*
X101646808Y-97413174D01*
X101646808Y-97413173D01*
X101646809Y-97413174D01*
X101654488Y-97411957D01*
X101660214Y-97411051D01*
X101679924Y-97409500D01*
X109140075Y-97409500D01*
X109159785Y-97411050D01*
X109173190Y-97413174D01*
X109241671Y-97409585D01*
X109244944Y-97409500D01*
X109266612Y-97409500D01*
X109266620Y-97409500D01*
X109288227Y-97407228D01*
X109291409Y-97406978D01*
X109359915Y-97403389D01*
X109373020Y-97399876D01*
X109392471Y-97396272D01*
X109405956Y-97394855D01*
X109405958Y-97394854D01*
X109405960Y-97394854D01*
X109471142Y-97373674D01*
X109474291Y-97372740D01*
X109540524Y-97354994D01*
X109552613Y-97348833D01*
X109570877Y-97341268D01*
X109583785Y-97337075D01*
X109583788Y-97337073D01*
X109583789Y-97337073D01*
X109592850Y-97331840D01*
X109643185Y-97302779D01*
X109646038Y-97301231D01*
X109646050Y-97301225D01*
X109707125Y-97270107D01*
X109717671Y-97261565D01*
X109733959Y-97250371D01*
X109745715Y-97243585D01*
X109745718Y-97243581D01*
X109745720Y-97243581D01*
X109796653Y-97197720D01*
X109799162Y-97195577D01*
X109802223Y-97193097D01*
X109816006Y-97181937D01*
X109831345Y-97166597D01*
X109833713Y-97164350D01*
X109884669Y-97118470D01*
X109892654Y-97107478D01*
X109905483Y-97092458D01*
X112332452Y-94665488D01*
X112347486Y-94652649D01*
X112358466Y-94644672D01*
X112358466Y-94644671D01*
X112358470Y-94644669D01*
X112404369Y-94593691D01*
X112406606Y-94591335D01*
X112421936Y-94576006D01*
X112435587Y-94559147D01*
X112437677Y-94556699D01*
X112483585Y-94505715D01*
X112490372Y-94493957D01*
X112501568Y-94477667D01*
X112510106Y-94467125D01*
X112541229Y-94406042D01*
X112542778Y-94403187D01*
X112577075Y-94343785D01*
X112581267Y-94330879D01*
X112588838Y-94312606D01*
X112594992Y-94300529D01*
X112594992Y-94300528D01*
X112594994Y-94300525D01*
X112612747Y-94234266D01*
X112613664Y-94231174D01*
X112634855Y-94165956D01*
X112636273Y-94152463D01*
X112639875Y-94133023D01*
X112643388Y-94119916D01*
X112646975Y-94051447D01*
X112647231Y-94048200D01*
X112649500Y-94026620D01*
X112649500Y-94004937D01*
X112649586Y-94001646D01*
X112653174Y-93933191D01*
X112651050Y-93919778D01*
X112649500Y-93900076D01*
X112649500Y-92455500D01*
X112669502Y-92387379D01*
X112723158Y-92340886D01*
X112775500Y-92329500D01*
X113399948Y-92329500D01*
X113468069Y-92349502D01*
X113489043Y-92366404D01*
X113507319Y-92384681D01*
X113683403Y-92507976D01*
X113878223Y-92598822D01*
X114085858Y-92654458D01*
X114300000Y-92673193D01*
X114514142Y-92654458D01*
X114721777Y-92598822D01*
X114916597Y-92507976D01*
X115092681Y-92384681D01*
X115244681Y-92232681D01*
X115367976Y-92056597D01*
X115455805Y-91868244D01*
X115502722Y-91814961D01*
X115570999Y-91795500D01*
X115638959Y-91816042D01*
X115684194Y-91868244D01*
X115697662Y-91897127D01*
X115772024Y-92056597D01*
X115841591Y-92155950D01*
X115895319Y-92232681D01*
X116047319Y-92384681D01*
X116223403Y-92507976D01*
X116418223Y-92598822D01*
X116625858Y-92654458D01*
X116840000Y-92673193D01*
X117054142Y-92654458D01*
X117083841Y-92646500D01*
X127381000Y-92646500D01*
X127381000Y-93774597D01*
X127387505Y-93835093D01*
X127438555Y-93971964D01*
X127438555Y-93971965D01*
X127526095Y-94088904D01*
X127643034Y-94176444D01*
X127779906Y-94227494D01*
X127840402Y-94233999D01*
X127840415Y-94234000D01*
X129730500Y-94234000D01*
X129730500Y-92646500D01*
X127381000Y-92646500D01*
X117083841Y-92646500D01*
X117261777Y-92598822D01*
X117456597Y-92507976D01*
X117632681Y-92384681D01*
X117784681Y-92232681D01*
X117850627Y-92138500D01*
X127381000Y-92138500D01*
X129730500Y-92138500D01*
X129730500Y-90551000D01*
X127840402Y-90551000D01*
X127779906Y-90557505D01*
X127643035Y-90608555D01*
X127643034Y-90608555D01*
X127526095Y-90696095D01*
X127438555Y-90813034D01*
X127438555Y-90813035D01*
X127387505Y-90949906D01*
X127381000Y-91010402D01*
X127381000Y-92138500D01*
X117850627Y-92138500D01*
X117907976Y-92056597D01*
X117998822Y-91861777D01*
X118054458Y-91654142D01*
X118073193Y-91440000D01*
X118054458Y-91225858D01*
X117998822Y-91018223D01*
X117907976Y-90823404D01*
X117907975Y-90823403D01*
X117907974Y-90823400D01*
X117784685Y-90647323D01*
X117784676Y-90647313D01*
X117766404Y-90629041D01*
X117732378Y-90566729D01*
X117729499Y-90539946D01*
X117729499Y-90422455D01*
X117729499Y-90249911D01*
X117731049Y-90230221D01*
X117733174Y-90216810D01*
X117729585Y-90148327D01*
X117729500Y-90145055D01*
X117729500Y-90123387D01*
X117729500Y-90123380D01*
X117727232Y-90101815D01*
X117726975Y-90098539D01*
X117723390Y-90030094D01*
X117723389Y-90030091D01*
X117723389Y-90030085D01*
X117719874Y-90016969D01*
X117716272Y-89997529D01*
X117714855Y-89984044D01*
X117693664Y-89918828D01*
X117692736Y-89915692D01*
X117686558Y-89892636D01*
X117674994Y-89849476D01*
X117668830Y-89837379D01*
X117661270Y-89819126D01*
X117657075Y-89806215D01*
X117641868Y-89779876D01*
X117622794Y-89746838D01*
X117621220Y-89743939D01*
X117590108Y-89682877D01*
X117590105Y-89682872D01*
X117581570Y-89672333D01*
X117570368Y-89656034D01*
X117566947Y-89650109D01*
X117563585Y-89644285D01*
X117517702Y-89593327D01*
X117515581Y-89590843D01*
X117501937Y-89573994D01*
X117486595Y-89558652D01*
X117484360Y-89556297D01*
X117462442Y-89531954D01*
X117438472Y-89505332D01*
X117427483Y-89497348D01*
X117412452Y-89484509D01*
X113715488Y-85787545D01*
X113702646Y-85772509D01*
X113694669Y-85761530D01*
X113681189Y-85749392D01*
X113643950Y-85688945D01*
X113640270Y-85661500D01*
X127381000Y-85661500D01*
X127381000Y-86789597D01*
X127387505Y-86850093D01*
X127438555Y-86986964D01*
X127438555Y-86986965D01*
X127526095Y-87103904D01*
X127643034Y-87191444D01*
X127779906Y-87242494D01*
X127840402Y-87248999D01*
X127840415Y-87249000D01*
X129730500Y-87249000D01*
X129730500Y-85661500D01*
X127381000Y-85661500D01*
X113640270Y-85661500D01*
X113639500Y-85655756D01*
X113639500Y-85080372D01*
X113659502Y-85012251D01*
X113676400Y-84991281D01*
X113749030Y-84918652D01*
X113842115Y-84767738D01*
X113897887Y-84599426D01*
X113908500Y-84495545D01*
X113908500Y-84074000D01*
X114692000Y-84074000D01*
X114692000Y-84495516D01*
X114702605Y-84599318D01*
X114702606Y-84599321D01*
X114758342Y-84767525D01*
X114851365Y-84918339D01*
X114851370Y-84918345D01*
X114976654Y-85043629D01*
X114976660Y-85043634D01*
X115127474Y-85136657D01*
X115295678Y-85192393D01*
X115295681Y-85192394D01*
X115399483Y-85202999D01*
X115399483Y-85203000D01*
X115596000Y-85203000D01*
X115596000Y-84074000D01*
X116104000Y-84074000D01*
X116104000Y-85203000D01*
X116300517Y-85203000D01*
X116300516Y-85202999D01*
X116404318Y-85192394D01*
X116404321Y-85192393D01*
X116521695Y-85153500D01*
X127381000Y-85153500D01*
X129730500Y-85153500D01*
X129730500Y-83566000D01*
X127840402Y-83566000D01*
X127779906Y-83572505D01*
X127643035Y-83623555D01*
X127643034Y-83623555D01*
X127526095Y-83711095D01*
X127438555Y-83828034D01*
X127438555Y-83828035D01*
X127387505Y-83964906D01*
X127381000Y-84025402D01*
X127381000Y-85153500D01*
X116521695Y-85153500D01*
X116572525Y-85136657D01*
X116723339Y-85043634D01*
X116723345Y-85043629D01*
X116848629Y-84918345D01*
X116848634Y-84918339D01*
X116941657Y-84767525D01*
X116997393Y-84599321D01*
X116997394Y-84599318D01*
X117007999Y-84495516D01*
X117008000Y-84495516D01*
X117008000Y-84074000D01*
X116104000Y-84074000D01*
X115596000Y-84074000D01*
X114692000Y-84074000D01*
X113908500Y-84074000D01*
X113908499Y-83566000D01*
X114692000Y-83566000D01*
X115596000Y-83566000D01*
X115596000Y-82437000D01*
X116104000Y-82437000D01*
X116104000Y-83566000D01*
X117008000Y-83566000D01*
X117008000Y-83144483D01*
X116997394Y-83040681D01*
X116997393Y-83040678D01*
X116941657Y-82872474D01*
X116848634Y-82721660D01*
X116848629Y-82721654D01*
X116723345Y-82596370D01*
X116723339Y-82596365D01*
X116572525Y-82503342D01*
X116404321Y-82447606D01*
X116404318Y-82447605D01*
X116300516Y-82437000D01*
X116104000Y-82437000D01*
X115596000Y-82437000D01*
X115399483Y-82437000D01*
X115295681Y-82447605D01*
X115295678Y-82447606D01*
X115127474Y-82503342D01*
X114976660Y-82596365D01*
X114976654Y-82596370D01*
X114851370Y-82721654D01*
X114851365Y-82721660D01*
X114758342Y-82872474D01*
X114702606Y-83040678D01*
X114702605Y-83040681D01*
X114692000Y-83144483D01*
X114692000Y-83566000D01*
X113908499Y-83566000D01*
X113908499Y-83144456D01*
X113897887Y-83040574D01*
X113842115Y-82872262D01*
X113749030Y-82721348D01*
X113749029Y-82721347D01*
X113749024Y-82721341D01*
X113623658Y-82595975D01*
X113623652Y-82595970D01*
X113583737Y-82571350D01*
X113472738Y-82502885D01*
X113388380Y-82474932D01*
X113304427Y-82447113D01*
X113304420Y-82447112D01*
X113200553Y-82436500D01*
X112299455Y-82436500D01*
X112195574Y-82447112D01*
X112027261Y-82502885D01*
X111876347Y-82595970D01*
X111876341Y-82595975D01*
X111750975Y-82721341D01*
X111750970Y-82721347D01*
X111657885Y-82872262D01*
X111602113Y-83040572D01*
X111602112Y-83040579D01*
X111591500Y-83144446D01*
X111591500Y-84495544D01*
X111602112Y-84599425D01*
X111656910Y-84764796D01*
X111657885Y-84767738D01*
X111750970Y-84918652D01*
X111823596Y-84991278D01*
X111857620Y-85053588D01*
X111860500Y-85080372D01*
X111860500Y-85344500D01*
X111840498Y-85412621D01*
X111786842Y-85459114D01*
X111734500Y-85470500D01*
X105489671Y-85470500D01*
X105421550Y-85450498D01*
X105375057Y-85396842D01*
X105364953Y-85326568D01*
X105386658Y-85274167D01*
X105386568Y-85274118D01*
X105387029Y-85273272D01*
X105388804Y-85268989D01*
X105390889Y-85266204D01*
X105441989Y-85129201D01*
X105448500Y-85068638D01*
X105448500Y-82571362D01*
X105448499Y-82571350D01*
X105441990Y-82510803D01*
X105441988Y-82510795D01*
X105405811Y-82413804D01*
X105390889Y-82373796D01*
X105390888Y-82373794D01*
X105390887Y-82373792D01*
X105303261Y-82256738D01*
X105186207Y-82169112D01*
X105186202Y-82169110D01*
X105049204Y-82118011D01*
X105049196Y-82118009D01*
X104988649Y-82111500D01*
X104988638Y-82111500D01*
X103291362Y-82111500D01*
X103291350Y-82111500D01*
X103230803Y-82118009D01*
X103230795Y-82118011D01*
X103093797Y-82169110D01*
X103093792Y-82169112D01*
X102976738Y-82256738D01*
X102889112Y-82373792D01*
X102889110Y-82373797D01*
X102838011Y-82510795D01*
X102838009Y-82510803D01*
X102837000Y-82520197D01*
X102809831Y-82585790D01*
X102751513Y-82626281D01*
X102680562Y-82628815D01*
X102619504Y-82592588D01*
X102608510Y-82579001D01*
X102606203Y-82575706D01*
X102606195Y-82575697D01*
X102444302Y-82413804D01*
X102444296Y-82413799D01*
X102256749Y-82282477D01*
X102049246Y-82185717D01*
X102049240Y-82185715D01*
X101955771Y-82160670D01*
X101828087Y-82126457D01*
X101600000Y-82106502D01*
X101599999Y-82106502D01*
X101371913Y-82126457D01*
X101150759Y-82185715D01*
X101150753Y-82185717D01*
X100943250Y-82282477D01*
X100755703Y-82413799D01*
X100755697Y-82413804D01*
X100593804Y-82575697D01*
X100593799Y-82575703D01*
X100462477Y-82763250D01*
X100444195Y-82802457D01*
X100397278Y-82855742D01*
X100329001Y-82875203D01*
X100261041Y-82854661D01*
X100215805Y-82802457D01*
X100213894Y-82798359D01*
X100197523Y-82763251D01*
X100066198Y-82575700D01*
X99904300Y-82413802D01*
X99894317Y-82406812D01*
X99716749Y-82282477D01*
X99509246Y-82185717D01*
X99509240Y-82185715D01*
X99415771Y-82160670D01*
X99288087Y-82126457D01*
X99060000Y-82106502D01*
X98831913Y-82126457D01*
X98610759Y-82185715D01*
X98610753Y-82185717D01*
X98403250Y-82282477D01*
X98215703Y-82413799D01*
X98215697Y-82413804D01*
X98053804Y-82575697D01*
X98053799Y-82575703D01*
X97922477Y-82763250D01*
X97904195Y-82802457D01*
X97857278Y-82855742D01*
X97789001Y-82875203D01*
X97721041Y-82854661D01*
X97675805Y-82802457D01*
X97673894Y-82798359D01*
X97657523Y-82763251D01*
X97526198Y-82575700D01*
X97446404Y-82495906D01*
X97412379Y-82433595D01*
X97409500Y-82406812D01*
X97409500Y-81700633D01*
X97429502Y-81632512D01*
X97446405Y-81611538D01*
X98121538Y-80936405D01*
X98183850Y-80902379D01*
X98210633Y-80899500D01*
X102790075Y-80899500D01*
X102809785Y-80901050D01*
X102823190Y-80903174D01*
X102891671Y-80899585D01*
X102894944Y-80899500D01*
X102916612Y-80899500D01*
X102916620Y-80899500D01*
X102938227Y-80897228D01*
X102941409Y-80896978D01*
X103009915Y-80893389D01*
X103023020Y-80889876D01*
X103042471Y-80886272D01*
X103055956Y-80884855D01*
X103055958Y-80884854D01*
X103055960Y-80884854D01*
X103121142Y-80863674D01*
X103124291Y-80862740D01*
X103190524Y-80844994D01*
X103202613Y-80838833D01*
X103220877Y-80831268D01*
X103233785Y-80827075D01*
X103233788Y-80827073D01*
X103233789Y-80827073D01*
X103242850Y-80821840D01*
X103293185Y-80792779D01*
X103296038Y-80791231D01*
X103357125Y-80760107D01*
X103367671Y-80751565D01*
X103383959Y-80740371D01*
X103395715Y-80733585D01*
X103395718Y-80733581D01*
X103395720Y-80733581D01*
X103446653Y-80687720D01*
X103449162Y-80685577D01*
X103452223Y-80683097D01*
X103466006Y-80671937D01*
X103481345Y-80656597D01*
X103483701Y-80654360D01*
X103534669Y-80608470D01*
X103542654Y-80597478D01*
X103555483Y-80582458D01*
X104712458Y-79425483D01*
X104727478Y-79412654D01*
X104738470Y-79404669D01*
X104784360Y-79353701D01*
X104786597Y-79351345D01*
X104801937Y-79336006D01*
X104815587Y-79319147D01*
X104817691Y-79316683D01*
X104863585Y-79265715D01*
X104870371Y-79253959D01*
X104881578Y-79237655D01*
X104890105Y-79227126D01*
X104890106Y-79227125D01*
X104921229Y-79166042D01*
X104922778Y-79163187D01*
X104957075Y-79103785D01*
X104961267Y-79090879D01*
X104968838Y-79072606D01*
X104974994Y-79060525D01*
X104992737Y-78994300D01*
X104993662Y-78991177D01*
X105014855Y-78925956D01*
X105016272Y-78912465D01*
X105019877Y-78893019D01*
X105023387Y-78879917D01*
X105023388Y-78879915D01*
X105026975Y-78811442D01*
X105027230Y-78808209D01*
X105029500Y-78786620D01*
X105029500Y-78764936D01*
X105029585Y-78761664D01*
X105033174Y-78693190D01*
X105031051Y-78679785D01*
X105029500Y-78660075D01*
X105029500Y-77540449D01*
X105049502Y-77472328D01*
X105072250Y-77445869D01*
X105138815Y-77387286D01*
X105286230Y-77204716D01*
X105309446Y-77163158D01*
X105314535Y-77154049D01*
X105365220Y-77104334D01*
X105424534Y-77089500D01*
X107704317Y-77089500D01*
X107772438Y-77109502D01*
X107818931Y-77163158D01*
X107821670Y-77170134D01*
X107822882Y-77172734D01*
X107915970Y-77323652D01*
X107915975Y-77323658D01*
X108041341Y-77449024D01*
X108041347Y-77449029D01*
X108041348Y-77449030D01*
X108192261Y-77542115D01*
X108360573Y-77597887D01*
X108400527Y-77601968D01*
X108464446Y-77608500D01*
X108464454Y-77608500D01*
X109390554Y-77608500D01*
X109449906Y-77602435D01*
X109494427Y-77597887D01*
X109662739Y-77542115D01*
X109813652Y-77449030D01*
X109939030Y-77323652D01*
X110032115Y-77172739D01*
X110087887Y-77004427D01*
X110095933Y-76925672D01*
X110098500Y-76900554D01*
X110098500Y-76454000D01*
X110882001Y-76454000D01*
X110882001Y-76900509D01*
X110892605Y-77004319D01*
X110948342Y-77172526D01*
X111041365Y-77323339D01*
X111041370Y-77323345D01*
X111166654Y-77448629D01*
X111166660Y-77448634D01*
X111317473Y-77541657D01*
X111485677Y-77597393D01*
X111485680Y-77597394D01*
X111589482Y-77607999D01*
X111798500Y-77607999D01*
X111798500Y-76454000D01*
X112306500Y-76454000D01*
X112306500Y-77607999D01*
X112515509Y-77607999D01*
X112619319Y-77597394D01*
X112787526Y-77541657D01*
X112938339Y-77448634D01*
X112938345Y-77448629D01*
X113063629Y-77323345D01*
X113063634Y-77323339D01*
X113156657Y-77172526D01*
X113212393Y-77004322D01*
X113212394Y-77004319D01*
X113222999Y-76900517D01*
X113223000Y-76900517D01*
X113223000Y-76454000D01*
X112306500Y-76454000D01*
X111798500Y-76454000D01*
X110882001Y-76454000D01*
X110098500Y-76454000D01*
X110098500Y-76267765D01*
X125145788Y-76267765D01*
X125175412Y-76537014D01*
X125243928Y-76799090D01*
X125349869Y-77048389D01*
X125349870Y-77048390D01*
X125490982Y-77279610D01*
X125664255Y-77487820D01*
X125664257Y-77487822D01*
X125664259Y-77487824D01*
X125724341Y-77541657D01*
X125865998Y-77668582D01*
X126091910Y-77818044D01*
X126337176Y-77933020D01*
X126596569Y-78011060D01*
X126596572Y-78011060D01*
X126596574Y-78011061D01*
X126864557Y-78050500D01*
X126864561Y-78050500D01*
X127067633Y-78050500D01*
X127102363Y-78047957D01*
X127270156Y-78035677D01*
X127270160Y-78035676D01*
X127270161Y-78035676D01*
X127380665Y-78011060D01*
X127534553Y-77976780D01*
X127787558Y-77880014D01*
X128023777Y-77747441D01*
X128238177Y-77581888D01*
X128426186Y-77386881D01*
X128583799Y-77166579D01*
X128598069Y-77138825D01*
X128707656Y-76925675D01*
X128707657Y-76925672D01*
X128716239Y-76900517D01*
X128795118Y-76669305D01*
X128825912Y-76502588D01*
X128844318Y-76402941D01*
X128844319Y-76402930D01*
X128846011Y-76356631D01*
X128854212Y-76132235D01*
X128838434Y-75988835D01*
X128824587Y-75862985D01*
X128756071Y-75600909D01*
X128650130Y-75351610D01*
X128624590Y-75309761D01*
X128509018Y-75120390D01*
X128335745Y-74912180D01*
X128335741Y-74912177D01*
X128335740Y-74912175D01*
X128134012Y-74731427D01*
X128134002Y-74731418D01*
X127908090Y-74581956D01*
X127662824Y-74466980D01*
X127505392Y-74419615D01*
X127403425Y-74388938D01*
X127135442Y-74349500D01*
X127135439Y-74349500D01*
X126932369Y-74349500D01*
X126932367Y-74349500D01*
X126729839Y-74364323D01*
X126729838Y-74364323D01*
X126465456Y-74423217D01*
X126465441Y-74423222D01*
X126212441Y-74519986D01*
X125976229Y-74652555D01*
X125976225Y-74652557D01*
X125869328Y-74735100D01*
X125781906Y-74802605D01*
X125761818Y-74818116D01*
X125573815Y-75013117D01*
X125573810Y-75013123D01*
X125416203Y-75233417D01*
X125416196Y-75233427D01*
X125292343Y-75474324D01*
X125292342Y-75474327D01*
X125204883Y-75730689D01*
X125204880Y-75730702D01*
X125155681Y-75997058D01*
X125155680Y-75997069D01*
X125145788Y-76267765D01*
X110098500Y-76267765D01*
X110098500Y-75946000D01*
X110882000Y-75946000D01*
X111798500Y-75946000D01*
X111798500Y-74792000D01*
X112306500Y-74792000D01*
X112306500Y-75946000D01*
X113222999Y-75946000D01*
X113222999Y-75499490D01*
X113212394Y-75395680D01*
X113156657Y-75227473D01*
X113063634Y-75076660D01*
X113063629Y-75076654D01*
X112938345Y-74951370D01*
X112938339Y-74951365D01*
X112787526Y-74858342D01*
X112619322Y-74802606D01*
X112619319Y-74802605D01*
X112515517Y-74792000D01*
X112306500Y-74792000D01*
X111798500Y-74792000D01*
X111589490Y-74792000D01*
X111485680Y-74802605D01*
X111317473Y-74858342D01*
X111166660Y-74951365D01*
X111166654Y-74951370D01*
X111041370Y-75076654D01*
X111041365Y-75076660D01*
X110948342Y-75227473D01*
X110892606Y-75395677D01*
X110892605Y-75395680D01*
X110882000Y-75499482D01*
X110882000Y-75946000D01*
X110098500Y-75946000D01*
X110098500Y-75499445D01*
X110091677Y-75432673D01*
X110087887Y-75395573D01*
X110032115Y-75227261D01*
X109939030Y-75076348D01*
X109939029Y-75076347D01*
X109939024Y-75076341D01*
X109813658Y-74950975D01*
X109813652Y-74950970D01*
X109750756Y-74912175D01*
X109662739Y-74857885D01*
X109542710Y-74818112D01*
X109494428Y-74802113D01*
X109494421Y-74802112D01*
X109390554Y-74791500D01*
X109390546Y-74791500D01*
X108464454Y-74791500D01*
X108464446Y-74791500D01*
X108360578Y-74802112D01*
X108360571Y-74802113D01*
X108192261Y-74857885D01*
X108041347Y-74950970D01*
X108041341Y-74950975D01*
X107915975Y-75076341D01*
X107915970Y-75076347D01*
X107822882Y-75227265D01*
X107819783Y-75233913D01*
X107817793Y-75232985D01*
X107783503Y-75282508D01*
X107717945Y-75309761D01*
X107704317Y-75310500D01*
X105425005Y-75310500D01*
X105356884Y-75290498D01*
X105320614Y-75255058D01*
X105216400Y-75100868D01*
X105216396Y-75100864D01*
X105216394Y-75100861D01*
X105054035Y-74931459D01*
X105054034Y-74931458D01*
X105054033Y-74931457D01*
X104865371Y-74791923D01*
X104655841Y-74686280D01*
X104655835Y-74686278D01*
X104655830Y-74686276D01*
X104431471Y-74617568D01*
X104397930Y-74613273D01*
X104198717Y-74587763D01*
X104198713Y-74587763D01*
X104198705Y-74587762D01*
X103964272Y-74597721D01*
X103734881Y-74647159D01*
X103517147Y-74734652D01*
X103517143Y-74734654D01*
X103317337Y-74857680D01*
X103141188Y-75012710D01*
X102993769Y-75195285D01*
X102978559Y-75222513D01*
X102927874Y-75272228D01*
X102858357Y-75286648D01*
X102792080Y-75261196D01*
X102764168Y-75231619D01*
X102676009Y-75101184D01*
X102676008Y-75101183D01*
X102513703Y-74931836D01*
X102325107Y-74792351D01*
X102115649Y-74686744D01*
X102115643Y-74686742D01*
X101891361Y-74618057D01*
X101854000Y-74613273D01*
X101854000Y-75655775D01*
X101756631Y-75615444D01*
X101639323Y-75600000D01*
X101560677Y-75600000D01*
X101443369Y-75615444D01*
X101346000Y-75655775D01*
X101346000Y-74615102D01*
X101195026Y-74647640D01*
X100977375Y-74735100D01*
X100777627Y-74858090D01*
X100777625Y-74858092D01*
X100601552Y-75013056D01*
X100601544Y-75013065D01*
X100578336Y-75041808D01*
X100519979Y-75082243D01*
X100449025Y-75084708D01*
X100388002Y-75048421D01*
X100373063Y-75028799D01*
X100372115Y-75027263D01*
X100372115Y-75027261D01*
X100279030Y-74876348D01*
X100279029Y-74876347D01*
X100279024Y-74876341D01*
X100153658Y-74750975D01*
X100153652Y-74750970D01*
X100127200Y-74734654D01*
X100002739Y-74657885D01*
X99873626Y-74615102D01*
X99834428Y-74602113D01*
X99834421Y-74602112D01*
X99730554Y-74591500D01*
X99730546Y-74591500D01*
X98389454Y-74591500D01*
X98389446Y-74591500D01*
X98285578Y-74602112D01*
X98285571Y-74602113D01*
X98117261Y-74657885D01*
X97966347Y-74750970D01*
X97966341Y-74750975D01*
X97840975Y-74876341D01*
X97840970Y-74876347D01*
X97747885Y-75027261D01*
X97692113Y-75195571D01*
X97692112Y-75195573D01*
X97692113Y-75195573D01*
X97691935Y-75197306D01*
X97691528Y-75198304D01*
X97690674Y-75202298D01*
X97689961Y-75202145D01*
X97665116Y-75263039D01*
X97607014Y-75303839D01*
X97566589Y-75310500D01*
X95495683Y-75310500D01*
X95427562Y-75290498D01*
X95381069Y-75236842D01*
X95378329Y-75229865D01*
X95377117Y-75227265D01*
X95361717Y-75202298D01*
X95284030Y-75076348D01*
X95284029Y-75076347D01*
X95284024Y-75076341D01*
X95158658Y-74950975D01*
X95158652Y-74950970D01*
X95095756Y-74912175D01*
X95007739Y-74857885D01*
X94887710Y-74818112D01*
X94839428Y-74802113D01*
X94839421Y-74802112D01*
X94735554Y-74791500D01*
X94735546Y-74791500D01*
X93809454Y-74791500D01*
X93809446Y-74791500D01*
X93705578Y-74802112D01*
X93705571Y-74802113D01*
X93537261Y-74857885D01*
X93386347Y-74950970D01*
X93386341Y-74950975D01*
X93260975Y-75076341D01*
X93260970Y-75076347D01*
X93167885Y-75227261D01*
X93112113Y-75395571D01*
X93112112Y-75395578D01*
X93101500Y-75499445D01*
X93101500Y-76900554D01*
X93101499Y-76900554D01*
X93112112Y-77004421D01*
X93112113Y-77004428D01*
X93139999Y-77088582D01*
X93167885Y-77172739D01*
X93260257Y-77322496D01*
X93260970Y-77323652D01*
X93260975Y-77323658D01*
X93386341Y-77449024D01*
X93386347Y-77449029D01*
X93386348Y-77449030D01*
X93537261Y-77542115D01*
X93705573Y-77597887D01*
X93745527Y-77601968D01*
X93809446Y-77608500D01*
X93809454Y-77608500D01*
X94735554Y-77608500D01*
X94794906Y-77602435D01*
X94839427Y-77597887D01*
X95007739Y-77542115D01*
X95158652Y-77449030D01*
X95284030Y-77323652D01*
X95377115Y-77172739D01*
X95377117Y-77172734D01*
X95380217Y-77166087D01*
X95382206Y-77167014D01*
X95416497Y-77117492D01*
X95482055Y-77090239D01*
X95495683Y-77089500D01*
X96608367Y-77089500D01*
X96676488Y-77109502D01*
X96722981Y-77163158D01*
X96733085Y-77233432D01*
X96703591Y-77298012D01*
X96697462Y-77304595D01*
X93407544Y-80594511D01*
X93392518Y-80607346D01*
X93381529Y-80615330D01*
X93335665Y-80666267D01*
X93333398Y-80668657D01*
X93318065Y-80683991D01*
X93318057Y-80684000D01*
X93304412Y-80700848D01*
X93302274Y-80703352D01*
X93256418Y-80754281D01*
X93256410Y-80754292D01*
X93249626Y-80766042D01*
X93238431Y-80782331D01*
X93229893Y-80792874D01*
X93198773Y-80853950D01*
X93197199Y-80856848D01*
X93162925Y-80916214D01*
X93162923Y-80916217D01*
X93158731Y-80929120D01*
X93151168Y-80947381D01*
X93145007Y-80959473D01*
X93127261Y-81025696D01*
X93126325Y-81028858D01*
X93105144Y-81094042D01*
X93103726Y-81107538D01*
X93100125Y-81126968D01*
X93096610Y-81140087D01*
X93093024Y-81208534D01*
X93092765Y-81211822D01*
X93090500Y-81233371D01*
X93090500Y-81255055D01*
X93090414Y-81258327D01*
X93089093Y-81283546D01*
X93086825Y-81326807D01*
X93088949Y-81340212D01*
X93090500Y-81359924D01*
X93090500Y-82816484D01*
X93070498Y-82884605D01*
X93016842Y-82931098D01*
X92946568Y-82941202D01*
X92938303Y-82939731D01*
X92805487Y-82911500D01*
X92614513Y-82911500D01*
X92427711Y-82951206D01*
X92253247Y-83028882D01*
X92098744Y-83141135D01*
X91970965Y-83283048D01*
X91970958Y-83283058D01*
X91875476Y-83448438D01*
X91875473Y-83448445D01*
X91816457Y-83630072D01*
X91807942Y-83711095D01*
X91796496Y-83820000D01*
X91816458Y-84009928D01*
X91816459Y-84009931D01*
X91817747Y-84015991D01*
X91820500Y-84042186D01*
X91820500Y-97567811D01*
X91817746Y-97594009D01*
X91816458Y-97600067D01*
X91796496Y-97789999D01*
X71145500Y-97789999D01*
X71145500Y-94360000D01*
X71165502Y-94291879D01*
X71219158Y-94245386D01*
X71271500Y-94234000D01*
X72961500Y-94234000D01*
X72961500Y-92646500D01*
X73469500Y-92646500D01*
X73469500Y-94234000D01*
X75359585Y-94234000D01*
X75359597Y-94233999D01*
X75420093Y-94227494D01*
X75556964Y-94176444D01*
X75556965Y-94176444D01*
X75673904Y-94088904D01*
X75761444Y-93971965D01*
X75761444Y-93971964D01*
X75812494Y-93835093D01*
X75818999Y-93774597D01*
X75819000Y-93774585D01*
X75819000Y-92646500D01*
X73469500Y-92646500D01*
X72961500Y-92646500D01*
X72961500Y-90551000D01*
X73469500Y-90551000D01*
X73469500Y-92138500D01*
X75819000Y-92138500D01*
X75819000Y-91010414D01*
X75818999Y-91010402D01*
X75812494Y-90949906D01*
X75761444Y-90813035D01*
X75761444Y-90813034D01*
X75673904Y-90696095D01*
X75556965Y-90608555D01*
X75420093Y-90557505D01*
X75359597Y-90551000D01*
X73469500Y-90551000D01*
X72961500Y-90551000D01*
X71271500Y-90551000D01*
X71203379Y-90530998D01*
X71156886Y-90477342D01*
X71145500Y-90425000D01*
X71145500Y-87375000D01*
X71165502Y-87306879D01*
X71219158Y-87260386D01*
X71271500Y-87249000D01*
X72961500Y-87249000D01*
X72961500Y-85661500D01*
X73469500Y-85661500D01*
X73469500Y-87249000D01*
X75359585Y-87249000D01*
X75359597Y-87248999D01*
X75420093Y-87242494D01*
X75556964Y-87191444D01*
X75556965Y-87191444D01*
X75673904Y-87103904D01*
X75761444Y-86986965D01*
X75761444Y-86986964D01*
X75812494Y-86850093D01*
X75818999Y-86789597D01*
X75819000Y-86789585D01*
X75819000Y-85661500D01*
X73469500Y-85661500D01*
X72961500Y-85661500D01*
X72961500Y-83566000D01*
X73469500Y-83566000D01*
X73469500Y-85153500D01*
X75819000Y-85153500D01*
X75819000Y-84025414D01*
X75818999Y-84025402D01*
X75812494Y-83964906D01*
X75761444Y-83828035D01*
X75761444Y-83828034D01*
X75673904Y-83711095D01*
X75556965Y-83623555D01*
X75420093Y-83572505D01*
X75359597Y-83566000D01*
X73469500Y-83566000D01*
X72961500Y-83566000D01*
X71271500Y-83566000D01*
X71203379Y-83545998D01*
X71156886Y-83492342D01*
X71145500Y-83440000D01*
X71145500Y-76267765D01*
X74345788Y-76267765D01*
X74375412Y-76537014D01*
X74443928Y-76799090D01*
X74549869Y-77048389D01*
X74549870Y-77048390D01*
X74690982Y-77279610D01*
X74864255Y-77487820D01*
X74864257Y-77487822D01*
X74864259Y-77487824D01*
X74924341Y-77541657D01*
X75065998Y-77668582D01*
X75291910Y-77818044D01*
X75537176Y-77933020D01*
X75796569Y-78011060D01*
X75796572Y-78011060D01*
X75796574Y-78011061D01*
X76064557Y-78050500D01*
X76064561Y-78050500D01*
X76267633Y-78050500D01*
X76302363Y-78047957D01*
X76470156Y-78035677D01*
X76470160Y-78035676D01*
X76470161Y-78035676D01*
X76580665Y-78011060D01*
X76734553Y-77976780D01*
X76987558Y-77880014D01*
X77223777Y-77747441D01*
X77438177Y-77581888D01*
X77626186Y-77386881D01*
X77783799Y-77166579D01*
X77798069Y-77138825D01*
X77907656Y-76925675D01*
X77907657Y-76925672D01*
X77916239Y-76900517D01*
X77995118Y-76669305D01*
X78025912Y-76502588D01*
X78034887Y-76454000D01*
X89977001Y-76454000D01*
X89977001Y-76900509D01*
X89987605Y-77004319D01*
X90043342Y-77172526D01*
X90136365Y-77323339D01*
X90136370Y-77323345D01*
X90261654Y-77448629D01*
X90261660Y-77448634D01*
X90412473Y-77541657D01*
X90580677Y-77597393D01*
X90580680Y-77597394D01*
X90684482Y-77607999D01*
X90893500Y-77607999D01*
X90893500Y-76454000D01*
X91401500Y-76454000D01*
X91401500Y-77607999D01*
X91610509Y-77607999D01*
X91714319Y-77597394D01*
X91882526Y-77541657D01*
X92033339Y-77448634D01*
X92033345Y-77448629D01*
X92158629Y-77323345D01*
X92158634Y-77323339D01*
X92251657Y-77172526D01*
X92307393Y-77004322D01*
X92307394Y-77004319D01*
X92317999Y-76900517D01*
X92318000Y-76900517D01*
X92318000Y-76454000D01*
X91401500Y-76454000D01*
X90893500Y-76454000D01*
X89977001Y-76454000D01*
X78034887Y-76454000D01*
X78044318Y-76402941D01*
X78044319Y-76402930D01*
X78046011Y-76356631D01*
X78054212Y-76132235D01*
X78038434Y-75988835D01*
X78033721Y-75946000D01*
X89977000Y-75946000D01*
X90893500Y-75946000D01*
X90893500Y-74792000D01*
X91401500Y-74792000D01*
X91401500Y-75946000D01*
X92317999Y-75946000D01*
X92317999Y-75499490D01*
X92307394Y-75395680D01*
X92251657Y-75227473D01*
X92158634Y-75076660D01*
X92158629Y-75076654D01*
X92033345Y-74951370D01*
X92033339Y-74951365D01*
X91882526Y-74858342D01*
X91714322Y-74802606D01*
X91714319Y-74802605D01*
X91610517Y-74792000D01*
X91401500Y-74792000D01*
X90893500Y-74792000D01*
X90684490Y-74792000D01*
X90580680Y-74802605D01*
X90412473Y-74858342D01*
X90261660Y-74951365D01*
X90261654Y-74951370D01*
X90136370Y-75076654D01*
X90136365Y-75076660D01*
X90043342Y-75227473D01*
X89987606Y-75395677D01*
X89987605Y-75395680D01*
X89977000Y-75499482D01*
X89977000Y-75946000D01*
X78033721Y-75946000D01*
X78024587Y-75862985D01*
X77956071Y-75600909D01*
X77850130Y-75351610D01*
X77824590Y-75309761D01*
X77709018Y-75120390D01*
X77535745Y-74912180D01*
X77535741Y-74912177D01*
X77535740Y-74912175D01*
X77334012Y-74731427D01*
X77334002Y-74731418D01*
X77108090Y-74581956D01*
X76862824Y-74466980D01*
X76705392Y-74419615D01*
X76603425Y-74388938D01*
X76335442Y-74349500D01*
X76335439Y-74349500D01*
X76132369Y-74349500D01*
X76132367Y-74349500D01*
X75929839Y-74364323D01*
X75929838Y-74364323D01*
X75665456Y-74423217D01*
X75665441Y-74423222D01*
X75412441Y-74519986D01*
X75176229Y-74652555D01*
X75176225Y-74652557D01*
X75069328Y-74735100D01*
X74981906Y-74802605D01*
X74961818Y-74818116D01*
X74773815Y-75013117D01*
X74773810Y-75013123D01*
X74616203Y-75233417D01*
X74616196Y-75233427D01*
X74492343Y-75474324D01*
X74492342Y-75474327D01*
X74404883Y-75730689D01*
X74404880Y-75730702D01*
X74355681Y-75997058D01*
X74355680Y-75997069D01*
X74345788Y-76267765D01*
X71145500Y-76267765D01*
X71145500Y-76200000D01*
X71153893Y-75997069D01*
X71162657Y-75785175D01*
X71163081Y-75780053D01*
X71214116Y-75370631D01*
X71214967Y-75365526D01*
X71299636Y-74961720D01*
X71300903Y-74956716D01*
X71418627Y-74561291D01*
X71420314Y-74556380D01*
X71570279Y-74172052D01*
X71572372Y-74167281D01*
X71675776Y-73955765D01*
X71753558Y-73796659D01*
X71756031Y-73792090D01*
X71967219Y-73437670D01*
X71970052Y-73433335D01*
X72114677Y-73230776D01*
X72209773Y-73097586D01*
X72212972Y-73093475D01*
X72479607Y-72778659D01*
X72483111Y-72774851D01*
X72774851Y-72483111D01*
X72778659Y-72479607D01*
X73093475Y-72212972D01*
X73097586Y-72209773D01*
X73265456Y-72089915D01*
X73433335Y-71970052D01*
X73437670Y-71967219D01*
X73792093Y-71756029D01*
X73796659Y-71753558D01*
X74167288Y-71572368D01*
X74172052Y-71570279D01*
X74556380Y-71420314D01*
X74561291Y-71418627D01*
X74956716Y-71300903D01*
X74961720Y-71299636D01*
X75365526Y-71214967D01*
X75370631Y-71214116D01*
X75780053Y-71163081D01*
X75785175Y-71162657D01*
X76187169Y-71146030D01*
X76200001Y-71145500D01*
X76208285Y-71145500D01*
X126991715Y-71145500D01*
X126999999Y-71145500D01*
X127013240Y-71146047D01*
G37*
G04 #@! TD.AperFunction*
M02*
